M48
; DRILL file {KiCad 8.0.2} date 2024-05-20T22:27:25+0200
; FORMAT={-:-/ absolute / inch / decimal}
; #@! TF.CreationDate,2024-05-20T22:27:25+02:00
; #@! TF.GenerationSoftware,Kicad,Pcbnew,8.0.2
; #@! TF.FileFunction,Plated,1,2,PTH
FMAT,2
INCH
; #@! TA.AperFunction,Plated,PTH,ComponentDrill
T1C0.0315
; #@! TA.AperFunction,Plated,PTH,ComponentDrill
T2C0.0394
%
G90
G05
T1
X4.8Y-3.0
X4.8Y-3.1
X4.8Y-3.2
X4.8Y-3.3
X4.8Y-3.4
X4.8Y-3.5
X4.8Y-3.6
X4.8Y-3.7
X4.8Y-3.8
X4.8Y-3.9
X4.8Y-4.0
X4.8Y-4.1
X4.8Y-4.2
X4.8Y-4.3
X4.8Y-4.4
X4.8Y-4.5
X4.8Y-4.6
X4.8Y-4.7
X4.8Y-4.8
X4.8Y-4.9
X4.8Y-5.0
X4.8Y-5.1
X4.8Y-5.2
X4.8Y-5.3
X4.8Y-5.4
X4.8Y-5.5
X4.8Y-5.6
X4.8Y-5.7
X4.8Y-5.8
X4.8Y-5.9
X4.8Y-6.0
X4.8Y-6.1
X4.8Y-6.2
X4.8Y-6.3
X4.8Y-6.4
X4.8Y-6.5
X4.8Y-6.6
X4.8Y-6.7
X4.8Y-6.8
X4.8Y-6.9
X4.8Y-7.0
X4.8Y-7.1
X4.8Y-7.2
X4.8Y-7.3
X4.8Y-7.4
X4.8Y-7.5
X4.8Y-7.6
X4.8Y-7.7
X4.8Y-7.8
X4.8Y-7.9
X4.8Y-8.0
X4.8Y-8.1
X4.8Y-8.2
X4.8Y-8.3
X4.9Y-3.0
X4.9Y-3.1
X4.9Y-3.2
X4.9Y-3.3
X4.9Y-3.4
X4.9Y-3.5
X4.9Y-3.6
X4.9Y-3.7
X4.9Y-3.8
X4.9Y-3.9
X4.9Y-4.0
X4.9Y-4.1
X4.9Y-4.2
X4.9Y-4.3
X4.9Y-4.4
X4.9Y-4.5
X4.9Y-4.6
X4.9Y-4.7
X4.9Y-4.8
X4.9Y-4.9
X4.9Y-5.0
X4.9Y-5.1
X4.9Y-5.2
X4.9Y-5.3
X4.9Y-5.4
X4.9Y-5.5
X4.9Y-5.6
X4.9Y-5.7
X4.9Y-5.8
X4.9Y-5.9
X4.9Y-6.0
X4.9Y-6.1
X4.9Y-6.2
X4.9Y-6.3
X4.9Y-6.4
X4.9Y-6.5
X4.9Y-6.6
X4.9Y-6.7
X4.9Y-6.8
X4.9Y-6.9
X4.9Y-7.0
X4.9Y-7.1
X4.9Y-7.2
X4.9Y-7.3
X4.9Y-7.4
X4.9Y-7.5
X4.9Y-7.6
X4.9Y-7.7
X4.9Y-7.8
X4.9Y-7.9
X4.9Y-8.0
X4.9Y-8.1
X4.9Y-8.2
X4.9Y-8.3
X5.0Y-3.0
X5.0Y-3.1
X5.0Y-3.2
X5.0Y-3.3
X5.0Y-3.4
X5.0Y-3.5
X5.0Y-3.6
X5.0Y-3.7
X5.0Y-3.8
X5.0Y-3.9
X5.0Y-4.0
X5.0Y-4.1
X5.0Y-4.2
X5.0Y-4.3
X5.0Y-4.4
X5.0Y-4.5
X5.0Y-4.6
X5.0Y-4.7
X5.0Y-4.8
X5.0Y-4.9
X5.0Y-5.0
X5.0Y-5.1
X5.0Y-5.2
X5.0Y-5.3
X5.0Y-5.4
X5.0Y-5.5
X5.0Y-5.6
X5.0Y-5.7
X5.0Y-5.8
X5.0Y-5.9
X5.0Y-6.0
X5.0Y-6.1
X5.0Y-6.2
X5.0Y-6.3
X5.0Y-6.4
X5.0Y-6.5
X5.0Y-6.6
X5.0Y-6.7
X5.0Y-6.8
X5.0Y-6.9
X5.0Y-7.0
X5.0Y-7.1
X5.0Y-7.2
X5.0Y-7.3
X5.0Y-7.4
X5.0Y-7.5
X5.0Y-7.6
X5.0Y-7.7
X5.0Y-7.8
X5.0Y-7.9
X5.0Y-8.0
X5.0Y-8.1
X5.0Y-8.2
X5.0Y-8.3
X5.1Y-3.0
X5.1Y-3.1
X5.1Y-3.2
X5.1Y-3.3
X5.1Y-3.4
X5.1Y-3.5
X5.1Y-3.6
X5.1Y-3.7
X5.1Y-3.8
X5.1Y-3.9
X5.1Y-4.0
X5.1Y-4.1
X5.1Y-4.2
X5.1Y-4.3
X5.1Y-4.4
X5.1Y-4.5
X5.1Y-4.6
X5.1Y-4.7
X5.1Y-4.8
X5.1Y-4.9
X5.1Y-5.0
X5.1Y-5.1
X5.1Y-5.2
X5.1Y-5.3
X5.1Y-5.4
X5.1Y-5.5
X5.1Y-5.6
X5.1Y-5.7
X5.1Y-5.8
X5.1Y-5.9
X5.1Y-6.0
X5.1Y-6.1
X5.1Y-6.2
X5.1Y-6.3
X5.1Y-6.4
X5.1Y-6.5
X5.1Y-6.6
X5.1Y-6.7
X5.1Y-6.8
X5.1Y-6.9
X5.1Y-7.0
X5.1Y-7.1
X5.1Y-7.2
X5.1Y-7.3
X5.1Y-7.4
X5.1Y-7.5
X5.1Y-7.6
X5.1Y-7.7
X5.1Y-7.8
X5.1Y-7.9
X5.1Y-8.0
X5.1Y-8.1
X5.1Y-8.2
X5.1Y-8.3
X5.2Y-3.0
X5.2Y-3.1
X5.2Y-3.2
X5.2Y-3.3
X5.2Y-3.4
X5.2Y-3.5
X5.2Y-3.6
X5.2Y-3.7
X5.2Y-3.8
X5.2Y-3.9
X5.2Y-4.0
X5.2Y-4.1
X5.2Y-4.2
X5.2Y-4.3
X5.2Y-4.4
X5.2Y-4.5
X5.2Y-4.6
X5.2Y-4.7
X5.2Y-4.8
X5.2Y-4.9
X5.2Y-5.0
X5.2Y-5.1
X5.2Y-5.2
X5.2Y-5.3
X5.2Y-5.4
X5.2Y-5.5
X5.2Y-5.6
X5.2Y-5.7
X5.2Y-5.8
X5.2Y-5.9
X5.2Y-6.0
X5.2Y-6.1
X5.2Y-6.2
X5.2Y-6.3
X5.2Y-6.4
X5.2Y-6.5
X5.2Y-6.6
X5.2Y-6.7
X5.2Y-6.8
X5.2Y-6.9
X5.2Y-7.0
X5.2Y-7.1
X5.2Y-7.2
X5.2Y-7.3
X5.2Y-7.4
X5.2Y-7.5
X5.2Y-7.6
X5.2Y-7.7
X5.2Y-7.8
X5.2Y-7.9
X5.2Y-8.0
X5.2Y-8.1
X5.2Y-8.2
X5.2Y-8.3
X5.3Y-3.0
X5.3Y-3.1
X5.3Y-3.2
X5.3Y-3.3
X5.3Y-3.4
X5.3Y-3.5
X5.3Y-3.6
X5.3Y-3.7
X5.3Y-3.8
X5.3Y-3.9
X5.3Y-4.0
X5.3Y-4.1
X5.3Y-4.2
X5.3Y-4.3
X5.3Y-4.4
X5.3Y-4.5
X5.3Y-4.6
X5.3Y-4.7
X5.3Y-4.8
X5.3Y-4.9
X5.3Y-5.0
X5.3Y-5.1
X5.3Y-5.2
X5.3Y-5.3
X5.3Y-5.4
X5.3Y-5.5
X5.3Y-5.6
X5.3Y-5.7
X5.3Y-5.8
X5.3Y-5.9
X5.3Y-6.0
X5.3Y-6.1
X5.3Y-6.2
X5.3Y-6.3
X5.3Y-6.4
X5.3Y-6.5
X5.3Y-6.6
X5.3Y-6.7
X5.3Y-6.8
X5.3Y-6.9
X5.3Y-7.0
X5.3Y-7.1
X5.3Y-7.2
X5.3Y-7.3
X5.3Y-7.4
X5.3Y-7.5
X5.3Y-7.6
X5.3Y-7.7
X5.3Y-7.8
X5.3Y-7.9
X5.3Y-8.0
X5.3Y-8.1
X5.3Y-8.2
X5.3Y-8.3
X5.4Y-3.0
X5.4Y-3.1
X5.4Y-3.2
X5.4Y-3.3
X5.4Y-3.4
X5.4Y-3.5
X5.4Y-3.6
X5.4Y-3.7
X5.4Y-3.8
X5.4Y-3.9
X5.4Y-4.0
X5.4Y-4.1
X5.4Y-4.2
X5.4Y-4.3
X5.4Y-4.4
X5.4Y-4.5
X5.4Y-4.6
X5.4Y-4.7
X5.4Y-4.8
X5.4Y-4.9
X5.4Y-5.0
X5.4Y-5.1
X5.4Y-5.2
X5.4Y-5.3
X5.4Y-5.4
X5.4Y-5.5
X5.4Y-5.6
X5.4Y-5.7
X5.4Y-5.8
X5.4Y-5.9
X5.4Y-6.0
X5.4Y-6.1
X5.4Y-6.2
X5.4Y-6.3
X5.4Y-6.4
X5.4Y-6.5
X5.4Y-6.6
X5.4Y-6.7
X5.4Y-6.8
X5.4Y-6.9
X5.4Y-7.0
X5.4Y-7.1
X5.4Y-7.2
X5.4Y-7.3
X5.4Y-7.4
X5.4Y-7.5
X5.4Y-7.6
X5.4Y-7.7
X5.4Y-7.8
X5.4Y-7.9
X5.4Y-8.0
X5.4Y-8.1
X5.4Y-8.2
X5.4Y-8.3
X5.5Y-3.0
X5.5Y-3.1
X5.5Y-3.2
X5.5Y-3.3
X5.5Y-3.4
X5.5Y-3.5
X5.5Y-3.6
X5.5Y-3.7
X5.5Y-3.8
X5.5Y-3.9
X5.5Y-4.0
X5.5Y-4.1
X5.5Y-4.2
X5.5Y-4.3
X5.5Y-4.4
X5.5Y-4.5
X5.5Y-4.6
X5.5Y-4.7
X5.5Y-4.8
X5.5Y-4.9
X5.5Y-5.0
X5.5Y-5.1
X5.5Y-5.2
X5.5Y-5.3
X5.5Y-5.4
X5.5Y-5.5
X5.5Y-5.6
X5.5Y-5.7
X5.5Y-5.8
X5.5Y-5.9
X5.5Y-6.0
X5.5Y-6.1
X5.5Y-6.2
X5.5Y-6.3
X5.5Y-6.4
X5.5Y-6.5
X5.5Y-6.6
X5.5Y-6.7
X5.5Y-6.8
X5.5Y-6.9
X5.5Y-7.0
X5.5Y-7.1
X5.5Y-7.2
X5.5Y-7.3
X5.5Y-7.4
X5.5Y-7.5
X5.5Y-7.6
X5.5Y-7.7
X5.5Y-7.8
X5.5Y-7.9
X5.5Y-8.0
X5.5Y-8.1
X5.5Y-8.2
X5.5Y-8.3
X5.6Y-3.0
X5.6Y-3.1
X5.6Y-3.2
X5.6Y-3.3
X5.6Y-3.4
X5.6Y-3.5
X5.6Y-3.6
X5.6Y-3.7
X5.6Y-3.8
X5.6Y-3.9
X5.6Y-4.0
X5.6Y-4.1
X5.6Y-4.2
X5.6Y-4.3
X5.6Y-4.4
X5.6Y-4.5
X5.6Y-4.6
X5.6Y-4.7
X5.6Y-4.8
X5.6Y-4.9
X5.6Y-5.0
X5.6Y-5.1
X5.6Y-5.2
X5.6Y-5.3
X5.6Y-5.4
X5.6Y-5.5
X5.6Y-5.6
X5.6Y-5.7
X5.6Y-5.8
X5.6Y-5.9
X5.6Y-6.0
X5.6Y-6.1
X5.6Y-6.2
X5.6Y-6.3
X5.6Y-6.4
X5.6Y-6.5
X5.6Y-6.6
X5.6Y-6.7
X5.6Y-6.8
X5.6Y-6.9
X5.6Y-7.0
X5.6Y-7.1
X5.6Y-7.2
X5.6Y-7.3
X5.6Y-7.4
X5.6Y-7.5
X5.6Y-7.6
X5.6Y-7.7
X5.6Y-7.8
X5.6Y-7.9
X5.6Y-8.0
X5.6Y-8.1
X5.6Y-8.2
X5.6Y-8.3
X5.7Y-3.0
X5.7Y-3.1
X5.7Y-3.2
X5.7Y-3.3
X5.7Y-3.4
X5.7Y-3.5
X5.7Y-3.6
X5.7Y-3.7
X5.7Y-3.8
X5.7Y-3.9
X5.7Y-4.0
X5.7Y-4.1
X5.7Y-4.2
X5.7Y-4.3
X5.7Y-4.4
X5.7Y-4.5
X5.7Y-4.6
X5.7Y-4.7
X5.7Y-4.8
X5.7Y-4.9
X5.7Y-5.0
X5.7Y-5.1
X5.7Y-5.2
X5.7Y-5.3
X5.7Y-5.4
X5.7Y-5.5
X5.7Y-5.6
X5.7Y-5.7
X5.7Y-5.8
X5.7Y-5.9
X5.7Y-6.0
X5.7Y-6.1
X5.7Y-6.2
X5.7Y-6.3
X5.7Y-6.4
X5.7Y-6.5
X5.7Y-6.6
X5.7Y-6.7
X5.7Y-6.8
X5.7Y-6.9
X5.7Y-7.0
X5.7Y-7.1
X5.7Y-7.2
X5.7Y-7.3
X5.7Y-7.4
X5.7Y-7.5
X5.7Y-7.6
X5.7Y-7.7
X5.7Y-7.8
X5.7Y-7.9
X5.7Y-8.0
X5.7Y-8.1
X5.7Y-8.2
X5.7Y-8.3
X5.8Y-3.0
X5.8Y-3.1
X5.8Y-3.2
X5.8Y-3.3
X5.8Y-3.4
X5.8Y-3.5
X5.8Y-3.6
X5.8Y-3.7
X5.8Y-3.8
X5.8Y-3.9
X5.8Y-4.0
X5.8Y-4.1
X5.8Y-4.2
X5.8Y-4.3
X5.8Y-4.4
X5.8Y-4.5
X5.8Y-4.6
X5.8Y-4.7
X5.8Y-4.8
X5.8Y-4.9
X5.8Y-5.0
X5.8Y-5.1
X5.8Y-5.2
X5.8Y-5.3
X5.8Y-5.4
X5.8Y-5.5
X5.8Y-5.6
X5.8Y-5.7
X5.8Y-5.8
X5.8Y-5.9
X5.8Y-6.0
X5.8Y-6.1
X5.8Y-6.2
X5.8Y-6.3
X5.8Y-6.4
X5.8Y-6.5
X5.8Y-6.6
X5.8Y-6.7
X5.8Y-6.8
X5.8Y-6.9
X5.8Y-7.0
X5.8Y-7.1
X5.8Y-7.2
X5.8Y-7.3
X5.8Y-7.4
X5.8Y-7.5
X5.8Y-7.6
X5.8Y-7.7
X5.8Y-7.8
X5.8Y-7.9
X5.8Y-8.0
X5.8Y-8.1
X5.8Y-8.2
X5.8Y-8.3
X5.9Y-3.0
X5.9Y-3.1
X5.9Y-3.2
X5.9Y-3.3
X5.9Y-3.4
X5.9Y-3.5
X5.9Y-3.6
X5.9Y-3.7
X5.9Y-3.8
X5.9Y-3.9
X5.9Y-4.0
X5.9Y-4.1
X5.9Y-4.2
X5.9Y-4.3
X5.9Y-4.4
X5.9Y-4.5
X5.9Y-4.6
X5.9Y-4.7
X5.9Y-4.8
X5.9Y-4.9
X5.9Y-5.0
X5.9Y-5.1
X5.9Y-5.2
X5.9Y-5.3
X5.9Y-5.4
X5.9Y-5.5
X5.9Y-5.6
X5.9Y-5.7
X5.9Y-5.8
X5.9Y-5.9
X5.9Y-6.0
X5.9Y-6.1
X5.9Y-6.2
X5.9Y-6.3
X5.9Y-6.4
X5.9Y-6.5
X5.9Y-6.6
X5.9Y-6.7
X5.9Y-6.8
X5.9Y-6.9
X5.9Y-7.0
X5.9Y-7.1
X5.9Y-7.2
X5.9Y-7.3
X5.9Y-7.4
X5.9Y-7.5
X5.9Y-7.6
X5.9Y-7.7
X5.9Y-7.8
X5.9Y-7.9
X5.9Y-8.0
X5.9Y-8.1
X5.9Y-8.2
X5.9Y-8.3
X6.0Y-3.0
X6.0Y-3.1
X6.0Y-3.2
X6.0Y-3.3
X6.0Y-3.4
X6.0Y-3.5
X6.0Y-3.6
X6.0Y-3.7
X6.0Y-3.8
X6.0Y-3.9
X6.0Y-4.0
X6.0Y-4.1
X6.0Y-4.2
X6.0Y-4.3
X6.0Y-4.4
X6.0Y-4.5
X6.0Y-4.6
X6.0Y-4.7
X6.0Y-4.8
X6.0Y-4.9
X6.0Y-5.0
X6.0Y-5.1
X6.0Y-5.2
X6.0Y-5.3
X6.0Y-5.4
X6.0Y-5.5
X6.0Y-5.6
X6.0Y-5.7
X6.0Y-5.8
X6.0Y-5.9
X6.0Y-6.0
X6.0Y-6.1
X6.0Y-6.2
X6.0Y-6.3
X6.0Y-6.4
X6.0Y-6.5
X6.0Y-6.6
X6.0Y-6.7
X6.0Y-6.8
X6.0Y-6.9
X6.0Y-7.0
X6.0Y-7.1
X6.0Y-7.2
X6.0Y-7.3
X6.0Y-7.4
X6.0Y-7.5
X6.0Y-7.6
X6.0Y-7.7
X6.0Y-7.8
X6.0Y-7.9
X6.0Y-8.0
X6.0Y-8.1
X6.0Y-8.2
X6.0Y-8.3
X6.1Y-3.0
X6.1Y-3.1
X6.1Y-3.2
X6.1Y-3.3
X6.1Y-3.4
X6.1Y-3.5
X6.1Y-3.6
X6.1Y-3.7
X6.1Y-3.8
X6.1Y-3.9
X6.1Y-4.0
X6.1Y-4.1
X6.1Y-4.2
X6.1Y-4.3
X6.1Y-4.4
X6.1Y-4.5
X6.1Y-4.6
X6.1Y-4.7
X6.1Y-4.8
X6.1Y-4.9
X6.1Y-5.0
X6.1Y-5.1
X6.1Y-5.2
X6.1Y-5.3
X6.1Y-5.4
X6.1Y-5.5
X6.1Y-5.6
X6.1Y-5.7
X6.1Y-5.8
X6.1Y-5.9
X6.1Y-6.0
X6.1Y-6.1
X6.1Y-6.2
X6.1Y-6.3
X6.1Y-6.4
X6.1Y-6.5
X6.1Y-6.6
X6.1Y-6.7
X6.1Y-6.8
X6.1Y-6.9
X6.1Y-7.0
X6.1Y-7.1
X6.1Y-7.2
X6.1Y-7.3
X6.1Y-7.4
X6.1Y-7.5
X6.1Y-7.6
X6.1Y-7.7
X6.1Y-7.8
X6.1Y-7.9
X6.1Y-8.0
X6.1Y-8.1
X6.1Y-8.2
X6.1Y-8.3
X6.2Y-3.0
X6.2Y-3.1
X6.2Y-3.2
X6.2Y-3.3
X6.2Y-3.4
X6.2Y-3.5
X6.2Y-3.6
X6.2Y-3.7
X6.2Y-3.8
X6.2Y-3.9
X6.2Y-4.0
X6.2Y-4.1
X6.2Y-4.2
X6.2Y-4.3
X6.2Y-4.4
X6.2Y-4.5
X6.2Y-4.6
X6.2Y-4.7
X6.2Y-4.8
X6.2Y-4.9
X6.2Y-5.0
X6.2Y-5.1
X6.2Y-5.2
X6.2Y-5.3
X6.2Y-5.4
X6.2Y-5.5
X6.2Y-5.6
X6.2Y-5.7
X6.2Y-5.8
X6.2Y-5.9
X6.2Y-6.0
X6.2Y-6.1
X6.2Y-6.2
X6.2Y-6.3
X6.2Y-6.4
X6.2Y-6.5
X6.2Y-6.6
X6.2Y-6.7
X6.2Y-6.8
X6.2Y-6.9
X6.2Y-7.0
X6.2Y-7.1
X6.2Y-7.2
X6.2Y-7.3
X6.2Y-7.4
X6.2Y-7.5
X6.2Y-7.6
X6.2Y-7.7
X6.2Y-7.8
X6.2Y-7.9
X6.2Y-8.0
X6.2Y-8.1
X6.2Y-8.2
X6.2Y-8.3
X6.3Y-3.0
X6.3Y-3.1
X6.3Y-3.2
X6.3Y-3.3
X6.3Y-3.4
X6.3Y-3.5
X6.3Y-3.6
X6.3Y-3.7
X6.3Y-3.8
X6.3Y-3.9
X6.3Y-4.0
X6.3Y-4.1
X6.3Y-4.2
X6.3Y-4.3
X6.3Y-4.4
X6.3Y-4.5
X6.3Y-4.6
X6.3Y-4.7
X6.3Y-4.8
X6.3Y-4.9
X6.3Y-5.0
X6.3Y-5.1
X6.3Y-5.2
X6.3Y-5.3
X6.3Y-5.4
X6.3Y-5.5
X6.3Y-5.6
X6.3Y-5.7
X6.3Y-5.8
X6.3Y-5.9
X6.3Y-6.0
X6.3Y-6.1
X6.3Y-6.2
X6.3Y-6.3
X6.3Y-6.4
X6.3Y-6.5
X6.3Y-6.6
X6.3Y-6.7
X6.3Y-6.8
X6.3Y-6.9
X6.3Y-7.0
X6.3Y-7.1
X6.3Y-7.2
X6.3Y-7.3
X6.3Y-7.4
X6.3Y-7.5
X6.3Y-7.6
X6.3Y-7.7
X6.3Y-7.8
X6.3Y-7.9
X6.3Y-8.0
X6.3Y-8.1
X6.3Y-8.2
X6.3Y-8.3
X6.4Y-3.0
X6.4Y-3.1
X6.4Y-3.2
X6.4Y-3.3
X6.4Y-3.4
X6.4Y-3.5
X6.4Y-3.6
X6.4Y-3.7
X6.4Y-3.8
X6.4Y-3.9
X6.4Y-4.0
X6.4Y-4.1
X6.4Y-4.2
X6.4Y-4.3
X6.4Y-4.4
X6.4Y-4.5
X6.4Y-4.6
X6.4Y-4.7
X6.4Y-4.8
X6.4Y-4.9
X6.4Y-5.0
X6.4Y-5.1
X6.4Y-5.2
X6.4Y-5.3
X6.4Y-5.4
X6.4Y-5.5
X6.4Y-5.6
X6.4Y-5.7
X6.4Y-5.8
X6.4Y-5.9
X6.4Y-6.0
X6.4Y-6.1
X6.4Y-6.2
X6.4Y-6.3
X6.4Y-6.4
X6.4Y-6.5
X6.4Y-6.6
X6.4Y-6.7
X6.4Y-6.8
X6.4Y-6.9
X6.4Y-7.0
X6.4Y-7.1
X6.4Y-7.2
X6.4Y-7.3
X6.4Y-7.4
X6.4Y-7.5
X6.4Y-7.6
X6.4Y-7.7
X6.4Y-7.8
X6.4Y-7.9
X6.4Y-8.0
X6.4Y-8.1
X6.4Y-8.2
X6.4Y-8.3
X6.5Y-3.0
X6.5Y-3.1
X6.5Y-3.2
X6.5Y-3.3
X6.5Y-3.4
X6.5Y-3.5
X6.5Y-3.6
X6.5Y-3.7
X6.5Y-3.8
X6.5Y-3.9
X6.5Y-4.0
X6.5Y-4.1
X6.5Y-4.2
X6.5Y-4.3
X6.5Y-4.4
X6.5Y-4.5
X6.5Y-4.6
X6.5Y-4.7
X6.5Y-4.8
X6.5Y-4.9
X6.5Y-5.0
X6.5Y-5.1
X6.5Y-5.2
X6.5Y-5.3
X6.5Y-5.4
X6.5Y-5.5
X6.5Y-5.6
X6.5Y-5.7
X6.5Y-5.8
X6.5Y-5.9
X6.5Y-6.0
X6.5Y-6.1
X6.5Y-6.2
X6.5Y-6.3
X6.5Y-6.4
X6.5Y-6.5
X6.5Y-6.6
X6.5Y-6.7
X6.5Y-6.8
X6.5Y-6.9
X6.5Y-7.0
X6.5Y-7.1
X6.5Y-7.2
X6.5Y-7.3
X6.5Y-7.4
X6.5Y-7.5
X6.5Y-7.6
X6.5Y-7.7
X6.5Y-7.8
X6.5Y-7.9
X6.5Y-8.0
X6.5Y-8.1
X6.5Y-8.2
X6.5Y-8.3
X6.6Y-3.0
X6.6Y-3.1
X6.6Y-3.2
X6.6Y-3.3
X6.6Y-3.4
X6.6Y-3.5
X6.6Y-3.6
X6.6Y-3.7
X6.6Y-3.8
X6.6Y-3.9
X6.6Y-4.0
X6.6Y-4.1
X6.6Y-4.2
X6.6Y-4.3
X6.6Y-4.4
X6.6Y-4.5
X6.6Y-4.6
X6.6Y-4.7
X6.6Y-4.8
X6.6Y-4.9
X6.6Y-5.0
X6.6Y-5.1
X6.6Y-5.2
X6.6Y-5.3
X6.6Y-5.4
X6.6Y-5.5
X6.6Y-5.6
X6.6Y-5.7
X6.6Y-5.8
X6.6Y-5.9
X6.6Y-6.0
X6.6Y-6.1
X6.6Y-6.2
X6.6Y-6.3
X6.6Y-6.4
X6.6Y-6.5
X6.6Y-6.6
X6.6Y-6.7
X6.6Y-6.8
X6.6Y-6.9
X6.6Y-7.0
X6.6Y-7.1
X6.6Y-7.2
X6.6Y-7.3
X6.6Y-7.4
X6.6Y-7.5
X6.6Y-7.6
X6.6Y-7.7
X6.6Y-7.8
X6.6Y-7.9
X6.6Y-8.0
X6.6Y-8.1
X6.6Y-8.2
X6.6Y-8.3
X6.7Y-3.0
X6.7Y-3.1
X6.7Y-3.2
X6.7Y-3.3
X6.7Y-3.4
X6.7Y-3.5
X6.7Y-3.6
X6.7Y-3.7
X6.7Y-3.8
X6.7Y-3.9
X6.7Y-4.0
X6.7Y-4.1
X6.7Y-4.2
X6.7Y-4.3
X6.7Y-4.4
X6.7Y-4.5
X6.7Y-4.6
X6.7Y-4.7
X6.7Y-4.8
X6.7Y-4.9
X6.7Y-5.0
X6.7Y-5.1
X6.7Y-5.2
X6.7Y-5.3
X6.7Y-5.4
X6.7Y-5.5
X6.7Y-5.6
X6.7Y-5.7
X6.7Y-5.8
X6.7Y-5.9
X6.7Y-6.0
X6.7Y-6.1
X6.7Y-6.2
X6.7Y-6.3
X6.7Y-6.4
X6.7Y-6.5
X6.7Y-6.6
X6.7Y-6.7
X6.7Y-6.8
X6.7Y-6.9
X6.7Y-7.0
X6.7Y-7.1
X6.7Y-7.2
X6.7Y-7.3
X6.7Y-7.4
X6.7Y-7.5
X6.7Y-7.6
X6.7Y-7.7
X6.7Y-7.8
X6.7Y-7.9
X6.7Y-8.0
X6.7Y-8.1
X6.7Y-8.2
X6.7Y-8.3
X6.8Y-3.0
X6.8Y-3.1
X6.8Y-3.2
X6.8Y-3.3
X6.8Y-3.4
X6.8Y-3.5
X6.8Y-3.6
X6.8Y-3.7
X6.8Y-3.8
X6.8Y-3.9
X6.8Y-4.0
X6.8Y-4.1
X6.8Y-4.2
X6.8Y-4.3
X6.8Y-4.4
X6.8Y-4.5
X6.8Y-4.6
X6.8Y-4.7
X6.8Y-4.8
X6.8Y-4.9
X6.8Y-5.0
X6.8Y-5.1
X6.8Y-5.2
X6.8Y-5.3
X6.8Y-5.4
X6.8Y-5.5
X6.8Y-5.6
X6.8Y-5.7
X6.8Y-5.8
X6.8Y-5.9
X6.8Y-6.0
X6.8Y-6.1
X6.8Y-6.2
X6.8Y-6.3
X6.8Y-6.4
X6.8Y-6.5
X6.8Y-6.6
X6.8Y-6.7
X6.8Y-6.8
X6.8Y-6.9
X6.8Y-7.0
X6.8Y-7.1
X6.8Y-7.2
X6.8Y-7.3
X6.8Y-7.4
X6.8Y-7.5
X6.8Y-7.6
X6.8Y-7.7
X6.8Y-7.8
X6.8Y-7.9
X6.8Y-8.0
X6.8Y-8.1
X6.8Y-8.2
X6.8Y-8.3
X6.9Y-3.0
X6.9Y-3.1
X6.9Y-3.2
X6.9Y-3.3
X6.9Y-3.4
X6.9Y-3.5
X6.9Y-3.6
X6.9Y-3.7
X6.9Y-3.8
X6.9Y-3.9
X6.9Y-4.0
X6.9Y-4.1
X6.9Y-4.2
X6.9Y-4.3
X6.9Y-4.4
X6.9Y-4.5
X6.9Y-4.6
X6.9Y-4.7
X6.9Y-4.8
X6.9Y-4.9
X6.9Y-5.0
X6.9Y-5.1
X6.9Y-5.2
X6.9Y-5.3
X6.9Y-5.4
X6.9Y-5.5
X6.9Y-5.6
X6.9Y-5.7
X6.9Y-5.8
X6.9Y-5.9
X6.9Y-6.0
X6.9Y-6.1
X6.9Y-6.2
X6.9Y-6.3
X6.9Y-6.4
X6.9Y-6.5
X6.9Y-6.6
X6.9Y-6.7
X6.9Y-6.8
X6.9Y-6.9
X6.9Y-7.0
X6.9Y-7.1
X6.9Y-7.2
X6.9Y-7.3
X6.9Y-7.4
X6.9Y-7.5
X6.9Y-7.6
X6.9Y-7.7
X6.9Y-7.8
X6.9Y-7.9
X6.9Y-8.0
X6.9Y-8.1
X6.9Y-8.2
X6.9Y-8.3
X7.0Y-3.0
X7.0Y-3.1
X7.0Y-3.2
X7.0Y-3.3
X7.0Y-3.4
X7.0Y-3.5
X7.0Y-3.6
X7.0Y-3.7
X7.0Y-3.8
X7.0Y-3.9
X7.0Y-4.0
X7.0Y-4.1
X7.0Y-4.2
X7.0Y-4.3
X7.0Y-4.4
X7.0Y-4.5
X7.0Y-4.6
X7.0Y-4.7
X7.0Y-4.8
X7.0Y-4.9
X7.0Y-5.0
X7.0Y-5.1
X7.0Y-5.2
X7.0Y-5.3
X7.0Y-5.4
X7.0Y-5.5
X7.0Y-5.6
X7.0Y-5.7
X7.0Y-5.8
X7.0Y-5.9
X7.0Y-6.0
X7.0Y-6.1
X7.0Y-6.2
X7.0Y-6.3
X7.0Y-6.4
X7.0Y-6.5
X7.0Y-6.6
X7.0Y-6.7
X7.0Y-6.8
X7.0Y-6.9
X7.0Y-7.0
X7.0Y-7.1
X7.0Y-7.2
X7.0Y-7.3
X7.0Y-7.4
X7.0Y-7.5
X7.0Y-7.6
X7.0Y-7.7
X7.0Y-7.8
X7.0Y-7.9
X7.0Y-8.0
X7.0Y-8.1
X7.0Y-8.2
X7.0Y-8.3
X7.1Y-3.0
X7.1Y-3.1
X7.1Y-3.2
X7.1Y-3.3
X7.1Y-3.4
X7.1Y-3.5
X7.1Y-3.6
X7.1Y-3.7
X7.1Y-3.8
X7.1Y-3.9
X7.1Y-4.0
X7.1Y-4.1
X7.1Y-4.2
X7.1Y-4.3
X7.1Y-4.4
X7.1Y-4.5
X7.1Y-4.6
X7.1Y-4.7
X7.1Y-4.8
X7.1Y-4.9
X7.1Y-5.0
X7.1Y-5.1
X7.1Y-5.2
X7.1Y-5.3
X7.1Y-5.4
X7.1Y-5.5
X7.1Y-5.6
X7.1Y-5.7
X7.1Y-5.8
X7.1Y-5.9
X7.1Y-6.0
X7.1Y-6.1
X7.1Y-6.2
X7.1Y-6.3
X7.1Y-6.4
X7.1Y-6.5
X7.1Y-6.6
X7.1Y-6.7
X7.1Y-6.8
X7.1Y-6.9
X7.1Y-7.0
X7.1Y-7.1
X7.1Y-7.2
X7.1Y-7.3
X7.1Y-7.4
X7.1Y-7.5
X7.1Y-7.6
X7.1Y-7.7
X7.1Y-7.8
X7.1Y-7.9
X7.1Y-8.0
X7.1Y-8.1
X7.1Y-8.2
X7.1Y-8.3
X7.2Y-3.0
X7.2Y-3.1
X7.2Y-3.2
X7.2Y-3.3
X7.2Y-3.4
X7.2Y-3.5
X7.2Y-3.6
X7.2Y-3.7
X7.2Y-3.8
X7.2Y-3.9
X7.2Y-4.0
X7.2Y-4.1
X7.2Y-4.2
X7.2Y-4.3
X7.2Y-4.4
X7.2Y-4.5
X7.2Y-4.6
X7.2Y-4.7
X7.2Y-4.8
X7.2Y-4.9
X7.2Y-5.0
X7.2Y-5.1
X7.2Y-5.2
X7.2Y-5.3
X7.2Y-5.4
X7.2Y-5.5
X7.2Y-5.6
X7.2Y-5.7
X7.2Y-5.8
X7.2Y-5.9
X7.2Y-6.0
X7.2Y-6.1
X7.2Y-6.2
X7.2Y-6.3
X7.2Y-6.4
X7.2Y-6.5
X7.2Y-6.6
X7.2Y-6.7
X7.2Y-6.8
X7.2Y-6.9
X7.2Y-7.0
X7.2Y-7.1
X7.2Y-7.2
X7.2Y-7.3
X7.2Y-7.4
X7.2Y-7.5
X7.2Y-7.6
X7.2Y-7.7
X7.2Y-7.8
X7.2Y-7.9
X7.2Y-8.0
X7.2Y-8.1
X7.2Y-8.2
X7.2Y-8.3
X7.3Y-3.0
X7.3Y-3.1
X7.3Y-3.2
X7.3Y-3.3
X7.3Y-3.4
X7.3Y-3.5
X7.3Y-3.6
X7.3Y-3.7
X7.3Y-3.8
X7.3Y-3.9
X7.3Y-4.0
X7.3Y-4.1
X7.3Y-4.2
X7.3Y-4.3
X7.3Y-4.4
X7.3Y-4.5
X7.3Y-4.6
X7.3Y-4.7
X7.3Y-4.8
X7.3Y-4.9
X7.3Y-5.0
X7.3Y-5.1
X7.3Y-5.2
X7.3Y-5.3
X7.3Y-5.4
X7.3Y-5.5
X7.3Y-5.6
X7.3Y-5.7
X7.3Y-5.8
X7.3Y-5.9
X7.3Y-6.0
X7.3Y-6.1
X7.3Y-6.2
X7.3Y-6.3
X7.3Y-6.4
X7.3Y-6.5
X7.3Y-6.6
X7.3Y-6.7
X7.3Y-6.8
X7.3Y-6.9
X7.3Y-7.0
X7.3Y-7.1
X7.3Y-7.2
X7.3Y-7.3
X7.3Y-7.4
X7.3Y-7.5
X7.3Y-7.6
X7.3Y-7.7
X7.3Y-7.8
X7.3Y-7.9
X7.3Y-8.0
X7.3Y-8.1
X7.3Y-8.2
X7.3Y-8.3
X7.4Y-3.0
X7.4Y-3.1
X7.4Y-3.2
X7.4Y-3.3
X7.4Y-3.4
X7.4Y-3.5
X7.4Y-3.6
X7.4Y-3.7
X7.4Y-3.8
X7.4Y-3.9
X7.4Y-4.0
X7.4Y-4.1
X7.4Y-4.2
X7.4Y-4.3
X7.4Y-4.4
X7.4Y-4.5
X7.4Y-4.6
X7.4Y-4.7
X7.4Y-4.8
X7.4Y-4.9
X7.4Y-5.0
X7.4Y-5.1
X7.4Y-5.2
X7.4Y-5.3
X7.4Y-5.4
X7.4Y-5.5
X7.4Y-5.6
X7.4Y-5.7
X7.4Y-5.8
X7.4Y-5.9
X7.4Y-6.0
X7.4Y-6.1
X7.4Y-6.2
X7.4Y-6.3
X7.4Y-6.4
X7.4Y-6.5
X7.4Y-6.6
X7.4Y-6.7
X7.4Y-6.8
X7.4Y-6.9
X7.4Y-7.0
X7.4Y-7.1
X7.4Y-7.2
X7.4Y-7.3
X7.4Y-7.4
X7.4Y-7.5
X7.4Y-7.6
X7.4Y-7.7
X7.4Y-7.8
X7.4Y-7.9
X7.4Y-8.0
X7.4Y-8.1
X7.4Y-8.2
X7.4Y-8.3
X7.5Y-3.0
X7.5Y-3.1
X7.5Y-3.2
X7.5Y-3.3
X7.5Y-3.4
X7.5Y-3.5
X7.5Y-3.6
X7.5Y-3.7
X7.5Y-3.8
X7.5Y-3.9
X7.5Y-4.0
X7.5Y-4.1
X7.5Y-4.2
X7.5Y-4.3
X7.5Y-4.4
X7.5Y-4.5
X7.5Y-4.6
X7.5Y-4.7
X7.5Y-4.8
X7.5Y-4.9
X7.5Y-5.0
X7.5Y-5.1
X7.5Y-5.2
X7.5Y-5.3
X7.5Y-5.4
X7.5Y-5.5
X7.5Y-5.6
X7.5Y-5.7
X7.5Y-5.8
X7.5Y-5.9
X7.5Y-6.0
X7.5Y-6.1
X7.5Y-6.2
X7.5Y-6.3
X7.5Y-6.4
X7.5Y-6.5
X7.5Y-6.6
X7.5Y-6.7
X7.5Y-6.8
X7.5Y-6.9
X7.5Y-7.0
X7.5Y-7.1
X7.5Y-7.2
X7.5Y-7.3
X7.5Y-7.4
X7.5Y-7.5
X7.5Y-7.6
X7.5Y-7.7
X7.5Y-7.8
X7.5Y-7.9
X7.5Y-8.0
X7.5Y-8.1
X7.5Y-8.2
X7.5Y-8.3
X7.6Y-3.0
X7.6Y-3.1
X7.6Y-3.2
X7.6Y-3.3
X7.6Y-3.4
X7.6Y-3.5
X7.6Y-3.6
X7.6Y-3.7
X7.6Y-3.8
X7.6Y-3.9
X7.6Y-4.0
X7.6Y-4.1
X7.6Y-4.2
X7.6Y-4.3
X7.6Y-4.4
X7.6Y-4.5
X7.6Y-4.6
X7.6Y-4.7
X7.6Y-4.8
X7.6Y-4.9
X7.6Y-5.0
X7.6Y-5.1
X7.6Y-5.2
X7.6Y-5.3
X7.6Y-5.4
X7.6Y-5.5
X7.6Y-5.6
X7.6Y-5.7
X7.6Y-5.8
X7.6Y-5.9
X7.6Y-6.0
X7.6Y-6.1
X7.6Y-6.2
X7.6Y-6.3
X7.6Y-6.4
X7.6Y-6.5
X7.6Y-6.6
X7.6Y-6.7
X7.6Y-6.8
X7.6Y-6.9
X7.6Y-7.0
X7.6Y-7.1
X7.6Y-7.2
X7.6Y-7.3
X7.6Y-7.4
X7.6Y-7.5
X7.6Y-7.6
X7.6Y-7.7
X7.6Y-7.8
X7.6Y-7.9
X7.6Y-8.0
X7.6Y-8.1
X7.6Y-8.2
X7.6Y-8.3
X7.7Y-3.0
X7.7Y-3.1
X7.7Y-3.2
X7.7Y-3.3
X7.7Y-3.4
X7.7Y-3.5
X7.7Y-3.6
X7.7Y-3.7
X7.7Y-3.8
X7.7Y-3.9
X7.7Y-4.0
X7.7Y-4.1
X7.7Y-4.2
X7.7Y-4.3
X7.7Y-4.4
X7.7Y-4.5
X7.7Y-4.6
X7.7Y-4.7
X7.7Y-4.8
X7.7Y-4.9
X7.7Y-5.0
X7.7Y-5.1
X7.7Y-5.2
X7.7Y-5.3
X7.7Y-5.4
X7.7Y-5.5
X7.7Y-5.6
X7.7Y-5.7
X7.7Y-5.8
X7.7Y-5.9
X7.7Y-6.0
X7.7Y-6.1
X7.7Y-6.2
X7.7Y-6.3
X7.7Y-6.4
X7.7Y-6.5
X7.7Y-6.6
X7.7Y-6.7
X7.7Y-6.8
X7.7Y-6.9
X7.7Y-7.0
X7.7Y-7.1
X7.7Y-7.2
X7.7Y-7.3
X7.7Y-7.4
X7.7Y-7.5
X7.7Y-7.6
X7.7Y-7.7
X7.7Y-7.8
X7.7Y-7.9
X7.7Y-8.0
X7.7Y-8.1
X7.7Y-8.2
X7.7Y-8.3
X7.8Y-3.0
X7.8Y-3.1
X7.8Y-3.2
X7.8Y-3.3
X7.8Y-3.4
X7.8Y-3.5
X7.8Y-3.6
X7.8Y-3.7
X7.8Y-3.8
X7.8Y-3.9
X7.8Y-4.0
X7.8Y-4.1
X7.8Y-4.2
X7.8Y-4.3
X7.8Y-4.4
X7.8Y-4.5
X7.8Y-4.6
X7.8Y-4.7
X7.8Y-4.8
X7.8Y-4.9
X7.8Y-5.0
X7.8Y-5.1
X7.8Y-5.2
X7.8Y-5.3
X7.8Y-5.4
X7.8Y-5.5
X7.8Y-5.6
X7.8Y-5.7
X7.8Y-5.8
X7.8Y-5.9
X7.8Y-6.0
X7.8Y-6.1
X7.8Y-6.2
X7.8Y-6.3
X7.8Y-6.4
X7.8Y-6.5
X7.8Y-6.6
X7.8Y-6.7
X7.8Y-6.8
X7.8Y-6.9
X7.8Y-7.0
X7.8Y-7.1
X7.8Y-7.2
X7.8Y-7.3
X7.8Y-7.4
X7.8Y-7.5
X7.8Y-7.6
X7.8Y-7.7
X7.8Y-7.8
X7.8Y-7.9
X7.8Y-8.0
X7.8Y-8.1
X7.8Y-8.2
X7.8Y-8.3
X7.9Y-3.0
X7.9Y-3.1
X7.9Y-3.2
X7.9Y-3.3
X7.9Y-3.4
X7.9Y-3.5
X7.9Y-3.6
X7.9Y-3.7
X7.9Y-3.8
X7.9Y-3.9
X7.9Y-4.0
X7.9Y-4.1
X7.9Y-4.2
X7.9Y-4.3
X7.9Y-4.4
X7.9Y-4.5
X7.9Y-4.6
X7.9Y-4.7
X7.9Y-4.8
X7.9Y-4.9
X7.9Y-5.0
X7.9Y-5.1
X7.9Y-5.2
X7.9Y-5.3
X7.9Y-5.4
X7.9Y-5.5
X7.9Y-5.6
X7.9Y-5.7
X7.9Y-5.8
X7.9Y-5.9
X7.9Y-6.0
X7.9Y-6.1
X7.9Y-6.2
X7.9Y-6.3
X7.9Y-6.4
X7.9Y-6.5
X7.9Y-6.6
X7.9Y-6.7
X7.9Y-6.8
X7.9Y-6.9
X7.9Y-7.0
X7.9Y-7.1
X7.9Y-7.2
X7.9Y-7.3
X7.9Y-7.4
X7.9Y-7.5
X7.9Y-7.6
X7.9Y-7.7
X7.9Y-7.8
X7.9Y-7.9
X7.9Y-8.0
X7.9Y-8.1
X7.9Y-8.2
X7.9Y-8.3
X8.0Y-3.0
X8.0Y-3.1
X8.0Y-3.2
X8.0Y-3.3
X8.0Y-3.4
X8.0Y-3.5
X8.0Y-3.6
X8.0Y-3.7
X8.0Y-3.8
X8.0Y-3.9
X8.0Y-4.0
X8.0Y-4.1
X8.0Y-4.2
X8.0Y-4.3
X8.0Y-4.4
X8.0Y-4.5
X8.0Y-4.6
X8.0Y-4.7
X8.0Y-4.8
X8.0Y-4.9
X8.0Y-5.0
X8.0Y-5.1
X8.0Y-5.2
X8.0Y-5.3
X8.0Y-5.4
X8.0Y-5.5
X8.0Y-5.6
X8.0Y-5.7
X8.0Y-5.8
X8.0Y-5.9
X8.0Y-6.0
X8.0Y-6.1
X8.0Y-6.2
X8.0Y-6.3
X8.0Y-6.4
X8.0Y-6.5
X8.0Y-6.6
X8.0Y-6.7
X8.0Y-6.8
X8.0Y-6.9
X8.0Y-7.0
X8.0Y-7.1
X8.0Y-7.2
X8.0Y-7.3
X8.0Y-7.4
X8.0Y-7.5
X8.0Y-7.6
X8.0Y-7.7
X8.0Y-7.8
X8.0Y-7.9
X8.0Y-8.0
X8.0Y-8.1
X8.0Y-8.2
X8.0Y-8.3
X8.1Y-3.0
X8.1Y-3.1
X8.1Y-3.2
X8.1Y-3.3
X8.1Y-3.4
X8.1Y-3.5
X8.1Y-3.6
X8.1Y-3.7
X8.1Y-3.8
X8.1Y-3.9
X8.1Y-4.0
X8.1Y-4.1
X8.1Y-4.2
X8.1Y-4.3
X8.1Y-4.4
X8.1Y-4.5
X8.1Y-4.6
X8.1Y-4.7
X8.1Y-4.8
X8.1Y-4.9
X8.1Y-5.0
X8.1Y-5.1
X8.1Y-5.2
X8.1Y-5.3
X8.1Y-5.4
X8.1Y-5.5
X8.1Y-5.6
X8.1Y-5.7
X8.1Y-5.8
X8.1Y-5.9
X8.1Y-6.0
X8.1Y-6.1
X8.1Y-6.2
X8.1Y-6.3
X8.1Y-6.4
X8.1Y-6.5
X8.1Y-6.6
X8.1Y-6.7
X8.1Y-6.8
X8.1Y-6.9
X8.1Y-7.0
X8.1Y-7.1
X8.1Y-7.2
X8.1Y-7.3
X8.1Y-7.4
X8.1Y-7.5
X8.1Y-7.6
X8.1Y-7.7
X8.1Y-7.8
X8.1Y-7.9
X8.1Y-8.0
X8.1Y-8.1
X8.1Y-8.2
X8.1Y-8.3
X8.2Y-3.0
X8.2Y-3.1
X8.2Y-3.2
X8.2Y-3.3
X8.2Y-3.4
X8.2Y-3.5
X8.2Y-3.6
X8.2Y-3.7
X8.2Y-3.8
X8.2Y-3.9
X8.2Y-4.0
X8.2Y-4.1
X8.2Y-4.2
X8.2Y-4.3
X8.2Y-4.4
X8.2Y-4.5
X8.2Y-4.6
X8.2Y-4.7
X8.2Y-4.8
X8.2Y-4.9
X8.2Y-5.0
X8.2Y-5.1
X8.2Y-5.2
X8.2Y-5.3
X8.2Y-5.4
X8.2Y-5.5
X8.2Y-5.6
X8.2Y-5.7
X8.2Y-5.8
X8.2Y-5.9
X8.2Y-6.0
X8.2Y-6.1
X8.2Y-6.2
X8.2Y-6.3
X8.2Y-6.4
X8.2Y-6.5
X8.2Y-6.6
X8.2Y-6.7
X8.2Y-6.8
X8.2Y-6.9
X8.2Y-7.0
X8.2Y-7.1
X8.2Y-7.2
X8.2Y-7.3
X8.2Y-7.4
X8.2Y-7.5
X8.2Y-7.6
X8.2Y-7.7
X8.2Y-7.8
X8.2Y-7.9
X8.2Y-8.0
X8.2Y-8.1
X8.2Y-8.2
X8.2Y-8.3
X8.3Y-3.0
X8.3Y-3.1
X8.3Y-3.2
X8.3Y-3.3
X8.3Y-3.4
X8.3Y-3.5
X8.3Y-3.6
X8.3Y-3.7
X8.3Y-3.8
X8.3Y-3.9
X8.3Y-4.0
X8.3Y-4.1
X8.3Y-4.2
X8.3Y-4.3
X8.3Y-4.4
X8.3Y-4.5
X8.3Y-4.6
X8.3Y-4.7
X8.3Y-4.8
X8.3Y-4.9
X8.3Y-5.0
X8.3Y-5.1
X8.3Y-5.2
X8.3Y-5.3
X8.3Y-5.4
X8.3Y-5.5
X8.3Y-5.6
X8.3Y-5.7
X8.3Y-5.8
X8.3Y-5.9
X8.3Y-6.0
X8.3Y-6.1
X8.3Y-6.2
X8.3Y-6.3
X8.3Y-6.4
X8.3Y-6.5
X8.3Y-6.6
X8.3Y-6.7
X8.3Y-6.8
X8.3Y-6.9
X8.3Y-7.0
X8.3Y-7.1
X8.3Y-7.2
X8.3Y-7.3
X8.3Y-7.4
X8.3Y-7.5
X8.3Y-7.6
X8.3Y-7.7
X8.3Y-7.8
X8.3Y-7.9
X8.3Y-8.0
X8.3Y-8.1
X8.3Y-8.2
X8.3Y-8.3
X8.4Y-3.0
X8.4Y-3.1
X8.4Y-3.2
X8.4Y-3.3
X8.4Y-3.4
X8.4Y-3.5
X8.4Y-3.6
X8.4Y-3.7
X8.4Y-3.8
X8.4Y-3.9
X8.4Y-4.0
X8.4Y-4.1
X8.4Y-4.2
X8.4Y-4.3
X8.4Y-4.4
X8.4Y-4.5
X8.4Y-4.6
X8.4Y-4.7
X8.4Y-4.8
X8.4Y-4.9
X8.4Y-5.0
X8.4Y-5.1
X8.4Y-5.2
X8.4Y-5.3
X8.4Y-5.4
X8.4Y-5.5
X8.4Y-5.6
X8.4Y-5.7
X8.4Y-5.8
X8.4Y-5.9
X8.4Y-6.0
X8.4Y-6.1
X8.4Y-6.2
X8.4Y-6.3
X8.4Y-6.4
X8.4Y-6.5
X8.4Y-6.6
X8.4Y-6.7
X8.4Y-6.8
X8.4Y-6.9
X8.4Y-7.0
X8.4Y-7.1
X8.4Y-7.2
X8.4Y-7.3
X8.4Y-7.4
X8.4Y-7.5
X8.4Y-7.6
X8.4Y-7.7
X8.4Y-7.8
X8.4Y-7.9
X8.4Y-8.0
X8.4Y-8.1
X8.4Y-8.2
X8.4Y-8.3
X8.5Y-3.0
X8.5Y-3.1
X8.5Y-3.2
X8.5Y-3.3
X8.5Y-3.4
X8.5Y-3.5
X8.5Y-3.6
X8.5Y-3.7
X8.5Y-3.8
X8.5Y-3.9
X8.5Y-4.0
X8.5Y-4.1
X8.5Y-4.2
X8.5Y-4.3
X8.5Y-4.4
X8.5Y-4.5
X8.5Y-4.6
X8.5Y-4.7
X8.5Y-4.8
X8.5Y-4.9
X8.5Y-5.0
X8.5Y-5.1
X8.5Y-5.2
X8.5Y-5.3
X8.5Y-5.4
X8.5Y-5.5
X8.5Y-5.6
X8.5Y-5.7
X8.5Y-5.8
X8.5Y-5.9
X8.5Y-6.0
X8.5Y-6.1
X8.5Y-6.2
X8.5Y-6.3
X8.5Y-6.4
X8.5Y-6.5
X8.5Y-6.6
X8.5Y-6.7
X8.5Y-6.8
X8.5Y-6.9
X8.5Y-7.0
X8.5Y-7.1
X8.5Y-7.2
X8.5Y-7.3
X8.5Y-7.4
X8.5Y-7.5
X8.5Y-7.6
X8.5Y-7.7
X8.5Y-7.8
X8.5Y-7.9
X8.5Y-8.0
X8.5Y-8.1
X8.5Y-8.2
X8.5Y-8.3
X8.6Y-3.0
X8.6Y-3.1
X8.6Y-3.2
X8.6Y-3.3
X8.6Y-3.4
X8.6Y-3.5
X8.6Y-3.6
X8.6Y-3.7
X8.6Y-3.8
X8.6Y-3.9
X8.6Y-4.0
X8.6Y-4.1
X8.6Y-4.2
X8.6Y-4.3
X8.6Y-4.4
X8.6Y-4.5
X8.6Y-4.6
X8.6Y-4.7
X8.6Y-4.8
X8.6Y-4.9
X8.6Y-5.0
X8.6Y-5.1
X8.6Y-5.2
X8.6Y-5.3
X8.6Y-5.4
X8.6Y-5.5
X8.6Y-5.6
X8.6Y-5.7
X8.6Y-5.8
X8.6Y-5.9
X8.6Y-6.0
X8.6Y-6.1
X8.6Y-6.2
X8.6Y-6.3
X8.6Y-6.4
X8.6Y-6.5
X8.6Y-6.6
X8.6Y-6.7
X8.6Y-6.8
X8.6Y-6.9
X8.6Y-7.0
X8.6Y-7.1
X8.6Y-7.2
X8.6Y-7.3
X8.6Y-7.4
X8.6Y-7.5
X8.6Y-7.6
X8.6Y-7.7
X8.6Y-7.8
X8.6Y-7.9
X8.6Y-8.0
X8.6Y-8.1
X8.6Y-8.2
X8.6Y-8.3
X8.7Y-3.0
X8.7Y-3.1
X8.7Y-3.2
X8.7Y-3.3
X8.7Y-3.4
X8.7Y-3.5
X8.7Y-3.6
X8.7Y-3.7
X8.7Y-3.8
X8.7Y-3.9
X8.7Y-4.0
X8.7Y-4.1
X8.7Y-4.2
X8.7Y-4.3
X8.7Y-4.4
X8.7Y-4.5
X8.7Y-4.6
X8.7Y-4.7
X8.7Y-4.8
X8.7Y-4.9
X8.7Y-5.0
X8.7Y-5.1
X8.7Y-5.2
X8.7Y-5.3
X8.7Y-5.4
X8.7Y-5.5
X8.7Y-5.6
X8.7Y-5.7
X8.7Y-5.8
X8.7Y-5.9
X8.7Y-6.0
X8.7Y-6.1
X8.7Y-6.2
X8.7Y-6.3
X8.7Y-6.4
X8.7Y-6.5
X8.7Y-6.6
X8.7Y-6.7
X8.7Y-6.8
X8.7Y-6.9
X8.7Y-7.0
X8.7Y-7.1
X8.7Y-7.2
X8.7Y-7.3
X8.7Y-7.4
X8.7Y-7.5
X8.7Y-7.6
X8.7Y-7.7
X8.7Y-7.8
X8.7Y-7.9
X8.7Y-8.0
X8.7Y-8.1
X8.7Y-8.2
X8.7Y-8.3
X8.8Y-3.0
X8.8Y-3.1
X8.8Y-3.2
X8.8Y-3.3
X8.8Y-3.4
X8.8Y-3.5
X8.8Y-3.6
X8.8Y-3.7
X8.8Y-3.8
X8.8Y-3.9
X8.8Y-4.0
X8.8Y-4.1
X8.8Y-4.2
X8.8Y-4.3
X8.8Y-4.4
X8.8Y-4.5
X8.8Y-4.6
X8.8Y-4.7
X8.8Y-4.8
X8.8Y-4.9
X8.8Y-5.0
X8.8Y-5.1
X8.8Y-5.2
X8.8Y-5.3
X8.8Y-5.4
X8.8Y-5.5
X8.8Y-5.6
X8.8Y-5.7
X8.8Y-5.8
X8.8Y-5.9
X8.8Y-6.0
X8.8Y-6.1
X8.8Y-6.2
X8.8Y-6.3
X8.8Y-6.4
X8.8Y-6.5
X8.8Y-6.6
X8.8Y-6.7
X8.8Y-6.8
X8.8Y-6.9
X8.8Y-7.0
X8.8Y-7.1
X8.8Y-7.2
X8.8Y-7.3
X8.8Y-7.4
X8.8Y-7.5
X8.8Y-7.6
X8.8Y-7.7
X8.8Y-7.8
X8.8Y-7.9
X8.8Y-8.0
X8.8Y-8.1
X8.8Y-8.2
X8.8Y-8.3
X8.9Y-3.0
X8.9Y-3.1
X8.9Y-3.2
X8.9Y-3.3
X8.9Y-3.4
X8.9Y-3.5
X8.9Y-3.6
X8.9Y-3.7
X8.9Y-3.8
X8.9Y-3.9
X8.9Y-4.0
X8.9Y-4.1
X8.9Y-4.2
X8.9Y-4.3
X8.9Y-4.4
X8.9Y-4.5
X8.9Y-4.6
X8.9Y-4.7
X8.9Y-4.8
X8.9Y-4.9
X8.9Y-5.0
X8.9Y-5.1
X8.9Y-5.2
X8.9Y-5.3
X8.9Y-5.4
X8.9Y-5.5
X8.9Y-5.6
X8.9Y-5.7
X8.9Y-5.8
X8.9Y-5.9
X8.9Y-6.0
X8.9Y-6.1
X8.9Y-6.2
X8.9Y-6.3
X8.9Y-6.4
X8.9Y-6.5
X8.9Y-6.6
X8.9Y-6.7
X8.9Y-6.8
X8.9Y-6.9
X8.9Y-7.0
X8.9Y-7.1
X8.9Y-7.2
X8.9Y-7.3
X8.9Y-7.4
X8.9Y-7.5
X8.9Y-7.6
X8.9Y-7.7
X8.9Y-7.8
X8.9Y-7.9
X8.9Y-8.0
X8.9Y-8.1
X8.9Y-8.2
X8.9Y-8.3
X9.0Y-3.0
X9.0Y-3.1
X9.0Y-3.2
X9.0Y-3.3
X9.0Y-3.4
X9.0Y-3.5
X9.0Y-3.6
X9.0Y-3.7
X9.0Y-3.8
X9.0Y-3.9
X9.0Y-4.0
X9.0Y-4.1
X9.0Y-4.2
X9.0Y-4.3
X9.0Y-4.4
X9.0Y-4.5
X9.0Y-4.6
X9.0Y-4.7
X9.0Y-4.8
X9.0Y-4.9
X9.0Y-5.0
X9.0Y-5.1
X9.0Y-5.2
X9.0Y-5.3
X9.0Y-5.4
X9.0Y-5.5
X9.0Y-5.6
X9.0Y-5.7
X9.0Y-5.8
X9.0Y-5.9
X9.0Y-6.0
X9.0Y-6.1
X9.0Y-6.2
X9.0Y-6.3
X9.0Y-6.4
X9.0Y-6.5
X9.0Y-6.6
X9.0Y-6.7
X9.0Y-6.8
X9.0Y-6.9
X9.0Y-7.0
X9.0Y-7.1
X9.0Y-7.2
X9.0Y-7.3
X9.0Y-7.4
X9.0Y-7.5
X9.0Y-7.6
X9.0Y-7.7
X9.0Y-7.8
X9.0Y-7.9
X9.0Y-8.0
X9.0Y-8.1
X9.0Y-8.2
X9.0Y-8.3
X9.1Y-3.0
X9.1Y-3.1
X9.1Y-3.2
X9.1Y-3.3
X9.1Y-3.4
X9.1Y-3.5
X9.1Y-3.6
X9.1Y-3.7
X9.1Y-3.8
X9.1Y-3.9
X9.1Y-4.0
X9.1Y-4.1
X9.1Y-4.2
X9.1Y-4.3
X9.1Y-4.4
X9.1Y-4.5
X9.1Y-4.6
X9.1Y-4.7
X9.1Y-4.8
X9.1Y-4.9
X9.1Y-5.0
X9.1Y-5.1
X9.1Y-5.2
X9.1Y-5.3
X9.1Y-5.4
X9.1Y-5.5
X9.1Y-5.6
X9.1Y-5.7
X9.1Y-5.8
X9.1Y-5.9
X9.1Y-6.0
X9.1Y-6.1
X9.1Y-6.2
X9.1Y-6.3
X9.1Y-6.4
X9.1Y-6.5
X9.1Y-6.6
X9.1Y-6.7
X9.1Y-6.8
X9.1Y-6.9
X9.1Y-7.0
X9.1Y-7.1
X9.1Y-7.2
X9.1Y-7.3
X9.1Y-7.4
X9.1Y-7.5
X9.1Y-7.6
X9.1Y-7.7
X9.1Y-7.8
X9.1Y-7.9
X9.1Y-8.0
X9.1Y-8.1
X9.1Y-8.2
X9.1Y-8.3
X9.2Y-3.0
X9.2Y-3.1
X9.2Y-3.2
X9.2Y-3.3
X9.2Y-3.4
X9.2Y-3.5
X9.2Y-3.6
X9.2Y-3.7
X9.2Y-3.8
X9.2Y-3.9
X9.2Y-4.0
X9.2Y-4.1
X9.2Y-4.2
X9.2Y-4.3
X9.2Y-4.4
X9.2Y-4.5
X9.2Y-4.6
X9.2Y-4.7
X9.2Y-4.8
X9.2Y-4.9
X9.2Y-5.0
X9.2Y-5.1
X9.2Y-5.2
X9.2Y-5.3
X9.2Y-5.4
X9.2Y-5.5
X9.2Y-5.6
X9.2Y-5.7
X9.2Y-5.8
X9.2Y-5.9
X9.2Y-6.0
X9.2Y-6.1
X9.2Y-6.2
X9.2Y-6.3
X9.2Y-6.4
X9.2Y-6.5
X9.2Y-6.6
X9.2Y-6.7
X9.2Y-6.8
X9.2Y-6.9
X9.2Y-7.0
X9.2Y-7.1
X9.2Y-7.2
X9.2Y-7.3
X9.2Y-7.4
X9.2Y-7.5
X9.2Y-7.6
X9.2Y-7.7
X9.2Y-7.8
X9.2Y-7.9
X9.2Y-8.0
X9.2Y-8.1
X9.2Y-8.2
X9.2Y-8.3
X9.3Y-3.0
X9.3Y-3.1
X9.3Y-3.2
X9.3Y-3.3
X9.3Y-3.4
X9.3Y-3.5
X9.3Y-3.6
X9.3Y-3.7
X9.3Y-3.8
X9.3Y-3.9
X9.3Y-4.0
X9.3Y-4.1
X9.3Y-4.2
X9.3Y-4.3
X9.3Y-4.4
X9.3Y-4.5
X9.3Y-4.6
X9.3Y-4.7
X9.3Y-4.8
X9.3Y-4.9
X9.3Y-5.0
X9.3Y-5.1
X9.3Y-5.2
X9.3Y-5.3
X9.3Y-5.4
X9.3Y-5.5
X9.3Y-5.6
X9.3Y-5.7
X9.3Y-5.8
X9.3Y-5.9
X9.3Y-6.0
X9.3Y-6.1
X9.3Y-6.2
X9.3Y-6.3
X9.3Y-6.4
X9.3Y-6.5
X9.3Y-6.6
X9.3Y-6.7
X9.3Y-6.8
X9.3Y-6.9
X9.3Y-7.0
X9.3Y-7.1
X9.3Y-7.2
X9.3Y-7.3
X9.3Y-7.4
X9.3Y-7.5
X9.3Y-7.6
X9.3Y-7.7
X9.3Y-7.8
X9.3Y-7.9
X9.3Y-8.0
X9.3Y-8.1
X9.3Y-8.2
X9.3Y-8.3
X9.4Y-3.0
X9.4Y-3.1
X9.4Y-3.2
X9.4Y-3.3
X9.4Y-3.4
X9.4Y-3.5
X9.4Y-3.6
X9.4Y-3.7
X9.4Y-3.8
X9.4Y-3.9
X9.4Y-4.0
X9.4Y-4.1
X9.4Y-4.2
X9.4Y-4.3
X9.4Y-4.4
X9.4Y-4.5
X9.4Y-4.6
X9.4Y-4.7
X9.4Y-4.8
X9.4Y-4.9
X9.4Y-5.0
X9.4Y-5.1
X9.4Y-5.2
X9.4Y-5.3
X9.4Y-5.4
X9.4Y-5.5
X9.4Y-5.6
X9.4Y-5.7
X9.4Y-5.8
X9.4Y-5.9
X9.4Y-6.0
X9.4Y-6.1
X9.4Y-6.2
X9.4Y-6.3
X9.4Y-6.4
X9.4Y-6.5
X9.4Y-6.6
X9.4Y-6.7
X9.4Y-6.8
X9.4Y-6.9
X9.4Y-7.0
X9.4Y-7.1
X9.4Y-7.2
X9.4Y-7.3
X9.4Y-7.4
X9.4Y-7.5
X9.4Y-7.6
X9.4Y-7.7
X9.4Y-7.8
X9.4Y-7.9
X9.4Y-8.0
X9.4Y-8.1
X9.4Y-8.2
X9.4Y-8.3
X9.5Y-3.0
X9.5Y-3.1
X9.5Y-3.2
X9.5Y-3.3
X9.5Y-3.4
X9.5Y-3.5
X9.5Y-3.6
X9.5Y-3.7
X9.5Y-3.8
X9.5Y-3.9
X9.5Y-4.0
X9.5Y-4.1
X9.5Y-4.2
X9.5Y-4.3
X9.5Y-4.4
X9.5Y-4.5
X9.5Y-4.6
X9.5Y-4.7
X9.5Y-4.8
X9.5Y-4.9
X9.5Y-5.0
X9.5Y-5.1
X9.5Y-5.2
X9.5Y-5.3
X9.5Y-5.4
X9.5Y-5.5
X9.5Y-5.6
X9.5Y-5.7
X9.5Y-5.8
X9.5Y-5.9
X9.5Y-6.0
X9.5Y-6.1
X9.5Y-6.2
X9.5Y-6.3
X9.5Y-6.4
X9.5Y-6.5
X9.5Y-6.6
X9.5Y-6.7
X9.5Y-6.8
X9.5Y-6.9
X9.5Y-7.0
X9.5Y-7.1
X9.5Y-7.2
X9.5Y-7.3
X9.5Y-7.4
X9.5Y-7.5
X9.5Y-7.6
X9.5Y-7.7
X9.5Y-7.8
X9.5Y-7.9
X9.5Y-8.0
X9.5Y-8.1
X9.5Y-8.2
X9.5Y-8.3
X9.6Y-3.0
X9.6Y-3.1
X9.6Y-3.2
X9.6Y-3.3
X9.6Y-3.4
X9.6Y-3.5
X9.6Y-3.6
X9.6Y-3.7
X9.6Y-3.8
X9.6Y-3.9
X9.6Y-4.0
X9.6Y-4.1
X9.6Y-4.2
X9.6Y-4.3
X9.6Y-4.4
X9.6Y-4.5
X9.6Y-4.6
X9.6Y-4.7
X9.6Y-4.8
X9.6Y-4.9
X9.6Y-5.0
X9.6Y-5.1
X9.6Y-5.2
X9.6Y-5.3
X9.6Y-5.4
X9.6Y-5.5
X9.6Y-5.6
X9.6Y-5.7
X9.6Y-5.8
X9.6Y-5.9
X9.6Y-6.0
X9.6Y-6.1
X9.6Y-6.2
X9.6Y-6.3
X9.6Y-6.4
X9.6Y-6.5
X9.6Y-6.6
X9.6Y-6.7
X9.6Y-6.8
X9.6Y-6.9
X9.6Y-7.0
X9.6Y-7.1
X9.6Y-7.2
X9.6Y-7.3
X9.6Y-7.4
X9.6Y-7.5
X9.6Y-7.6
X9.6Y-7.7
X9.6Y-7.8
X9.6Y-7.9
X9.6Y-8.0
X9.6Y-8.1
X9.6Y-8.2
X9.6Y-8.3
X9.7Y-3.0
X9.7Y-3.1
X9.7Y-3.2
X9.7Y-3.3
X9.7Y-3.4
X9.7Y-3.5
X9.7Y-3.6
X9.7Y-3.7
X9.7Y-3.8
X9.7Y-3.9
X9.7Y-4.0
X9.7Y-4.1
X9.7Y-4.2
X9.7Y-4.3
X9.7Y-4.4
X9.7Y-4.5
X9.7Y-4.6
X9.7Y-4.7
X9.7Y-4.8
X9.7Y-4.9
X9.7Y-5.0
X9.7Y-5.1
X9.7Y-5.2
X9.7Y-5.3
X9.7Y-5.4
X9.7Y-5.5
X9.7Y-5.6
X9.7Y-5.7
X9.7Y-5.8
X9.7Y-5.9
X9.7Y-6.0
X9.7Y-6.1
X9.7Y-6.2
X9.7Y-6.3
X9.7Y-6.4
X9.7Y-6.5
X9.7Y-6.6
X9.7Y-6.7
X9.7Y-6.8
X9.7Y-6.9
X9.7Y-7.0
X9.7Y-7.1
X9.7Y-7.2
X9.7Y-7.3
X9.7Y-7.4
X9.7Y-7.5
X9.7Y-7.6
X9.7Y-7.7
X9.7Y-7.8
X9.7Y-7.9
X9.7Y-8.0
X9.7Y-8.1
X9.7Y-8.2
X9.7Y-8.3
X9.8Y-3.0
X9.8Y-3.1
X9.8Y-3.2
X9.8Y-3.3
X9.8Y-3.4
X9.8Y-3.5
X9.8Y-3.6
X9.8Y-3.7
X9.8Y-3.8
X9.8Y-3.9
X9.8Y-4.0
X9.8Y-4.1
X9.8Y-4.2
X9.8Y-4.3
X9.8Y-4.4
X9.8Y-4.5
X9.8Y-4.6
X9.8Y-4.7
X9.8Y-4.8
X9.8Y-4.9
X9.8Y-5.0
X9.8Y-5.1
X9.8Y-5.2
X9.8Y-5.3
X9.8Y-5.4
X9.8Y-5.5
X9.8Y-5.6
X9.8Y-5.7
X9.8Y-5.8
X9.8Y-5.9
X9.8Y-6.0
X9.8Y-6.1
X9.8Y-6.2
X9.8Y-6.3
X9.8Y-6.4
X9.8Y-6.5
X9.8Y-6.6
X9.8Y-6.7
X9.8Y-6.8
X9.8Y-6.9
X9.8Y-7.0
X9.8Y-7.1
X9.8Y-7.2
X9.8Y-7.3
X9.8Y-7.4
X9.8Y-7.5
X9.8Y-7.6
X9.8Y-7.7
X9.8Y-7.8
X9.8Y-7.9
X9.8Y-8.0
X9.8Y-8.1
X9.8Y-8.2
X9.8Y-8.3
X9.9Y-3.0
X9.9Y-3.1
X9.9Y-3.2
X9.9Y-3.3
X9.9Y-3.4
X9.9Y-3.5
X9.9Y-3.6
X9.9Y-3.7
X9.9Y-3.8
X9.9Y-3.9
X9.9Y-4.0
X9.9Y-4.1
X9.9Y-4.2
X9.9Y-4.3
X9.9Y-4.4
X9.9Y-4.5
X9.9Y-4.6
X9.9Y-4.7
X9.9Y-4.8
X9.9Y-4.9
X9.9Y-5.0
X9.9Y-5.1
X9.9Y-5.2
X9.9Y-5.3
X9.9Y-5.4
X9.9Y-5.5
X9.9Y-5.6
X9.9Y-5.7
X9.9Y-5.8
X9.9Y-5.9
X9.9Y-6.0
X9.9Y-6.1
X9.9Y-6.2
X9.9Y-6.3
X9.9Y-6.4
X9.9Y-6.5
X9.9Y-6.6
X9.9Y-6.7
X9.9Y-6.8
X9.9Y-6.9
X9.9Y-7.0
X9.9Y-7.1
X9.9Y-7.2
X9.9Y-7.3
X9.9Y-7.4
X9.9Y-7.5
X9.9Y-7.6
X9.9Y-7.7
X9.9Y-7.8
X9.9Y-7.9
X9.9Y-8.0
X9.9Y-8.1
X9.9Y-8.2
X9.9Y-8.3
X10.0Y-3.0
X10.0Y-3.1
X10.0Y-3.2
X10.0Y-3.3
X10.0Y-3.4
X10.0Y-3.5
X10.0Y-3.6
X10.0Y-3.7
X10.0Y-3.8
X10.0Y-3.9
X10.0Y-4.0
X10.0Y-4.1
X10.0Y-4.2
X10.0Y-4.3
X10.0Y-4.4
X10.0Y-4.5
X10.0Y-4.6
X10.0Y-4.7
X10.0Y-4.8
X10.0Y-4.9
X10.0Y-5.0
X10.0Y-5.1
X10.0Y-5.2
X10.0Y-5.3
X10.0Y-5.4
X10.0Y-5.5
X10.0Y-5.6
X10.0Y-5.7
X10.0Y-5.8
X10.0Y-5.9
X10.0Y-6.0
X10.0Y-6.1
X10.0Y-6.2
X10.0Y-6.3
X10.0Y-6.4
X10.0Y-6.5
X10.0Y-6.6
X10.0Y-6.7
X10.0Y-6.8
X10.0Y-6.9
X10.0Y-7.0
X10.0Y-7.1
X10.0Y-7.2
X10.0Y-7.3
X10.0Y-7.4
X10.0Y-7.5
X10.0Y-7.6
X10.0Y-7.7
X10.0Y-7.8
X10.0Y-7.9
X10.0Y-8.0
X10.0Y-8.1
X10.0Y-8.2
X10.0Y-8.3
X10.1Y-3.0
X10.1Y-3.1
X10.1Y-3.2
X10.1Y-3.3
X10.1Y-3.4
X10.1Y-3.5
X10.1Y-3.6
X10.1Y-3.7
X10.1Y-3.8
X10.1Y-3.9
X10.1Y-4.0
X10.1Y-4.1
X10.1Y-4.2
X10.1Y-4.3
X10.1Y-4.4
X10.1Y-4.5
X10.1Y-4.6
X10.1Y-4.7
X10.1Y-4.8
X10.1Y-4.9
X10.1Y-5.0
X10.1Y-5.1
X10.1Y-5.2
X10.1Y-5.3
X10.1Y-5.4
X10.1Y-5.5
X10.1Y-5.6
X10.1Y-5.7
X10.1Y-5.8
X10.1Y-5.9
X10.1Y-6.0
X10.1Y-6.1
X10.1Y-6.2
X10.1Y-6.3
X10.1Y-6.4
X10.1Y-6.5
X10.1Y-6.6
X10.1Y-6.7
X10.1Y-6.8
X10.1Y-6.9
X10.1Y-7.0
X10.1Y-7.1
X10.1Y-7.2
X10.1Y-7.3
X10.1Y-7.4
X10.1Y-7.5
X10.1Y-7.6
X10.1Y-7.7
X10.1Y-7.8
X10.1Y-7.9
X10.1Y-8.0
X10.1Y-8.1
X10.1Y-8.2
X10.1Y-8.3
X10.2Y-3.0
X10.2Y-3.1
X10.2Y-3.2
X10.2Y-3.3
X10.2Y-3.4
X10.2Y-3.5
X10.2Y-3.6
X10.2Y-3.7
X10.2Y-3.8
X10.2Y-3.9
X10.2Y-4.0
X10.2Y-4.1
X10.2Y-4.2
X10.2Y-4.3
X10.2Y-4.4
X10.2Y-4.5
X10.2Y-4.6
X10.2Y-4.7
X10.2Y-4.8
X10.2Y-4.9
X10.2Y-5.0
X10.2Y-5.1
X10.2Y-5.2
X10.2Y-5.3
X10.2Y-5.4
X10.2Y-5.5
X10.2Y-5.6
X10.2Y-5.7
X10.2Y-5.8
X10.2Y-5.9
X10.2Y-6.0
X10.2Y-6.1
X10.2Y-6.2
X10.2Y-6.3
X10.2Y-6.4
X10.2Y-6.5
X10.2Y-6.6
X10.2Y-6.7
X10.2Y-6.8
X10.2Y-6.9
X10.2Y-7.0
X10.2Y-7.1
X10.2Y-7.2
X10.2Y-7.3
X10.2Y-7.4
X10.2Y-7.5
X10.2Y-7.6
X10.2Y-7.7
X10.2Y-7.8
X10.2Y-7.9
X10.2Y-8.0
X10.2Y-8.1
X10.2Y-8.2
X10.2Y-8.3
X10.3Y-3.0
X10.3Y-3.1
X10.3Y-3.2
X10.3Y-3.3
X10.3Y-3.4
X10.3Y-3.5
X10.3Y-3.6
X10.3Y-3.7
X10.3Y-3.8
X10.3Y-3.9
X10.3Y-4.0
X10.3Y-4.1
X10.3Y-4.2
X10.3Y-4.3
X10.3Y-4.4
X10.3Y-4.5
X10.3Y-4.6
X10.3Y-4.7
X10.3Y-4.8
X10.3Y-4.9
X10.3Y-5.0
X10.3Y-5.1
X10.3Y-5.2
X10.3Y-5.3
X10.3Y-5.4
X10.3Y-5.5
X10.3Y-5.6
X10.3Y-5.7
X10.3Y-5.8
X10.3Y-5.9
X10.3Y-6.0
X10.3Y-6.1
X10.3Y-6.2
X10.3Y-6.3
X10.3Y-6.4
X10.3Y-6.5
X10.3Y-6.6
X10.3Y-6.7
X10.3Y-6.8
X10.3Y-6.9
X10.3Y-7.0
X10.3Y-7.1
X10.3Y-7.2
X10.3Y-7.3
X10.3Y-7.4
X10.3Y-7.5
X10.3Y-7.6
X10.3Y-7.7
X10.3Y-7.8
X10.3Y-7.9
X10.3Y-8.0
X10.3Y-8.1
X10.3Y-8.2
X10.3Y-8.3
X10.4Y-3.0
X10.4Y-3.1
X10.4Y-3.2
X10.4Y-3.3
X10.4Y-3.4
X10.4Y-3.5
X10.4Y-3.6
X10.4Y-3.7
X10.4Y-3.8
X10.4Y-3.9
X10.4Y-4.0
X10.4Y-4.1
X10.4Y-4.2
X10.4Y-4.3
X10.4Y-4.4
X10.4Y-4.5
X10.4Y-4.6
X10.4Y-4.7
X10.4Y-4.8
X10.4Y-4.9
X10.4Y-5.0
X10.4Y-5.1
X10.4Y-5.2
X10.4Y-5.3
X10.4Y-5.4
X10.4Y-5.5
X10.4Y-5.6
X10.4Y-5.7
X10.4Y-5.8
X10.4Y-5.9
X10.4Y-6.0
X10.4Y-6.1
X10.4Y-6.2
X10.4Y-6.3
X10.4Y-6.4
X10.4Y-6.5
X10.4Y-6.6
X10.4Y-6.7
X10.4Y-6.8
X10.4Y-6.9
X10.4Y-7.0
X10.4Y-7.1
X10.4Y-7.2
X10.4Y-7.3
X10.4Y-7.4
X10.4Y-7.5
X10.4Y-7.6
X10.4Y-7.7
X10.4Y-7.8
X10.4Y-7.9
X10.4Y-8.0
X10.4Y-8.1
X10.4Y-8.2
X10.4Y-8.3
X10.5Y-3.0
X10.5Y-3.1
X10.5Y-3.2
X10.5Y-3.3
X10.5Y-3.4
X10.5Y-3.5
X10.5Y-3.6
X10.5Y-3.7
X10.5Y-3.8
X10.5Y-3.9
X10.5Y-4.0
X10.5Y-4.1
X10.5Y-4.2
X10.5Y-4.3
X10.5Y-4.4
X10.5Y-4.5
X10.5Y-4.6
X10.5Y-4.7
X10.5Y-4.8
X10.5Y-4.9
X10.5Y-5.0
X10.5Y-5.1
X10.5Y-5.2
X10.5Y-5.3
X10.5Y-5.4
X10.5Y-5.5
X10.5Y-5.6
X10.5Y-5.7
X10.5Y-5.8
X10.5Y-5.9
X10.5Y-6.0
X10.5Y-6.1
X10.5Y-6.2
X10.5Y-6.3
X10.5Y-6.4
X10.5Y-6.5
X10.5Y-6.6
X10.5Y-6.7
X10.5Y-6.8
X10.5Y-6.9
X10.5Y-7.0
X10.5Y-7.1
X10.5Y-7.2
X10.5Y-7.3
X10.5Y-7.4
X10.5Y-7.5
X10.5Y-7.6
X10.5Y-7.7
X10.5Y-7.8
X10.5Y-7.9
X10.5Y-8.0
X10.5Y-8.1
X10.5Y-8.2
X10.5Y-8.3
X10.6Y-3.0
X10.6Y-3.1
X10.6Y-3.2
X10.6Y-3.3
X10.6Y-3.4
X10.6Y-3.5
X10.6Y-3.6
X10.6Y-3.7
X10.6Y-3.8
X10.6Y-3.9
X10.6Y-4.0
X10.6Y-4.1
X10.6Y-4.2
X10.6Y-4.3
X10.6Y-4.4
X10.6Y-4.5
X10.6Y-4.6
X10.6Y-4.7
X10.6Y-4.8
X10.6Y-4.9
X10.6Y-5.0
X10.6Y-5.1
X10.6Y-5.2
X10.6Y-5.3
X10.6Y-5.4
X10.6Y-5.5
X10.6Y-5.6
X10.6Y-5.7
X10.6Y-5.8
X10.6Y-5.9
X10.6Y-6.0
X10.6Y-6.1
X10.6Y-6.2
X10.6Y-6.3
X10.6Y-6.4
X10.6Y-6.5
X10.6Y-6.6
X10.6Y-6.7
X10.6Y-6.8
X10.6Y-6.9
X10.6Y-7.0
X10.6Y-7.1
X10.6Y-7.2
X10.6Y-7.3
X10.6Y-7.4
X10.6Y-7.5
X10.6Y-7.6
X10.6Y-7.7
X10.6Y-7.8
X10.6Y-7.9
X10.6Y-8.0
X10.6Y-8.1
X10.6Y-8.2
X10.6Y-8.3
X10.7Y-3.0
X10.7Y-3.1
X10.7Y-3.2
X10.7Y-3.3
X10.7Y-3.4
X10.7Y-3.5
X10.7Y-3.6
X10.7Y-3.7
X10.7Y-3.8
X10.7Y-3.9
X10.7Y-4.0
X10.7Y-4.1
X10.7Y-4.2
X10.7Y-4.3
X10.7Y-4.4
X10.7Y-4.5
X10.7Y-4.6
X10.7Y-4.7
X10.7Y-4.8
X10.7Y-4.9
X10.7Y-5.0
X10.7Y-5.1
X10.7Y-5.2
X10.7Y-5.3
X10.7Y-5.4
X10.7Y-5.5
X10.7Y-5.6
X10.7Y-5.7
X10.7Y-5.8
X10.7Y-5.9
X10.7Y-6.0
X10.7Y-6.1
X10.7Y-6.2
X10.7Y-6.3
X10.7Y-6.4
X10.7Y-6.5
X10.7Y-6.6
X10.7Y-6.7
X10.7Y-6.8
X10.7Y-6.9
X10.7Y-7.0
X10.7Y-7.1
X10.7Y-7.2
X10.7Y-7.3
X10.7Y-7.4
X10.7Y-7.5
X10.7Y-7.6
X10.7Y-7.7
X10.7Y-7.8
X10.7Y-7.9
X10.7Y-8.0
X10.7Y-8.1
X10.7Y-8.2
X10.7Y-8.3
X10.8Y-3.0
X10.8Y-3.1
X10.8Y-3.2
X10.8Y-3.3
X10.8Y-3.4
X10.8Y-3.5
X10.8Y-3.6
X10.8Y-3.7
X10.8Y-3.8
X10.8Y-3.9
X10.8Y-4.0
X10.8Y-4.1
X10.8Y-4.2
X10.8Y-4.3
X10.8Y-4.4
X10.8Y-4.5
X10.8Y-4.6
X10.8Y-4.7
X10.8Y-4.8
X10.8Y-4.9
X10.8Y-5.0
X10.8Y-5.1
X10.8Y-5.2
X10.8Y-5.3
X10.8Y-5.4
X10.8Y-5.5
X10.8Y-5.6
X10.8Y-5.7
X10.8Y-5.8
X10.8Y-5.9
X10.8Y-6.0
X10.8Y-6.1
X10.8Y-6.2
X10.8Y-6.3
X10.8Y-6.4
X10.8Y-6.5
X10.8Y-6.6
X10.8Y-6.7
X10.8Y-6.8
X10.8Y-6.9
X10.8Y-7.0
X10.8Y-7.1
X10.8Y-7.2
X10.8Y-7.3
X10.8Y-7.4
X10.8Y-7.5
X10.8Y-7.6
X10.8Y-7.7
X10.8Y-7.8
X10.8Y-7.9
X10.8Y-8.0
X10.8Y-8.1
X10.8Y-8.2
X10.8Y-8.3
X10.9Y-3.0
X10.9Y-3.1
X10.9Y-3.2
X10.9Y-3.3
X10.9Y-3.4
X10.9Y-3.5
X10.9Y-3.6
X10.9Y-3.7
X10.9Y-3.8
X10.9Y-3.9
X10.9Y-4.0
X10.9Y-4.1
X10.9Y-4.2
X10.9Y-4.3
X10.9Y-4.4
X10.9Y-4.5
X10.9Y-4.6
X10.9Y-4.7
X10.9Y-4.8
X10.9Y-4.9
X10.9Y-5.0
X10.9Y-5.1
X10.9Y-5.2
X10.9Y-5.3
X10.9Y-5.4
X10.9Y-5.5
X10.9Y-5.6
X10.9Y-5.7
X10.9Y-5.8
X10.9Y-5.9
X10.9Y-6.0
X10.9Y-6.1
X10.9Y-6.2
X10.9Y-6.3
X10.9Y-6.4
X10.9Y-6.5
X10.9Y-6.6
X10.9Y-6.7
X10.9Y-6.8
X10.9Y-6.9
X10.9Y-7.0
X10.9Y-7.1
X10.9Y-7.2
X10.9Y-7.3
X10.9Y-7.4
X10.9Y-7.5
X10.9Y-7.6
X10.9Y-7.7
X10.9Y-7.8
X10.9Y-7.9
X10.9Y-8.0
X10.9Y-8.1
X10.9Y-8.2
X10.9Y-8.3
X11.0Y-3.0
X11.0Y-3.1
X11.0Y-3.2
X11.0Y-3.3
X11.0Y-3.4
X11.0Y-3.5
X11.0Y-3.6
X11.0Y-3.7
X11.0Y-3.8
X11.0Y-3.9
X11.0Y-4.0
X11.0Y-4.1
X11.0Y-4.2
X11.0Y-4.3
X11.0Y-4.4
X11.0Y-4.5
X11.0Y-4.6
X11.0Y-4.7
X11.0Y-4.8
X11.0Y-4.9
X11.0Y-5.0
X11.0Y-5.1
X11.0Y-5.2
X11.0Y-5.3
X11.0Y-5.4
X11.0Y-5.5
X11.0Y-5.6
X11.0Y-5.7
X11.0Y-5.8
X11.0Y-5.9
X11.0Y-6.0
X11.0Y-6.1
X11.0Y-6.2
X11.0Y-6.3
X11.0Y-6.4
X11.0Y-6.5
X11.0Y-6.6
X11.0Y-6.7
X11.0Y-6.8
X11.0Y-6.9
X11.0Y-7.0
X11.0Y-7.1
X11.0Y-7.2
X11.0Y-7.3
X11.0Y-7.4
X11.0Y-7.5
X11.0Y-7.6
X11.0Y-7.7
X11.0Y-7.8
X11.0Y-7.9
X11.0Y-8.0
X11.0Y-8.1
X11.0Y-8.2
X11.0Y-8.3
X11.1Y-3.0
X11.1Y-3.1
X11.1Y-3.2
X11.1Y-3.3
X11.1Y-3.4
X11.1Y-3.5
X11.1Y-3.6
X11.1Y-3.7
X11.1Y-3.8
X11.1Y-3.9
X11.1Y-4.0
X11.1Y-4.1
X11.1Y-4.2
X11.1Y-4.3
X11.1Y-4.4
X11.1Y-4.5
X11.1Y-4.6
X11.1Y-4.7
X11.1Y-4.8
X11.1Y-4.9
X11.1Y-5.0
X11.1Y-5.1
X11.1Y-5.2
X11.1Y-5.3
X11.1Y-5.4
X11.1Y-5.5
X11.1Y-5.6
X11.1Y-5.7
X11.1Y-5.8
X11.1Y-5.9
X11.1Y-6.0
X11.1Y-6.1
X11.1Y-6.2
X11.1Y-6.3
X11.1Y-6.4
X11.1Y-6.5
X11.1Y-6.6
X11.1Y-6.7
X11.1Y-6.8
X11.1Y-6.9
X11.1Y-7.0
X11.1Y-7.1
X11.1Y-7.2
X11.1Y-7.3
X11.1Y-7.4
X11.1Y-7.5
X11.1Y-7.6
X11.1Y-7.7
X11.1Y-7.8
X11.1Y-7.9
X11.1Y-8.0
X11.1Y-8.1
X11.1Y-8.2
X11.1Y-8.3
X11.2Y-3.0
X11.2Y-3.1
X11.2Y-3.2
X11.2Y-3.3
X11.2Y-3.4
X11.2Y-3.5
X11.2Y-3.6
X11.2Y-3.7
X11.2Y-3.8
X11.2Y-3.9
X11.2Y-4.0
X11.2Y-4.1
X11.2Y-4.2
X11.2Y-4.3
X11.2Y-4.4
X11.2Y-4.5
X11.2Y-4.6
X11.2Y-4.7
X11.2Y-4.8
X11.2Y-4.9
X11.2Y-5.0
X11.2Y-5.1
X11.2Y-5.2
X11.2Y-5.3
X11.2Y-5.4
X11.2Y-5.5
X11.2Y-5.6
X11.2Y-5.7
X11.2Y-5.8
X11.2Y-5.9
X11.2Y-6.0
X11.2Y-6.1
X11.2Y-6.2
X11.2Y-6.3
X11.2Y-6.4
X11.2Y-6.5
X11.2Y-6.6
X11.2Y-6.7
X11.2Y-6.8
X11.2Y-6.9
X11.2Y-7.0
X11.2Y-7.1
X11.2Y-7.2
X11.2Y-7.3
X11.2Y-7.4
X11.2Y-7.5
X11.2Y-7.6
X11.2Y-7.7
X11.2Y-7.8
X11.2Y-7.9
X11.2Y-8.0
X11.2Y-8.1
X11.2Y-8.2
X11.2Y-8.3
X11.3Y-3.0
X11.3Y-3.1
X11.3Y-3.2
X11.3Y-3.3
X11.3Y-3.4
X11.3Y-3.5
X11.3Y-3.6
X11.3Y-3.7
X11.3Y-3.8
X11.3Y-3.9
X11.3Y-4.0
X11.3Y-4.1
X11.3Y-4.2
X11.3Y-4.3
X11.3Y-4.4
X11.3Y-4.5
X11.3Y-4.6
X11.3Y-4.7
X11.3Y-4.8
X11.3Y-4.9
X11.3Y-5.0
X11.3Y-5.1
X11.3Y-5.2
X11.3Y-5.3
X11.3Y-5.4
X11.3Y-5.5
X11.3Y-5.6
X11.3Y-5.7
X11.3Y-5.8
X11.3Y-5.9
X11.3Y-6.0
X11.3Y-6.1
X11.3Y-6.2
X11.3Y-6.3
X11.3Y-6.4
X11.3Y-6.5
X11.3Y-6.6
X11.3Y-6.7
X11.3Y-6.8
X11.3Y-6.9
X11.3Y-7.0
X11.3Y-7.1
X11.3Y-7.2
X11.3Y-7.3
X11.3Y-7.4
X11.3Y-7.5
X11.3Y-7.6
X11.3Y-7.7
X11.3Y-7.8
X11.3Y-7.9
X11.3Y-8.0
X11.3Y-8.1
X11.3Y-8.2
X11.3Y-8.3
X11.4Y-3.0
X11.4Y-3.1
X11.4Y-3.2
X11.4Y-3.3
X11.4Y-3.4
X11.4Y-3.5
X11.4Y-3.6
X11.4Y-3.7
X11.4Y-3.8
X11.4Y-3.9
X11.4Y-4.0
X11.4Y-4.1
X11.4Y-4.2
X11.4Y-4.3
X11.4Y-4.4
X11.4Y-4.5
X11.4Y-4.6
X11.4Y-4.7
X11.4Y-4.8
X11.4Y-4.9
X11.4Y-5.0
X11.4Y-5.1
X11.4Y-5.2
X11.4Y-5.3
X11.4Y-5.4
X11.4Y-5.5
X11.4Y-5.6
X11.4Y-5.7
X11.4Y-5.8
X11.4Y-5.9
X11.4Y-6.0
X11.4Y-6.1
X11.4Y-6.2
X11.4Y-6.3
X11.4Y-6.4
X11.4Y-6.5
X11.4Y-6.6
X11.4Y-6.7
X11.4Y-6.8
X11.4Y-6.9
X11.4Y-7.0
X11.4Y-7.1
X11.4Y-7.2
X11.4Y-7.3
X11.4Y-7.4
X11.4Y-7.5
X11.4Y-7.6
X11.4Y-7.7
X11.4Y-7.8
X11.4Y-7.9
X11.4Y-8.0
X11.4Y-8.1
X11.4Y-8.2
X11.4Y-8.3
X11.5Y-3.0
X11.5Y-3.1
X11.5Y-3.2
X11.5Y-3.3
X11.5Y-3.4
X11.5Y-3.5
X11.5Y-3.6
X11.5Y-3.7
X11.5Y-3.8
X11.5Y-3.9
X11.5Y-4.0
X11.5Y-4.1
X11.5Y-4.2
X11.5Y-4.3
X11.5Y-4.4
X11.5Y-4.5
X11.5Y-4.6
X11.5Y-4.7
X11.5Y-4.8
X11.5Y-4.9
X11.5Y-5.0
X11.5Y-5.1
X11.5Y-5.2
X11.5Y-5.3
X11.5Y-5.4
X11.5Y-5.5
X11.5Y-5.6
X11.5Y-5.7
X11.5Y-5.8
X11.5Y-5.9
X11.5Y-6.0
X11.5Y-6.1
X11.5Y-6.2
X11.5Y-6.3
X11.5Y-6.4
X11.5Y-6.5
X11.5Y-6.6
X11.5Y-6.7
X11.5Y-6.8
X11.5Y-6.9
X11.5Y-7.0
X11.5Y-7.1
X11.5Y-7.2
X11.5Y-7.3
X11.5Y-7.4
X11.5Y-7.5
X11.5Y-7.6
X11.5Y-7.7
X11.5Y-7.8
X11.5Y-7.9
X11.5Y-8.0
X11.5Y-8.1
X11.5Y-8.2
X11.5Y-8.3
X11.6Y-3.0
X11.6Y-3.1
X11.6Y-3.2
X11.6Y-3.3
X11.6Y-3.4
X11.6Y-3.5
X11.6Y-3.6
X11.6Y-3.7
X11.6Y-3.8
X11.6Y-3.9
X11.6Y-4.0
X11.6Y-4.1
X11.6Y-4.2
X11.6Y-4.3
X11.6Y-4.4
X11.6Y-4.5
X11.6Y-4.6
X11.6Y-4.7
X11.6Y-4.8
X11.6Y-4.9
X11.6Y-5.0
X11.6Y-5.1
X11.6Y-5.2
X11.6Y-5.3
X11.6Y-5.4
X11.6Y-5.5
X11.6Y-5.6
X11.6Y-5.7
X11.6Y-5.8
X11.6Y-5.9
X11.6Y-6.0
X11.6Y-6.1
X11.6Y-6.2
X11.6Y-6.3
X11.6Y-6.4
X11.6Y-6.5
X11.6Y-6.6
X11.6Y-6.7
X11.6Y-6.8
X11.6Y-6.9
X11.6Y-7.0
X11.6Y-7.1
X11.6Y-7.2
X11.6Y-7.3
X11.6Y-7.4
X11.6Y-7.5
X11.6Y-7.6
X11.6Y-7.7
X11.6Y-7.8
X11.6Y-7.9
X11.6Y-8.0
X11.6Y-8.1
X11.6Y-8.2
X11.6Y-8.3
X11.7Y-3.0
X11.7Y-3.1
X11.7Y-3.2
X11.7Y-3.3
X11.7Y-3.4
X11.7Y-3.5
X11.7Y-3.6
X11.7Y-3.7
X11.7Y-3.8
X11.7Y-3.9
X11.7Y-4.0
X11.7Y-4.1
X11.7Y-4.2
X11.7Y-4.3
X11.7Y-4.4
X11.7Y-4.5
X11.7Y-4.6
X11.7Y-4.7
X11.7Y-4.8
X11.7Y-4.9
X11.7Y-5.0
X11.7Y-5.1
X11.7Y-5.2
X11.7Y-5.3
X11.7Y-5.4
X11.7Y-5.5
X11.7Y-5.6
X11.7Y-5.7
X11.7Y-5.8
X11.7Y-5.9
X11.7Y-6.0
X11.7Y-6.1
X11.7Y-6.2
X11.7Y-6.3
X11.7Y-6.4
X11.7Y-6.5
X11.7Y-6.6
X11.7Y-6.7
X11.7Y-6.8
X11.7Y-6.9
X11.7Y-7.0
X11.7Y-7.1
X11.7Y-7.2
X11.7Y-7.3
X11.7Y-7.4
X11.7Y-7.5
X11.7Y-7.6
X11.7Y-7.7
X11.7Y-7.8
X11.7Y-7.9
X11.7Y-8.0
X11.7Y-8.1
X11.7Y-8.2
X11.7Y-8.3
X11.8Y-3.0
X11.8Y-3.1
X11.8Y-3.2
X11.8Y-3.3
X11.8Y-3.4
X11.8Y-3.5
X11.8Y-3.6
X11.8Y-3.7
X11.8Y-3.8
X11.8Y-3.9
X11.8Y-4.0
X11.8Y-4.1
X11.8Y-4.2
X11.8Y-4.3
X11.8Y-4.4
X11.8Y-4.5
X11.8Y-4.6
X11.8Y-4.7
X11.8Y-4.8
X11.8Y-4.9
X11.8Y-5.0
X11.8Y-5.1
X11.8Y-5.2
X11.8Y-5.3
X11.8Y-5.4
X11.8Y-5.5
X11.8Y-5.6
X11.8Y-5.7
X11.8Y-5.8
X11.8Y-5.9
X11.8Y-6.0
X11.8Y-6.1
X11.8Y-6.2
X11.8Y-6.3
X11.8Y-6.4
X11.8Y-6.5
X11.8Y-6.6
X11.8Y-6.7
X11.8Y-6.8
X11.8Y-6.9
X11.8Y-7.0
X11.8Y-7.1
X11.8Y-7.2
X11.8Y-7.3
X11.8Y-7.4
X11.8Y-7.5
X11.8Y-7.6
X11.8Y-7.7
X11.8Y-7.8
X11.8Y-7.9
X11.8Y-8.0
X11.8Y-8.1
X11.8Y-8.2
X11.8Y-8.3
X11.9Y-3.0
X11.9Y-3.1
X11.9Y-3.2
X11.9Y-3.3
X11.9Y-3.4
X11.9Y-3.5
X11.9Y-3.6
X11.9Y-3.7
X11.9Y-3.8
X11.9Y-3.9
X11.9Y-4.0
X11.9Y-4.1
X11.9Y-4.2
X11.9Y-4.3
X11.9Y-4.4
X11.9Y-4.5
X11.9Y-4.6
X11.9Y-4.7
X11.9Y-4.8
X11.9Y-4.9
X11.9Y-5.0
X11.9Y-5.1
X11.9Y-5.2
X11.9Y-5.3
X11.9Y-5.4
X11.9Y-5.5
X11.9Y-5.6
X11.9Y-5.7
X11.9Y-5.8
X11.9Y-5.9
X11.9Y-6.0
X11.9Y-6.1
X11.9Y-6.2
X11.9Y-6.3
X11.9Y-6.4
X11.9Y-6.5
X11.9Y-6.6
X11.9Y-6.7
X11.9Y-6.8
X11.9Y-6.9
X11.9Y-7.0
X11.9Y-7.1
X11.9Y-7.2
X11.9Y-7.3
X11.9Y-7.4
X11.9Y-7.5
X11.9Y-7.6
X11.9Y-7.7
X11.9Y-7.8
X11.9Y-7.9
X11.9Y-8.0
X11.9Y-8.1
X11.9Y-8.2
X11.9Y-8.3
X12.0Y-3.0
X12.0Y-3.1
X12.0Y-3.2
X12.0Y-3.3
X12.0Y-3.4
X12.0Y-3.5
X12.0Y-3.6
X12.0Y-3.7
X12.0Y-3.8
X12.0Y-3.9
X12.0Y-4.0
X12.0Y-4.1
X12.0Y-4.2
X12.0Y-4.3
X12.0Y-4.4
X12.0Y-4.5
X12.0Y-4.6
X12.0Y-4.7
X12.0Y-4.8
X12.0Y-4.9
X12.0Y-5.0
X12.0Y-5.1
X12.0Y-5.2
X12.0Y-5.3
X12.0Y-5.4
X12.0Y-5.5
X12.0Y-5.6
X12.0Y-5.7
X12.0Y-5.8
X12.0Y-5.9
X12.0Y-6.0
X12.0Y-6.1
X12.0Y-6.2
X12.0Y-6.3
X12.0Y-6.4
X12.0Y-6.5
X12.0Y-6.6
X12.0Y-6.7
X12.0Y-6.8
X12.0Y-6.9
X12.0Y-7.0
X12.0Y-7.1
X12.0Y-7.2
X12.0Y-7.3
X12.0Y-7.4
X12.0Y-7.5
X12.0Y-7.6
X12.0Y-7.7
X12.0Y-7.8
X12.0Y-7.9
X12.0Y-8.0
X12.0Y-8.1
X12.0Y-8.2
X12.0Y-8.3
X12.1Y-3.0
X12.1Y-3.1
X12.1Y-3.2
X12.1Y-3.3
X12.1Y-3.4
X12.1Y-3.5
X12.1Y-3.6
X12.1Y-3.7
X12.1Y-3.8
X12.1Y-3.9
X12.1Y-4.0
X12.1Y-4.1
X12.1Y-4.2
X12.1Y-4.3
X12.1Y-4.4
X12.1Y-4.5
X12.1Y-4.6
X12.1Y-4.7
X12.1Y-4.8
X12.1Y-4.9
X12.1Y-5.0
X12.1Y-5.1
X12.1Y-5.2
X12.1Y-5.3
X12.1Y-5.4
X12.1Y-5.5
X12.1Y-5.6
X12.1Y-5.7
X12.1Y-5.8
X12.1Y-5.9
X12.1Y-6.0
X12.1Y-6.1
X12.1Y-6.2
X12.1Y-6.3
X12.1Y-6.4
X12.1Y-6.5
X12.1Y-6.6
X12.1Y-6.7
X12.1Y-6.8
X12.1Y-6.9
X12.1Y-7.0
X12.1Y-7.1
X12.1Y-7.2
X12.1Y-7.3
X12.1Y-7.4
X12.1Y-7.5
X12.1Y-7.6
X12.1Y-7.7
X12.1Y-7.8
X12.1Y-7.9
X12.1Y-8.0
X12.1Y-8.1
X12.1Y-8.2
X12.1Y-8.3
X12.2Y-3.0
X12.2Y-3.1
X12.2Y-3.2
X12.2Y-3.3
X12.2Y-3.4
X12.2Y-3.5
X12.2Y-3.6
X12.2Y-3.7
X12.2Y-3.8
X12.2Y-3.9
X12.2Y-4.0
X12.2Y-4.1
X12.2Y-4.2
X12.2Y-4.3
X12.2Y-4.4
X12.2Y-4.5
X12.2Y-4.6
X12.2Y-4.7
X12.2Y-4.8
X12.2Y-4.9
X12.2Y-5.0
X12.2Y-5.1
X12.2Y-5.2
X12.2Y-5.3
X12.2Y-5.4
X12.2Y-5.5
X12.2Y-5.6
X12.2Y-5.7
X12.2Y-5.8
X12.2Y-5.9
X12.2Y-6.0
X12.2Y-6.1
X12.2Y-6.2
X12.2Y-6.3
X12.2Y-6.4
X12.2Y-6.5
X12.2Y-6.6
X12.2Y-6.7
X12.2Y-6.8
X12.2Y-6.9
X12.2Y-7.0
X12.2Y-7.1
X12.2Y-7.2
X12.2Y-7.3
X12.2Y-7.4
X12.2Y-7.5
X12.2Y-7.6
X12.2Y-7.7
X12.2Y-7.8
X12.2Y-7.9
X12.2Y-8.0
X12.2Y-8.1
X12.2Y-8.2
X12.2Y-8.3
X12.3Y-3.0
X12.3Y-3.1
X12.3Y-3.2
X12.3Y-3.3
X12.3Y-3.4
X12.3Y-3.5
X12.3Y-3.6
X12.3Y-3.7
X12.3Y-3.8
X12.3Y-3.9
X12.3Y-4.0
X12.3Y-4.1
X12.3Y-4.2
X12.3Y-4.3
X12.3Y-4.4
X12.3Y-4.5
X12.3Y-4.6
X12.3Y-4.7
X12.3Y-4.8
X12.3Y-4.9
X12.3Y-5.0
X12.3Y-5.1
X12.3Y-5.2
X12.3Y-5.3
X12.3Y-5.4
X12.3Y-5.5
X12.3Y-5.6
X12.3Y-5.7
X12.3Y-5.8
X12.3Y-5.9
X12.3Y-6.0
X12.3Y-6.1
X12.3Y-6.2
X12.3Y-6.3
X12.3Y-6.4
X12.3Y-6.5
X12.3Y-6.6
X12.3Y-6.7
X12.3Y-6.8
X12.3Y-6.9
X12.3Y-7.0
X12.3Y-7.1
X12.3Y-7.2
X12.3Y-7.3
X12.3Y-7.4
X12.3Y-7.5
X12.3Y-7.6
X12.3Y-7.7
X12.3Y-7.8
X12.3Y-7.9
X12.3Y-8.0
X12.3Y-8.1
X12.3Y-8.2
X12.3Y-8.3
X12.4Y-3.0
X12.4Y-3.1
X12.4Y-3.2
X12.4Y-3.3
X12.4Y-3.4
X12.4Y-3.5
X12.4Y-3.6
X12.4Y-3.7
X12.4Y-3.8
X12.4Y-3.9
X12.4Y-4.0
X12.4Y-4.1
X12.4Y-4.2
X12.4Y-4.3
X12.4Y-4.4
X12.4Y-4.5
X12.4Y-4.6
X12.4Y-4.7
X12.4Y-4.8
X12.4Y-4.9
X12.4Y-5.0
X12.4Y-5.1
X12.4Y-5.2
X12.4Y-5.3
X12.4Y-5.4
X12.4Y-5.5
X12.4Y-5.6
X12.4Y-5.7
X12.4Y-5.8
X12.4Y-5.9
X12.4Y-6.0
X12.4Y-6.1
X12.4Y-6.2
X12.4Y-6.3
X12.4Y-6.4
X12.4Y-6.5
X12.4Y-6.6
X12.4Y-6.7
X12.4Y-6.8
X12.4Y-6.9
X12.4Y-7.0
X12.4Y-7.1
X12.4Y-7.2
X12.4Y-7.3
X12.4Y-7.4
X12.4Y-7.5
X12.4Y-7.6
X12.4Y-7.7
X12.4Y-7.8
X12.4Y-7.9
X12.4Y-8.0
X12.4Y-8.1
X12.4Y-8.2
X12.4Y-8.3
X12.5Y-3.0
X12.5Y-3.1
X12.5Y-3.2
X12.5Y-3.3
X12.5Y-3.4
X12.5Y-3.5
X12.5Y-3.6
X12.5Y-3.7
X12.5Y-3.8
X12.5Y-3.9
X12.5Y-4.0
X12.5Y-4.1
X12.5Y-4.2
X12.5Y-4.3
X12.5Y-4.4
X12.5Y-4.5
X12.5Y-4.6
X12.5Y-4.7
X12.5Y-4.8
X12.5Y-4.9
X12.5Y-5.0
X12.5Y-5.1
X12.5Y-5.2
X12.5Y-5.3
X12.5Y-5.4
X12.5Y-5.5
X12.5Y-5.6
X12.5Y-5.7
X12.5Y-5.8
X12.5Y-5.9
X12.5Y-6.0
X12.5Y-6.1
X12.5Y-6.2
X12.5Y-6.3
X12.5Y-6.4
X12.5Y-6.5
X12.5Y-6.6
X12.5Y-6.7
X12.5Y-6.8
X12.5Y-6.9
X12.5Y-7.0
X12.5Y-7.1
X12.5Y-7.2
X12.5Y-7.3
X12.5Y-7.4
X12.5Y-7.5
X12.5Y-7.6
X12.5Y-7.7
X12.5Y-7.8
X12.5Y-7.9
X12.5Y-8.0
X12.5Y-8.1
X12.5Y-8.2
X12.5Y-8.3
X12.6Y-3.0
X12.6Y-3.1
X12.6Y-3.2
X12.6Y-3.3
X12.6Y-3.4
X12.6Y-3.5
X12.6Y-3.6
X12.6Y-3.7
X12.6Y-3.8
X12.6Y-3.9
X12.6Y-4.0
X12.6Y-4.1
X12.6Y-4.2
X12.6Y-4.3
X12.6Y-4.4
X12.6Y-4.5
X12.6Y-4.6
X12.6Y-4.7
X12.6Y-4.8
X12.6Y-4.9
X12.6Y-5.0
X12.6Y-5.1
X12.6Y-5.2
X12.6Y-5.3
X12.6Y-5.4
X12.6Y-5.5
X12.6Y-5.6
X12.6Y-5.7
X12.6Y-5.8
X12.6Y-5.9
X12.6Y-6.0
X12.6Y-6.1
X12.6Y-6.2
X12.6Y-6.3
X12.6Y-6.4
X12.6Y-6.5
X12.6Y-6.6
X12.6Y-6.7
X12.6Y-6.8
X12.6Y-6.9
X12.6Y-7.0
X12.6Y-7.1
X12.6Y-7.2
X12.6Y-7.3
X12.6Y-7.4
X12.6Y-7.5
X12.6Y-7.6
X12.6Y-7.7
X12.6Y-7.8
X12.6Y-7.9
X12.6Y-8.0
X12.6Y-8.1
X12.6Y-8.2
X12.6Y-8.3
X12.7Y-3.0
X12.7Y-3.1
X12.7Y-3.2
X12.7Y-3.3
X12.7Y-3.4
X12.7Y-3.5
X12.7Y-3.6
X12.7Y-3.7
X12.7Y-3.8
X12.7Y-3.9
X12.7Y-4.0
X12.7Y-4.1
X12.7Y-4.2
X12.7Y-4.3
X12.7Y-4.4
X12.7Y-4.5
X12.7Y-4.6
X12.7Y-4.7
X12.7Y-4.8
X12.7Y-4.9
X12.7Y-5.0
X12.7Y-5.1
X12.7Y-5.2
X12.7Y-5.3
X12.7Y-5.4
X12.7Y-5.5
X12.7Y-5.6
X12.7Y-5.7
X12.7Y-5.8
X12.7Y-5.9
X12.7Y-6.0
X12.7Y-6.1
X12.7Y-6.2
X12.7Y-6.3
X12.7Y-6.4
X12.7Y-6.5
X12.7Y-6.6
X12.7Y-6.7
X12.7Y-6.8
X12.7Y-6.9
X12.7Y-7.0
X12.7Y-7.1
X12.7Y-7.2
X12.7Y-7.3
X12.7Y-7.4
X12.7Y-7.5
X12.7Y-7.6
X12.7Y-7.7
X12.7Y-7.8
X12.7Y-7.9
X12.7Y-8.0
X12.7Y-8.1
X12.7Y-8.2
X12.7Y-8.3
X12.8Y-3.0
X12.8Y-3.1
X12.8Y-3.2
X12.8Y-3.3
X12.8Y-3.4
X12.8Y-3.5
X12.8Y-3.6
X12.8Y-3.7
X12.8Y-3.8
X12.8Y-3.9
X12.8Y-4.0
X12.8Y-4.1
X12.8Y-4.2
X12.8Y-4.3
X12.8Y-4.4
X12.8Y-4.5
X12.8Y-4.6
X12.8Y-4.7
X12.8Y-4.8
X12.8Y-4.9
X12.8Y-5.0
X12.8Y-5.1
X12.8Y-5.2
X12.8Y-5.3
X12.8Y-5.4
X12.8Y-5.5
X12.8Y-5.6
X12.8Y-5.7
X12.8Y-5.8
X12.8Y-5.9
X12.8Y-6.0
X12.8Y-6.1
X12.8Y-6.2
X12.8Y-6.3
X12.8Y-6.4
X12.8Y-6.5
X12.8Y-6.6
X12.8Y-6.7
X12.8Y-6.8
X12.8Y-6.9
X12.8Y-7.0
X12.8Y-7.1
X12.8Y-7.2
X12.8Y-7.3
X12.8Y-7.4
X12.8Y-7.5
X12.8Y-7.6
X12.8Y-7.7
X12.8Y-7.8
X12.8Y-7.9
X12.8Y-8.0
X12.8Y-8.1
X12.8Y-8.2
X12.8Y-8.3
X12.9Y-3.0
X12.9Y-3.1
X12.9Y-3.2
X12.9Y-3.3
X12.9Y-3.4
X12.9Y-3.5
X12.9Y-3.6
X12.9Y-3.7
X12.9Y-3.8
X12.9Y-3.9
X12.9Y-4.0
X12.9Y-4.1
X12.9Y-4.2
X12.9Y-4.3
X12.9Y-4.4
X12.9Y-4.5
X12.9Y-4.6
X12.9Y-4.7
X12.9Y-4.8
X12.9Y-4.9
X12.9Y-5.0
X12.9Y-5.1
X12.9Y-5.2
X12.9Y-5.3
X12.9Y-5.4
X12.9Y-5.5
X12.9Y-5.6
X12.9Y-5.7
X12.9Y-5.8
X12.9Y-5.9
X12.9Y-6.0
X12.9Y-6.1
X12.9Y-6.2
X12.9Y-6.3
X12.9Y-6.4
X12.9Y-6.5
X12.9Y-6.6
X12.9Y-6.7
X12.9Y-6.8
X12.9Y-6.9
X12.9Y-7.0
X12.9Y-7.1
X12.9Y-7.2
X12.9Y-7.3
X12.9Y-7.4
X12.9Y-7.5
X12.9Y-7.6
X12.9Y-7.7
X12.9Y-7.8
X12.9Y-7.9
X12.9Y-8.0
X12.9Y-8.1
X12.9Y-8.2
X12.9Y-8.3
X13.0Y-3.0
X13.0Y-3.1
X13.0Y-3.2
X13.0Y-3.3
X13.0Y-3.4
X13.0Y-3.5
X13.0Y-3.6
X13.0Y-3.7
X13.0Y-3.8
X13.0Y-3.9
X13.0Y-4.0
X13.0Y-4.1
X13.0Y-4.2
X13.0Y-4.3
X13.0Y-4.4
X13.0Y-4.5
X13.0Y-4.6
X13.0Y-4.7
X13.0Y-4.8
X13.0Y-4.9
X13.0Y-5.0
X13.0Y-5.1
X13.0Y-5.2
X13.0Y-5.3
X13.0Y-5.4
X13.0Y-5.5
X13.0Y-5.6
X13.0Y-5.7
X13.0Y-5.8
X13.0Y-5.9
X13.0Y-6.0
X13.0Y-6.1
X13.0Y-6.2
X13.0Y-6.3
X13.0Y-6.4
X13.0Y-6.5
X13.0Y-6.6
X13.0Y-6.7
X13.0Y-6.8
X13.0Y-6.9
X13.0Y-7.0
X13.0Y-7.1
X13.0Y-7.2
X13.0Y-7.3
X13.0Y-7.4
X13.0Y-7.5
X13.0Y-7.6
X13.0Y-7.7
X13.0Y-7.8
X13.0Y-7.9
X13.0Y-8.0
X13.0Y-8.1
X13.0Y-8.2
X13.0Y-8.3
X13.1Y-3.0
X13.1Y-3.1
X13.1Y-3.2
X13.1Y-3.3
X13.1Y-3.4
X13.1Y-3.5
X13.1Y-3.6
X13.1Y-3.7
X13.1Y-3.8
X13.1Y-3.9
X13.1Y-4.0
X13.1Y-4.1
X13.1Y-4.2
X13.1Y-4.3
X13.1Y-4.4
X13.1Y-4.5
X13.1Y-4.6
X13.1Y-4.7
X13.1Y-4.8
X13.1Y-4.9
X13.1Y-5.0
X13.1Y-5.1
X13.1Y-5.2
X13.1Y-5.3
X13.1Y-5.4
X13.1Y-5.5
X13.1Y-5.6
X13.1Y-5.7
X13.1Y-5.8
X13.1Y-5.9
X13.1Y-6.0
X13.1Y-6.1
X13.1Y-6.2
X13.1Y-6.3
X13.1Y-6.4
X13.1Y-6.5
X13.1Y-6.6
X13.1Y-6.7
X13.1Y-6.8
X13.1Y-6.9
X13.1Y-7.0
X13.1Y-7.1
X13.1Y-7.2
X13.1Y-7.3
X13.1Y-7.4
X13.1Y-7.5
X13.1Y-7.6
X13.1Y-7.7
X13.1Y-7.8
X13.1Y-7.9
X13.1Y-8.0
X13.1Y-8.1
X13.1Y-8.1
X13.1Y-8.2
X13.1Y-8.3
X13.2Y-3.0
X13.2Y-3.1
X13.2Y-3.2
X13.2Y-3.3
X13.2Y-3.4
X13.2Y-3.5
X13.2Y-3.6
X13.2Y-3.7
X13.2Y-3.8
X13.2Y-3.9
X13.2Y-4.0
X13.2Y-4.1
X13.2Y-4.2
X13.2Y-4.3
X13.2Y-4.4
X13.2Y-4.5
X13.2Y-4.6
X13.2Y-4.7
X13.2Y-4.8
X13.2Y-4.9
X13.2Y-5.0
X13.2Y-5.1
X13.2Y-5.2
X13.2Y-5.3
X13.2Y-5.4
X13.2Y-5.5
X13.2Y-5.6
X13.2Y-5.7
X13.2Y-5.8
X13.2Y-5.9
X13.2Y-6.0
X13.2Y-6.1
X13.2Y-6.2
X13.2Y-6.3
X13.2Y-6.4
X13.2Y-6.5
X13.2Y-6.6
X13.2Y-6.7
X13.2Y-6.8
X13.2Y-6.9
X13.2Y-7.0
X13.2Y-7.1
X13.2Y-7.2
X13.2Y-7.3
X13.2Y-7.4
X13.2Y-7.5
X13.2Y-7.6
X13.2Y-7.7
X13.2Y-7.8
X13.2Y-7.9
X13.2Y-8.0
X13.2Y-8.1
X13.2Y-8.2
X13.2Y-8.3
X13.3Y-3.0
X13.3Y-3.1
X13.3Y-3.2
X13.3Y-3.3
X13.3Y-3.4
X13.3Y-3.5
X13.3Y-3.6
X13.3Y-3.7
X13.3Y-3.8
X13.3Y-3.9
X13.3Y-4.0
X13.3Y-4.1
X13.3Y-4.2
X13.3Y-4.3
X13.3Y-4.4
X13.3Y-4.5
X13.3Y-4.6
X13.3Y-4.7
X13.3Y-4.8
X13.3Y-4.9
X13.3Y-5.0
X13.3Y-5.1
X13.3Y-5.2
X13.3Y-5.3
X13.3Y-5.4
X13.3Y-5.5
X13.3Y-5.6
X13.3Y-5.7
X13.3Y-5.8
X13.3Y-5.9
X13.3Y-6.0
X13.3Y-6.1
X13.3Y-6.2
X13.3Y-6.3
X13.3Y-6.4
X13.3Y-6.5
X13.3Y-6.6
X13.3Y-6.7
X13.3Y-6.8
X13.3Y-6.9
X13.3Y-7.0
X13.3Y-7.1
X13.3Y-7.2
X13.3Y-7.3
X13.3Y-7.4
X13.3Y-7.5
X13.3Y-7.6
X13.3Y-7.7
X13.3Y-7.8
X13.3Y-7.9
X13.3Y-8.0
X13.3Y-8.1
X13.3Y-8.2
X13.3Y-8.3
X13.4Y-3.0
X13.4Y-3.1
X13.4Y-3.2
X13.4Y-3.3
X13.4Y-3.4
X13.4Y-3.5
X13.4Y-3.6
X13.4Y-3.7
X13.4Y-3.8
X13.4Y-3.9
X13.4Y-4.0
X13.4Y-4.1
X13.4Y-4.2
X13.4Y-4.3
X13.4Y-4.4
X13.4Y-4.5
X13.4Y-4.6
X13.4Y-4.7
X13.4Y-4.8
X13.4Y-4.9
X13.4Y-5.0
X13.4Y-5.1
X13.4Y-5.2
X13.4Y-5.3
X13.4Y-5.4
X13.4Y-5.5
X13.4Y-5.6
X13.4Y-5.7
X13.4Y-5.8
X13.4Y-5.9
X13.4Y-6.0
X13.4Y-6.1
X13.4Y-6.2
X13.4Y-6.3
X13.4Y-6.4
X13.4Y-6.5
X13.4Y-6.6
X13.4Y-6.7
X13.4Y-6.8
X13.4Y-6.9
X13.4Y-7.0
X13.4Y-7.1
X13.4Y-7.2
X13.4Y-7.3
X13.4Y-7.4
X13.4Y-7.5
X13.4Y-7.6
X13.4Y-7.7
X13.4Y-7.8
X13.4Y-7.9
X13.4Y-8.0
X13.4Y-8.1
X13.4Y-8.2
X13.4Y-8.3
X13.5Y-3.0
X13.5Y-3.1
X13.5Y-3.2
X13.5Y-3.3
X13.5Y-3.4
X13.5Y-3.5
X13.5Y-3.6
X13.5Y-3.7
X13.5Y-3.8
X13.5Y-3.9
X13.5Y-4.0
X13.5Y-4.1
X13.5Y-4.2
X13.5Y-4.3
X13.5Y-4.4
X13.5Y-4.5
X13.5Y-4.6
X13.5Y-4.7
X13.5Y-4.8
X13.5Y-4.9
X13.5Y-5.0
X13.5Y-5.1
X13.5Y-5.2
X13.5Y-5.3
X13.5Y-5.4
X13.5Y-5.5
X13.5Y-5.6
X13.5Y-5.7
X13.5Y-5.8
X13.5Y-5.9
X13.5Y-6.0
X13.5Y-6.1
X13.5Y-6.2
X13.5Y-6.3
X13.5Y-6.4
X13.5Y-6.5
X13.5Y-6.6
X13.5Y-6.7
X13.5Y-6.8
X13.5Y-6.9
X13.5Y-7.0
X13.5Y-7.1
X13.5Y-7.2
X13.5Y-7.3
X13.5Y-7.4
X13.5Y-7.5
X13.5Y-7.6
X13.5Y-7.7
X13.5Y-7.8
X13.5Y-7.9
X13.5Y-8.0
X13.5Y-8.1
X13.5Y-8.2
X13.5Y-8.3
X13.6Y-3.0
X13.6Y-3.1
X13.6Y-3.2
X13.6Y-3.3
X13.6Y-3.4
X13.6Y-3.5
X13.6Y-3.6
X13.6Y-3.7
X13.6Y-3.8
X13.6Y-3.9
X13.6Y-4.0
X13.6Y-4.1
X13.6Y-4.2
X13.6Y-4.3
X13.6Y-4.4
X13.6Y-4.5
X13.6Y-4.6
X13.6Y-4.7
X13.6Y-4.8
X13.6Y-4.9
X13.6Y-5.0
X13.6Y-5.1
X13.6Y-5.2
X13.6Y-5.3
X13.6Y-5.4
X13.6Y-5.5
X13.6Y-5.6
X13.6Y-5.7
X13.6Y-5.8
X13.6Y-5.9
X13.6Y-6.0
X13.6Y-6.1
X13.6Y-6.2
X13.6Y-6.3
X13.6Y-6.4
X13.6Y-6.5
X13.6Y-6.6
X13.6Y-6.7
X13.6Y-6.8
X13.6Y-6.9
X13.6Y-7.0
X13.6Y-7.1
X13.6Y-7.2
X13.6Y-7.3
X13.6Y-7.4
X13.6Y-7.5
X13.6Y-7.6
X13.6Y-7.7
X13.6Y-7.8
X13.6Y-7.9
X13.6Y-8.0
X13.6Y-8.1
X13.6Y-8.2
X13.6Y-8.3
T2
X13.7996Y-3.578
X13.7996Y-3.7339
X13.7996Y-3.8898
X13.7996Y-4.0457
X13.7996Y-4.2016
X13.7996Y-4.3575
X13.7996Y-4.5134
X13.7996Y-4.6693
X13.7996Y-4.8252
X13.7996Y-4.9811
X13.7996Y-5.137
X13.7996Y-5.2929
X13.7996Y-5.4488
X13.7996Y-5.6047
X13.7996Y-5.8803
X13.7996Y-6.0362
X13.7996Y-6.1921
X13.7996Y-6.348
X13.7996Y-6.5039
X13.7996Y-6.6598
X13.7996Y-6.8157
X13.7996Y-6.9717
X13.7996Y-7.1276
X13.7996Y-7.2835
X13.7996Y-7.4394
X13.7996Y-7.5953
X13.7996Y-7.7512
X13.7996Y-7.9071
X14.0394Y-3.578
X14.0394Y-3.7339
X14.0394Y-3.8898
X14.0394Y-4.0457
X14.0394Y-4.2016
X14.0394Y-4.3575
X14.0394Y-4.5134
X14.0394Y-4.6693
X14.0394Y-4.8252
X14.0394Y-4.9811
X14.0394Y-5.137
X14.0394Y-5.2929
X14.0394Y-5.4488
X14.0394Y-5.6047
X14.0394Y-5.8803
X14.0394Y-6.0362
X14.0394Y-6.1921
X14.0394Y-6.348
X14.0394Y-6.5039
X14.0394Y-6.6598
X14.0394Y-6.8157
X14.0394Y-6.9717
X14.0394Y-7.1276
X14.0394Y-7.2835
X14.0394Y-7.4394
X14.0394Y-7.5953
X14.0394Y-7.7512
X14.0394Y-7.9071
M30
