%TF.GenerationSoftware,KiCad,Pcbnew,8.0.2*%
%TF.CreationDate,2024-05-20T22:27:28+02:00*%
%TF.ProjectId,Breadboard_56pin,42726561-6462-46f6-9172-645f35367069,rev?*%
%TF.SameCoordinates,Original*%
%TF.FileFunction,Profile,NP*%
%FSLAX46Y46*%
G04 Gerber Fmt 4.6, Leading zero omitted, Abs format (unit mm)*
G04 Created by KiCad (PCBNEW 8.0.2) date 2024-05-20 22:27:28*
%MOMM*%
%LPD*%
G01*
G04 APERTURE LIST*
%TA.AperFunction,Profile*%
%ADD10C,0.050000*%
%TD*%
G04 APERTURE END LIST*
D10*
X366710000Y-70880000D02*
X366710000Y-87580000D01*
X366710000Y-204640000D02*
X366710000Y-214840000D01*
X371120000Y-204640000D02*
X366710000Y-204640000D01*
X366710000Y-214840000D02*
X363710000Y-217840000D01*
X363710000Y-67880000D02*
X110420000Y-67880000D01*
X366710000Y-67880000D02*
X366720000Y-67880000D01*
X110420000Y-67880000D02*
X110420000Y-217840000D01*
X366710000Y-70880000D02*
X363710000Y-67880000D01*
X363710000Y-217840000D02*
X110420000Y-217840000D01*
X371120000Y-87580000D02*
X366710000Y-87580000D01*
%TO.C,J58*%
X380420000Y-204140000D02*
X379920000Y-204640000D01*
X380420000Y-202140000D02*
X380420000Y-204140000D01*
X380420000Y-147390000D02*
X380420000Y-202140000D01*
X380420000Y-144330000D02*
X380420000Y-89580000D01*
X380420000Y-88080000D02*
X380420000Y-89580000D01*
X379920000Y-204640000D02*
X371120000Y-204640000D01*
X379920000Y-146890000D02*
X380420000Y-147390000D01*
X379920000Y-146890000D02*
X370920000Y-146890000D01*
X379920000Y-144830000D02*
X380420000Y-144330000D01*
X379920000Y-87580000D02*
X380420000Y-88080000D01*
X379920000Y-87580000D02*
X371120000Y-87580000D01*
X370920000Y-146890000D02*
X370920000Y-144830000D01*
X370920000Y-144830000D02*
X379920000Y-144830000D01*
%TD*%
M02*
