M48
; DRILL file {KiCad 8.0.2} date 2024-05-25T21:42:49+0200
; FORMAT={-:-/ absolute / inch / decimal}
; #@! TF.CreationDate,2024-05-25T21:42:49+02:00
; #@! TF.GenerationSoftware,Kicad,Pcbnew,8.0.2
; #@! TF.FileFunction,Plated,1,2,PTH
FMAT,2
INCH
; #@! TA.AperFunction,Plated,PTH,ComponentDrill
T1C0.0394
%
G90
G05
T1
X4.2008Y-2.3217
X4.2008Y-2.5858
X4.3567Y-2.3217
X4.3567Y-2.5858
X4.5126Y-2.3217
X4.5126Y-2.5858
X4.6685Y-2.3217
X4.6685Y-2.5858
X4.8244Y-2.3217
X4.8244Y-2.5858
X4.9803Y-2.3217
X4.9803Y-2.5858
X5.1362Y-2.3217
X5.1362Y-2.5858
X5.2921Y-2.3217
X5.2921Y-2.5858
X5.448Y-2.3217
X5.448Y-2.5858
X5.6039Y-2.3217
X5.6039Y-2.5858
X5.7598Y-2.3217
X5.7598Y-2.5858
X5.9157Y-2.3217
X5.9157Y-2.5858
X6.0717Y-2.3217
X6.0717Y-2.5858
X6.2276Y-2.3217
X6.2276Y-2.5858
X6.3835Y-2.3217
X6.3835Y-2.5858
X6.5394Y-2.3217
X6.5394Y-2.5858
X6.6953Y-2.3217
X6.6953Y-2.5858
X6.8512Y-2.3217
X6.8512Y-2.5858
X7.0071Y-2.3217
X7.0071Y-2.5858
X7.163Y-2.3217
X7.163Y-2.5858
X7.3189Y-2.3217
X7.3189Y-2.5858
X7.4748Y-2.3217
X7.4748Y-2.5858
M30
