%TF.GenerationSoftware,KiCad,Pcbnew,8.0.2*%
%TF.CreationDate,2024-05-25T21:42:51+02:00*%
%TF.ProjectId,Extender_44pin,45787465-6e64-4657-925f-343470696e2e,rev?*%
%TF.SameCoordinates,Original*%
%TF.FileFunction,Legend,Top*%
%TF.FilePolarity,Positive*%
%FSLAX46Y46*%
G04 Gerber Fmt 4.6, Leading zero omitted, Abs format (unit mm)*
G04 Created by KiCad (PCBNEW 8.0.2) date 2024-05-25 21:42:51*
%MOMM*%
%LPD*%
G01*
G04 APERTURE LIST*
%ADD10C,0.400000*%
%ADD11C,0.150000*%
%ADD12C,0.100000*%
%ADD13C,0.120000*%
G04 APERTURE END LIST*
D10*
X94792057Y-199712557D02*
X91792057Y-199712557D01*
X91792057Y-199712557D02*
X91792057Y-198998271D01*
X91792057Y-198998271D02*
X91934914Y-198569700D01*
X91934914Y-198569700D02*
X92220628Y-198283985D01*
X92220628Y-198283985D02*
X92506342Y-198141128D01*
X92506342Y-198141128D02*
X93077771Y-197998271D01*
X93077771Y-197998271D02*
X93506342Y-197998271D01*
X93506342Y-197998271D02*
X94077771Y-198141128D01*
X94077771Y-198141128D02*
X94363485Y-198283985D01*
X94363485Y-198283985D02*
X94649200Y-198569700D01*
X94649200Y-198569700D02*
X94792057Y-198998271D01*
X94792057Y-198998271D02*
X94792057Y-199712557D01*
X94792057Y-195426843D02*
X93220628Y-195426843D01*
X93220628Y-195426843D02*
X92934914Y-195569700D01*
X92934914Y-195569700D02*
X92792057Y-195855414D01*
X92792057Y-195855414D02*
X92792057Y-196426843D01*
X92792057Y-196426843D02*
X92934914Y-196712557D01*
X94649200Y-195426843D02*
X94792057Y-195712557D01*
X94792057Y-195712557D02*
X94792057Y-196426843D01*
X94792057Y-196426843D02*
X94649200Y-196712557D01*
X94649200Y-196712557D02*
X94363485Y-196855414D01*
X94363485Y-196855414D02*
X94077771Y-196855414D01*
X94077771Y-196855414D02*
X93792057Y-196712557D01*
X93792057Y-196712557D02*
X93649200Y-196426843D01*
X93649200Y-196426843D02*
X93649200Y-195712557D01*
X93649200Y-195712557D02*
X93506342Y-195426843D01*
X92792057Y-194426842D02*
X92792057Y-193283985D01*
X91792057Y-193998271D02*
X94363485Y-193998271D01*
X94363485Y-193998271D02*
X94649200Y-193855414D01*
X94649200Y-193855414D02*
X94792057Y-193569699D01*
X94792057Y-193569699D02*
X94792057Y-193283985D01*
X94792057Y-190998271D02*
X93220628Y-190998271D01*
X93220628Y-190998271D02*
X92934914Y-191141128D01*
X92934914Y-191141128D02*
X92792057Y-191426842D01*
X92792057Y-191426842D02*
X92792057Y-191998271D01*
X92792057Y-191998271D02*
X92934914Y-192283985D01*
X94649200Y-190998271D02*
X94792057Y-191283985D01*
X94792057Y-191283985D02*
X94792057Y-191998271D01*
X94792057Y-191998271D02*
X94649200Y-192283985D01*
X94649200Y-192283985D02*
X94363485Y-192426842D01*
X94363485Y-192426842D02*
X94077771Y-192426842D01*
X94077771Y-192426842D02*
X93792057Y-192283985D01*
X93792057Y-192283985D02*
X93649200Y-191998271D01*
X93649200Y-191998271D02*
X93649200Y-191283985D01*
X93649200Y-191283985D02*
X93506342Y-190998271D01*
X92792057Y-189569699D02*
X95792057Y-189569699D01*
X92934914Y-189569699D02*
X92792057Y-189283985D01*
X92792057Y-189283985D02*
X92792057Y-188712556D01*
X92792057Y-188712556D02*
X92934914Y-188426842D01*
X92934914Y-188426842D02*
X93077771Y-188283985D01*
X93077771Y-188283985D02*
X93363485Y-188141127D01*
X93363485Y-188141127D02*
X94220628Y-188141127D01*
X94220628Y-188141127D02*
X94506342Y-188283985D01*
X94506342Y-188283985D02*
X94649200Y-188426842D01*
X94649200Y-188426842D02*
X94792057Y-188712556D01*
X94792057Y-188712556D02*
X94792057Y-189283985D01*
X94792057Y-189283985D02*
X94649200Y-189569699D01*
X94792057Y-186426841D02*
X94649200Y-186712556D01*
X94649200Y-186712556D02*
X94506342Y-186855413D01*
X94506342Y-186855413D02*
X94220628Y-186998270D01*
X94220628Y-186998270D02*
X93363485Y-186998270D01*
X93363485Y-186998270D02*
X93077771Y-186855413D01*
X93077771Y-186855413D02*
X92934914Y-186712556D01*
X92934914Y-186712556D02*
X92792057Y-186426841D01*
X92792057Y-186426841D02*
X92792057Y-185998270D01*
X92792057Y-185998270D02*
X92934914Y-185712556D01*
X92934914Y-185712556D02*
X93077771Y-185569699D01*
X93077771Y-185569699D02*
X93363485Y-185426841D01*
X93363485Y-185426841D02*
X94220628Y-185426841D01*
X94220628Y-185426841D02*
X94506342Y-185569699D01*
X94506342Y-185569699D02*
X94649200Y-185712556D01*
X94649200Y-185712556D02*
X94792057Y-185998270D01*
X94792057Y-185998270D02*
X94792057Y-186426841D01*
X94792057Y-184141127D02*
X92792057Y-184141127D01*
X91792057Y-184141127D02*
X91934914Y-184283984D01*
X91934914Y-184283984D02*
X92077771Y-184141127D01*
X92077771Y-184141127D02*
X91934914Y-183998270D01*
X91934914Y-183998270D02*
X91792057Y-184141127D01*
X91792057Y-184141127D02*
X92077771Y-184141127D01*
X92792057Y-182712556D02*
X94792057Y-182712556D01*
X93077771Y-182712556D02*
X92934914Y-182569699D01*
X92934914Y-182569699D02*
X92792057Y-182283984D01*
X92792057Y-182283984D02*
X92792057Y-181855413D01*
X92792057Y-181855413D02*
X92934914Y-181569699D01*
X92934914Y-181569699D02*
X93220628Y-181426842D01*
X93220628Y-181426842D02*
X94792057Y-181426842D01*
X92792057Y-180426841D02*
X92792057Y-179283984D01*
X91792057Y-179998270D02*
X94363485Y-179998270D01*
X94363485Y-179998270D02*
X94649200Y-179855413D01*
X94649200Y-179855413D02*
X94792057Y-179569698D01*
X94792057Y-179569698D02*
X94792057Y-179283984D01*
X92077771Y-176141127D02*
X91934914Y-175998270D01*
X91934914Y-175998270D02*
X91792057Y-175712556D01*
X91792057Y-175712556D02*
X91792057Y-174998270D01*
X91792057Y-174998270D02*
X91934914Y-174712556D01*
X91934914Y-174712556D02*
X92077771Y-174569698D01*
X92077771Y-174569698D02*
X92363485Y-174426841D01*
X92363485Y-174426841D02*
X92649200Y-174426841D01*
X92649200Y-174426841D02*
X93077771Y-174569698D01*
X93077771Y-174569698D02*
X94792057Y-176283984D01*
X94792057Y-176283984D02*
X94792057Y-174426841D01*
X92077771Y-173283984D02*
X91934914Y-173141127D01*
X91934914Y-173141127D02*
X91792057Y-172855413D01*
X91792057Y-172855413D02*
X91792057Y-172141127D01*
X91792057Y-172141127D02*
X91934914Y-171855413D01*
X91934914Y-171855413D02*
X92077771Y-171712555D01*
X92077771Y-171712555D02*
X92363485Y-171569698D01*
X92363485Y-171569698D02*
X92649200Y-171569698D01*
X92649200Y-171569698D02*
X93077771Y-171712555D01*
X93077771Y-171712555D02*
X94792057Y-173426841D01*
X94792057Y-173426841D02*
X94792057Y-171569698D01*
X91792057Y-169712555D02*
X91792057Y-169426841D01*
X91792057Y-169426841D02*
X91934914Y-169141127D01*
X91934914Y-169141127D02*
X92077771Y-168998270D01*
X92077771Y-168998270D02*
X92363485Y-168855412D01*
X92363485Y-168855412D02*
X92934914Y-168712555D01*
X92934914Y-168712555D02*
X93649200Y-168712555D01*
X93649200Y-168712555D02*
X94220628Y-168855412D01*
X94220628Y-168855412D02*
X94506342Y-168998270D01*
X94506342Y-168998270D02*
X94649200Y-169141127D01*
X94649200Y-169141127D02*
X94792057Y-169426841D01*
X94792057Y-169426841D02*
X94792057Y-169712555D01*
X94792057Y-169712555D02*
X94649200Y-169998270D01*
X94649200Y-169998270D02*
X94506342Y-170141127D01*
X94506342Y-170141127D02*
X94220628Y-170283984D01*
X94220628Y-170283984D02*
X93649200Y-170426841D01*
X93649200Y-170426841D02*
X92934914Y-170426841D01*
X92934914Y-170426841D02*
X92363485Y-170283984D01*
X92363485Y-170283984D02*
X92077771Y-170141127D01*
X92077771Y-170141127D02*
X91934914Y-169998270D01*
X91934914Y-169998270D02*
X91792057Y-169712555D01*
X91792057Y-166855412D02*
X91792057Y-166569698D01*
X91792057Y-166569698D02*
X91934914Y-166283984D01*
X91934914Y-166283984D02*
X92077771Y-166141127D01*
X92077771Y-166141127D02*
X92363485Y-165998269D01*
X92363485Y-165998269D02*
X92934914Y-165855412D01*
X92934914Y-165855412D02*
X93649200Y-165855412D01*
X93649200Y-165855412D02*
X94220628Y-165998269D01*
X94220628Y-165998269D02*
X94506342Y-166141127D01*
X94506342Y-166141127D02*
X94649200Y-166283984D01*
X94649200Y-166283984D02*
X94792057Y-166569698D01*
X94792057Y-166569698D02*
X94792057Y-166855412D01*
X94792057Y-166855412D02*
X94649200Y-167141127D01*
X94649200Y-167141127D02*
X94506342Y-167283984D01*
X94506342Y-167283984D02*
X94220628Y-167426841D01*
X94220628Y-167426841D02*
X93649200Y-167569698D01*
X93649200Y-167569698D02*
X92934914Y-167569698D01*
X92934914Y-167569698D02*
X92363485Y-167426841D01*
X92363485Y-167426841D02*
X92077771Y-167283984D01*
X92077771Y-167283984D02*
X91934914Y-167141127D01*
X91934914Y-167141127D02*
X91792057Y-166855412D01*
X94792057Y-162283984D02*
X91792057Y-162283984D01*
X91792057Y-162283984D02*
X93934914Y-161283984D01*
X93934914Y-161283984D02*
X91792057Y-160283984D01*
X91792057Y-160283984D02*
X94792057Y-160283984D01*
X94649200Y-157712556D02*
X94792057Y-157998270D01*
X94792057Y-157998270D02*
X94792057Y-158569699D01*
X94792057Y-158569699D02*
X94649200Y-158855413D01*
X94649200Y-158855413D02*
X94363485Y-158998270D01*
X94363485Y-158998270D02*
X93220628Y-158998270D01*
X93220628Y-158998270D02*
X92934914Y-158855413D01*
X92934914Y-158855413D02*
X92792057Y-158569699D01*
X92792057Y-158569699D02*
X92792057Y-157998270D01*
X92792057Y-157998270D02*
X92934914Y-157712556D01*
X92934914Y-157712556D02*
X93220628Y-157569699D01*
X93220628Y-157569699D02*
X93506342Y-157569699D01*
X93506342Y-157569699D02*
X93792057Y-158998270D01*
X94792057Y-156283984D02*
X92792057Y-156283984D01*
X93077771Y-156283984D02*
X92934914Y-156141127D01*
X92934914Y-156141127D02*
X92792057Y-155855412D01*
X92792057Y-155855412D02*
X92792057Y-155426841D01*
X92792057Y-155426841D02*
X92934914Y-155141127D01*
X92934914Y-155141127D02*
X93220628Y-154998270D01*
X93220628Y-154998270D02*
X94792057Y-154998270D01*
X93220628Y-154998270D02*
X92934914Y-154855412D01*
X92934914Y-154855412D02*
X92792057Y-154569698D01*
X92792057Y-154569698D02*
X92792057Y-154141127D01*
X92792057Y-154141127D02*
X92934914Y-153855412D01*
X92934914Y-153855412D02*
X93220628Y-153712555D01*
X93220628Y-153712555D02*
X94792057Y-153712555D01*
X94792057Y-151855412D02*
X94649200Y-152141127D01*
X94649200Y-152141127D02*
X94506342Y-152283984D01*
X94506342Y-152283984D02*
X94220628Y-152426841D01*
X94220628Y-152426841D02*
X93363485Y-152426841D01*
X93363485Y-152426841D02*
X93077771Y-152283984D01*
X93077771Y-152283984D02*
X92934914Y-152141127D01*
X92934914Y-152141127D02*
X92792057Y-151855412D01*
X92792057Y-151855412D02*
X92792057Y-151426841D01*
X92792057Y-151426841D02*
X92934914Y-151141127D01*
X92934914Y-151141127D02*
X93077771Y-150998270D01*
X93077771Y-150998270D02*
X93363485Y-150855412D01*
X93363485Y-150855412D02*
X94220628Y-150855412D01*
X94220628Y-150855412D02*
X94506342Y-150998270D01*
X94506342Y-150998270D02*
X94649200Y-151141127D01*
X94649200Y-151141127D02*
X94792057Y-151426841D01*
X94792057Y-151426841D02*
X94792057Y-151855412D01*
X94792057Y-149569698D02*
X92792057Y-149569698D01*
X93363485Y-149569698D02*
X93077771Y-149426841D01*
X93077771Y-149426841D02*
X92934914Y-149283984D01*
X92934914Y-149283984D02*
X92792057Y-148998269D01*
X92792057Y-148998269D02*
X92792057Y-148712555D01*
X92792057Y-147998269D02*
X94792057Y-147283983D01*
X92792057Y-146569698D02*
X94792057Y-147283983D01*
X94792057Y-147283983D02*
X95506342Y-147569698D01*
X95506342Y-147569698D02*
X95649200Y-147712555D01*
X95649200Y-147712555D02*
X95792057Y-147998269D01*
X93220628Y-142141127D02*
X93363485Y-141712555D01*
X93363485Y-141712555D02*
X93506342Y-141569698D01*
X93506342Y-141569698D02*
X93792057Y-141426841D01*
X93792057Y-141426841D02*
X94220628Y-141426841D01*
X94220628Y-141426841D02*
X94506342Y-141569698D01*
X94506342Y-141569698D02*
X94649200Y-141712555D01*
X94649200Y-141712555D02*
X94792057Y-141998270D01*
X94792057Y-141998270D02*
X94792057Y-143141127D01*
X94792057Y-143141127D02*
X91792057Y-143141127D01*
X91792057Y-143141127D02*
X91792057Y-142141127D01*
X91792057Y-142141127D02*
X91934914Y-141855413D01*
X91934914Y-141855413D02*
X92077771Y-141712555D01*
X92077771Y-141712555D02*
X92363485Y-141569698D01*
X92363485Y-141569698D02*
X92649200Y-141569698D01*
X92649200Y-141569698D02*
X92934914Y-141712555D01*
X92934914Y-141712555D02*
X93077771Y-141855413D01*
X93077771Y-141855413D02*
X93220628Y-142141127D01*
X93220628Y-142141127D02*
X93220628Y-143141127D01*
X94792057Y-139712555D02*
X94649200Y-139998270D01*
X94649200Y-139998270D02*
X94506342Y-140141127D01*
X94506342Y-140141127D02*
X94220628Y-140283984D01*
X94220628Y-140283984D02*
X93363485Y-140283984D01*
X93363485Y-140283984D02*
X93077771Y-140141127D01*
X93077771Y-140141127D02*
X92934914Y-139998270D01*
X92934914Y-139998270D02*
X92792057Y-139712555D01*
X92792057Y-139712555D02*
X92792057Y-139283984D01*
X92792057Y-139283984D02*
X92934914Y-138998270D01*
X92934914Y-138998270D02*
X93077771Y-138855413D01*
X93077771Y-138855413D02*
X93363485Y-138712555D01*
X93363485Y-138712555D02*
X94220628Y-138712555D01*
X94220628Y-138712555D02*
X94506342Y-138855413D01*
X94506342Y-138855413D02*
X94649200Y-138998270D01*
X94649200Y-138998270D02*
X94792057Y-139283984D01*
X94792057Y-139283984D02*
X94792057Y-139712555D01*
X94792057Y-136141127D02*
X93220628Y-136141127D01*
X93220628Y-136141127D02*
X92934914Y-136283984D01*
X92934914Y-136283984D02*
X92792057Y-136569698D01*
X92792057Y-136569698D02*
X92792057Y-137141127D01*
X92792057Y-137141127D02*
X92934914Y-137426841D01*
X94649200Y-136141127D02*
X94792057Y-136426841D01*
X94792057Y-136426841D02*
X94792057Y-137141127D01*
X94792057Y-137141127D02*
X94649200Y-137426841D01*
X94649200Y-137426841D02*
X94363485Y-137569698D01*
X94363485Y-137569698D02*
X94077771Y-137569698D01*
X94077771Y-137569698D02*
X93792057Y-137426841D01*
X93792057Y-137426841D02*
X93649200Y-137141127D01*
X93649200Y-137141127D02*
X93649200Y-136426841D01*
X93649200Y-136426841D02*
X93506342Y-136141127D01*
X94792057Y-134712555D02*
X92792057Y-134712555D01*
X93363485Y-134712555D02*
X93077771Y-134569698D01*
X93077771Y-134569698D02*
X92934914Y-134426841D01*
X92934914Y-134426841D02*
X92792057Y-134141126D01*
X92792057Y-134141126D02*
X92792057Y-133855412D01*
X94792057Y-131569698D02*
X91792057Y-131569698D01*
X94649200Y-131569698D02*
X94792057Y-131855412D01*
X94792057Y-131855412D02*
X94792057Y-132426840D01*
X94792057Y-132426840D02*
X94649200Y-132712555D01*
X94649200Y-132712555D02*
X94506342Y-132855412D01*
X94506342Y-132855412D02*
X94220628Y-132998269D01*
X94220628Y-132998269D02*
X93363485Y-132998269D01*
X93363485Y-132998269D02*
X93077771Y-132855412D01*
X93077771Y-132855412D02*
X92934914Y-132712555D01*
X92934914Y-132712555D02*
X92792057Y-132426840D01*
X92792057Y-132426840D02*
X92792057Y-131855412D01*
X92792057Y-131855412D02*
X92934914Y-131569698D01*
X93220628Y-127855412D02*
X93220628Y-126855412D01*
X94792057Y-126426840D02*
X94792057Y-127855412D01*
X94792057Y-127855412D02*
X91792057Y-127855412D01*
X91792057Y-127855412D02*
X91792057Y-126426840D01*
X94792057Y-125426840D02*
X92792057Y-123855412D01*
X92792057Y-125426840D02*
X94792057Y-123855412D01*
X92792057Y-123141126D02*
X92792057Y-121998269D01*
X91792057Y-122712555D02*
X94363485Y-122712555D01*
X94363485Y-122712555D02*
X94649200Y-122569698D01*
X94649200Y-122569698D02*
X94792057Y-122283983D01*
X94792057Y-122283983D02*
X94792057Y-121998269D01*
X94649200Y-119855412D02*
X94792057Y-120141126D01*
X94792057Y-120141126D02*
X94792057Y-120712555D01*
X94792057Y-120712555D02*
X94649200Y-120998269D01*
X94649200Y-120998269D02*
X94363485Y-121141126D01*
X94363485Y-121141126D02*
X93220628Y-121141126D01*
X93220628Y-121141126D02*
X92934914Y-120998269D01*
X92934914Y-120998269D02*
X92792057Y-120712555D01*
X92792057Y-120712555D02*
X92792057Y-120141126D01*
X92792057Y-120141126D02*
X92934914Y-119855412D01*
X92934914Y-119855412D02*
X93220628Y-119712555D01*
X93220628Y-119712555D02*
X93506342Y-119712555D01*
X93506342Y-119712555D02*
X93792057Y-121141126D01*
X92792057Y-118426840D02*
X94792057Y-118426840D01*
X93077771Y-118426840D02*
X92934914Y-118283983D01*
X92934914Y-118283983D02*
X92792057Y-117998268D01*
X92792057Y-117998268D02*
X92792057Y-117569697D01*
X92792057Y-117569697D02*
X92934914Y-117283983D01*
X92934914Y-117283983D02*
X93220628Y-117141126D01*
X93220628Y-117141126D02*
X94792057Y-117141126D01*
X94792057Y-114426840D02*
X91792057Y-114426840D01*
X94649200Y-114426840D02*
X94792057Y-114712554D01*
X94792057Y-114712554D02*
X94792057Y-115283982D01*
X94792057Y-115283982D02*
X94649200Y-115569697D01*
X94649200Y-115569697D02*
X94506342Y-115712554D01*
X94506342Y-115712554D02*
X94220628Y-115855411D01*
X94220628Y-115855411D02*
X93363485Y-115855411D01*
X93363485Y-115855411D02*
X93077771Y-115712554D01*
X93077771Y-115712554D02*
X92934914Y-115569697D01*
X92934914Y-115569697D02*
X92792057Y-115283982D01*
X92792057Y-115283982D02*
X92792057Y-114712554D01*
X92792057Y-114712554D02*
X92934914Y-114426840D01*
X94649200Y-111855411D02*
X94792057Y-112141125D01*
X94792057Y-112141125D02*
X94792057Y-112712554D01*
X94792057Y-112712554D02*
X94649200Y-112998268D01*
X94649200Y-112998268D02*
X94363485Y-113141125D01*
X94363485Y-113141125D02*
X93220628Y-113141125D01*
X93220628Y-113141125D02*
X92934914Y-112998268D01*
X92934914Y-112998268D02*
X92792057Y-112712554D01*
X92792057Y-112712554D02*
X92792057Y-112141125D01*
X92792057Y-112141125D02*
X92934914Y-111855411D01*
X92934914Y-111855411D02*
X93220628Y-111712554D01*
X93220628Y-111712554D02*
X93506342Y-111712554D01*
X93506342Y-111712554D02*
X93792057Y-113141125D01*
X94792057Y-110426839D02*
X92792057Y-110426839D01*
X93363485Y-110426839D02*
X93077771Y-110283982D01*
X93077771Y-110283982D02*
X92934914Y-110141125D01*
X92934914Y-110141125D02*
X92792057Y-109855410D01*
X92792057Y-109855410D02*
X92792057Y-109569696D01*
X99502057Y-181998271D02*
X101502057Y-181426843D01*
X101502057Y-181426843D02*
X100073485Y-180855414D01*
X100073485Y-180855414D02*
X101502057Y-180283985D01*
X101502057Y-180283985D02*
X99502057Y-179712557D01*
X99502057Y-178855414D02*
X101502057Y-178283986D01*
X101502057Y-178283986D02*
X100073485Y-177712557D01*
X100073485Y-177712557D02*
X101502057Y-177141128D01*
X101502057Y-177141128D02*
X99502057Y-176569700D01*
X99502057Y-175712557D02*
X101502057Y-175141129D01*
X101502057Y-175141129D02*
X100073485Y-174569700D01*
X100073485Y-174569700D02*
X101502057Y-173998271D01*
X101502057Y-173998271D02*
X99502057Y-173426843D01*
X101216342Y-172283986D02*
X101359200Y-172141129D01*
X101359200Y-172141129D02*
X101502057Y-172283986D01*
X101502057Y-172283986D02*
X101359200Y-172426843D01*
X101359200Y-172426843D02*
X101216342Y-172283986D01*
X101216342Y-172283986D02*
X101502057Y-172283986D01*
X101502057Y-169569701D02*
X98502057Y-169569701D01*
X101359200Y-169569701D02*
X101502057Y-169855415D01*
X101502057Y-169855415D02*
X101502057Y-170426843D01*
X101502057Y-170426843D02*
X101359200Y-170712558D01*
X101359200Y-170712558D02*
X101216342Y-170855415D01*
X101216342Y-170855415D02*
X100930628Y-170998272D01*
X100930628Y-170998272D02*
X100073485Y-170998272D01*
X100073485Y-170998272D02*
X99787771Y-170855415D01*
X99787771Y-170855415D02*
X99644914Y-170712558D01*
X99644914Y-170712558D02*
X99502057Y-170426843D01*
X99502057Y-170426843D02*
X99502057Y-169855415D01*
X99502057Y-169855415D02*
X99644914Y-169569701D01*
X101502057Y-166855415D02*
X99930628Y-166855415D01*
X99930628Y-166855415D02*
X99644914Y-166998272D01*
X99644914Y-166998272D02*
X99502057Y-167283986D01*
X99502057Y-167283986D02*
X99502057Y-167855415D01*
X99502057Y-167855415D02*
X99644914Y-168141129D01*
X101359200Y-166855415D02*
X101502057Y-167141129D01*
X101502057Y-167141129D02*
X101502057Y-167855415D01*
X101502057Y-167855415D02*
X101359200Y-168141129D01*
X101359200Y-168141129D02*
X101073485Y-168283986D01*
X101073485Y-168283986D02*
X100787771Y-168283986D01*
X100787771Y-168283986D02*
X100502057Y-168141129D01*
X100502057Y-168141129D02*
X100359200Y-167855415D01*
X100359200Y-167855415D02*
X100359200Y-167141129D01*
X100359200Y-167141129D02*
X100216342Y-166855415D01*
X99502057Y-165855414D02*
X99502057Y-164712557D01*
X98502057Y-165426843D02*
X101073485Y-165426843D01*
X101073485Y-165426843D02*
X101359200Y-165283986D01*
X101359200Y-165283986D02*
X101502057Y-164998271D01*
X101502057Y-164998271D02*
X101502057Y-164712557D01*
X101502057Y-163283985D02*
X101359200Y-163569700D01*
X101359200Y-163569700D02*
X101216342Y-163712557D01*
X101216342Y-163712557D02*
X100930628Y-163855414D01*
X100930628Y-163855414D02*
X100073485Y-163855414D01*
X100073485Y-163855414D02*
X99787771Y-163712557D01*
X99787771Y-163712557D02*
X99644914Y-163569700D01*
X99644914Y-163569700D02*
X99502057Y-163283985D01*
X99502057Y-163283985D02*
X99502057Y-162855414D01*
X99502057Y-162855414D02*
X99644914Y-162569700D01*
X99644914Y-162569700D02*
X99787771Y-162426843D01*
X99787771Y-162426843D02*
X100073485Y-162283985D01*
X100073485Y-162283985D02*
X100930628Y-162283985D01*
X100930628Y-162283985D02*
X101216342Y-162426843D01*
X101216342Y-162426843D02*
X101359200Y-162569700D01*
X101359200Y-162569700D02*
X101502057Y-162855414D01*
X101502057Y-162855414D02*
X101502057Y-163283985D01*
X101502057Y-160998271D02*
X99502057Y-160998271D01*
X100073485Y-160998271D02*
X99787771Y-160855414D01*
X99787771Y-160855414D02*
X99644914Y-160712557D01*
X99644914Y-160712557D02*
X99502057Y-160426842D01*
X99502057Y-160426842D02*
X99502057Y-160141128D01*
X101502057Y-159141128D02*
X99502057Y-159141128D01*
X99787771Y-159141128D02*
X99644914Y-158998271D01*
X99644914Y-158998271D02*
X99502057Y-158712556D01*
X99502057Y-158712556D02*
X99502057Y-158283985D01*
X99502057Y-158283985D02*
X99644914Y-157998271D01*
X99644914Y-157998271D02*
X99930628Y-157855414D01*
X99930628Y-157855414D02*
X101502057Y-157855414D01*
X99930628Y-157855414D02*
X99644914Y-157712556D01*
X99644914Y-157712556D02*
X99502057Y-157426842D01*
X99502057Y-157426842D02*
X99502057Y-156998271D01*
X99502057Y-156998271D02*
X99644914Y-156712556D01*
X99644914Y-156712556D02*
X99930628Y-156569699D01*
X99930628Y-156569699D02*
X101502057Y-156569699D01*
X99502057Y-153855414D02*
X101502057Y-153855414D01*
X99502057Y-155141128D02*
X101073485Y-155141128D01*
X101073485Y-155141128D02*
X101359200Y-154998271D01*
X101359200Y-154998271D02*
X101502057Y-154712556D01*
X101502057Y-154712556D02*
X101502057Y-154283985D01*
X101502057Y-154283985D02*
X101359200Y-153998271D01*
X101359200Y-153998271D02*
X101216342Y-153855414D01*
X101359200Y-152569699D02*
X101502057Y-152283985D01*
X101502057Y-152283985D02*
X101502057Y-151712556D01*
X101502057Y-151712556D02*
X101359200Y-151426842D01*
X101359200Y-151426842D02*
X101073485Y-151283985D01*
X101073485Y-151283985D02*
X100930628Y-151283985D01*
X100930628Y-151283985D02*
X100644914Y-151426842D01*
X100644914Y-151426842D02*
X100502057Y-151712556D01*
X100502057Y-151712556D02*
X100502057Y-152141128D01*
X100502057Y-152141128D02*
X100359200Y-152426842D01*
X100359200Y-152426842D02*
X100073485Y-152569699D01*
X100073485Y-152569699D02*
X99930628Y-152569699D01*
X99930628Y-152569699D02*
X99644914Y-152426842D01*
X99644914Y-152426842D02*
X99502057Y-152141128D01*
X99502057Y-152141128D02*
X99502057Y-151712556D01*
X99502057Y-151712556D02*
X99644914Y-151426842D01*
X101359200Y-148855414D02*
X101502057Y-149141128D01*
X101502057Y-149141128D02*
X101502057Y-149712557D01*
X101502057Y-149712557D02*
X101359200Y-149998271D01*
X101359200Y-149998271D02*
X101073485Y-150141128D01*
X101073485Y-150141128D02*
X99930628Y-150141128D01*
X99930628Y-150141128D02*
X99644914Y-149998271D01*
X99644914Y-149998271D02*
X99502057Y-149712557D01*
X99502057Y-149712557D02*
X99502057Y-149141128D01*
X99502057Y-149141128D02*
X99644914Y-148855414D01*
X99644914Y-148855414D02*
X99930628Y-148712557D01*
X99930628Y-148712557D02*
X100216342Y-148712557D01*
X100216342Y-148712557D02*
X100502057Y-150141128D01*
X99502057Y-146141128D02*
X101502057Y-146141128D01*
X99502057Y-147426842D02*
X101073485Y-147426842D01*
X101073485Y-147426842D02*
X101359200Y-147283985D01*
X101359200Y-147283985D02*
X101502057Y-146998270D01*
X101502057Y-146998270D02*
X101502057Y-146569699D01*
X101502057Y-146569699D02*
X101359200Y-146283985D01*
X101359200Y-146283985D02*
X101216342Y-146141128D01*
X101502057Y-144712556D02*
X99502057Y-144712556D01*
X99787771Y-144712556D02*
X99644914Y-144569699D01*
X99644914Y-144569699D02*
X99502057Y-144283984D01*
X99502057Y-144283984D02*
X99502057Y-143855413D01*
X99502057Y-143855413D02*
X99644914Y-143569699D01*
X99644914Y-143569699D02*
X99930628Y-143426842D01*
X99930628Y-143426842D02*
X101502057Y-143426842D01*
X99930628Y-143426842D02*
X99644914Y-143283984D01*
X99644914Y-143283984D02*
X99502057Y-142998270D01*
X99502057Y-142998270D02*
X99502057Y-142569699D01*
X99502057Y-142569699D02*
X99644914Y-142283984D01*
X99644914Y-142283984D02*
X99930628Y-142141127D01*
X99930628Y-142141127D02*
X101502057Y-142141127D01*
X101216342Y-140712556D02*
X101359200Y-140569699D01*
X101359200Y-140569699D02*
X101502057Y-140712556D01*
X101502057Y-140712556D02*
X101359200Y-140855413D01*
X101359200Y-140855413D02*
X101216342Y-140712556D01*
X101216342Y-140712556D02*
X101502057Y-140712556D01*
X101359200Y-139426842D02*
X101502057Y-139141128D01*
X101502057Y-139141128D02*
X101502057Y-138569699D01*
X101502057Y-138569699D02*
X101359200Y-138283985D01*
X101359200Y-138283985D02*
X101073485Y-138141128D01*
X101073485Y-138141128D02*
X100930628Y-138141128D01*
X100930628Y-138141128D02*
X100644914Y-138283985D01*
X100644914Y-138283985D02*
X100502057Y-138569699D01*
X100502057Y-138569699D02*
X100502057Y-138998271D01*
X100502057Y-138998271D02*
X100359200Y-139283985D01*
X100359200Y-139283985D02*
X100073485Y-139426842D01*
X100073485Y-139426842D02*
X99930628Y-139426842D01*
X99930628Y-139426842D02*
X99644914Y-139283985D01*
X99644914Y-139283985D02*
X99502057Y-138998271D01*
X99502057Y-138998271D02*
X99502057Y-138569699D01*
X99502057Y-138569699D02*
X99644914Y-138283985D01*
X101359200Y-135712557D02*
X101502057Y-135998271D01*
X101502057Y-135998271D02*
X101502057Y-136569700D01*
X101502057Y-136569700D02*
X101359200Y-136855414D01*
X101359200Y-136855414D02*
X101073485Y-136998271D01*
X101073485Y-136998271D02*
X99930628Y-136998271D01*
X99930628Y-136998271D02*
X99644914Y-136855414D01*
X99644914Y-136855414D02*
X99502057Y-136569700D01*
X99502057Y-136569700D02*
X99502057Y-135998271D01*
X99502057Y-135998271D02*
X99644914Y-135712557D01*
X99644914Y-135712557D02*
X99930628Y-135569700D01*
X99930628Y-135569700D02*
X100216342Y-135569700D01*
X100216342Y-135569700D02*
X100502057Y-136998271D01*
X196192057Y-200392557D02*
X193192057Y-200392557D01*
X196192057Y-199106843D02*
X194620628Y-199106843D01*
X194620628Y-199106843D02*
X194334914Y-199249700D01*
X194334914Y-199249700D02*
X194192057Y-199535414D01*
X194192057Y-199535414D02*
X194192057Y-199963985D01*
X194192057Y-199963985D02*
X194334914Y-200249700D01*
X194334914Y-200249700D02*
X194477771Y-200392557D01*
X194192057Y-198106842D02*
X194192057Y-196963985D01*
X193192057Y-197678271D02*
X195763485Y-197678271D01*
X195763485Y-197678271D02*
X196049200Y-197535414D01*
X196049200Y-197535414D02*
X196192057Y-197249699D01*
X196192057Y-197249699D02*
X196192057Y-196963985D01*
X194192057Y-196392556D02*
X194192057Y-195249699D01*
X193192057Y-195963985D02*
X195763485Y-195963985D01*
X195763485Y-195963985D02*
X196049200Y-195821128D01*
X196049200Y-195821128D02*
X196192057Y-195535413D01*
X196192057Y-195535413D02*
X196192057Y-195249699D01*
X194192057Y-194249699D02*
X197192057Y-194249699D01*
X194334914Y-194249699D02*
X194192057Y-193963985D01*
X194192057Y-193963985D02*
X194192057Y-193392556D01*
X194192057Y-193392556D02*
X194334914Y-193106842D01*
X194334914Y-193106842D02*
X194477771Y-192963985D01*
X194477771Y-192963985D02*
X194763485Y-192821127D01*
X194763485Y-192821127D02*
X195620628Y-192821127D01*
X195620628Y-192821127D02*
X195906342Y-192963985D01*
X195906342Y-192963985D02*
X196049200Y-193106842D01*
X196049200Y-193106842D02*
X196192057Y-193392556D01*
X196192057Y-193392556D02*
X196192057Y-193963985D01*
X196192057Y-193963985D02*
X196049200Y-194249699D01*
X196049200Y-191678270D02*
X196192057Y-191392556D01*
X196192057Y-191392556D02*
X196192057Y-190821127D01*
X196192057Y-190821127D02*
X196049200Y-190535413D01*
X196049200Y-190535413D02*
X195763485Y-190392556D01*
X195763485Y-190392556D02*
X195620628Y-190392556D01*
X195620628Y-190392556D02*
X195334914Y-190535413D01*
X195334914Y-190535413D02*
X195192057Y-190821127D01*
X195192057Y-190821127D02*
X195192057Y-191249699D01*
X195192057Y-191249699D02*
X195049200Y-191535413D01*
X195049200Y-191535413D02*
X194763485Y-191678270D01*
X194763485Y-191678270D02*
X194620628Y-191678270D01*
X194620628Y-191678270D02*
X194334914Y-191535413D01*
X194334914Y-191535413D02*
X194192057Y-191249699D01*
X194192057Y-191249699D02*
X194192057Y-190821127D01*
X194192057Y-190821127D02*
X194334914Y-190535413D01*
X195906342Y-189106842D02*
X196049200Y-188963985D01*
X196049200Y-188963985D02*
X196192057Y-189106842D01*
X196192057Y-189106842D02*
X196049200Y-189249699D01*
X196049200Y-189249699D02*
X195906342Y-189106842D01*
X195906342Y-189106842D02*
X196192057Y-189106842D01*
X194334914Y-189106842D02*
X194477771Y-188963985D01*
X194477771Y-188963985D02*
X194620628Y-189106842D01*
X194620628Y-189106842D02*
X194477771Y-189249699D01*
X194477771Y-189249699D02*
X194334914Y-189106842D01*
X194334914Y-189106842D02*
X194620628Y-189106842D01*
X193049200Y-185535414D02*
X196906342Y-188106842D01*
X193049200Y-182392557D02*
X196906342Y-184963985D01*
X194192057Y-180106843D02*
X196620628Y-180106843D01*
X196620628Y-180106843D02*
X196906342Y-180249700D01*
X196906342Y-180249700D02*
X197049200Y-180392557D01*
X197049200Y-180392557D02*
X197192057Y-180678271D01*
X197192057Y-180678271D02*
X197192057Y-181106843D01*
X197192057Y-181106843D02*
X197049200Y-181392557D01*
X196049200Y-180106843D02*
X196192057Y-180392557D01*
X196192057Y-180392557D02*
X196192057Y-180963985D01*
X196192057Y-180963985D02*
X196049200Y-181249700D01*
X196049200Y-181249700D02*
X195906342Y-181392557D01*
X195906342Y-181392557D02*
X195620628Y-181535414D01*
X195620628Y-181535414D02*
X194763485Y-181535414D01*
X194763485Y-181535414D02*
X194477771Y-181392557D01*
X194477771Y-181392557D02*
X194334914Y-181249700D01*
X194334914Y-181249700D02*
X194192057Y-180963985D01*
X194192057Y-180963985D02*
X194192057Y-180392557D01*
X194192057Y-180392557D02*
X194334914Y-180106843D01*
X196192057Y-178678271D02*
X194192057Y-178678271D01*
X193192057Y-178678271D02*
X193334914Y-178821128D01*
X193334914Y-178821128D02*
X193477771Y-178678271D01*
X193477771Y-178678271D02*
X193334914Y-178535414D01*
X193334914Y-178535414D02*
X193192057Y-178678271D01*
X193192057Y-178678271D02*
X193477771Y-178678271D01*
X194192057Y-177678271D02*
X194192057Y-176535414D01*
X193192057Y-177249700D02*
X195763485Y-177249700D01*
X195763485Y-177249700D02*
X196049200Y-177106843D01*
X196049200Y-177106843D02*
X196192057Y-176821128D01*
X196192057Y-176821128D02*
X196192057Y-176535414D01*
X196192057Y-175535414D02*
X193192057Y-175535414D01*
X196192057Y-174249700D02*
X194620628Y-174249700D01*
X194620628Y-174249700D02*
X194334914Y-174392557D01*
X194334914Y-174392557D02*
X194192057Y-174678271D01*
X194192057Y-174678271D02*
X194192057Y-175106842D01*
X194192057Y-175106842D02*
X194334914Y-175392557D01*
X194334914Y-175392557D02*
X194477771Y-175535414D01*
X194192057Y-171535414D02*
X196192057Y-171535414D01*
X194192057Y-172821128D02*
X195763485Y-172821128D01*
X195763485Y-172821128D02*
X196049200Y-172678271D01*
X196049200Y-172678271D02*
X196192057Y-172392556D01*
X196192057Y-172392556D02*
X196192057Y-171963985D01*
X196192057Y-171963985D02*
X196049200Y-171678271D01*
X196049200Y-171678271D02*
X195906342Y-171535414D01*
X196192057Y-170106842D02*
X193192057Y-170106842D01*
X194334914Y-170106842D02*
X194192057Y-169821128D01*
X194192057Y-169821128D02*
X194192057Y-169249699D01*
X194192057Y-169249699D02*
X194334914Y-168963985D01*
X194334914Y-168963985D02*
X194477771Y-168821128D01*
X194477771Y-168821128D02*
X194763485Y-168678270D01*
X194763485Y-168678270D02*
X195620628Y-168678270D01*
X195620628Y-168678270D02*
X195906342Y-168821128D01*
X195906342Y-168821128D02*
X196049200Y-168963985D01*
X196049200Y-168963985D02*
X196192057Y-169249699D01*
X196192057Y-169249699D02*
X196192057Y-169821128D01*
X196192057Y-169821128D02*
X196049200Y-170106842D01*
X195906342Y-167392556D02*
X196049200Y-167249699D01*
X196049200Y-167249699D02*
X196192057Y-167392556D01*
X196192057Y-167392556D02*
X196049200Y-167535413D01*
X196049200Y-167535413D02*
X195906342Y-167392556D01*
X195906342Y-167392556D02*
X196192057Y-167392556D01*
X196049200Y-164678271D02*
X196192057Y-164963985D01*
X196192057Y-164963985D02*
X196192057Y-165535413D01*
X196192057Y-165535413D02*
X196049200Y-165821128D01*
X196049200Y-165821128D02*
X195906342Y-165963985D01*
X195906342Y-165963985D02*
X195620628Y-166106842D01*
X195620628Y-166106842D02*
X194763485Y-166106842D01*
X194763485Y-166106842D02*
X194477771Y-165963985D01*
X194477771Y-165963985D02*
X194334914Y-165821128D01*
X194334914Y-165821128D02*
X194192057Y-165535413D01*
X194192057Y-165535413D02*
X194192057Y-164963985D01*
X194192057Y-164963985D02*
X194334914Y-164678271D01*
X196192057Y-162963984D02*
X196049200Y-163249699D01*
X196049200Y-163249699D02*
X195906342Y-163392556D01*
X195906342Y-163392556D02*
X195620628Y-163535413D01*
X195620628Y-163535413D02*
X194763485Y-163535413D01*
X194763485Y-163535413D02*
X194477771Y-163392556D01*
X194477771Y-163392556D02*
X194334914Y-163249699D01*
X194334914Y-163249699D02*
X194192057Y-162963984D01*
X194192057Y-162963984D02*
X194192057Y-162535413D01*
X194192057Y-162535413D02*
X194334914Y-162249699D01*
X194334914Y-162249699D02*
X194477771Y-162106842D01*
X194477771Y-162106842D02*
X194763485Y-161963984D01*
X194763485Y-161963984D02*
X195620628Y-161963984D01*
X195620628Y-161963984D02*
X195906342Y-162106842D01*
X195906342Y-162106842D02*
X196049200Y-162249699D01*
X196049200Y-162249699D02*
X196192057Y-162535413D01*
X196192057Y-162535413D02*
X196192057Y-162963984D01*
X196192057Y-160678270D02*
X194192057Y-160678270D01*
X194477771Y-160678270D02*
X194334914Y-160535413D01*
X194334914Y-160535413D02*
X194192057Y-160249698D01*
X194192057Y-160249698D02*
X194192057Y-159821127D01*
X194192057Y-159821127D02*
X194334914Y-159535413D01*
X194334914Y-159535413D02*
X194620628Y-159392556D01*
X194620628Y-159392556D02*
X196192057Y-159392556D01*
X194620628Y-159392556D02*
X194334914Y-159249698D01*
X194334914Y-159249698D02*
X194192057Y-158963984D01*
X194192057Y-158963984D02*
X194192057Y-158535413D01*
X194192057Y-158535413D02*
X194334914Y-158249698D01*
X194334914Y-158249698D02*
X194620628Y-158106841D01*
X194620628Y-158106841D02*
X196192057Y-158106841D01*
X193049200Y-154535413D02*
X196906342Y-157106841D01*
X196192057Y-153535413D02*
X193192057Y-153535413D01*
X193192057Y-153535413D02*
X195334914Y-152535413D01*
X195334914Y-152535413D02*
X193192057Y-151535413D01*
X193192057Y-151535413D02*
X196192057Y-151535413D01*
X196192057Y-148821128D02*
X194620628Y-148821128D01*
X194620628Y-148821128D02*
X194334914Y-148963985D01*
X194334914Y-148963985D02*
X194192057Y-149249699D01*
X194192057Y-149249699D02*
X194192057Y-149821128D01*
X194192057Y-149821128D02*
X194334914Y-150106842D01*
X196049200Y-148821128D02*
X196192057Y-149106842D01*
X196192057Y-149106842D02*
X196192057Y-149821128D01*
X196192057Y-149821128D02*
X196049200Y-150106842D01*
X196049200Y-150106842D02*
X195763485Y-150249699D01*
X195763485Y-150249699D02*
X195477771Y-150249699D01*
X195477771Y-150249699D02*
X195192057Y-150106842D01*
X195192057Y-150106842D02*
X195049200Y-149821128D01*
X195049200Y-149821128D02*
X195049200Y-149106842D01*
X195049200Y-149106842D02*
X194906342Y-148821128D01*
X194192057Y-147821127D02*
X194192057Y-146678270D01*
X193192057Y-147392556D02*
X195763485Y-147392556D01*
X195763485Y-147392556D02*
X196049200Y-147249699D01*
X196049200Y-147249699D02*
X196192057Y-146963984D01*
X196192057Y-146963984D02*
X196192057Y-146678270D01*
X194192057Y-146106841D02*
X194192057Y-144963984D01*
X193192057Y-145678270D02*
X195763485Y-145678270D01*
X195763485Y-145678270D02*
X196049200Y-145535413D01*
X196049200Y-145535413D02*
X196192057Y-145249698D01*
X196192057Y-145249698D02*
X196192057Y-144963984D01*
X196192057Y-143963984D02*
X194192057Y-143963984D01*
X193192057Y-143963984D02*
X193334914Y-144106841D01*
X193334914Y-144106841D02*
X193477771Y-143963984D01*
X193477771Y-143963984D02*
X193334914Y-143821127D01*
X193334914Y-143821127D02*
X193192057Y-143963984D01*
X193192057Y-143963984D02*
X193477771Y-143963984D01*
X196049200Y-142678270D02*
X196192057Y-142392556D01*
X196192057Y-142392556D02*
X196192057Y-141821127D01*
X196192057Y-141821127D02*
X196049200Y-141535413D01*
X196049200Y-141535413D02*
X195763485Y-141392556D01*
X195763485Y-141392556D02*
X195620628Y-141392556D01*
X195620628Y-141392556D02*
X195334914Y-141535413D01*
X195334914Y-141535413D02*
X195192057Y-141821127D01*
X195192057Y-141821127D02*
X195192057Y-142249699D01*
X195192057Y-142249699D02*
X195049200Y-142535413D01*
X195049200Y-142535413D02*
X194763485Y-142678270D01*
X194763485Y-142678270D02*
X194620628Y-142678270D01*
X194620628Y-142678270D02*
X194334914Y-142535413D01*
X194334914Y-142535413D02*
X194192057Y-142249699D01*
X194192057Y-142249699D02*
X194192057Y-141821127D01*
X194192057Y-141821127D02*
X194334914Y-141535413D01*
X196192057Y-138678270D02*
X196192057Y-140106842D01*
X196192057Y-140106842D02*
X193192057Y-140106842D01*
X196192057Y-137678271D02*
X194192057Y-137678271D01*
X193192057Y-137678271D02*
X193334914Y-137821128D01*
X193334914Y-137821128D02*
X193477771Y-137678271D01*
X193477771Y-137678271D02*
X193334914Y-137535414D01*
X193334914Y-137535414D02*
X193192057Y-137678271D01*
X193192057Y-137678271D02*
X193477771Y-137678271D01*
X194192057Y-136249700D02*
X196192057Y-136249700D01*
X194477771Y-136249700D02*
X194334914Y-136106843D01*
X194334914Y-136106843D02*
X194192057Y-135821128D01*
X194192057Y-135821128D02*
X194192057Y-135392557D01*
X194192057Y-135392557D02*
X194334914Y-135106843D01*
X194334914Y-135106843D02*
X194620628Y-134963986D01*
X194620628Y-134963986D02*
X196192057Y-134963986D01*
X196192057Y-132249700D02*
X193192057Y-132249700D01*
X196049200Y-132249700D02*
X196192057Y-132535414D01*
X196192057Y-132535414D02*
X196192057Y-133106842D01*
X196192057Y-133106842D02*
X196049200Y-133392557D01*
X196049200Y-133392557D02*
X195906342Y-133535414D01*
X195906342Y-133535414D02*
X195620628Y-133678271D01*
X195620628Y-133678271D02*
X194763485Y-133678271D01*
X194763485Y-133678271D02*
X194477771Y-133535414D01*
X194477771Y-133535414D02*
X194334914Y-133392557D01*
X194334914Y-133392557D02*
X194192057Y-133106842D01*
X194192057Y-133106842D02*
X194192057Y-132535414D01*
X194192057Y-132535414D02*
X194334914Y-132249700D01*
X193049200Y-128678271D02*
X196906342Y-131249699D01*
X196192057Y-127678271D02*
X193192057Y-127678271D01*
X193192057Y-127678271D02*
X193192057Y-126963985D01*
X193192057Y-126963985D02*
X193334914Y-126535414D01*
X193334914Y-126535414D02*
X193620628Y-126249699D01*
X193620628Y-126249699D02*
X193906342Y-126106842D01*
X193906342Y-126106842D02*
X194477771Y-125963985D01*
X194477771Y-125963985D02*
X194906342Y-125963985D01*
X194906342Y-125963985D02*
X195477771Y-126106842D01*
X195477771Y-126106842D02*
X195763485Y-126249699D01*
X195763485Y-126249699D02*
X196049200Y-126535414D01*
X196049200Y-126535414D02*
X196192057Y-126963985D01*
X196192057Y-126963985D02*
X196192057Y-127678271D01*
X196192057Y-124678271D02*
X193192057Y-124678271D01*
X193192057Y-124678271D02*
X193192057Y-123535414D01*
X193192057Y-123535414D02*
X193334914Y-123249699D01*
X193334914Y-123249699D02*
X193477771Y-123106842D01*
X193477771Y-123106842D02*
X193763485Y-122963985D01*
X193763485Y-122963985D02*
X194192057Y-122963985D01*
X194192057Y-122963985D02*
X194477771Y-123106842D01*
X194477771Y-123106842D02*
X194620628Y-123249699D01*
X194620628Y-123249699D02*
X194763485Y-123535414D01*
X194763485Y-123535414D02*
X194763485Y-124678271D01*
X193477771Y-121821128D02*
X193334914Y-121678271D01*
X193334914Y-121678271D02*
X193192057Y-121392557D01*
X193192057Y-121392557D02*
X193192057Y-120678271D01*
X193192057Y-120678271D02*
X193334914Y-120392557D01*
X193334914Y-120392557D02*
X193477771Y-120249699D01*
X193477771Y-120249699D02*
X193763485Y-120106842D01*
X193763485Y-120106842D02*
X194049200Y-120106842D01*
X194049200Y-120106842D02*
X194477771Y-120249699D01*
X194477771Y-120249699D02*
X196192057Y-121963985D01*
X196192057Y-121963985D02*
X196192057Y-120106842D01*
X193477771Y-118963985D02*
X193334914Y-118821128D01*
X193334914Y-118821128D02*
X193192057Y-118535414D01*
X193192057Y-118535414D02*
X193192057Y-117821128D01*
X193192057Y-117821128D02*
X193334914Y-117535414D01*
X193334914Y-117535414D02*
X193477771Y-117392556D01*
X193477771Y-117392556D02*
X193763485Y-117249699D01*
X193763485Y-117249699D02*
X194049200Y-117249699D01*
X194049200Y-117249699D02*
X194477771Y-117392556D01*
X194477771Y-117392556D02*
X196192057Y-119106842D01*
X196192057Y-119106842D02*
X196192057Y-117249699D01*
X193192057Y-115392556D02*
X193192057Y-115106842D01*
X193192057Y-115106842D02*
X193334914Y-114821128D01*
X193334914Y-114821128D02*
X193477771Y-114678271D01*
X193477771Y-114678271D02*
X193763485Y-114535413D01*
X193763485Y-114535413D02*
X194334914Y-114392556D01*
X194334914Y-114392556D02*
X195049200Y-114392556D01*
X195049200Y-114392556D02*
X195620628Y-114535413D01*
X195620628Y-114535413D02*
X195906342Y-114678271D01*
X195906342Y-114678271D02*
X196049200Y-114821128D01*
X196049200Y-114821128D02*
X196192057Y-115106842D01*
X196192057Y-115106842D02*
X196192057Y-115392556D01*
X196192057Y-115392556D02*
X196049200Y-115678271D01*
X196049200Y-115678271D02*
X195906342Y-115821128D01*
X195906342Y-115821128D02*
X195620628Y-115963985D01*
X195620628Y-115963985D02*
X195049200Y-116106842D01*
X195049200Y-116106842D02*
X194334914Y-116106842D01*
X194334914Y-116106842D02*
X193763485Y-115963985D01*
X193763485Y-115963985D02*
X193477771Y-115821128D01*
X193477771Y-115821128D02*
X193334914Y-115678271D01*
X193334914Y-115678271D02*
X193192057Y-115392556D01*
X193192057Y-112535413D02*
X193192057Y-112249699D01*
X193192057Y-112249699D02*
X193334914Y-111963985D01*
X193334914Y-111963985D02*
X193477771Y-111821128D01*
X193477771Y-111821128D02*
X193763485Y-111678270D01*
X193763485Y-111678270D02*
X194334914Y-111535413D01*
X194334914Y-111535413D02*
X195049200Y-111535413D01*
X195049200Y-111535413D02*
X195620628Y-111678270D01*
X195620628Y-111678270D02*
X195906342Y-111821128D01*
X195906342Y-111821128D02*
X196049200Y-111963985D01*
X196049200Y-111963985D02*
X196192057Y-112249699D01*
X196192057Y-112249699D02*
X196192057Y-112535413D01*
X196192057Y-112535413D02*
X196049200Y-112821128D01*
X196049200Y-112821128D02*
X195906342Y-112963985D01*
X195906342Y-112963985D02*
X195620628Y-113106842D01*
X195620628Y-113106842D02*
X195049200Y-113249699D01*
X195049200Y-113249699D02*
X194334914Y-113249699D01*
X194334914Y-113249699D02*
X193763485Y-113106842D01*
X193763485Y-113106842D02*
X193477771Y-112963985D01*
X193477771Y-112963985D02*
X193334914Y-112821128D01*
X193334914Y-112821128D02*
X193192057Y-112535413D01*
X203592057Y-172692557D02*
X200592057Y-172692557D01*
X200592057Y-172692557D02*
X202734914Y-171692557D01*
X202734914Y-171692557D02*
X200592057Y-170692557D01*
X200592057Y-170692557D02*
X203592057Y-170692557D01*
X203592057Y-167978272D02*
X202020628Y-167978272D01*
X202020628Y-167978272D02*
X201734914Y-168121129D01*
X201734914Y-168121129D02*
X201592057Y-168406843D01*
X201592057Y-168406843D02*
X201592057Y-168978272D01*
X201592057Y-168978272D02*
X201734914Y-169263986D01*
X203449200Y-167978272D02*
X203592057Y-168263986D01*
X203592057Y-168263986D02*
X203592057Y-168978272D01*
X203592057Y-168978272D02*
X203449200Y-169263986D01*
X203449200Y-169263986D02*
X203163485Y-169406843D01*
X203163485Y-169406843D02*
X202877771Y-169406843D01*
X202877771Y-169406843D02*
X202592057Y-169263986D01*
X202592057Y-169263986D02*
X202449200Y-168978272D01*
X202449200Y-168978272D02*
X202449200Y-168263986D01*
X202449200Y-168263986D02*
X202306342Y-167978272D01*
X201592057Y-166978271D02*
X201592057Y-165835414D01*
X200592057Y-166549700D02*
X203163485Y-166549700D01*
X203163485Y-166549700D02*
X203449200Y-166406843D01*
X203449200Y-166406843D02*
X203592057Y-166121128D01*
X203592057Y-166121128D02*
X203592057Y-165835414D01*
X201592057Y-165263985D02*
X201592057Y-164121128D01*
X200592057Y-164835414D02*
X203163485Y-164835414D01*
X203163485Y-164835414D02*
X203449200Y-164692557D01*
X203449200Y-164692557D02*
X203592057Y-164406842D01*
X203592057Y-164406842D02*
X203592057Y-164121128D01*
X203592057Y-163121128D02*
X201592057Y-163121128D01*
X200592057Y-163121128D02*
X200734914Y-163263985D01*
X200734914Y-163263985D02*
X200877771Y-163121128D01*
X200877771Y-163121128D02*
X200734914Y-162978271D01*
X200734914Y-162978271D02*
X200592057Y-163121128D01*
X200592057Y-163121128D02*
X200877771Y-163121128D01*
X203449200Y-161835414D02*
X203592057Y-161549700D01*
X203592057Y-161549700D02*
X203592057Y-160978271D01*
X203592057Y-160978271D02*
X203449200Y-160692557D01*
X203449200Y-160692557D02*
X203163485Y-160549700D01*
X203163485Y-160549700D02*
X203020628Y-160549700D01*
X203020628Y-160549700D02*
X202734914Y-160692557D01*
X202734914Y-160692557D02*
X202592057Y-160978271D01*
X202592057Y-160978271D02*
X202592057Y-161406843D01*
X202592057Y-161406843D02*
X202449200Y-161692557D01*
X202449200Y-161692557D02*
X202163485Y-161835414D01*
X202163485Y-161835414D02*
X202020628Y-161835414D01*
X202020628Y-161835414D02*
X201734914Y-161692557D01*
X201734914Y-161692557D02*
X201592057Y-161406843D01*
X201592057Y-161406843D02*
X201592057Y-160978271D01*
X201592057Y-160978271D02*
X201734914Y-160692557D01*
X203592057Y-155549700D02*
X203592057Y-156978272D01*
X203592057Y-156978272D02*
X200592057Y-156978272D01*
X203592057Y-154549701D02*
X201592057Y-154549701D01*
X200592057Y-154549701D02*
X200734914Y-154692558D01*
X200734914Y-154692558D02*
X200877771Y-154549701D01*
X200877771Y-154549701D02*
X200734914Y-154406844D01*
X200734914Y-154406844D02*
X200592057Y-154549701D01*
X200592057Y-154549701D02*
X200877771Y-154549701D01*
X201592057Y-153121130D02*
X203592057Y-153121130D01*
X201877771Y-153121130D02*
X201734914Y-152978273D01*
X201734914Y-152978273D02*
X201592057Y-152692558D01*
X201592057Y-152692558D02*
X201592057Y-152263987D01*
X201592057Y-152263987D02*
X201734914Y-151978273D01*
X201734914Y-151978273D02*
X202020628Y-151835416D01*
X202020628Y-151835416D02*
X203592057Y-151835416D01*
X203592057Y-149121130D02*
X200592057Y-149121130D01*
X203449200Y-149121130D02*
X203592057Y-149406844D01*
X203592057Y-149406844D02*
X203592057Y-149978272D01*
X203592057Y-149978272D02*
X203449200Y-150263987D01*
X203449200Y-150263987D02*
X203306342Y-150406844D01*
X203306342Y-150406844D02*
X203020628Y-150549701D01*
X203020628Y-150549701D02*
X202163485Y-150549701D01*
X202163485Y-150549701D02*
X201877771Y-150406844D01*
X201877771Y-150406844D02*
X201734914Y-150263987D01*
X201734914Y-150263987D02*
X201592057Y-149978272D01*
X201592057Y-149978272D02*
X201592057Y-149406844D01*
X201592057Y-149406844D02*
X201734914Y-149121130D01*
X200877771Y-145549701D02*
X200734914Y-145406844D01*
X200734914Y-145406844D02*
X200592057Y-145121130D01*
X200592057Y-145121130D02*
X200592057Y-144406844D01*
X200592057Y-144406844D02*
X200734914Y-144121130D01*
X200734914Y-144121130D02*
X200877771Y-143978272D01*
X200877771Y-143978272D02*
X201163485Y-143835415D01*
X201163485Y-143835415D02*
X201449200Y-143835415D01*
X201449200Y-143835415D02*
X201877771Y-143978272D01*
X201877771Y-143978272D02*
X203592057Y-145692558D01*
X203592057Y-145692558D02*
X203592057Y-143835415D01*
X200592057Y-141978272D02*
X200592057Y-141692558D01*
X200592057Y-141692558D02*
X200734914Y-141406844D01*
X200734914Y-141406844D02*
X200877771Y-141263987D01*
X200877771Y-141263987D02*
X201163485Y-141121129D01*
X201163485Y-141121129D02*
X201734914Y-140978272D01*
X201734914Y-140978272D02*
X202449200Y-140978272D01*
X202449200Y-140978272D02*
X203020628Y-141121129D01*
X203020628Y-141121129D02*
X203306342Y-141263987D01*
X203306342Y-141263987D02*
X203449200Y-141406844D01*
X203449200Y-141406844D02*
X203592057Y-141692558D01*
X203592057Y-141692558D02*
X203592057Y-141978272D01*
X203592057Y-141978272D02*
X203449200Y-142263987D01*
X203449200Y-142263987D02*
X203306342Y-142406844D01*
X203306342Y-142406844D02*
X203020628Y-142549701D01*
X203020628Y-142549701D02*
X202449200Y-142692558D01*
X202449200Y-142692558D02*
X201734914Y-142692558D01*
X201734914Y-142692558D02*
X201163485Y-142549701D01*
X201163485Y-142549701D02*
X200877771Y-142406844D01*
X200877771Y-142406844D02*
X200734914Y-142263987D01*
X200734914Y-142263987D02*
X200592057Y-141978272D01*
X200877771Y-139835415D02*
X200734914Y-139692558D01*
X200734914Y-139692558D02*
X200592057Y-139406844D01*
X200592057Y-139406844D02*
X200592057Y-138692558D01*
X200592057Y-138692558D02*
X200734914Y-138406844D01*
X200734914Y-138406844D02*
X200877771Y-138263986D01*
X200877771Y-138263986D02*
X201163485Y-138121129D01*
X201163485Y-138121129D02*
X201449200Y-138121129D01*
X201449200Y-138121129D02*
X201877771Y-138263986D01*
X201877771Y-138263986D02*
X203592057Y-139978272D01*
X203592057Y-139978272D02*
X203592057Y-138121129D01*
X201592057Y-135549701D02*
X203592057Y-135549701D01*
X200449200Y-136263986D02*
X202592057Y-136978272D01*
X202592057Y-136978272D02*
X202592057Y-135121129D01*
D11*
X122206666Y-56094819D02*
X122206666Y-56809104D01*
X122206666Y-56809104D02*
X122159047Y-56951961D01*
X122159047Y-56951961D02*
X122063809Y-57047200D01*
X122063809Y-57047200D02*
X121920952Y-57094819D01*
X121920952Y-57094819D02*
X121825714Y-57094819D01*
X122587619Y-56094819D02*
X123254285Y-56094819D01*
X123254285Y-56094819D02*
X122825714Y-57094819D01*
X141530476Y-56094819D02*
X141530476Y-56809104D01*
X141530476Y-56809104D02*
X141482857Y-56951961D01*
X141482857Y-56951961D02*
X141387619Y-57047200D01*
X141387619Y-57047200D02*
X141244762Y-57094819D01*
X141244762Y-57094819D02*
X141149524Y-57094819D01*
X142530476Y-57094819D02*
X141959048Y-57094819D01*
X142244762Y-57094819D02*
X142244762Y-56094819D01*
X142244762Y-56094819D02*
X142149524Y-56237676D01*
X142149524Y-56237676D02*
X142054286Y-56332914D01*
X142054286Y-56332914D02*
X141959048Y-56380533D01*
X142911429Y-56190057D02*
X142959048Y-56142438D01*
X142959048Y-56142438D02*
X143054286Y-56094819D01*
X143054286Y-56094819D02*
X143292381Y-56094819D01*
X143292381Y-56094819D02*
X143387619Y-56142438D01*
X143387619Y-56142438D02*
X143435238Y-56190057D01*
X143435238Y-56190057D02*
X143482857Y-56285295D01*
X143482857Y-56285295D02*
X143482857Y-56380533D01*
X143482857Y-56380533D02*
X143435238Y-56523390D01*
X143435238Y-56523390D02*
X142863810Y-57094819D01*
X142863810Y-57094819D02*
X143482857Y-57094819D01*
X161330476Y-62804819D02*
X161330476Y-63519104D01*
X161330476Y-63519104D02*
X161282857Y-63661961D01*
X161282857Y-63661961D02*
X161187619Y-63757200D01*
X161187619Y-63757200D02*
X161044762Y-63804819D01*
X161044762Y-63804819D02*
X160949524Y-63804819D01*
X161711429Y-62804819D02*
X162330476Y-62804819D01*
X162330476Y-62804819D02*
X161997143Y-63185771D01*
X161997143Y-63185771D02*
X162140000Y-63185771D01*
X162140000Y-63185771D02*
X162235238Y-63233390D01*
X162235238Y-63233390D02*
X162282857Y-63281009D01*
X162282857Y-63281009D02*
X162330476Y-63376247D01*
X162330476Y-63376247D02*
X162330476Y-63614342D01*
X162330476Y-63614342D02*
X162282857Y-63709580D01*
X162282857Y-63709580D02*
X162235238Y-63757200D01*
X162235238Y-63757200D02*
X162140000Y-63804819D01*
X162140000Y-63804819D02*
X161854286Y-63804819D01*
X161854286Y-63804819D02*
X161759048Y-63757200D01*
X161759048Y-63757200D02*
X161711429Y-63709580D01*
X162663810Y-62804819D02*
X163330476Y-62804819D01*
X163330476Y-62804819D02*
X162901905Y-63804819D01*
D12*
X101716666Y-45697419D02*
X101716666Y-46411704D01*
X101716666Y-46411704D02*
X101669047Y-46554561D01*
X101669047Y-46554561D02*
X101573809Y-46649800D01*
X101573809Y-46649800D02*
X101430952Y-46697419D01*
X101430952Y-46697419D02*
X101335714Y-46697419D01*
X102716666Y-46697419D02*
X102145238Y-46697419D01*
X102430952Y-46697419D02*
X102430952Y-45697419D01*
X102430952Y-45697419D02*
X102335714Y-45840276D01*
X102335714Y-45840276D02*
X102240476Y-45935514D01*
X102240476Y-45935514D02*
X102145238Y-45983133D01*
D11*
X109850476Y-62804819D02*
X109850476Y-63519104D01*
X109850476Y-63519104D02*
X109802857Y-63661961D01*
X109802857Y-63661961D02*
X109707619Y-63757200D01*
X109707619Y-63757200D02*
X109564762Y-63804819D01*
X109564762Y-63804819D02*
X109469524Y-63804819D01*
X110279048Y-62900057D02*
X110326667Y-62852438D01*
X110326667Y-62852438D02*
X110421905Y-62804819D01*
X110421905Y-62804819D02*
X110660000Y-62804819D01*
X110660000Y-62804819D02*
X110755238Y-62852438D01*
X110755238Y-62852438D02*
X110802857Y-62900057D01*
X110802857Y-62900057D02*
X110850476Y-62995295D01*
X110850476Y-62995295D02*
X110850476Y-63090533D01*
X110850476Y-63090533D02*
X110802857Y-63233390D01*
X110802857Y-63233390D02*
X110231429Y-63804819D01*
X110231429Y-63804819D02*
X110850476Y-63804819D01*
X111707619Y-63138152D02*
X111707619Y-63804819D01*
X111469524Y-62757200D02*
X111231429Y-63471485D01*
X111231429Y-63471485D02*
X111850476Y-63471485D01*
X165290476Y-56094819D02*
X165290476Y-56809104D01*
X165290476Y-56809104D02*
X165242857Y-56951961D01*
X165242857Y-56951961D02*
X165147619Y-57047200D01*
X165147619Y-57047200D02*
X165004762Y-57094819D01*
X165004762Y-57094819D02*
X164909524Y-57094819D01*
X166290476Y-57094819D02*
X165719048Y-57094819D01*
X166004762Y-57094819D02*
X166004762Y-56094819D01*
X166004762Y-56094819D02*
X165909524Y-56237676D01*
X165909524Y-56237676D02*
X165814286Y-56332914D01*
X165814286Y-56332914D02*
X165719048Y-56380533D01*
X166861905Y-56523390D02*
X166766667Y-56475771D01*
X166766667Y-56475771D02*
X166719048Y-56428152D01*
X166719048Y-56428152D02*
X166671429Y-56332914D01*
X166671429Y-56332914D02*
X166671429Y-56285295D01*
X166671429Y-56285295D02*
X166719048Y-56190057D01*
X166719048Y-56190057D02*
X166766667Y-56142438D01*
X166766667Y-56142438D02*
X166861905Y-56094819D01*
X166861905Y-56094819D02*
X167052381Y-56094819D01*
X167052381Y-56094819D02*
X167147619Y-56142438D01*
X167147619Y-56142438D02*
X167195238Y-56190057D01*
X167195238Y-56190057D02*
X167242857Y-56285295D01*
X167242857Y-56285295D02*
X167242857Y-56332914D01*
X167242857Y-56332914D02*
X167195238Y-56428152D01*
X167195238Y-56428152D02*
X167147619Y-56475771D01*
X167147619Y-56475771D02*
X167052381Y-56523390D01*
X167052381Y-56523390D02*
X166861905Y-56523390D01*
X166861905Y-56523390D02*
X166766667Y-56571009D01*
X166766667Y-56571009D02*
X166719048Y-56618628D01*
X166719048Y-56618628D02*
X166671429Y-56713866D01*
X166671429Y-56713866D02*
X166671429Y-56904342D01*
X166671429Y-56904342D02*
X166719048Y-56999580D01*
X166719048Y-56999580D02*
X166766667Y-57047200D01*
X166766667Y-57047200D02*
X166861905Y-57094819D01*
X166861905Y-57094819D02*
X167052381Y-57094819D01*
X167052381Y-57094819D02*
X167147619Y-57047200D01*
X167147619Y-57047200D02*
X167195238Y-56999580D01*
X167195238Y-56999580D02*
X167242857Y-56904342D01*
X167242857Y-56904342D02*
X167242857Y-56713866D01*
X167242857Y-56713866D02*
X167195238Y-56618628D01*
X167195238Y-56618628D02*
X167147619Y-56571009D01*
X167147619Y-56571009D02*
X167052381Y-56523390D01*
D12*
X99606666Y-263017419D02*
X99606666Y-263731704D01*
X99606666Y-263731704D02*
X99559047Y-263874561D01*
X99559047Y-263874561D02*
X99463809Y-263969800D01*
X99463809Y-263969800D02*
X99320952Y-264017419D01*
X99320952Y-264017419D02*
X99225714Y-264017419D01*
X100035238Y-263112657D02*
X100082857Y-263065038D01*
X100082857Y-263065038D02*
X100178095Y-263017419D01*
X100178095Y-263017419D02*
X100416190Y-263017419D01*
X100416190Y-263017419D02*
X100511428Y-263065038D01*
X100511428Y-263065038D02*
X100559047Y-263112657D01*
X100559047Y-263112657D02*
X100606666Y-263207895D01*
X100606666Y-263207895D02*
X100606666Y-263303133D01*
X100606666Y-263303133D02*
X100559047Y-263445990D01*
X100559047Y-263445990D02*
X99987619Y-264017419D01*
X99987619Y-264017419D02*
X100606666Y-264017419D01*
D11*
X133610476Y-56094819D02*
X133610476Y-56809104D01*
X133610476Y-56809104D02*
X133562857Y-56951961D01*
X133562857Y-56951961D02*
X133467619Y-57047200D01*
X133467619Y-57047200D02*
X133324762Y-57094819D01*
X133324762Y-57094819D02*
X133229524Y-57094819D01*
X134610476Y-57094819D02*
X134039048Y-57094819D01*
X134324762Y-57094819D02*
X134324762Y-56094819D01*
X134324762Y-56094819D02*
X134229524Y-56237676D01*
X134229524Y-56237676D02*
X134134286Y-56332914D01*
X134134286Y-56332914D02*
X134039048Y-56380533D01*
X135229524Y-56094819D02*
X135324762Y-56094819D01*
X135324762Y-56094819D02*
X135420000Y-56142438D01*
X135420000Y-56142438D02*
X135467619Y-56190057D01*
X135467619Y-56190057D02*
X135515238Y-56285295D01*
X135515238Y-56285295D02*
X135562857Y-56475771D01*
X135562857Y-56475771D02*
X135562857Y-56713866D01*
X135562857Y-56713866D02*
X135515238Y-56904342D01*
X135515238Y-56904342D02*
X135467619Y-56999580D01*
X135467619Y-56999580D02*
X135420000Y-57047200D01*
X135420000Y-57047200D02*
X135324762Y-57094819D01*
X135324762Y-57094819D02*
X135229524Y-57094819D01*
X135229524Y-57094819D02*
X135134286Y-57047200D01*
X135134286Y-57047200D02*
X135086667Y-56999580D01*
X135086667Y-56999580D02*
X135039048Y-56904342D01*
X135039048Y-56904342D02*
X134991429Y-56713866D01*
X134991429Y-56713866D02*
X134991429Y-56475771D01*
X134991429Y-56475771D02*
X135039048Y-56285295D01*
X135039048Y-56285295D02*
X135086667Y-56190057D01*
X135086667Y-56190057D02*
X135134286Y-56142438D01*
X135134286Y-56142438D02*
X135229524Y-56094819D01*
X137570476Y-56094819D02*
X137570476Y-56809104D01*
X137570476Y-56809104D02*
X137522857Y-56951961D01*
X137522857Y-56951961D02*
X137427619Y-57047200D01*
X137427619Y-57047200D02*
X137284762Y-57094819D01*
X137284762Y-57094819D02*
X137189524Y-57094819D01*
X138570476Y-57094819D02*
X137999048Y-57094819D01*
X138284762Y-57094819D02*
X138284762Y-56094819D01*
X138284762Y-56094819D02*
X138189524Y-56237676D01*
X138189524Y-56237676D02*
X138094286Y-56332914D01*
X138094286Y-56332914D02*
X137999048Y-56380533D01*
X139522857Y-57094819D02*
X138951429Y-57094819D01*
X139237143Y-57094819D02*
X139237143Y-56094819D01*
X139237143Y-56094819D02*
X139141905Y-56237676D01*
X139141905Y-56237676D02*
X139046667Y-56332914D01*
X139046667Y-56332914D02*
X138951429Y-56380533D01*
X181130476Y-56094819D02*
X181130476Y-56809104D01*
X181130476Y-56809104D02*
X181082857Y-56951961D01*
X181082857Y-56951961D02*
X180987619Y-57047200D01*
X180987619Y-57047200D02*
X180844762Y-57094819D01*
X180844762Y-57094819D02*
X180749524Y-57094819D01*
X181559048Y-56190057D02*
X181606667Y-56142438D01*
X181606667Y-56142438D02*
X181701905Y-56094819D01*
X181701905Y-56094819D02*
X181940000Y-56094819D01*
X181940000Y-56094819D02*
X182035238Y-56142438D01*
X182035238Y-56142438D02*
X182082857Y-56190057D01*
X182082857Y-56190057D02*
X182130476Y-56285295D01*
X182130476Y-56285295D02*
X182130476Y-56380533D01*
X182130476Y-56380533D02*
X182082857Y-56523390D01*
X182082857Y-56523390D02*
X181511429Y-57094819D01*
X181511429Y-57094819D02*
X182130476Y-57094819D01*
X182511429Y-56190057D02*
X182559048Y-56142438D01*
X182559048Y-56142438D02*
X182654286Y-56094819D01*
X182654286Y-56094819D02*
X182892381Y-56094819D01*
X182892381Y-56094819D02*
X182987619Y-56142438D01*
X182987619Y-56142438D02*
X183035238Y-56190057D01*
X183035238Y-56190057D02*
X183082857Y-56285295D01*
X183082857Y-56285295D02*
X183082857Y-56380533D01*
X183082857Y-56380533D02*
X183035238Y-56523390D01*
X183035238Y-56523390D02*
X182463810Y-57094819D01*
X182463810Y-57094819D02*
X183082857Y-57094819D01*
X106366666Y-56094819D02*
X106366666Y-56809104D01*
X106366666Y-56809104D02*
X106319047Y-56951961D01*
X106319047Y-56951961D02*
X106223809Y-57047200D01*
X106223809Y-57047200D02*
X106080952Y-57094819D01*
X106080952Y-57094819D02*
X105985714Y-57094819D01*
X106747619Y-56094819D02*
X107366666Y-56094819D01*
X107366666Y-56094819D02*
X107033333Y-56475771D01*
X107033333Y-56475771D02*
X107176190Y-56475771D01*
X107176190Y-56475771D02*
X107271428Y-56523390D01*
X107271428Y-56523390D02*
X107319047Y-56571009D01*
X107319047Y-56571009D02*
X107366666Y-56666247D01*
X107366666Y-56666247D02*
X107366666Y-56904342D01*
X107366666Y-56904342D02*
X107319047Y-56999580D01*
X107319047Y-56999580D02*
X107271428Y-57047200D01*
X107271428Y-57047200D02*
X107176190Y-57094819D01*
X107176190Y-57094819D02*
X106890476Y-57094819D01*
X106890476Y-57094819D02*
X106795238Y-57047200D01*
X106795238Y-57047200D02*
X106747619Y-56999580D01*
X149450476Y-62804819D02*
X149450476Y-63519104D01*
X149450476Y-63519104D02*
X149402857Y-63661961D01*
X149402857Y-63661961D02*
X149307619Y-63757200D01*
X149307619Y-63757200D02*
X149164762Y-63804819D01*
X149164762Y-63804819D02*
X149069524Y-63804819D01*
X149831429Y-62804819D02*
X150450476Y-62804819D01*
X150450476Y-62804819D02*
X150117143Y-63185771D01*
X150117143Y-63185771D02*
X150260000Y-63185771D01*
X150260000Y-63185771D02*
X150355238Y-63233390D01*
X150355238Y-63233390D02*
X150402857Y-63281009D01*
X150402857Y-63281009D02*
X150450476Y-63376247D01*
X150450476Y-63376247D02*
X150450476Y-63614342D01*
X150450476Y-63614342D02*
X150402857Y-63709580D01*
X150402857Y-63709580D02*
X150355238Y-63757200D01*
X150355238Y-63757200D02*
X150260000Y-63804819D01*
X150260000Y-63804819D02*
X149974286Y-63804819D01*
X149974286Y-63804819D02*
X149879048Y-63757200D01*
X149879048Y-63757200D02*
X149831429Y-63709580D01*
X151307619Y-63138152D02*
X151307619Y-63804819D01*
X151069524Y-62757200D02*
X150831429Y-63471485D01*
X150831429Y-63471485D02*
X151450476Y-63471485D01*
X110326666Y-56094819D02*
X110326666Y-56809104D01*
X110326666Y-56809104D02*
X110279047Y-56951961D01*
X110279047Y-56951961D02*
X110183809Y-57047200D01*
X110183809Y-57047200D02*
X110040952Y-57094819D01*
X110040952Y-57094819D02*
X109945714Y-57094819D01*
X111231428Y-56428152D02*
X111231428Y-57094819D01*
X110993333Y-56047200D02*
X110755238Y-56761485D01*
X110755238Y-56761485D02*
X111374285Y-56761485D01*
X113810476Y-62804819D02*
X113810476Y-63519104D01*
X113810476Y-63519104D02*
X113762857Y-63661961D01*
X113762857Y-63661961D02*
X113667619Y-63757200D01*
X113667619Y-63757200D02*
X113524762Y-63804819D01*
X113524762Y-63804819D02*
X113429524Y-63804819D01*
X114239048Y-62900057D02*
X114286667Y-62852438D01*
X114286667Y-62852438D02*
X114381905Y-62804819D01*
X114381905Y-62804819D02*
X114620000Y-62804819D01*
X114620000Y-62804819D02*
X114715238Y-62852438D01*
X114715238Y-62852438D02*
X114762857Y-62900057D01*
X114762857Y-62900057D02*
X114810476Y-62995295D01*
X114810476Y-62995295D02*
X114810476Y-63090533D01*
X114810476Y-63090533D02*
X114762857Y-63233390D01*
X114762857Y-63233390D02*
X114191429Y-63804819D01*
X114191429Y-63804819D02*
X114810476Y-63804819D01*
X115715238Y-62804819D02*
X115239048Y-62804819D01*
X115239048Y-62804819D02*
X115191429Y-63281009D01*
X115191429Y-63281009D02*
X115239048Y-63233390D01*
X115239048Y-63233390D02*
X115334286Y-63185771D01*
X115334286Y-63185771D02*
X115572381Y-63185771D01*
X115572381Y-63185771D02*
X115667619Y-63233390D01*
X115667619Y-63233390D02*
X115715238Y-63281009D01*
X115715238Y-63281009D02*
X115762857Y-63376247D01*
X115762857Y-63376247D02*
X115762857Y-63614342D01*
X115762857Y-63614342D02*
X115715238Y-63709580D01*
X115715238Y-63709580D02*
X115667619Y-63757200D01*
X115667619Y-63757200D02*
X115572381Y-63804819D01*
X115572381Y-63804819D02*
X115334286Y-63804819D01*
X115334286Y-63804819D02*
X115239048Y-63757200D01*
X115239048Y-63757200D02*
X115191429Y-63709580D01*
X126166666Y-56094819D02*
X126166666Y-56809104D01*
X126166666Y-56809104D02*
X126119047Y-56951961D01*
X126119047Y-56951961D02*
X126023809Y-57047200D01*
X126023809Y-57047200D02*
X125880952Y-57094819D01*
X125880952Y-57094819D02*
X125785714Y-57094819D01*
X126785714Y-56523390D02*
X126690476Y-56475771D01*
X126690476Y-56475771D02*
X126642857Y-56428152D01*
X126642857Y-56428152D02*
X126595238Y-56332914D01*
X126595238Y-56332914D02*
X126595238Y-56285295D01*
X126595238Y-56285295D02*
X126642857Y-56190057D01*
X126642857Y-56190057D02*
X126690476Y-56142438D01*
X126690476Y-56142438D02*
X126785714Y-56094819D01*
X126785714Y-56094819D02*
X126976190Y-56094819D01*
X126976190Y-56094819D02*
X127071428Y-56142438D01*
X127071428Y-56142438D02*
X127119047Y-56190057D01*
X127119047Y-56190057D02*
X127166666Y-56285295D01*
X127166666Y-56285295D02*
X127166666Y-56332914D01*
X127166666Y-56332914D02*
X127119047Y-56428152D01*
X127119047Y-56428152D02*
X127071428Y-56475771D01*
X127071428Y-56475771D02*
X126976190Y-56523390D01*
X126976190Y-56523390D02*
X126785714Y-56523390D01*
X126785714Y-56523390D02*
X126690476Y-56571009D01*
X126690476Y-56571009D02*
X126642857Y-56618628D01*
X126642857Y-56618628D02*
X126595238Y-56713866D01*
X126595238Y-56713866D02*
X126595238Y-56904342D01*
X126595238Y-56904342D02*
X126642857Y-56999580D01*
X126642857Y-56999580D02*
X126690476Y-57047200D01*
X126690476Y-57047200D02*
X126785714Y-57094819D01*
X126785714Y-57094819D02*
X126976190Y-57094819D01*
X126976190Y-57094819D02*
X127071428Y-57047200D01*
X127071428Y-57047200D02*
X127119047Y-56999580D01*
X127119047Y-56999580D02*
X127166666Y-56904342D01*
X127166666Y-56904342D02*
X127166666Y-56713866D01*
X127166666Y-56713866D02*
X127119047Y-56618628D01*
X127119047Y-56618628D02*
X127071428Y-56571009D01*
X127071428Y-56571009D02*
X126976190Y-56523390D01*
X149450476Y-56094819D02*
X149450476Y-56809104D01*
X149450476Y-56809104D02*
X149402857Y-56951961D01*
X149402857Y-56951961D02*
X149307619Y-57047200D01*
X149307619Y-57047200D02*
X149164762Y-57094819D01*
X149164762Y-57094819D02*
X149069524Y-57094819D01*
X150450476Y-57094819D02*
X149879048Y-57094819D01*
X150164762Y-57094819D02*
X150164762Y-56094819D01*
X150164762Y-56094819D02*
X150069524Y-56237676D01*
X150069524Y-56237676D02*
X149974286Y-56332914D01*
X149974286Y-56332914D02*
X149879048Y-56380533D01*
X151307619Y-56428152D02*
X151307619Y-57094819D01*
X151069524Y-56047200D02*
X150831429Y-56761485D01*
X150831429Y-56761485D02*
X151450476Y-56761485D01*
X118246666Y-56094819D02*
X118246666Y-56809104D01*
X118246666Y-56809104D02*
X118199047Y-56951961D01*
X118199047Y-56951961D02*
X118103809Y-57047200D01*
X118103809Y-57047200D02*
X117960952Y-57094819D01*
X117960952Y-57094819D02*
X117865714Y-57094819D01*
X119151428Y-56094819D02*
X118960952Y-56094819D01*
X118960952Y-56094819D02*
X118865714Y-56142438D01*
X118865714Y-56142438D02*
X118818095Y-56190057D01*
X118818095Y-56190057D02*
X118722857Y-56332914D01*
X118722857Y-56332914D02*
X118675238Y-56523390D01*
X118675238Y-56523390D02*
X118675238Y-56904342D01*
X118675238Y-56904342D02*
X118722857Y-56999580D01*
X118722857Y-56999580D02*
X118770476Y-57047200D01*
X118770476Y-57047200D02*
X118865714Y-57094819D01*
X118865714Y-57094819D02*
X119056190Y-57094819D01*
X119056190Y-57094819D02*
X119151428Y-57047200D01*
X119151428Y-57047200D02*
X119199047Y-56999580D01*
X119199047Y-56999580D02*
X119246666Y-56904342D01*
X119246666Y-56904342D02*
X119246666Y-56666247D01*
X119246666Y-56666247D02*
X119199047Y-56571009D01*
X119199047Y-56571009D02*
X119151428Y-56523390D01*
X119151428Y-56523390D02*
X119056190Y-56475771D01*
X119056190Y-56475771D02*
X118865714Y-56475771D01*
X118865714Y-56475771D02*
X118770476Y-56523390D01*
X118770476Y-56523390D02*
X118722857Y-56571009D01*
X118722857Y-56571009D02*
X118675238Y-56666247D01*
X157370476Y-56094819D02*
X157370476Y-56809104D01*
X157370476Y-56809104D02*
X157322857Y-56951961D01*
X157322857Y-56951961D02*
X157227619Y-57047200D01*
X157227619Y-57047200D02*
X157084762Y-57094819D01*
X157084762Y-57094819D02*
X156989524Y-57094819D01*
X158370476Y-57094819D02*
X157799048Y-57094819D01*
X158084762Y-57094819D02*
X158084762Y-56094819D01*
X158084762Y-56094819D02*
X157989524Y-56237676D01*
X157989524Y-56237676D02*
X157894286Y-56332914D01*
X157894286Y-56332914D02*
X157799048Y-56380533D01*
X159227619Y-56094819D02*
X159037143Y-56094819D01*
X159037143Y-56094819D02*
X158941905Y-56142438D01*
X158941905Y-56142438D02*
X158894286Y-56190057D01*
X158894286Y-56190057D02*
X158799048Y-56332914D01*
X158799048Y-56332914D02*
X158751429Y-56523390D01*
X158751429Y-56523390D02*
X158751429Y-56904342D01*
X158751429Y-56904342D02*
X158799048Y-56999580D01*
X158799048Y-56999580D02*
X158846667Y-57047200D01*
X158846667Y-57047200D02*
X158941905Y-57094819D01*
X158941905Y-57094819D02*
X159132381Y-57094819D01*
X159132381Y-57094819D02*
X159227619Y-57047200D01*
X159227619Y-57047200D02*
X159275238Y-56999580D01*
X159275238Y-56999580D02*
X159322857Y-56904342D01*
X159322857Y-56904342D02*
X159322857Y-56666247D01*
X159322857Y-56666247D02*
X159275238Y-56571009D01*
X159275238Y-56571009D02*
X159227619Y-56523390D01*
X159227619Y-56523390D02*
X159132381Y-56475771D01*
X159132381Y-56475771D02*
X158941905Y-56475771D01*
X158941905Y-56475771D02*
X158846667Y-56523390D01*
X158846667Y-56523390D02*
X158799048Y-56571009D01*
X158799048Y-56571009D02*
X158751429Y-56666247D01*
X105890476Y-62804819D02*
X105890476Y-63519104D01*
X105890476Y-63519104D02*
X105842857Y-63661961D01*
X105842857Y-63661961D02*
X105747619Y-63757200D01*
X105747619Y-63757200D02*
X105604762Y-63804819D01*
X105604762Y-63804819D02*
X105509524Y-63804819D01*
X106319048Y-62900057D02*
X106366667Y-62852438D01*
X106366667Y-62852438D02*
X106461905Y-62804819D01*
X106461905Y-62804819D02*
X106700000Y-62804819D01*
X106700000Y-62804819D02*
X106795238Y-62852438D01*
X106795238Y-62852438D02*
X106842857Y-62900057D01*
X106842857Y-62900057D02*
X106890476Y-62995295D01*
X106890476Y-62995295D02*
X106890476Y-63090533D01*
X106890476Y-63090533D02*
X106842857Y-63233390D01*
X106842857Y-63233390D02*
X106271429Y-63804819D01*
X106271429Y-63804819D02*
X106890476Y-63804819D01*
X107223810Y-62804819D02*
X107842857Y-62804819D01*
X107842857Y-62804819D02*
X107509524Y-63185771D01*
X107509524Y-63185771D02*
X107652381Y-63185771D01*
X107652381Y-63185771D02*
X107747619Y-63233390D01*
X107747619Y-63233390D02*
X107795238Y-63281009D01*
X107795238Y-63281009D02*
X107842857Y-63376247D01*
X107842857Y-63376247D02*
X107842857Y-63614342D01*
X107842857Y-63614342D02*
X107795238Y-63709580D01*
X107795238Y-63709580D02*
X107747619Y-63757200D01*
X107747619Y-63757200D02*
X107652381Y-63804819D01*
X107652381Y-63804819D02*
X107366667Y-63804819D01*
X107366667Y-63804819D02*
X107271429Y-63757200D01*
X107271429Y-63757200D02*
X107223810Y-63709580D01*
X137570476Y-62804819D02*
X137570476Y-63519104D01*
X137570476Y-63519104D02*
X137522857Y-63661961D01*
X137522857Y-63661961D02*
X137427619Y-63757200D01*
X137427619Y-63757200D02*
X137284762Y-63804819D01*
X137284762Y-63804819D02*
X137189524Y-63804819D01*
X137951429Y-62804819D02*
X138570476Y-62804819D01*
X138570476Y-62804819D02*
X138237143Y-63185771D01*
X138237143Y-63185771D02*
X138380000Y-63185771D01*
X138380000Y-63185771D02*
X138475238Y-63233390D01*
X138475238Y-63233390D02*
X138522857Y-63281009D01*
X138522857Y-63281009D02*
X138570476Y-63376247D01*
X138570476Y-63376247D02*
X138570476Y-63614342D01*
X138570476Y-63614342D02*
X138522857Y-63709580D01*
X138522857Y-63709580D02*
X138475238Y-63757200D01*
X138475238Y-63757200D02*
X138380000Y-63804819D01*
X138380000Y-63804819D02*
X138094286Y-63804819D01*
X138094286Y-63804819D02*
X137999048Y-63757200D01*
X137999048Y-63757200D02*
X137951429Y-63709580D01*
X139522857Y-63804819D02*
X138951429Y-63804819D01*
X139237143Y-63804819D02*
X139237143Y-62804819D01*
X139237143Y-62804819D02*
X139141905Y-62947676D01*
X139141905Y-62947676D02*
X139046667Y-63042914D01*
X139046667Y-63042914D02*
X138951429Y-63090533D01*
X177170476Y-56094819D02*
X177170476Y-56809104D01*
X177170476Y-56809104D02*
X177122857Y-56951961D01*
X177122857Y-56951961D02*
X177027619Y-57047200D01*
X177027619Y-57047200D02*
X176884762Y-57094819D01*
X176884762Y-57094819D02*
X176789524Y-57094819D01*
X177599048Y-56190057D02*
X177646667Y-56142438D01*
X177646667Y-56142438D02*
X177741905Y-56094819D01*
X177741905Y-56094819D02*
X177980000Y-56094819D01*
X177980000Y-56094819D02*
X178075238Y-56142438D01*
X178075238Y-56142438D02*
X178122857Y-56190057D01*
X178122857Y-56190057D02*
X178170476Y-56285295D01*
X178170476Y-56285295D02*
X178170476Y-56380533D01*
X178170476Y-56380533D02*
X178122857Y-56523390D01*
X178122857Y-56523390D02*
X177551429Y-57094819D01*
X177551429Y-57094819D02*
X178170476Y-57094819D01*
X179122857Y-57094819D02*
X178551429Y-57094819D01*
X178837143Y-57094819D02*
X178837143Y-56094819D01*
X178837143Y-56094819D02*
X178741905Y-56237676D01*
X178741905Y-56237676D02*
X178646667Y-56332914D01*
X178646667Y-56332914D02*
X178551429Y-56380533D01*
X161330476Y-56094819D02*
X161330476Y-56809104D01*
X161330476Y-56809104D02*
X161282857Y-56951961D01*
X161282857Y-56951961D02*
X161187619Y-57047200D01*
X161187619Y-57047200D02*
X161044762Y-57094819D01*
X161044762Y-57094819D02*
X160949524Y-57094819D01*
X162330476Y-57094819D02*
X161759048Y-57094819D01*
X162044762Y-57094819D02*
X162044762Y-56094819D01*
X162044762Y-56094819D02*
X161949524Y-56237676D01*
X161949524Y-56237676D02*
X161854286Y-56332914D01*
X161854286Y-56332914D02*
X161759048Y-56380533D01*
X162663810Y-56094819D02*
X163330476Y-56094819D01*
X163330476Y-56094819D02*
X162901905Y-57094819D01*
X130126666Y-56094819D02*
X130126666Y-56809104D01*
X130126666Y-56809104D02*
X130079047Y-56951961D01*
X130079047Y-56951961D02*
X129983809Y-57047200D01*
X129983809Y-57047200D02*
X129840952Y-57094819D01*
X129840952Y-57094819D02*
X129745714Y-57094819D01*
X130650476Y-57094819D02*
X130840952Y-57094819D01*
X130840952Y-57094819D02*
X130936190Y-57047200D01*
X130936190Y-57047200D02*
X130983809Y-56999580D01*
X130983809Y-56999580D02*
X131079047Y-56856723D01*
X131079047Y-56856723D02*
X131126666Y-56666247D01*
X131126666Y-56666247D02*
X131126666Y-56285295D01*
X131126666Y-56285295D02*
X131079047Y-56190057D01*
X131079047Y-56190057D02*
X131031428Y-56142438D01*
X131031428Y-56142438D02*
X130936190Y-56094819D01*
X130936190Y-56094819D02*
X130745714Y-56094819D01*
X130745714Y-56094819D02*
X130650476Y-56142438D01*
X130650476Y-56142438D02*
X130602857Y-56190057D01*
X130602857Y-56190057D02*
X130555238Y-56285295D01*
X130555238Y-56285295D02*
X130555238Y-56523390D01*
X130555238Y-56523390D02*
X130602857Y-56618628D01*
X130602857Y-56618628D02*
X130650476Y-56666247D01*
X130650476Y-56666247D02*
X130745714Y-56713866D01*
X130745714Y-56713866D02*
X130936190Y-56713866D01*
X130936190Y-56713866D02*
X131031428Y-56666247D01*
X131031428Y-56666247D02*
X131079047Y-56618628D01*
X131079047Y-56618628D02*
X131126666Y-56523390D01*
X125690476Y-62804819D02*
X125690476Y-63519104D01*
X125690476Y-63519104D02*
X125642857Y-63661961D01*
X125642857Y-63661961D02*
X125547619Y-63757200D01*
X125547619Y-63757200D02*
X125404762Y-63804819D01*
X125404762Y-63804819D02*
X125309524Y-63804819D01*
X126119048Y-62900057D02*
X126166667Y-62852438D01*
X126166667Y-62852438D02*
X126261905Y-62804819D01*
X126261905Y-62804819D02*
X126500000Y-62804819D01*
X126500000Y-62804819D02*
X126595238Y-62852438D01*
X126595238Y-62852438D02*
X126642857Y-62900057D01*
X126642857Y-62900057D02*
X126690476Y-62995295D01*
X126690476Y-62995295D02*
X126690476Y-63090533D01*
X126690476Y-63090533D02*
X126642857Y-63233390D01*
X126642857Y-63233390D02*
X126071429Y-63804819D01*
X126071429Y-63804819D02*
X126690476Y-63804819D01*
X127261905Y-63233390D02*
X127166667Y-63185771D01*
X127166667Y-63185771D02*
X127119048Y-63138152D01*
X127119048Y-63138152D02*
X127071429Y-63042914D01*
X127071429Y-63042914D02*
X127071429Y-62995295D01*
X127071429Y-62995295D02*
X127119048Y-62900057D01*
X127119048Y-62900057D02*
X127166667Y-62852438D01*
X127166667Y-62852438D02*
X127261905Y-62804819D01*
X127261905Y-62804819D02*
X127452381Y-62804819D01*
X127452381Y-62804819D02*
X127547619Y-62852438D01*
X127547619Y-62852438D02*
X127595238Y-62900057D01*
X127595238Y-62900057D02*
X127642857Y-62995295D01*
X127642857Y-62995295D02*
X127642857Y-63042914D01*
X127642857Y-63042914D02*
X127595238Y-63138152D01*
X127595238Y-63138152D02*
X127547619Y-63185771D01*
X127547619Y-63185771D02*
X127452381Y-63233390D01*
X127452381Y-63233390D02*
X127261905Y-63233390D01*
X127261905Y-63233390D02*
X127166667Y-63281009D01*
X127166667Y-63281009D02*
X127119048Y-63328628D01*
X127119048Y-63328628D02*
X127071429Y-63423866D01*
X127071429Y-63423866D02*
X127071429Y-63614342D01*
X127071429Y-63614342D02*
X127119048Y-63709580D01*
X127119048Y-63709580D02*
X127166667Y-63757200D01*
X127166667Y-63757200D02*
X127261905Y-63804819D01*
X127261905Y-63804819D02*
X127452381Y-63804819D01*
X127452381Y-63804819D02*
X127547619Y-63757200D01*
X127547619Y-63757200D02*
X127595238Y-63709580D01*
X127595238Y-63709580D02*
X127642857Y-63614342D01*
X127642857Y-63614342D02*
X127642857Y-63423866D01*
X127642857Y-63423866D02*
X127595238Y-63328628D01*
X127595238Y-63328628D02*
X127547619Y-63281009D01*
X127547619Y-63281009D02*
X127452381Y-63233390D01*
X173210476Y-56094819D02*
X173210476Y-56809104D01*
X173210476Y-56809104D02*
X173162857Y-56951961D01*
X173162857Y-56951961D02*
X173067619Y-57047200D01*
X173067619Y-57047200D02*
X172924762Y-57094819D01*
X172924762Y-57094819D02*
X172829524Y-57094819D01*
X173639048Y-56190057D02*
X173686667Y-56142438D01*
X173686667Y-56142438D02*
X173781905Y-56094819D01*
X173781905Y-56094819D02*
X174020000Y-56094819D01*
X174020000Y-56094819D02*
X174115238Y-56142438D01*
X174115238Y-56142438D02*
X174162857Y-56190057D01*
X174162857Y-56190057D02*
X174210476Y-56285295D01*
X174210476Y-56285295D02*
X174210476Y-56380533D01*
X174210476Y-56380533D02*
X174162857Y-56523390D01*
X174162857Y-56523390D02*
X173591429Y-57094819D01*
X173591429Y-57094819D02*
X174210476Y-57094819D01*
X174829524Y-56094819D02*
X174924762Y-56094819D01*
X174924762Y-56094819D02*
X175020000Y-56142438D01*
X175020000Y-56142438D02*
X175067619Y-56190057D01*
X175067619Y-56190057D02*
X175115238Y-56285295D01*
X175115238Y-56285295D02*
X175162857Y-56475771D01*
X175162857Y-56475771D02*
X175162857Y-56713866D01*
X175162857Y-56713866D02*
X175115238Y-56904342D01*
X175115238Y-56904342D02*
X175067619Y-56999580D01*
X175067619Y-56999580D02*
X175020000Y-57047200D01*
X175020000Y-57047200D02*
X174924762Y-57094819D01*
X174924762Y-57094819D02*
X174829524Y-57094819D01*
X174829524Y-57094819D02*
X174734286Y-57047200D01*
X174734286Y-57047200D02*
X174686667Y-56999580D01*
X174686667Y-56999580D02*
X174639048Y-56904342D01*
X174639048Y-56904342D02*
X174591429Y-56713866D01*
X174591429Y-56713866D02*
X174591429Y-56475771D01*
X174591429Y-56475771D02*
X174639048Y-56285295D01*
X174639048Y-56285295D02*
X174686667Y-56190057D01*
X174686667Y-56190057D02*
X174734286Y-56142438D01*
X174734286Y-56142438D02*
X174829524Y-56094819D01*
X157370476Y-62804819D02*
X157370476Y-63519104D01*
X157370476Y-63519104D02*
X157322857Y-63661961D01*
X157322857Y-63661961D02*
X157227619Y-63757200D01*
X157227619Y-63757200D02*
X157084762Y-63804819D01*
X157084762Y-63804819D02*
X156989524Y-63804819D01*
X157751429Y-62804819D02*
X158370476Y-62804819D01*
X158370476Y-62804819D02*
X158037143Y-63185771D01*
X158037143Y-63185771D02*
X158180000Y-63185771D01*
X158180000Y-63185771D02*
X158275238Y-63233390D01*
X158275238Y-63233390D02*
X158322857Y-63281009D01*
X158322857Y-63281009D02*
X158370476Y-63376247D01*
X158370476Y-63376247D02*
X158370476Y-63614342D01*
X158370476Y-63614342D02*
X158322857Y-63709580D01*
X158322857Y-63709580D02*
X158275238Y-63757200D01*
X158275238Y-63757200D02*
X158180000Y-63804819D01*
X158180000Y-63804819D02*
X157894286Y-63804819D01*
X157894286Y-63804819D02*
X157799048Y-63757200D01*
X157799048Y-63757200D02*
X157751429Y-63709580D01*
X159227619Y-62804819D02*
X159037143Y-62804819D01*
X159037143Y-62804819D02*
X158941905Y-62852438D01*
X158941905Y-62852438D02*
X158894286Y-62900057D01*
X158894286Y-62900057D02*
X158799048Y-63042914D01*
X158799048Y-63042914D02*
X158751429Y-63233390D01*
X158751429Y-63233390D02*
X158751429Y-63614342D01*
X158751429Y-63614342D02*
X158799048Y-63709580D01*
X158799048Y-63709580D02*
X158846667Y-63757200D01*
X158846667Y-63757200D02*
X158941905Y-63804819D01*
X158941905Y-63804819D02*
X159132381Y-63804819D01*
X159132381Y-63804819D02*
X159227619Y-63757200D01*
X159227619Y-63757200D02*
X159275238Y-63709580D01*
X159275238Y-63709580D02*
X159322857Y-63614342D01*
X159322857Y-63614342D02*
X159322857Y-63376247D01*
X159322857Y-63376247D02*
X159275238Y-63281009D01*
X159275238Y-63281009D02*
X159227619Y-63233390D01*
X159227619Y-63233390D02*
X159132381Y-63185771D01*
X159132381Y-63185771D02*
X158941905Y-63185771D01*
X158941905Y-63185771D02*
X158846667Y-63233390D01*
X158846667Y-63233390D02*
X158799048Y-63281009D01*
X158799048Y-63281009D02*
X158751429Y-63376247D01*
X114286666Y-56094819D02*
X114286666Y-56809104D01*
X114286666Y-56809104D02*
X114239047Y-56951961D01*
X114239047Y-56951961D02*
X114143809Y-57047200D01*
X114143809Y-57047200D02*
X114000952Y-57094819D01*
X114000952Y-57094819D02*
X113905714Y-57094819D01*
X115239047Y-56094819D02*
X114762857Y-56094819D01*
X114762857Y-56094819D02*
X114715238Y-56571009D01*
X114715238Y-56571009D02*
X114762857Y-56523390D01*
X114762857Y-56523390D02*
X114858095Y-56475771D01*
X114858095Y-56475771D02*
X115096190Y-56475771D01*
X115096190Y-56475771D02*
X115191428Y-56523390D01*
X115191428Y-56523390D02*
X115239047Y-56571009D01*
X115239047Y-56571009D02*
X115286666Y-56666247D01*
X115286666Y-56666247D02*
X115286666Y-56904342D01*
X115286666Y-56904342D02*
X115239047Y-56999580D01*
X115239047Y-56999580D02*
X115191428Y-57047200D01*
X115191428Y-57047200D02*
X115096190Y-57094819D01*
X115096190Y-57094819D02*
X114858095Y-57094819D01*
X114858095Y-57094819D02*
X114762857Y-57047200D01*
X114762857Y-57047200D02*
X114715238Y-56999580D01*
X141530476Y-62804819D02*
X141530476Y-63519104D01*
X141530476Y-63519104D02*
X141482857Y-63661961D01*
X141482857Y-63661961D02*
X141387619Y-63757200D01*
X141387619Y-63757200D02*
X141244762Y-63804819D01*
X141244762Y-63804819D02*
X141149524Y-63804819D01*
X141911429Y-62804819D02*
X142530476Y-62804819D01*
X142530476Y-62804819D02*
X142197143Y-63185771D01*
X142197143Y-63185771D02*
X142340000Y-63185771D01*
X142340000Y-63185771D02*
X142435238Y-63233390D01*
X142435238Y-63233390D02*
X142482857Y-63281009D01*
X142482857Y-63281009D02*
X142530476Y-63376247D01*
X142530476Y-63376247D02*
X142530476Y-63614342D01*
X142530476Y-63614342D02*
X142482857Y-63709580D01*
X142482857Y-63709580D02*
X142435238Y-63757200D01*
X142435238Y-63757200D02*
X142340000Y-63804819D01*
X142340000Y-63804819D02*
X142054286Y-63804819D01*
X142054286Y-63804819D02*
X141959048Y-63757200D01*
X141959048Y-63757200D02*
X141911429Y-63709580D01*
X142911429Y-62900057D02*
X142959048Y-62852438D01*
X142959048Y-62852438D02*
X143054286Y-62804819D01*
X143054286Y-62804819D02*
X143292381Y-62804819D01*
X143292381Y-62804819D02*
X143387619Y-62852438D01*
X143387619Y-62852438D02*
X143435238Y-62900057D01*
X143435238Y-62900057D02*
X143482857Y-62995295D01*
X143482857Y-62995295D02*
X143482857Y-63090533D01*
X143482857Y-63090533D02*
X143435238Y-63233390D01*
X143435238Y-63233390D02*
X142863810Y-63804819D01*
X142863810Y-63804819D02*
X143482857Y-63804819D01*
X153410476Y-62804819D02*
X153410476Y-63519104D01*
X153410476Y-63519104D02*
X153362857Y-63661961D01*
X153362857Y-63661961D02*
X153267619Y-63757200D01*
X153267619Y-63757200D02*
X153124762Y-63804819D01*
X153124762Y-63804819D02*
X153029524Y-63804819D01*
X153791429Y-62804819D02*
X154410476Y-62804819D01*
X154410476Y-62804819D02*
X154077143Y-63185771D01*
X154077143Y-63185771D02*
X154220000Y-63185771D01*
X154220000Y-63185771D02*
X154315238Y-63233390D01*
X154315238Y-63233390D02*
X154362857Y-63281009D01*
X154362857Y-63281009D02*
X154410476Y-63376247D01*
X154410476Y-63376247D02*
X154410476Y-63614342D01*
X154410476Y-63614342D02*
X154362857Y-63709580D01*
X154362857Y-63709580D02*
X154315238Y-63757200D01*
X154315238Y-63757200D02*
X154220000Y-63804819D01*
X154220000Y-63804819D02*
X153934286Y-63804819D01*
X153934286Y-63804819D02*
X153839048Y-63757200D01*
X153839048Y-63757200D02*
X153791429Y-63709580D01*
X155315238Y-62804819D02*
X154839048Y-62804819D01*
X154839048Y-62804819D02*
X154791429Y-63281009D01*
X154791429Y-63281009D02*
X154839048Y-63233390D01*
X154839048Y-63233390D02*
X154934286Y-63185771D01*
X154934286Y-63185771D02*
X155172381Y-63185771D01*
X155172381Y-63185771D02*
X155267619Y-63233390D01*
X155267619Y-63233390D02*
X155315238Y-63281009D01*
X155315238Y-63281009D02*
X155362857Y-63376247D01*
X155362857Y-63376247D02*
X155362857Y-63614342D01*
X155362857Y-63614342D02*
X155315238Y-63709580D01*
X155315238Y-63709580D02*
X155267619Y-63757200D01*
X155267619Y-63757200D02*
X155172381Y-63804819D01*
X155172381Y-63804819D02*
X154934286Y-63804819D01*
X154934286Y-63804819D02*
X154839048Y-63757200D01*
X154839048Y-63757200D02*
X154791429Y-63709580D01*
X185090476Y-62804819D02*
X185090476Y-63519104D01*
X185090476Y-63519104D02*
X185042857Y-63661961D01*
X185042857Y-63661961D02*
X184947619Y-63757200D01*
X184947619Y-63757200D02*
X184804762Y-63804819D01*
X184804762Y-63804819D02*
X184709524Y-63804819D01*
X185995238Y-63138152D02*
X185995238Y-63804819D01*
X185757143Y-62757200D02*
X185519048Y-63471485D01*
X185519048Y-63471485D02*
X186138095Y-63471485D01*
X186423810Y-62804819D02*
X187042857Y-62804819D01*
X187042857Y-62804819D02*
X186709524Y-63185771D01*
X186709524Y-63185771D02*
X186852381Y-63185771D01*
X186852381Y-63185771D02*
X186947619Y-63233390D01*
X186947619Y-63233390D02*
X186995238Y-63281009D01*
X186995238Y-63281009D02*
X187042857Y-63376247D01*
X187042857Y-63376247D02*
X187042857Y-63614342D01*
X187042857Y-63614342D02*
X186995238Y-63709580D01*
X186995238Y-63709580D02*
X186947619Y-63757200D01*
X186947619Y-63757200D02*
X186852381Y-63804819D01*
X186852381Y-63804819D02*
X186566667Y-63804819D01*
X186566667Y-63804819D02*
X186471429Y-63757200D01*
X186471429Y-63757200D02*
X186423810Y-63709580D01*
X165290476Y-62804819D02*
X165290476Y-63519104D01*
X165290476Y-63519104D02*
X165242857Y-63661961D01*
X165242857Y-63661961D02*
X165147619Y-63757200D01*
X165147619Y-63757200D02*
X165004762Y-63804819D01*
X165004762Y-63804819D02*
X164909524Y-63804819D01*
X165671429Y-62804819D02*
X166290476Y-62804819D01*
X166290476Y-62804819D02*
X165957143Y-63185771D01*
X165957143Y-63185771D02*
X166100000Y-63185771D01*
X166100000Y-63185771D02*
X166195238Y-63233390D01*
X166195238Y-63233390D02*
X166242857Y-63281009D01*
X166242857Y-63281009D02*
X166290476Y-63376247D01*
X166290476Y-63376247D02*
X166290476Y-63614342D01*
X166290476Y-63614342D02*
X166242857Y-63709580D01*
X166242857Y-63709580D02*
X166195238Y-63757200D01*
X166195238Y-63757200D02*
X166100000Y-63804819D01*
X166100000Y-63804819D02*
X165814286Y-63804819D01*
X165814286Y-63804819D02*
X165719048Y-63757200D01*
X165719048Y-63757200D02*
X165671429Y-63709580D01*
X166861905Y-63233390D02*
X166766667Y-63185771D01*
X166766667Y-63185771D02*
X166719048Y-63138152D01*
X166719048Y-63138152D02*
X166671429Y-63042914D01*
X166671429Y-63042914D02*
X166671429Y-62995295D01*
X166671429Y-62995295D02*
X166719048Y-62900057D01*
X166719048Y-62900057D02*
X166766667Y-62852438D01*
X166766667Y-62852438D02*
X166861905Y-62804819D01*
X166861905Y-62804819D02*
X167052381Y-62804819D01*
X167052381Y-62804819D02*
X167147619Y-62852438D01*
X167147619Y-62852438D02*
X167195238Y-62900057D01*
X167195238Y-62900057D02*
X167242857Y-62995295D01*
X167242857Y-62995295D02*
X167242857Y-63042914D01*
X167242857Y-63042914D02*
X167195238Y-63138152D01*
X167195238Y-63138152D02*
X167147619Y-63185771D01*
X167147619Y-63185771D02*
X167052381Y-63233390D01*
X167052381Y-63233390D02*
X166861905Y-63233390D01*
X166861905Y-63233390D02*
X166766667Y-63281009D01*
X166766667Y-63281009D02*
X166719048Y-63328628D01*
X166719048Y-63328628D02*
X166671429Y-63423866D01*
X166671429Y-63423866D02*
X166671429Y-63614342D01*
X166671429Y-63614342D02*
X166719048Y-63709580D01*
X166719048Y-63709580D02*
X166766667Y-63757200D01*
X166766667Y-63757200D02*
X166861905Y-63804819D01*
X166861905Y-63804819D02*
X167052381Y-63804819D01*
X167052381Y-63804819D02*
X167147619Y-63757200D01*
X167147619Y-63757200D02*
X167195238Y-63709580D01*
X167195238Y-63709580D02*
X167242857Y-63614342D01*
X167242857Y-63614342D02*
X167242857Y-63423866D01*
X167242857Y-63423866D02*
X167195238Y-63328628D01*
X167195238Y-63328628D02*
X167147619Y-63281009D01*
X167147619Y-63281009D02*
X167052381Y-63233390D01*
X177170476Y-62804819D02*
X177170476Y-63519104D01*
X177170476Y-63519104D02*
X177122857Y-63661961D01*
X177122857Y-63661961D02*
X177027619Y-63757200D01*
X177027619Y-63757200D02*
X176884762Y-63804819D01*
X176884762Y-63804819D02*
X176789524Y-63804819D01*
X178075238Y-63138152D02*
X178075238Y-63804819D01*
X177837143Y-62757200D02*
X177599048Y-63471485D01*
X177599048Y-63471485D02*
X178218095Y-63471485D01*
X179122857Y-63804819D02*
X178551429Y-63804819D01*
X178837143Y-63804819D02*
X178837143Y-62804819D01*
X178837143Y-62804819D02*
X178741905Y-62947676D01*
X178741905Y-62947676D02*
X178646667Y-63042914D01*
X178646667Y-63042914D02*
X178551429Y-63090533D01*
X145490476Y-56094819D02*
X145490476Y-56809104D01*
X145490476Y-56809104D02*
X145442857Y-56951961D01*
X145442857Y-56951961D02*
X145347619Y-57047200D01*
X145347619Y-57047200D02*
X145204762Y-57094819D01*
X145204762Y-57094819D02*
X145109524Y-57094819D01*
X146490476Y-57094819D02*
X145919048Y-57094819D01*
X146204762Y-57094819D02*
X146204762Y-56094819D01*
X146204762Y-56094819D02*
X146109524Y-56237676D01*
X146109524Y-56237676D02*
X146014286Y-56332914D01*
X146014286Y-56332914D02*
X145919048Y-56380533D01*
X146823810Y-56094819D02*
X147442857Y-56094819D01*
X147442857Y-56094819D02*
X147109524Y-56475771D01*
X147109524Y-56475771D02*
X147252381Y-56475771D01*
X147252381Y-56475771D02*
X147347619Y-56523390D01*
X147347619Y-56523390D02*
X147395238Y-56571009D01*
X147395238Y-56571009D02*
X147442857Y-56666247D01*
X147442857Y-56666247D02*
X147442857Y-56904342D01*
X147442857Y-56904342D02*
X147395238Y-56999580D01*
X147395238Y-56999580D02*
X147347619Y-57047200D01*
X147347619Y-57047200D02*
X147252381Y-57094819D01*
X147252381Y-57094819D02*
X146966667Y-57094819D01*
X146966667Y-57094819D02*
X146871429Y-57047200D01*
X146871429Y-57047200D02*
X146823810Y-56999580D01*
X173210476Y-62804819D02*
X173210476Y-63519104D01*
X173210476Y-63519104D02*
X173162857Y-63661961D01*
X173162857Y-63661961D02*
X173067619Y-63757200D01*
X173067619Y-63757200D02*
X172924762Y-63804819D01*
X172924762Y-63804819D02*
X172829524Y-63804819D01*
X174115238Y-63138152D02*
X174115238Y-63804819D01*
X173877143Y-62757200D02*
X173639048Y-63471485D01*
X173639048Y-63471485D02*
X174258095Y-63471485D01*
X174829524Y-62804819D02*
X174924762Y-62804819D01*
X174924762Y-62804819D02*
X175020000Y-62852438D01*
X175020000Y-62852438D02*
X175067619Y-62900057D01*
X175067619Y-62900057D02*
X175115238Y-62995295D01*
X175115238Y-62995295D02*
X175162857Y-63185771D01*
X175162857Y-63185771D02*
X175162857Y-63423866D01*
X175162857Y-63423866D02*
X175115238Y-63614342D01*
X175115238Y-63614342D02*
X175067619Y-63709580D01*
X175067619Y-63709580D02*
X175020000Y-63757200D01*
X175020000Y-63757200D02*
X174924762Y-63804819D01*
X174924762Y-63804819D02*
X174829524Y-63804819D01*
X174829524Y-63804819D02*
X174734286Y-63757200D01*
X174734286Y-63757200D02*
X174686667Y-63709580D01*
X174686667Y-63709580D02*
X174639048Y-63614342D01*
X174639048Y-63614342D02*
X174591429Y-63423866D01*
X174591429Y-63423866D02*
X174591429Y-63185771D01*
X174591429Y-63185771D02*
X174639048Y-62995295D01*
X174639048Y-62995295D02*
X174686667Y-62900057D01*
X174686667Y-62900057D02*
X174734286Y-62852438D01*
X174734286Y-62852438D02*
X174829524Y-62804819D01*
X129650476Y-62804819D02*
X129650476Y-63519104D01*
X129650476Y-63519104D02*
X129602857Y-63661961D01*
X129602857Y-63661961D02*
X129507619Y-63757200D01*
X129507619Y-63757200D02*
X129364762Y-63804819D01*
X129364762Y-63804819D02*
X129269524Y-63804819D01*
X130079048Y-62900057D02*
X130126667Y-62852438D01*
X130126667Y-62852438D02*
X130221905Y-62804819D01*
X130221905Y-62804819D02*
X130460000Y-62804819D01*
X130460000Y-62804819D02*
X130555238Y-62852438D01*
X130555238Y-62852438D02*
X130602857Y-62900057D01*
X130602857Y-62900057D02*
X130650476Y-62995295D01*
X130650476Y-62995295D02*
X130650476Y-63090533D01*
X130650476Y-63090533D02*
X130602857Y-63233390D01*
X130602857Y-63233390D02*
X130031429Y-63804819D01*
X130031429Y-63804819D02*
X130650476Y-63804819D01*
X131126667Y-63804819D02*
X131317143Y-63804819D01*
X131317143Y-63804819D02*
X131412381Y-63757200D01*
X131412381Y-63757200D02*
X131460000Y-63709580D01*
X131460000Y-63709580D02*
X131555238Y-63566723D01*
X131555238Y-63566723D02*
X131602857Y-63376247D01*
X131602857Y-63376247D02*
X131602857Y-62995295D01*
X131602857Y-62995295D02*
X131555238Y-62900057D01*
X131555238Y-62900057D02*
X131507619Y-62852438D01*
X131507619Y-62852438D02*
X131412381Y-62804819D01*
X131412381Y-62804819D02*
X131221905Y-62804819D01*
X131221905Y-62804819D02*
X131126667Y-62852438D01*
X131126667Y-62852438D02*
X131079048Y-62900057D01*
X131079048Y-62900057D02*
X131031429Y-62995295D01*
X131031429Y-62995295D02*
X131031429Y-63233390D01*
X131031429Y-63233390D02*
X131079048Y-63328628D01*
X131079048Y-63328628D02*
X131126667Y-63376247D01*
X131126667Y-63376247D02*
X131221905Y-63423866D01*
X131221905Y-63423866D02*
X131412381Y-63423866D01*
X131412381Y-63423866D02*
X131507619Y-63376247D01*
X131507619Y-63376247D02*
X131555238Y-63328628D01*
X131555238Y-63328628D02*
X131602857Y-63233390D01*
X189050476Y-62804819D02*
X189050476Y-63519104D01*
X189050476Y-63519104D02*
X189002857Y-63661961D01*
X189002857Y-63661961D02*
X188907619Y-63757200D01*
X188907619Y-63757200D02*
X188764762Y-63804819D01*
X188764762Y-63804819D02*
X188669524Y-63804819D01*
X189955238Y-63138152D02*
X189955238Y-63804819D01*
X189717143Y-62757200D02*
X189479048Y-63471485D01*
X189479048Y-63471485D02*
X190098095Y-63471485D01*
X190907619Y-63138152D02*
X190907619Y-63804819D01*
X190669524Y-62757200D02*
X190431429Y-63471485D01*
X190431429Y-63471485D02*
X191050476Y-63471485D01*
X121730476Y-62804819D02*
X121730476Y-63519104D01*
X121730476Y-63519104D02*
X121682857Y-63661961D01*
X121682857Y-63661961D02*
X121587619Y-63757200D01*
X121587619Y-63757200D02*
X121444762Y-63804819D01*
X121444762Y-63804819D02*
X121349524Y-63804819D01*
X122159048Y-62900057D02*
X122206667Y-62852438D01*
X122206667Y-62852438D02*
X122301905Y-62804819D01*
X122301905Y-62804819D02*
X122540000Y-62804819D01*
X122540000Y-62804819D02*
X122635238Y-62852438D01*
X122635238Y-62852438D02*
X122682857Y-62900057D01*
X122682857Y-62900057D02*
X122730476Y-62995295D01*
X122730476Y-62995295D02*
X122730476Y-63090533D01*
X122730476Y-63090533D02*
X122682857Y-63233390D01*
X122682857Y-63233390D02*
X122111429Y-63804819D01*
X122111429Y-63804819D02*
X122730476Y-63804819D01*
X123063810Y-62804819D02*
X123730476Y-62804819D01*
X123730476Y-62804819D02*
X123301905Y-63804819D01*
X133610476Y-62804819D02*
X133610476Y-63519104D01*
X133610476Y-63519104D02*
X133562857Y-63661961D01*
X133562857Y-63661961D02*
X133467619Y-63757200D01*
X133467619Y-63757200D02*
X133324762Y-63804819D01*
X133324762Y-63804819D02*
X133229524Y-63804819D01*
X133991429Y-62804819D02*
X134610476Y-62804819D01*
X134610476Y-62804819D02*
X134277143Y-63185771D01*
X134277143Y-63185771D02*
X134420000Y-63185771D01*
X134420000Y-63185771D02*
X134515238Y-63233390D01*
X134515238Y-63233390D02*
X134562857Y-63281009D01*
X134562857Y-63281009D02*
X134610476Y-63376247D01*
X134610476Y-63376247D02*
X134610476Y-63614342D01*
X134610476Y-63614342D02*
X134562857Y-63709580D01*
X134562857Y-63709580D02*
X134515238Y-63757200D01*
X134515238Y-63757200D02*
X134420000Y-63804819D01*
X134420000Y-63804819D02*
X134134286Y-63804819D01*
X134134286Y-63804819D02*
X134039048Y-63757200D01*
X134039048Y-63757200D02*
X133991429Y-63709580D01*
X135229524Y-62804819D02*
X135324762Y-62804819D01*
X135324762Y-62804819D02*
X135420000Y-62852438D01*
X135420000Y-62852438D02*
X135467619Y-62900057D01*
X135467619Y-62900057D02*
X135515238Y-62995295D01*
X135515238Y-62995295D02*
X135562857Y-63185771D01*
X135562857Y-63185771D02*
X135562857Y-63423866D01*
X135562857Y-63423866D02*
X135515238Y-63614342D01*
X135515238Y-63614342D02*
X135467619Y-63709580D01*
X135467619Y-63709580D02*
X135420000Y-63757200D01*
X135420000Y-63757200D02*
X135324762Y-63804819D01*
X135324762Y-63804819D02*
X135229524Y-63804819D01*
X135229524Y-63804819D02*
X135134286Y-63757200D01*
X135134286Y-63757200D02*
X135086667Y-63709580D01*
X135086667Y-63709580D02*
X135039048Y-63614342D01*
X135039048Y-63614342D02*
X134991429Y-63423866D01*
X134991429Y-63423866D02*
X134991429Y-63185771D01*
X134991429Y-63185771D02*
X135039048Y-62995295D01*
X135039048Y-62995295D02*
X135086667Y-62900057D01*
X135086667Y-62900057D02*
X135134286Y-62852438D01*
X135134286Y-62852438D02*
X135229524Y-62804819D01*
X117770476Y-62804819D02*
X117770476Y-63519104D01*
X117770476Y-63519104D02*
X117722857Y-63661961D01*
X117722857Y-63661961D02*
X117627619Y-63757200D01*
X117627619Y-63757200D02*
X117484762Y-63804819D01*
X117484762Y-63804819D02*
X117389524Y-63804819D01*
X118199048Y-62900057D02*
X118246667Y-62852438D01*
X118246667Y-62852438D02*
X118341905Y-62804819D01*
X118341905Y-62804819D02*
X118580000Y-62804819D01*
X118580000Y-62804819D02*
X118675238Y-62852438D01*
X118675238Y-62852438D02*
X118722857Y-62900057D01*
X118722857Y-62900057D02*
X118770476Y-62995295D01*
X118770476Y-62995295D02*
X118770476Y-63090533D01*
X118770476Y-63090533D02*
X118722857Y-63233390D01*
X118722857Y-63233390D02*
X118151429Y-63804819D01*
X118151429Y-63804819D02*
X118770476Y-63804819D01*
X119627619Y-62804819D02*
X119437143Y-62804819D01*
X119437143Y-62804819D02*
X119341905Y-62852438D01*
X119341905Y-62852438D02*
X119294286Y-62900057D01*
X119294286Y-62900057D02*
X119199048Y-63042914D01*
X119199048Y-63042914D02*
X119151429Y-63233390D01*
X119151429Y-63233390D02*
X119151429Y-63614342D01*
X119151429Y-63614342D02*
X119199048Y-63709580D01*
X119199048Y-63709580D02*
X119246667Y-63757200D01*
X119246667Y-63757200D02*
X119341905Y-63804819D01*
X119341905Y-63804819D02*
X119532381Y-63804819D01*
X119532381Y-63804819D02*
X119627619Y-63757200D01*
X119627619Y-63757200D02*
X119675238Y-63709580D01*
X119675238Y-63709580D02*
X119722857Y-63614342D01*
X119722857Y-63614342D02*
X119722857Y-63376247D01*
X119722857Y-63376247D02*
X119675238Y-63281009D01*
X119675238Y-63281009D02*
X119627619Y-63233390D01*
X119627619Y-63233390D02*
X119532381Y-63185771D01*
X119532381Y-63185771D02*
X119341905Y-63185771D01*
X119341905Y-63185771D02*
X119246667Y-63233390D01*
X119246667Y-63233390D02*
X119199048Y-63281009D01*
X119199048Y-63281009D02*
X119151429Y-63376247D01*
X185090476Y-56094819D02*
X185090476Y-56809104D01*
X185090476Y-56809104D02*
X185042857Y-56951961D01*
X185042857Y-56951961D02*
X184947619Y-57047200D01*
X184947619Y-57047200D02*
X184804762Y-57094819D01*
X184804762Y-57094819D02*
X184709524Y-57094819D01*
X185995238Y-56428152D02*
X185995238Y-57094819D01*
X185757143Y-56047200D02*
X185519048Y-56761485D01*
X185519048Y-56761485D02*
X186138095Y-56761485D01*
X186995238Y-56094819D02*
X186519048Y-56094819D01*
X186519048Y-56094819D02*
X186471429Y-56571009D01*
X186471429Y-56571009D02*
X186519048Y-56523390D01*
X186519048Y-56523390D02*
X186614286Y-56475771D01*
X186614286Y-56475771D02*
X186852381Y-56475771D01*
X186852381Y-56475771D02*
X186947619Y-56523390D01*
X186947619Y-56523390D02*
X186995238Y-56571009D01*
X186995238Y-56571009D02*
X187042857Y-56666247D01*
X187042857Y-56666247D02*
X187042857Y-56904342D01*
X187042857Y-56904342D02*
X186995238Y-56999580D01*
X186995238Y-56999580D02*
X186947619Y-57047200D01*
X186947619Y-57047200D02*
X186852381Y-57094819D01*
X186852381Y-57094819D02*
X186614286Y-57094819D01*
X186614286Y-57094819D02*
X186519048Y-57047200D01*
X186519048Y-57047200D02*
X186471429Y-56999580D01*
X153410476Y-56094819D02*
X153410476Y-56809104D01*
X153410476Y-56809104D02*
X153362857Y-56951961D01*
X153362857Y-56951961D02*
X153267619Y-57047200D01*
X153267619Y-57047200D02*
X153124762Y-57094819D01*
X153124762Y-57094819D02*
X153029524Y-57094819D01*
X154410476Y-57094819D02*
X153839048Y-57094819D01*
X154124762Y-57094819D02*
X154124762Y-56094819D01*
X154124762Y-56094819D02*
X154029524Y-56237676D01*
X154029524Y-56237676D02*
X153934286Y-56332914D01*
X153934286Y-56332914D02*
X153839048Y-56380533D01*
X155315238Y-56094819D02*
X154839048Y-56094819D01*
X154839048Y-56094819D02*
X154791429Y-56571009D01*
X154791429Y-56571009D02*
X154839048Y-56523390D01*
X154839048Y-56523390D02*
X154934286Y-56475771D01*
X154934286Y-56475771D02*
X155172381Y-56475771D01*
X155172381Y-56475771D02*
X155267619Y-56523390D01*
X155267619Y-56523390D02*
X155315238Y-56571009D01*
X155315238Y-56571009D02*
X155362857Y-56666247D01*
X155362857Y-56666247D02*
X155362857Y-56904342D01*
X155362857Y-56904342D02*
X155315238Y-56999580D01*
X155315238Y-56999580D02*
X155267619Y-57047200D01*
X155267619Y-57047200D02*
X155172381Y-57094819D01*
X155172381Y-57094819D02*
X154934286Y-57094819D01*
X154934286Y-57094819D02*
X154839048Y-57047200D01*
X154839048Y-57047200D02*
X154791429Y-56999580D01*
X169250476Y-56094819D02*
X169250476Y-56809104D01*
X169250476Y-56809104D02*
X169202857Y-56951961D01*
X169202857Y-56951961D02*
X169107619Y-57047200D01*
X169107619Y-57047200D02*
X168964762Y-57094819D01*
X168964762Y-57094819D02*
X168869524Y-57094819D01*
X170250476Y-57094819D02*
X169679048Y-57094819D01*
X169964762Y-57094819D02*
X169964762Y-56094819D01*
X169964762Y-56094819D02*
X169869524Y-56237676D01*
X169869524Y-56237676D02*
X169774286Y-56332914D01*
X169774286Y-56332914D02*
X169679048Y-56380533D01*
X170726667Y-57094819D02*
X170917143Y-57094819D01*
X170917143Y-57094819D02*
X171012381Y-57047200D01*
X171012381Y-57047200D02*
X171060000Y-56999580D01*
X171060000Y-56999580D02*
X171155238Y-56856723D01*
X171155238Y-56856723D02*
X171202857Y-56666247D01*
X171202857Y-56666247D02*
X171202857Y-56285295D01*
X171202857Y-56285295D02*
X171155238Y-56190057D01*
X171155238Y-56190057D02*
X171107619Y-56142438D01*
X171107619Y-56142438D02*
X171012381Y-56094819D01*
X171012381Y-56094819D02*
X170821905Y-56094819D01*
X170821905Y-56094819D02*
X170726667Y-56142438D01*
X170726667Y-56142438D02*
X170679048Y-56190057D01*
X170679048Y-56190057D02*
X170631429Y-56285295D01*
X170631429Y-56285295D02*
X170631429Y-56523390D01*
X170631429Y-56523390D02*
X170679048Y-56618628D01*
X170679048Y-56618628D02*
X170726667Y-56666247D01*
X170726667Y-56666247D02*
X170821905Y-56713866D01*
X170821905Y-56713866D02*
X171012381Y-56713866D01*
X171012381Y-56713866D02*
X171107619Y-56666247D01*
X171107619Y-56666247D02*
X171155238Y-56618628D01*
X171155238Y-56618628D02*
X171202857Y-56523390D01*
X169250476Y-62804819D02*
X169250476Y-63519104D01*
X169250476Y-63519104D02*
X169202857Y-63661961D01*
X169202857Y-63661961D02*
X169107619Y-63757200D01*
X169107619Y-63757200D02*
X168964762Y-63804819D01*
X168964762Y-63804819D02*
X168869524Y-63804819D01*
X169631429Y-62804819D02*
X170250476Y-62804819D01*
X170250476Y-62804819D02*
X169917143Y-63185771D01*
X169917143Y-63185771D02*
X170060000Y-63185771D01*
X170060000Y-63185771D02*
X170155238Y-63233390D01*
X170155238Y-63233390D02*
X170202857Y-63281009D01*
X170202857Y-63281009D02*
X170250476Y-63376247D01*
X170250476Y-63376247D02*
X170250476Y-63614342D01*
X170250476Y-63614342D02*
X170202857Y-63709580D01*
X170202857Y-63709580D02*
X170155238Y-63757200D01*
X170155238Y-63757200D02*
X170060000Y-63804819D01*
X170060000Y-63804819D02*
X169774286Y-63804819D01*
X169774286Y-63804819D02*
X169679048Y-63757200D01*
X169679048Y-63757200D02*
X169631429Y-63709580D01*
X170726667Y-63804819D02*
X170917143Y-63804819D01*
X170917143Y-63804819D02*
X171012381Y-63757200D01*
X171012381Y-63757200D02*
X171060000Y-63709580D01*
X171060000Y-63709580D02*
X171155238Y-63566723D01*
X171155238Y-63566723D02*
X171202857Y-63376247D01*
X171202857Y-63376247D02*
X171202857Y-62995295D01*
X171202857Y-62995295D02*
X171155238Y-62900057D01*
X171155238Y-62900057D02*
X171107619Y-62852438D01*
X171107619Y-62852438D02*
X171012381Y-62804819D01*
X171012381Y-62804819D02*
X170821905Y-62804819D01*
X170821905Y-62804819D02*
X170726667Y-62852438D01*
X170726667Y-62852438D02*
X170679048Y-62900057D01*
X170679048Y-62900057D02*
X170631429Y-62995295D01*
X170631429Y-62995295D02*
X170631429Y-63233390D01*
X170631429Y-63233390D02*
X170679048Y-63328628D01*
X170679048Y-63328628D02*
X170726667Y-63376247D01*
X170726667Y-63376247D02*
X170821905Y-63423866D01*
X170821905Y-63423866D02*
X171012381Y-63423866D01*
X171012381Y-63423866D02*
X171107619Y-63376247D01*
X171107619Y-63376247D02*
X171155238Y-63328628D01*
X171155238Y-63328628D02*
X171202857Y-63233390D01*
X181130476Y-62804819D02*
X181130476Y-63519104D01*
X181130476Y-63519104D02*
X181082857Y-63661961D01*
X181082857Y-63661961D02*
X180987619Y-63757200D01*
X180987619Y-63757200D02*
X180844762Y-63804819D01*
X180844762Y-63804819D02*
X180749524Y-63804819D01*
X182035238Y-63138152D02*
X182035238Y-63804819D01*
X181797143Y-62757200D02*
X181559048Y-63471485D01*
X181559048Y-63471485D02*
X182178095Y-63471485D01*
X182511429Y-62900057D02*
X182559048Y-62852438D01*
X182559048Y-62852438D02*
X182654286Y-62804819D01*
X182654286Y-62804819D02*
X182892381Y-62804819D01*
X182892381Y-62804819D02*
X182987619Y-62852438D01*
X182987619Y-62852438D02*
X183035238Y-62900057D01*
X183035238Y-62900057D02*
X183082857Y-62995295D01*
X183082857Y-62995295D02*
X183082857Y-63090533D01*
X183082857Y-63090533D02*
X183035238Y-63233390D01*
X183035238Y-63233390D02*
X182463810Y-63804819D01*
X182463810Y-63804819D02*
X183082857Y-63804819D01*
X189050476Y-56094819D02*
X189050476Y-56809104D01*
X189050476Y-56809104D02*
X189002857Y-56951961D01*
X189002857Y-56951961D02*
X188907619Y-57047200D01*
X188907619Y-57047200D02*
X188764762Y-57094819D01*
X188764762Y-57094819D02*
X188669524Y-57094819D01*
X189955238Y-56428152D02*
X189955238Y-57094819D01*
X189717143Y-56047200D02*
X189479048Y-56761485D01*
X189479048Y-56761485D02*
X190098095Y-56761485D01*
X190907619Y-56094819D02*
X190717143Y-56094819D01*
X190717143Y-56094819D02*
X190621905Y-56142438D01*
X190621905Y-56142438D02*
X190574286Y-56190057D01*
X190574286Y-56190057D02*
X190479048Y-56332914D01*
X190479048Y-56332914D02*
X190431429Y-56523390D01*
X190431429Y-56523390D02*
X190431429Y-56904342D01*
X190431429Y-56904342D02*
X190479048Y-56999580D01*
X190479048Y-56999580D02*
X190526667Y-57047200D01*
X190526667Y-57047200D02*
X190621905Y-57094819D01*
X190621905Y-57094819D02*
X190812381Y-57094819D01*
X190812381Y-57094819D02*
X190907619Y-57047200D01*
X190907619Y-57047200D02*
X190955238Y-56999580D01*
X190955238Y-56999580D02*
X191002857Y-56904342D01*
X191002857Y-56904342D02*
X191002857Y-56666247D01*
X191002857Y-56666247D02*
X190955238Y-56571009D01*
X190955238Y-56571009D02*
X190907619Y-56523390D01*
X190907619Y-56523390D02*
X190812381Y-56475771D01*
X190812381Y-56475771D02*
X190621905Y-56475771D01*
X190621905Y-56475771D02*
X190526667Y-56523390D01*
X190526667Y-56523390D02*
X190479048Y-56571009D01*
X190479048Y-56571009D02*
X190431429Y-56666247D01*
X145490476Y-62804819D02*
X145490476Y-63519104D01*
X145490476Y-63519104D02*
X145442857Y-63661961D01*
X145442857Y-63661961D02*
X145347619Y-63757200D01*
X145347619Y-63757200D02*
X145204762Y-63804819D01*
X145204762Y-63804819D02*
X145109524Y-63804819D01*
X145871429Y-62804819D02*
X146490476Y-62804819D01*
X146490476Y-62804819D02*
X146157143Y-63185771D01*
X146157143Y-63185771D02*
X146300000Y-63185771D01*
X146300000Y-63185771D02*
X146395238Y-63233390D01*
X146395238Y-63233390D02*
X146442857Y-63281009D01*
X146442857Y-63281009D02*
X146490476Y-63376247D01*
X146490476Y-63376247D02*
X146490476Y-63614342D01*
X146490476Y-63614342D02*
X146442857Y-63709580D01*
X146442857Y-63709580D02*
X146395238Y-63757200D01*
X146395238Y-63757200D02*
X146300000Y-63804819D01*
X146300000Y-63804819D02*
X146014286Y-63804819D01*
X146014286Y-63804819D02*
X145919048Y-63757200D01*
X145919048Y-63757200D02*
X145871429Y-63709580D01*
X146823810Y-62804819D02*
X147442857Y-62804819D01*
X147442857Y-62804819D02*
X147109524Y-63185771D01*
X147109524Y-63185771D02*
X147252381Y-63185771D01*
X147252381Y-63185771D02*
X147347619Y-63233390D01*
X147347619Y-63233390D02*
X147395238Y-63281009D01*
X147395238Y-63281009D02*
X147442857Y-63376247D01*
X147442857Y-63376247D02*
X147442857Y-63614342D01*
X147442857Y-63614342D02*
X147395238Y-63709580D01*
X147395238Y-63709580D02*
X147347619Y-63757200D01*
X147347619Y-63757200D02*
X147252381Y-63804819D01*
X147252381Y-63804819D02*
X146966667Y-63804819D01*
X146966667Y-63804819D02*
X146871429Y-63757200D01*
X146871429Y-63757200D02*
X146823810Y-63709580D01*
D13*
%TO.C,J7*%
X121210000Y-57640000D02*
X122540000Y-57640000D01*
X121210000Y-58970000D02*
X121210000Y-57640000D01*
X121210000Y-60240000D02*
X121210000Y-60300000D01*
X121210000Y-60240000D02*
X123870000Y-60240000D01*
X121210000Y-60300000D02*
X123870000Y-60300000D01*
X123870000Y-60240000D02*
X123870000Y-60300000D01*
%TO.C,J12*%
X141010000Y-57640000D02*
X142340000Y-57640000D01*
X141010000Y-58970000D02*
X141010000Y-57640000D01*
X141010000Y-60240000D02*
X141010000Y-60300000D01*
X141010000Y-60240000D02*
X143670000Y-60240000D01*
X141010000Y-60300000D02*
X143670000Y-60300000D01*
X143670000Y-60240000D02*
X143670000Y-60300000D01*
%TO.C,J37*%
X160810000Y-64350000D02*
X162140000Y-64350000D01*
X160810000Y-65680000D02*
X160810000Y-64350000D01*
X160810000Y-66950000D02*
X160810000Y-67010000D01*
X160810000Y-66950000D02*
X163470000Y-66950000D01*
X160810000Y-67010000D02*
X163470000Y-67010000D01*
X163470000Y-66950000D02*
X163470000Y-67010000D01*
%TO.C,J24*%
X109330000Y-64350000D02*
X110660000Y-64350000D01*
X109330000Y-65680000D02*
X109330000Y-64350000D01*
X109330000Y-66950000D02*
X109330000Y-67010000D01*
X109330000Y-66950000D02*
X111990000Y-66950000D01*
X109330000Y-67010000D02*
X111990000Y-67010000D01*
X111990000Y-66950000D02*
X111990000Y-67010000D01*
%TO.C,J18*%
X164770000Y-57640000D02*
X166100000Y-57640000D01*
X164770000Y-58970000D02*
X164770000Y-57640000D01*
X164770000Y-60240000D02*
X164770000Y-60300000D01*
X164770000Y-60240000D02*
X167430000Y-60240000D01*
X164770000Y-60300000D02*
X167430000Y-60300000D01*
X167430000Y-60240000D02*
X167430000Y-60300000D01*
%TO.C,J10*%
X133090000Y-57640000D02*
X134420000Y-57640000D01*
X133090000Y-58970000D02*
X133090000Y-57640000D01*
X133090000Y-60240000D02*
X133090000Y-60300000D01*
X133090000Y-60240000D02*
X135750000Y-60240000D01*
X133090000Y-60300000D02*
X135750000Y-60300000D01*
X135750000Y-60240000D02*
X135750000Y-60300000D01*
%TO.C,J11*%
X137050000Y-57640000D02*
X138380000Y-57640000D01*
X137050000Y-58970000D02*
X137050000Y-57640000D01*
X137050000Y-60240000D02*
X137050000Y-60300000D01*
X137050000Y-60240000D02*
X139710000Y-60240000D01*
X137050000Y-60300000D02*
X139710000Y-60300000D01*
X139710000Y-60240000D02*
X139710000Y-60300000D01*
%TO.C,J22*%
X180610000Y-57640000D02*
X181940000Y-57640000D01*
X180610000Y-58970000D02*
X180610000Y-57640000D01*
X180610000Y-60240000D02*
X180610000Y-60300000D01*
X180610000Y-60240000D02*
X183270000Y-60240000D01*
X180610000Y-60300000D02*
X183270000Y-60300000D01*
X183270000Y-60240000D02*
X183270000Y-60300000D01*
%TO.C,J3*%
X105370000Y-57640000D02*
X106700000Y-57640000D01*
X105370000Y-58970000D02*
X105370000Y-57640000D01*
X105370000Y-60240000D02*
X105370000Y-60300000D01*
X105370000Y-60240000D02*
X108030000Y-60240000D01*
X105370000Y-60300000D02*
X108030000Y-60300000D01*
X108030000Y-60240000D02*
X108030000Y-60300000D01*
%TO.C,J34*%
X148930000Y-64350000D02*
X150260000Y-64350000D01*
X148930000Y-65680000D02*
X148930000Y-64350000D01*
X148930000Y-66950000D02*
X148930000Y-67010000D01*
X148930000Y-66950000D02*
X151590000Y-66950000D01*
X148930000Y-67010000D02*
X151590000Y-67010000D01*
X151590000Y-66950000D02*
X151590000Y-67010000D01*
%TO.C,J4*%
X109330000Y-57640000D02*
X110660000Y-57640000D01*
X109330000Y-58970000D02*
X109330000Y-57640000D01*
X109330000Y-60240000D02*
X109330000Y-60300000D01*
X109330000Y-60240000D02*
X111990000Y-60240000D01*
X109330000Y-60300000D02*
X111990000Y-60300000D01*
X111990000Y-60240000D02*
X111990000Y-60300000D01*
%TO.C,J25*%
X113290000Y-64350000D02*
X114620000Y-64350000D01*
X113290000Y-65680000D02*
X113290000Y-64350000D01*
X113290000Y-66950000D02*
X113290000Y-67010000D01*
X113290000Y-66950000D02*
X115950000Y-66950000D01*
X113290000Y-67010000D02*
X115950000Y-67010000D01*
X115950000Y-66950000D02*
X115950000Y-67010000D01*
%TO.C,J8*%
X125170000Y-57640000D02*
X126500000Y-57640000D01*
X125170000Y-58970000D02*
X125170000Y-57640000D01*
X125170000Y-60240000D02*
X125170000Y-60300000D01*
X125170000Y-60240000D02*
X127830000Y-60240000D01*
X125170000Y-60300000D02*
X127830000Y-60300000D01*
X127830000Y-60240000D02*
X127830000Y-60300000D01*
%TO.C,J14*%
X148930000Y-57640000D02*
X150260000Y-57640000D01*
X148930000Y-58970000D02*
X148930000Y-57640000D01*
X148930000Y-60240000D02*
X148930000Y-60300000D01*
X148930000Y-60240000D02*
X151590000Y-60240000D01*
X148930000Y-60300000D02*
X151590000Y-60300000D01*
X151590000Y-60240000D02*
X151590000Y-60300000D01*
%TO.C,J6*%
X117250000Y-57640000D02*
X118580000Y-57640000D01*
X117250000Y-58970000D02*
X117250000Y-57640000D01*
X117250000Y-60240000D02*
X117250000Y-60300000D01*
X117250000Y-60240000D02*
X119910000Y-60240000D01*
X117250000Y-60300000D02*
X119910000Y-60300000D01*
X119910000Y-60240000D02*
X119910000Y-60300000D01*
%TO.C,J16*%
X156850000Y-57640000D02*
X158180000Y-57640000D01*
X156850000Y-58970000D02*
X156850000Y-57640000D01*
X156850000Y-60240000D02*
X156850000Y-60300000D01*
X156850000Y-60240000D02*
X159510000Y-60240000D01*
X156850000Y-60300000D02*
X159510000Y-60300000D01*
X159510000Y-60240000D02*
X159510000Y-60300000D01*
%TO.C,J23*%
X105370000Y-64350000D02*
X106700000Y-64350000D01*
X105370000Y-65680000D02*
X105370000Y-64350000D01*
X105370000Y-66950000D02*
X105370000Y-67010000D01*
X105370000Y-66950000D02*
X108030000Y-66950000D01*
X105370000Y-67010000D02*
X108030000Y-67010000D01*
X108030000Y-66950000D02*
X108030000Y-67010000D01*
%TO.C,J31*%
X137050000Y-64350000D02*
X138380000Y-64350000D01*
X137050000Y-65680000D02*
X137050000Y-64350000D01*
X137050000Y-66950000D02*
X137050000Y-67010000D01*
X137050000Y-66950000D02*
X139710000Y-66950000D01*
X137050000Y-67010000D02*
X139710000Y-67010000D01*
X139710000Y-66950000D02*
X139710000Y-67010000D01*
%TO.C,J21*%
X176650000Y-57640000D02*
X177980000Y-57640000D01*
X176650000Y-58970000D02*
X176650000Y-57640000D01*
X176650000Y-60240000D02*
X176650000Y-60300000D01*
X176650000Y-60240000D02*
X179310000Y-60240000D01*
X176650000Y-60300000D02*
X179310000Y-60300000D01*
X179310000Y-60240000D02*
X179310000Y-60300000D01*
%TO.C,J17*%
X160810000Y-57640000D02*
X162140000Y-57640000D01*
X160810000Y-58970000D02*
X160810000Y-57640000D01*
X160810000Y-60240000D02*
X160810000Y-60300000D01*
X160810000Y-60240000D02*
X163470000Y-60240000D01*
X160810000Y-60300000D02*
X163470000Y-60300000D01*
X163470000Y-60240000D02*
X163470000Y-60300000D01*
%TO.C,J9*%
X129130000Y-57640000D02*
X130460000Y-57640000D01*
X129130000Y-58970000D02*
X129130000Y-57640000D01*
X129130000Y-60240000D02*
X129130000Y-60300000D01*
X129130000Y-60240000D02*
X131790000Y-60240000D01*
X129130000Y-60300000D02*
X131790000Y-60300000D01*
X131790000Y-60240000D02*
X131790000Y-60300000D01*
%TO.C,J28*%
X125170000Y-64350000D02*
X126500000Y-64350000D01*
X125170000Y-65680000D02*
X125170000Y-64350000D01*
X125170000Y-66950000D02*
X125170000Y-67010000D01*
X125170000Y-66950000D02*
X127830000Y-66950000D01*
X125170000Y-67010000D02*
X127830000Y-67010000D01*
X127830000Y-66950000D02*
X127830000Y-67010000D01*
%TO.C,J20*%
X172690000Y-57640000D02*
X174020000Y-57640000D01*
X172690000Y-58970000D02*
X172690000Y-57640000D01*
X172690000Y-60240000D02*
X172690000Y-60300000D01*
X172690000Y-60240000D02*
X175350000Y-60240000D01*
X172690000Y-60300000D02*
X175350000Y-60300000D01*
X175350000Y-60240000D02*
X175350000Y-60300000D01*
%TO.C,J36*%
X156850000Y-64350000D02*
X158180000Y-64350000D01*
X156850000Y-65680000D02*
X156850000Y-64350000D01*
X156850000Y-66950000D02*
X156850000Y-67010000D01*
X156850000Y-66950000D02*
X159510000Y-66950000D01*
X156850000Y-67010000D02*
X159510000Y-67010000D01*
X159510000Y-66950000D02*
X159510000Y-67010000D01*
%TO.C,J5*%
X113290000Y-57640000D02*
X114620000Y-57640000D01*
X113290000Y-58970000D02*
X113290000Y-57640000D01*
X113290000Y-60240000D02*
X113290000Y-60300000D01*
X113290000Y-60240000D02*
X115950000Y-60240000D01*
X113290000Y-60300000D02*
X115950000Y-60300000D01*
X115950000Y-60240000D02*
X115950000Y-60300000D01*
%TO.C,J32*%
X141010000Y-64350000D02*
X142340000Y-64350000D01*
X141010000Y-65680000D02*
X141010000Y-64350000D01*
X141010000Y-66950000D02*
X141010000Y-67010000D01*
X141010000Y-66950000D02*
X143670000Y-66950000D01*
X141010000Y-67010000D02*
X143670000Y-67010000D01*
X143670000Y-66950000D02*
X143670000Y-67010000D01*
%TO.C,J35*%
X152890000Y-64350000D02*
X154220000Y-64350000D01*
X152890000Y-65680000D02*
X152890000Y-64350000D01*
X152890000Y-66950000D02*
X152890000Y-67010000D01*
X152890000Y-66950000D02*
X155550000Y-66950000D01*
X152890000Y-67010000D02*
X155550000Y-67010000D01*
X155550000Y-66950000D02*
X155550000Y-67010000D01*
%TO.C,J43*%
X184570000Y-64350000D02*
X185900000Y-64350000D01*
X184570000Y-65680000D02*
X184570000Y-64350000D01*
X184570000Y-66950000D02*
X184570000Y-67010000D01*
X184570000Y-66950000D02*
X187230000Y-66950000D01*
X184570000Y-67010000D02*
X187230000Y-67010000D01*
X187230000Y-66950000D02*
X187230000Y-67010000D01*
%TO.C,J38*%
X164770000Y-64350000D02*
X166100000Y-64350000D01*
X164770000Y-65680000D02*
X164770000Y-64350000D01*
X164770000Y-66950000D02*
X164770000Y-67010000D01*
X164770000Y-66950000D02*
X167430000Y-66950000D01*
X164770000Y-67010000D02*
X167430000Y-67010000D01*
X167430000Y-66950000D02*
X167430000Y-67010000D01*
%TO.C,J41*%
X176650000Y-64350000D02*
X177980000Y-64350000D01*
X176650000Y-65680000D02*
X176650000Y-64350000D01*
X176650000Y-66950000D02*
X176650000Y-67010000D01*
X176650000Y-66950000D02*
X179310000Y-66950000D01*
X176650000Y-67010000D02*
X179310000Y-67010000D01*
X179310000Y-66950000D02*
X179310000Y-67010000D01*
%TO.C,J13*%
X144970000Y-57640000D02*
X146300000Y-57640000D01*
X144970000Y-58970000D02*
X144970000Y-57640000D01*
X144970000Y-60240000D02*
X144970000Y-60300000D01*
X144970000Y-60240000D02*
X147630000Y-60240000D01*
X144970000Y-60300000D02*
X147630000Y-60300000D01*
X147630000Y-60240000D02*
X147630000Y-60300000D01*
%TO.C,J40*%
X172690000Y-64350000D02*
X174020000Y-64350000D01*
X172690000Y-65680000D02*
X172690000Y-64350000D01*
X172690000Y-66950000D02*
X172690000Y-67010000D01*
X172690000Y-66950000D02*
X175350000Y-66950000D01*
X172690000Y-67010000D02*
X175350000Y-67010000D01*
X175350000Y-66950000D02*
X175350000Y-67010000D01*
%TO.C,J29*%
X129130000Y-64350000D02*
X130460000Y-64350000D01*
X129130000Y-65680000D02*
X129130000Y-64350000D01*
X129130000Y-66950000D02*
X129130000Y-67010000D01*
X129130000Y-66950000D02*
X131790000Y-66950000D01*
X129130000Y-67010000D02*
X131790000Y-67010000D01*
X131790000Y-66950000D02*
X131790000Y-67010000D01*
%TO.C,J44*%
X188530000Y-64350000D02*
X189860000Y-64350000D01*
X188530000Y-65680000D02*
X188530000Y-64350000D01*
X188530000Y-66950000D02*
X188530000Y-67010000D01*
X188530000Y-66950000D02*
X191190000Y-66950000D01*
X188530000Y-67010000D02*
X191190000Y-67010000D01*
X191190000Y-66950000D02*
X191190000Y-67010000D01*
%TO.C,J27*%
X121210000Y-64350000D02*
X122540000Y-64350000D01*
X121210000Y-65680000D02*
X121210000Y-64350000D01*
X121210000Y-66950000D02*
X121210000Y-67010000D01*
X121210000Y-66950000D02*
X123870000Y-66950000D01*
X121210000Y-67010000D02*
X123870000Y-67010000D01*
X123870000Y-66950000D02*
X123870000Y-67010000D01*
%TO.C,J30*%
X133090000Y-64350000D02*
X134420000Y-64350000D01*
X133090000Y-65680000D02*
X133090000Y-64350000D01*
X133090000Y-66950000D02*
X133090000Y-67010000D01*
X133090000Y-66950000D02*
X135750000Y-66950000D01*
X133090000Y-67010000D02*
X135750000Y-67010000D01*
X135750000Y-66950000D02*
X135750000Y-67010000D01*
%TO.C,J26*%
X117250000Y-64350000D02*
X118580000Y-64350000D01*
X117250000Y-65680000D02*
X117250000Y-64350000D01*
X117250000Y-66950000D02*
X117250000Y-67010000D01*
X117250000Y-66950000D02*
X119910000Y-66950000D01*
X117250000Y-67010000D02*
X119910000Y-67010000D01*
X119910000Y-66950000D02*
X119910000Y-67010000D01*
%TO.C,J45*%
X184570000Y-57640000D02*
X185900000Y-57640000D01*
X184570000Y-58970000D02*
X184570000Y-57640000D01*
X184570000Y-60240000D02*
X184570000Y-60300000D01*
X184570000Y-60240000D02*
X187230000Y-60240000D01*
X184570000Y-60300000D02*
X187230000Y-60300000D01*
X187230000Y-60240000D02*
X187230000Y-60300000D01*
%TO.C,J15*%
X152890000Y-57640000D02*
X154220000Y-57640000D01*
X152890000Y-58970000D02*
X152890000Y-57640000D01*
X152890000Y-60240000D02*
X152890000Y-60300000D01*
X152890000Y-60240000D02*
X155550000Y-60240000D01*
X152890000Y-60300000D02*
X155550000Y-60300000D01*
X155550000Y-60240000D02*
X155550000Y-60300000D01*
%TO.C,J19*%
X168730000Y-57640000D02*
X170060000Y-57640000D01*
X168730000Y-58970000D02*
X168730000Y-57640000D01*
X168730000Y-60240000D02*
X168730000Y-60300000D01*
X168730000Y-60240000D02*
X171390000Y-60240000D01*
X168730000Y-60300000D02*
X171390000Y-60300000D01*
X171390000Y-60240000D02*
X171390000Y-60300000D01*
%TO.C,J39*%
X168730000Y-64350000D02*
X170060000Y-64350000D01*
X168730000Y-65680000D02*
X168730000Y-64350000D01*
X168730000Y-66950000D02*
X168730000Y-67010000D01*
X168730000Y-66950000D02*
X171390000Y-66950000D01*
X168730000Y-67010000D02*
X171390000Y-67010000D01*
X171390000Y-66950000D02*
X171390000Y-67010000D01*
%TO.C,J42*%
X180610000Y-64350000D02*
X181940000Y-64350000D01*
X180610000Y-65680000D02*
X180610000Y-64350000D01*
X180610000Y-66950000D02*
X180610000Y-67010000D01*
X180610000Y-66950000D02*
X183270000Y-66950000D01*
X180610000Y-67010000D02*
X183270000Y-67010000D01*
X183270000Y-66950000D02*
X183270000Y-67010000D01*
%TO.C,J46*%
X188530000Y-57640000D02*
X189860000Y-57640000D01*
X188530000Y-58970000D02*
X188530000Y-57640000D01*
X188530000Y-60240000D02*
X188530000Y-60300000D01*
X188530000Y-60240000D02*
X191190000Y-60240000D01*
X188530000Y-60300000D02*
X191190000Y-60300000D01*
X191190000Y-60240000D02*
X191190000Y-60300000D01*
%TO.C,J33*%
X144970000Y-64350000D02*
X146300000Y-64350000D01*
X144970000Y-65680000D02*
X144970000Y-64350000D01*
X144970000Y-66950000D02*
X144970000Y-67010000D01*
X144970000Y-66950000D02*
X147630000Y-66950000D01*
X144970000Y-67010000D02*
X147630000Y-67010000D01*
X147630000Y-66950000D02*
X147630000Y-67010000D01*
%TD*%
M02*
