%TF.GenerationSoftware,KiCad,Pcbnew,8.0.2*%
%TF.CreationDate,2024-05-25T21:42:51+02:00*%
%TF.ProjectId,Extender_44pin,45787465-6e64-4657-925f-343470696e2e,rev?*%
%TF.SameCoordinates,Original*%
%TF.FileFunction,Copper,L1,Top*%
%TF.FilePolarity,Positive*%
%FSLAX46Y46*%
G04 Gerber Fmt 4.6, Leading zero omitted, Abs format (unit mm)*
G04 Created by KiCad (PCBNEW 8.0.2) date 2024-05-25 21:42:51*
%MOMM*%
%LPD*%
G01*
G04 APERTURE LIST*
%TA.AperFunction,ComponentPad*%
%ADD10R,1.700000X1.700000*%
%TD*%
%TA.AperFunction,SMDPad,CuDef*%
%ADD11R,2.600000X8.800000*%
%TD*%
%TA.AperFunction,Conductor*%
%ADD12C,1.500000*%
%TD*%
G04 APERTURE END LIST*
D10*
%TO.P,J7,1,Pin_1*%
%TO.N,/E*%
X122540000Y-58970000D03*
%TD*%
%TO.P,J12,1,Pin_1*%
%TO.N,/L*%
X142340000Y-58970000D03*
%TD*%
%TO.P,J37,1,Pin_1*%
%TO.N,/15*%
X162140000Y-65680000D03*
%TD*%
D11*
%TO.P,J1,1,Pin_1*%
%TO.N,/1*%
X106700000Y-46140000D03*
%TO.P,J1,2,Pin_2*%
%TO.N,/2*%
X110660000Y-46140000D03*
%TO.P,J1,3,Pin_3*%
%TO.N,/3*%
X114620000Y-46140000D03*
%TO.P,J1,4,Pin_4*%
%TO.N,/4*%
X118580000Y-46140000D03*
%TO.P,J1,5,Pin_5*%
%TO.N,/5*%
X122540000Y-46140000D03*
%TO.P,J1,6,Pin_6*%
%TO.N,/6*%
X126500000Y-46140000D03*
%TO.P,J1,7,Pin_7*%
%TO.N,/7*%
X130460000Y-46140000D03*
%TO.P,J1,8,Pin_8*%
%TO.N,/8*%
X134420000Y-46140000D03*
%TO.P,J1,9,Pin_9*%
%TO.N,/9*%
X138380000Y-46140000D03*
%TO.P,J1,10,Pin_10*%
%TO.N,/10*%
X142340000Y-46140000D03*
%TO.P,J1,11,Pin_11*%
%TO.N,/11*%
X146300000Y-46140000D03*
%TO.P,J1,12,Pin_12*%
%TO.N,/12*%
X150260000Y-46140000D03*
%TO.P,J1,13,Pin_13*%
%TO.N,/13*%
X154220000Y-46140000D03*
%TO.P,J1,14,Pin_14*%
%TO.N,/14*%
X158180000Y-46140000D03*
%TO.P,J1,15,Pin_15*%
%TO.N,/15*%
X162140000Y-46140000D03*
%TO.P,J1,16,Pin_16*%
%TO.N,/16*%
X166100000Y-46140000D03*
%TO.P,J1,17,Pin_17*%
%TO.N,/17*%
X170060000Y-46140000D03*
%TO.P,J1,18,Pin_18*%
%TO.N,/18*%
X174020000Y-46140000D03*
%TO.P,J1,19,Pin_19*%
%TO.N,/19*%
X177980000Y-46140000D03*
%TO.P,J1,20,Pin_20*%
%TO.N,/20*%
X181940000Y-46140000D03*
%TO.P,J1,21,Pin_21*%
%TO.N,/21*%
X185900000Y-46140000D03*
%TO.P,J1,22,Pin_22*%
%TO.N,/22*%
X189860000Y-46140000D03*
%TD*%
D10*
%TO.P,J24,1,Pin_1*%
%TO.N,/2*%
X110660000Y-65680000D03*
%TD*%
%TO.P,J18,1,Pin_1*%
%TO.N,/T*%
X166100000Y-58970000D03*
%TD*%
D11*
%TO.P,J2,1,Pin_1*%
%TO.N,/1*%
X106690000Y-270560000D03*
%TO.P,J2,2,Pin_2*%
%TO.N,/2*%
X110650000Y-270560000D03*
%TO.P,J2,3,Pin_3*%
%TO.N,/3*%
X114610000Y-270560000D03*
%TO.P,J2,4,Pin_4*%
%TO.N,/4*%
X118570000Y-270560000D03*
%TO.P,J2,5,Pin_5*%
%TO.N,/5*%
X122530000Y-270560000D03*
%TO.P,J2,6,Pin_6*%
%TO.N,/6*%
X126490000Y-270560000D03*
%TO.P,J2,7,Pin_7*%
%TO.N,/7*%
X130450000Y-270560000D03*
%TO.P,J2,8,Pin_8*%
%TO.N,/8*%
X134410000Y-270560000D03*
%TO.P,J2,9,Pin_9*%
%TO.N,/9*%
X138370000Y-270560000D03*
%TO.P,J2,10,Pin_10*%
%TO.N,/10*%
X142330000Y-270560000D03*
%TO.P,J2,11,Pin_11*%
%TO.N,/11*%
X146290000Y-270560000D03*
%TO.P,J2,12,Pin_12*%
%TO.N,/12*%
X150250000Y-270560000D03*
%TO.P,J2,13,Pin_13*%
%TO.N,/13*%
X154210000Y-270560000D03*
%TO.P,J2,14,Pin_14*%
%TO.N,/14*%
X158170000Y-270560000D03*
%TO.P,J2,15,Pin_15*%
%TO.N,/15*%
X162130000Y-270560000D03*
%TO.P,J2,16,Pin_16*%
%TO.N,/16*%
X166090000Y-270560000D03*
%TO.P,J2,17,Pin_17*%
%TO.N,/17*%
X170050000Y-270560000D03*
%TO.P,J2,18,Pin_18*%
%TO.N,/18*%
X174010000Y-270560000D03*
%TO.P,J2,19,Pin_19*%
%TO.N,/19*%
X177970000Y-270560000D03*
%TO.P,J2,20,Pin_20*%
%TO.N,/20*%
X181930000Y-270560000D03*
%TO.P,J2,21,Pin_21*%
%TO.N,/21*%
X185890000Y-270560000D03*
%TO.P,J2,22,Pin_22*%
%TO.N,/22*%
X189850000Y-270560000D03*
%TD*%
D10*
%TO.P,J10,1,Pin_1*%
%TO.N,/J*%
X134420000Y-58970000D03*
%TD*%
%TO.P,J11,1,Pin_1*%
%TO.N,/K*%
X138380000Y-58970000D03*
%TD*%
%TO.P,J22,1,Pin_1*%
%TO.N,/X*%
X181940000Y-58970000D03*
%TD*%
%TO.P,J3,1,Pin_1*%
%TO.N,/A*%
X106700000Y-58970000D03*
%TD*%
%TO.P,J34,1,Pin_1*%
%TO.N,/12*%
X150260000Y-65680000D03*
%TD*%
%TO.P,J4,1,Pin_1*%
%TO.N,/B*%
X110660000Y-58970000D03*
%TD*%
%TO.P,J25,1,Pin_1*%
%TO.N,/3*%
X114620000Y-65680000D03*
%TD*%
%TO.P,J8,1,Pin_1*%
%TO.N,/F*%
X126500000Y-58970000D03*
%TD*%
%TO.P,J14,1,Pin_1*%
%TO.N,/N*%
X150260000Y-58970000D03*
%TD*%
%TO.P,J6,1,Pin_1*%
%TO.N,/D*%
X118580000Y-58970000D03*
%TD*%
%TO.P,J16,1,Pin_1*%
%TO.N,/R*%
X158180000Y-58970000D03*
%TD*%
%TO.P,J23,1,Pin_1*%
%TO.N,/1*%
X106700000Y-65680000D03*
%TD*%
%TO.P,J31,1,Pin_1*%
%TO.N,/9*%
X138380000Y-65680000D03*
%TD*%
%TO.P,J21,1,Pin_1*%
%TO.N,/W*%
X177980000Y-58970000D03*
%TD*%
%TO.P,J17,1,Pin_1*%
%TO.N,/S*%
X162140000Y-58970000D03*
%TD*%
%TO.P,J9,1,Pin_1*%
%TO.N,/H*%
X130460000Y-58970000D03*
%TD*%
%TO.P,J28,1,Pin_1*%
%TO.N,/6*%
X126500000Y-65680000D03*
%TD*%
%TO.P,J20,1,Pin_1*%
%TO.N,/V*%
X174020000Y-58970000D03*
%TD*%
%TO.P,J36,1,Pin_1*%
%TO.N,/14*%
X158180000Y-65680000D03*
%TD*%
%TO.P,J5,1,Pin_1*%
%TO.N,/C*%
X114620000Y-58970000D03*
%TD*%
%TO.P,J32,1,Pin_1*%
%TO.N,/10*%
X142340000Y-65680000D03*
%TD*%
%TO.P,J35,1,Pin_1*%
%TO.N,/13*%
X154220000Y-65680000D03*
%TD*%
%TO.P,J43,1,Pin_1*%
%TO.N,/21*%
X185900000Y-65680000D03*
%TD*%
%TO.P,J38,1,Pin_1*%
%TO.N,/16*%
X166100000Y-65680000D03*
%TD*%
%TO.P,J41,1,Pin_1*%
%TO.N,/19*%
X177980000Y-65680000D03*
%TD*%
%TO.P,J13,1,Pin_1*%
%TO.N,/M*%
X146300000Y-58970000D03*
%TD*%
%TO.P,J40,1,Pin_1*%
%TO.N,/18*%
X174020000Y-65680000D03*
%TD*%
%TO.P,J29,1,Pin_1*%
%TO.N,/7*%
X130460000Y-65680000D03*
%TD*%
%TO.P,J44,1,Pin_1*%
%TO.N,/22*%
X189860000Y-65680000D03*
%TD*%
%TO.P,J27,1,Pin_1*%
%TO.N,/5*%
X122540000Y-65680000D03*
%TD*%
%TO.P,J30,1,Pin_1*%
%TO.N,/8*%
X134420000Y-65680000D03*
%TD*%
%TO.P,J26,1,Pin_1*%
%TO.N,/4*%
X118580000Y-65680000D03*
%TD*%
%TO.P,J45,1,Pin_1*%
%TO.N,/Y*%
X185900000Y-58970000D03*
%TD*%
%TO.P,J15,1,Pin_1*%
%TO.N,/P*%
X154220000Y-58970000D03*
%TD*%
%TO.P,J19,1,Pin_1*%
%TO.N,/U*%
X170060000Y-58970000D03*
%TD*%
%TO.P,J39,1,Pin_1*%
%TO.N,/17*%
X170060000Y-65680000D03*
%TD*%
%TO.P,J42,1,Pin_1*%
%TO.N,/20*%
X181940000Y-65680000D03*
%TD*%
%TO.P,J46,1,Pin_1*%
%TO.N,/Z*%
X189860000Y-58970000D03*
%TD*%
%TO.P,J33,1,Pin_1*%
%TO.N,/11*%
X146300000Y-65680000D03*
%TD*%
D12*
%TO.N,/1*%
X106700000Y-65680000D02*
X106700000Y-263470000D01*
X106700000Y-263470000D02*
X106690000Y-263480000D01*
X106690000Y-263480000D02*
X106690000Y-270560000D01*
%TO.N,/4*%
X118570000Y-270560000D02*
X118570000Y-65690000D01*
X118570000Y-65690000D02*
X118580000Y-65680000D01*
%TO.N,/6*%
X126500000Y-65680000D02*
X126500000Y-270550000D01*
X126500000Y-270550000D02*
X126490000Y-270560000D01*
%TO.N,/7*%
X130450000Y-270560000D02*
X130450000Y-65690000D01*
X130450000Y-65690000D02*
X130460000Y-65680000D01*
%TO.N,/8*%
X134420000Y-65680000D02*
X134420000Y-270550000D01*
X134420000Y-270550000D02*
X134410000Y-270560000D01*
%TO.N,/12*%
X150250000Y-270560000D02*
X150250000Y-65690000D01*
X150250000Y-65690000D02*
X150260000Y-65680000D01*
%TO.N,/14*%
X158180000Y-65680000D02*
X158180000Y-270550000D01*
X158180000Y-270550000D02*
X158170000Y-270560000D01*
%TO.N,/16*%
X166090000Y-270560000D02*
X166090000Y-65690000D01*
X166090000Y-65690000D02*
X166100000Y-65680000D01*
%TO.N,/18*%
X174020000Y-65680000D02*
X174020000Y-220690000D01*
X174010000Y-220700000D02*
X174010000Y-270560000D01*
X174020000Y-220690000D02*
X174010000Y-220700000D01*
%TO.N,/20*%
X181930000Y-270560000D02*
X181930000Y-65690000D01*
X181930000Y-65690000D02*
X181940000Y-65680000D01*
%TO.N,/22*%
X189860000Y-65680000D02*
X189860000Y-66540000D01*
X189860000Y-66540000D02*
X189850000Y-66550000D01*
X189850000Y-66550000D02*
X189850000Y-270560000D01*
%TO.N,/2*%
X110650000Y-270560000D02*
X110650000Y-65690000D01*
X110650000Y-65690000D02*
X110660000Y-65680000D01*
%TO.N,/10*%
X142330000Y-270560000D02*
X142330000Y-65690000D01*
X142330000Y-65690000D02*
X142340000Y-65680000D01*
%TO.N,/1*%
X106690000Y-65690000D02*
X106700000Y-65680000D01*
%TO.N,/3*%
X114610000Y-270560000D02*
X114610000Y-65690000D01*
X114610000Y-65690000D02*
X114620000Y-65680000D01*
%TO.N,/5*%
X122530000Y-270560000D02*
X122530000Y-92400000D01*
X122530000Y-92400000D02*
X122540000Y-92390000D01*
X122540000Y-92390000D02*
X122540000Y-65680000D01*
%TO.N,/9*%
X138370000Y-270560000D02*
X138370000Y-65690000D01*
X138370000Y-65690000D02*
X138380000Y-65680000D01*
%TO.N,/11*%
X146290000Y-270560000D02*
X146290000Y-65690000D01*
X146290000Y-65690000D02*
X146300000Y-65680000D01*
%TO.N,/13*%
X154210000Y-270560000D02*
X154210000Y-65690000D01*
X154210000Y-65690000D02*
X154220000Y-65680000D01*
%TO.N,/15*%
X162130000Y-270560000D02*
X162130000Y-65690000D01*
X162130000Y-65690000D02*
X162140000Y-65680000D01*
%TO.N,/17*%
X170050000Y-270560000D02*
X170050000Y-65690000D01*
X170050000Y-65690000D02*
X170060000Y-65680000D01*
%TO.N,/19*%
X177970000Y-270560000D02*
X177970000Y-65690000D01*
X177970000Y-65690000D02*
X177980000Y-65680000D01*
%TO.N,/21*%
X185890000Y-270560000D02*
X185890000Y-65690000D01*
X185890000Y-65690000D02*
X185900000Y-65680000D01*
%TO.N,/13*%
X154220000Y-55370000D02*
X152380000Y-57210000D01*
X154220000Y-46140000D02*
X154220000Y-55370000D01*
X152380000Y-57210000D02*
X152380000Y-63840000D01*
X152380000Y-63840000D02*
X154220000Y-65680000D01*
%TO.N,/1*%
X106700000Y-46140000D02*
X106700000Y-54620000D01*
X104900000Y-56440000D02*
X104900000Y-63880000D01*
X106700000Y-54620000D02*
X106710000Y-54630000D01*
X106710000Y-54630000D02*
X104900000Y-56440000D01*
X104900000Y-63880000D02*
X106700000Y-65680000D01*
%TO.N,/22*%
X189860000Y-46140000D02*
X189860000Y-55370000D01*
X189860000Y-55370000D02*
X187820000Y-57410000D01*
X187820000Y-57410000D02*
X187820000Y-63640000D01*
X187820000Y-63640000D02*
X189860000Y-65680000D01*
%TO.N,/15*%
X160340000Y-57170000D02*
X160340000Y-63880000D01*
X162140000Y-55370000D02*
X160340000Y-57170000D01*
X162140000Y-46140000D02*
X162140000Y-55370000D01*
X160340000Y-63880000D02*
X162140000Y-65680000D01*
%TO.N,/11*%
X144500000Y-57170000D02*
X144500000Y-63880000D01*
X146300000Y-55370000D02*
X144500000Y-57170000D01*
X144500000Y-63880000D02*
X146300000Y-65680000D01*
X146300000Y-46140000D02*
X146300000Y-55370000D01*
%TO.N,/21*%
X185900000Y-55370000D02*
X184100000Y-57170000D01*
X184100000Y-63880000D02*
X185900000Y-65680000D01*
X184100000Y-57170000D02*
X184100000Y-63880000D01*
X185900000Y-46140000D02*
X185900000Y-55370000D01*
%TO.N,/14*%
X156380000Y-63880000D02*
X158180000Y-65680000D01*
X158180000Y-46140000D02*
X158180000Y-55370000D01*
X156380000Y-57170000D02*
X156380000Y-63880000D01*
X158180000Y-55370000D02*
X156380000Y-57170000D01*
%TO.N,/9*%
X136580000Y-57170000D02*
X136580000Y-63880000D01*
X136580000Y-63880000D02*
X138380000Y-65680000D01*
X138380000Y-55370000D02*
X136580000Y-57170000D01*
X138380000Y-46140000D02*
X138380000Y-55370000D01*
%TO.N,/19*%
X177980000Y-46140000D02*
X177980000Y-55370000D01*
X177980000Y-55370000D02*
X176180000Y-57170000D01*
X176180000Y-57170000D02*
X176180000Y-63880000D01*
X176180000Y-63880000D02*
X177980000Y-65680000D01*
%TO.N,/17*%
X168260000Y-63880000D02*
X170060000Y-65680000D01*
X168260000Y-57170000D02*
X168260000Y-63880000D01*
X170060000Y-55370000D02*
X168260000Y-57170000D01*
X170060000Y-46140000D02*
X170060000Y-55370000D01*
%TO.N,/7*%
X130460000Y-55370000D02*
X128660000Y-57170000D01*
X130460000Y-46140000D02*
X130460000Y-55370000D01*
X128660000Y-57170000D02*
X128660000Y-63880000D01*
X128660000Y-63880000D02*
X130460000Y-65680000D01*
%TO.N,/6*%
X124700000Y-63880000D02*
X126500000Y-65680000D01*
X126500000Y-55370000D02*
X124700000Y-57170000D01*
X124700000Y-57170000D02*
X124700000Y-63880000D01*
X126500000Y-46140000D02*
X126500000Y-55370000D01*
%TO.N,/8*%
X132620000Y-63880000D02*
X134420000Y-65680000D01*
X134420000Y-46140000D02*
X134420000Y-55370000D01*
X132620000Y-57170000D02*
X132620000Y-63880000D01*
X134420000Y-55370000D02*
X132620000Y-57170000D01*
%TO.N,/18*%
X174020000Y-55370000D02*
X172220000Y-57170000D01*
X174020000Y-46140000D02*
X174020000Y-55370000D01*
X172220000Y-57170000D02*
X172220000Y-63880000D01*
X172220000Y-63880000D02*
X174020000Y-65680000D01*
%TO.N,/3*%
X114620000Y-55370000D02*
X112820000Y-57170000D01*
X112820000Y-63880000D02*
X114620000Y-65680000D01*
X112820000Y-57170000D02*
X112820000Y-63880000D01*
X114620000Y-46140000D02*
X114620000Y-55370000D01*
%TO.N,/4*%
X118580000Y-55370000D02*
X116780000Y-57170000D01*
X116780000Y-63880000D02*
X118580000Y-65680000D01*
X116780000Y-57170000D02*
X116780000Y-63880000D01*
X118580000Y-46140000D02*
X118580000Y-55370000D01*
%TO.N,/10*%
X142340000Y-46140000D02*
X142340000Y-55370000D01*
X140540000Y-63880000D02*
X142340000Y-65680000D01*
X142340000Y-55370000D02*
X140540000Y-57170000D01*
X140540000Y-57170000D02*
X140540000Y-63880000D01*
%TO.N,/2*%
X110660000Y-46140000D02*
X110660000Y-55370000D01*
X110660000Y-55370000D02*
X108860000Y-57170000D01*
X108860000Y-57170000D02*
X108860000Y-63880000D01*
X108860000Y-63880000D02*
X110660000Y-65680000D01*
%TO.N,/20*%
X181940000Y-55370000D02*
X180140000Y-57170000D01*
X180140000Y-57170000D02*
X180140000Y-63880000D01*
X181940000Y-46140000D02*
X181940000Y-55370000D01*
X180140000Y-63880000D02*
X181940000Y-65680000D01*
%TO.N,/16*%
X164300000Y-57170000D02*
X164300000Y-63880000D01*
X164300000Y-63880000D02*
X166100000Y-65680000D01*
X166100000Y-55370000D02*
X164300000Y-57170000D01*
X166100000Y-46140000D02*
X166100000Y-55370000D01*
%TO.N,/5*%
X122540000Y-55370000D02*
X120740000Y-57170000D01*
X120740000Y-57170000D02*
X120740000Y-63880000D01*
X120740000Y-63880000D02*
X122540000Y-65680000D01*
X122540000Y-46140000D02*
X122540000Y-55370000D01*
%TO.N,/12*%
X150260000Y-46140000D02*
X150260000Y-55370000D01*
X148460000Y-63880000D02*
X150260000Y-65680000D01*
X148460000Y-57170000D02*
X148460000Y-63880000D01*
X150260000Y-55370000D02*
X148460000Y-57170000D01*
%TD*%
M02*
