%TF.GenerationSoftware,KiCad,Pcbnew,8.0.2*%
%TF.CreationDate,2024-05-21T21:07:39+02:00*%
%TF.ProjectId,ExtenderWide_56pin,45787465-6e64-4657-9257-6964655f3536,rev?*%
%TF.SameCoordinates,Original*%
%TF.FileFunction,Profile,NP*%
%FSLAX46Y46*%
G04 Gerber Fmt 4.6, Leading zero omitted, Abs format (unit mm)*
G04 Created by KiCad (PCBNEW 8.0.2) date 2024-05-21 21:07:39*
%MOMM*%
%LPD*%
G01*
G04 APERTURE LIST*
%TA.AperFunction,Profile*%
%ADD10C,0.050000*%
%TD*%
G04 APERTURE END LIST*
D10*
X226411000Y-268930000D02*
X223411000Y-271930000D01*
X68731000Y-271930000D02*
X68731000Y-192230000D01*
X223411000Y-271930000D02*
X68731000Y-271930000D01*
X226411000Y-199430000D02*
X226411000Y-268930000D01*
X354711000Y-196430000D02*
X351711000Y-199430000D01*
X351711000Y-19870000D02*
X68731000Y-19870000D01*
X359121000Y-179030000D02*
X354711000Y-179030000D01*
X354711000Y-22870000D02*
X354711000Y-61970000D01*
X359121000Y-61970000D02*
X354711000Y-61970000D01*
X351711000Y-199430000D02*
X226411000Y-199430000D01*
X354711000Y-42270000D02*
X354721000Y-42270000D01*
X354711000Y-179030000D02*
X354711000Y-196430000D01*
X68731000Y-19870000D02*
X68731000Y-61970000D01*
X68731000Y-178030000D02*
X68731000Y-192230000D01*
X354711000Y-22870000D02*
X351711000Y-19870000D01*
%TO.C,J58*%
X358921000Y-119220000D02*
X367921000Y-119220000D01*
X358921000Y-121280000D02*
X358921000Y-119220000D01*
X367921000Y-61970000D02*
X359121000Y-61970000D01*
X367921000Y-61970000D02*
X368421000Y-62470000D01*
X367921000Y-119220000D02*
X368421000Y-118720000D01*
X367921000Y-121280000D02*
X358921000Y-121280000D01*
X367921000Y-121280000D02*
X368421000Y-121780000D01*
X367921000Y-179030000D02*
X359121000Y-179030000D01*
X368421000Y-62470000D02*
X368421000Y-63970000D01*
X368421000Y-118720000D02*
X368421000Y-63970000D01*
X368421000Y-121780000D02*
X368421000Y-176530000D01*
X368421000Y-176530000D02*
X368421000Y-178530000D01*
X368421000Y-178530000D02*
X367921000Y-179030000D01*
%TO.C,J57*%
X68731000Y-63970000D02*
X68731000Y-61970000D01*
X68731000Y-118720000D02*
X68731000Y-63970000D01*
X68731000Y-118720000D02*
X68731000Y-121780000D01*
X68731000Y-121780000D02*
X68731000Y-176530000D01*
X68731000Y-178030000D02*
X68731000Y-176530000D01*
%TD*%
M02*
