%TF.GenerationSoftware,KiCad,Pcbnew,8.0.2*%
%TF.CreationDate,2024-05-21T21:07:39+02:00*%
%TF.ProjectId,ExtenderWide_56pin,45787465-6e64-4657-9257-6964655f3536,rev?*%
%TF.SameCoordinates,Original*%
%TF.FileFunction,Soldermask,Top*%
%TF.FilePolarity,Negative*%
%FSLAX46Y46*%
G04 Gerber Fmt 4.6, Leading zero omitted, Abs format (unit mm)*
G04 Created by KiCad (PCBNEW 8.0.2) date 2024-05-21 21:07:39*
%MOMM*%
%LPD*%
G01*
G04 APERTURE LIST*
%ADD10R,1.700000X1.700000*%
%ADD11R,8.800000X2.600000*%
%ADD12C,3.000000*%
G04 APERTURE END LIST*
D10*
%TO.C,J54*%
X85961000Y-73190000D03*
%TD*%
%TO.C,J44*%
X85961000Y-155430000D03*
%TD*%
%TO.C,J12*%
X92051000Y-131670000D03*
%TD*%
%TO.C,J7*%
X92051000Y-151470000D03*
%TD*%
%TO.C,J16*%
X92051000Y-112790000D03*
%TD*%
%TO.C,J47*%
X85961000Y-100910000D03*
%TD*%
%TO.C,J21*%
X92051000Y-92990000D03*
%TD*%
%TO.C,J4*%
X92051000Y-163350000D03*
%TD*%
%TO.C,J37*%
X85961000Y-139590000D03*
%TD*%
%TO.C,J49*%
X85961000Y-92990000D03*
%TD*%
%TO.C,J13*%
X92051000Y-127710000D03*
%TD*%
%TO.C,J28*%
X92051000Y-65270000D03*
%TD*%
%TO.C,J26*%
X92051000Y-73190000D03*
%TD*%
%TO.C,J2*%
X92051000Y-171270000D03*
%TD*%
%TO.C,J56*%
X85961000Y-65270000D03*
%TD*%
%TO.C,J32*%
X85961000Y-163350000D03*
%TD*%
%TO.C,J40*%
X85961000Y-127710000D03*
%TD*%
%TO.C,J18*%
X92051000Y-104870000D03*
%TD*%
%TO.C,J48*%
X85961000Y-96950000D03*
%TD*%
%TO.C,J1*%
X92051000Y-175230000D03*
%TD*%
%TO.C,J46*%
X85961000Y-104870000D03*
%TD*%
%TO.C,J23*%
X92051000Y-85070000D03*
%TD*%
%TO.C,J45*%
X85961000Y-108830000D03*
%TD*%
%TO.C,J11*%
X92051000Y-135630000D03*
%TD*%
%TO.C,J34*%
X85961000Y-151470000D03*
%TD*%
%TO.C,J33*%
X85961000Y-159390000D03*
%TD*%
%TO.C,J29*%
X85961000Y-175230000D03*
%TD*%
%TO.C,J19*%
X92051000Y-100910000D03*
%TD*%
%TO.C,J10*%
X92051000Y-139590000D03*
%TD*%
%TO.C,J8*%
X92051000Y-147510000D03*
%TD*%
%TO.C,J3*%
X92051000Y-167310000D03*
%TD*%
%TO.C,J24*%
X92051000Y-81110000D03*
%TD*%
%TO.C,J30*%
X85961000Y-171270000D03*
%TD*%
%TO.C,J25*%
X92051000Y-77150000D03*
%TD*%
%TO.C,J42*%
X85961000Y-116750000D03*
%TD*%
%TO.C,J17*%
X92051000Y-108830000D03*
%TD*%
%TO.C,J9*%
X92051000Y-143550000D03*
%TD*%
%TO.C,J50*%
X85961000Y-89030000D03*
%TD*%
%TO.C,J15*%
X92051000Y-116750000D03*
%TD*%
%TO.C,J53*%
X85961000Y-77150000D03*
%TD*%
%TO.C,J43*%
X85961000Y-112790000D03*
%TD*%
%TO.C,J35*%
X85961000Y-147510000D03*
%TD*%
%TO.C,J38*%
X85961000Y-135630000D03*
%TD*%
%TO.C,J55*%
X85961000Y-69230000D03*
%TD*%
%TO.C,J31*%
X85961000Y-167310000D03*
%TD*%
%TO.C,J39*%
X85961000Y-131670000D03*
%TD*%
%TO.C,J52*%
X85961000Y-81110000D03*
%TD*%
%TO.C,J51*%
X85961000Y-85070000D03*
%TD*%
%TO.C,J22*%
X92051000Y-89030000D03*
%TD*%
D11*
%TO.C,J58*%
X363521000Y-175230000D03*
X363521000Y-171270000D03*
X363521000Y-167310000D03*
X363521000Y-163350000D03*
X363521000Y-159390000D03*
X363521000Y-155430000D03*
X363521000Y-151470000D03*
X363521000Y-147510000D03*
X363521000Y-143550000D03*
X363521000Y-139590000D03*
X363521000Y-135630000D03*
X363521000Y-131670000D03*
X363521000Y-127710000D03*
X363521000Y-123750000D03*
X363521000Y-116750000D03*
X363521000Y-112790000D03*
X363521000Y-108830000D03*
X363521000Y-104870000D03*
X363521000Y-100910000D03*
X363521000Y-96950000D03*
X363521000Y-92990000D03*
X363521000Y-89030000D03*
X363521000Y-85070000D03*
X363521000Y-81110000D03*
X363521000Y-77150000D03*
X363521000Y-73190000D03*
X363521000Y-69230000D03*
X363521000Y-65270000D03*
%TD*%
D10*
%TO.C,J14*%
X92051000Y-123750000D03*
%TD*%
%TO.C,J20*%
X92051000Y-96950000D03*
%TD*%
%TO.C,J27*%
X92051000Y-69230000D03*
%TD*%
%TO.C,J6*%
X92051000Y-155430000D03*
%TD*%
%TO.C,J36*%
X85961000Y-143550000D03*
%TD*%
%TO.C,J41*%
X85961000Y-123750000D03*
%TD*%
%TO.C,J5*%
X92051000Y-159390000D03*
%TD*%
D12*
%TO.C,J57*%
X92331000Y-55850000D03*
X83331000Y-55850000D03*
X92331000Y-184650000D03*
X83331000Y-184650000D03*
D11*
X73631000Y-175230000D03*
X73631000Y-171270000D03*
X73631000Y-167310000D03*
X73631000Y-163350000D03*
X73631000Y-159390000D03*
X73631000Y-155430000D03*
X73631000Y-151470000D03*
X73631000Y-147510000D03*
X73631000Y-143550000D03*
X73631000Y-139590000D03*
X73631000Y-135630000D03*
X73631000Y-131670000D03*
X73631000Y-127710000D03*
X73631000Y-123750000D03*
X73631000Y-116750000D03*
X73631000Y-112790000D03*
X73631000Y-108830000D03*
X73631000Y-104870000D03*
X73631000Y-100910000D03*
X73631000Y-96950000D03*
X73631000Y-92990000D03*
X73631000Y-89030000D03*
X73631000Y-85070000D03*
X73631000Y-81110000D03*
X73631000Y-77150000D03*
X73631000Y-73190000D03*
X73631000Y-69230000D03*
X73631000Y-65270000D03*
%TD*%
M02*
