%TF.GenerationSoftware,KiCad,Pcbnew,8.0.2*%
%TF.CreationDate,2024-05-21T21:07:39+02:00*%
%TF.ProjectId,ExtenderWide_56pin,45787465-6e64-4657-9257-6964655f3536,rev?*%
%TF.SameCoordinates,Original*%
%TF.FileFunction,Legend,Top*%
%TF.FilePolarity,Positive*%
%FSLAX46Y46*%
G04 Gerber Fmt 4.6, Leading zero omitted, Abs format (unit mm)*
G04 Created by KiCad (PCBNEW 8.0.2) date 2024-05-21 21:07:39*
%MOMM*%
%LPD*%
G01*
G04 APERTURE LIST*
%ADD10C,0.300000*%
%ADD11C,0.150000*%
%ADD12C,0.120000*%
G04 APERTURE END LIST*
D10*
X209312653Y-182127257D02*
X209312653Y-179127257D01*
X209312653Y-179127257D02*
X210312653Y-181270114D01*
X210312653Y-181270114D02*
X211312653Y-179127257D01*
X211312653Y-179127257D02*
X211312653Y-182127257D01*
X214026939Y-182127257D02*
X214026939Y-180555828D01*
X214026939Y-180555828D02*
X213884081Y-180270114D01*
X213884081Y-180270114D02*
X213598367Y-180127257D01*
X213598367Y-180127257D02*
X213026939Y-180127257D01*
X213026939Y-180127257D02*
X212741224Y-180270114D01*
X214026939Y-181984400D02*
X213741224Y-182127257D01*
X213741224Y-182127257D02*
X213026939Y-182127257D01*
X213026939Y-182127257D02*
X212741224Y-181984400D01*
X212741224Y-181984400D02*
X212598367Y-181698685D01*
X212598367Y-181698685D02*
X212598367Y-181412971D01*
X212598367Y-181412971D02*
X212741224Y-181127257D01*
X212741224Y-181127257D02*
X213026939Y-180984400D01*
X213026939Y-180984400D02*
X213741224Y-180984400D01*
X213741224Y-180984400D02*
X214026939Y-180841542D01*
X215026939Y-180127257D02*
X216169796Y-180127257D01*
X215455510Y-179127257D02*
X215455510Y-181698685D01*
X215455510Y-181698685D02*
X215598367Y-181984400D01*
X215598367Y-181984400D02*
X215884082Y-182127257D01*
X215884082Y-182127257D02*
X216169796Y-182127257D01*
X216741225Y-180127257D02*
X217884082Y-180127257D01*
X217169796Y-179127257D02*
X217169796Y-181698685D01*
X217169796Y-181698685D02*
X217312653Y-181984400D01*
X217312653Y-181984400D02*
X217598368Y-182127257D01*
X217598368Y-182127257D02*
X217884082Y-182127257D01*
X218884082Y-182127257D02*
X218884082Y-180127257D01*
X218884082Y-179127257D02*
X218741225Y-179270114D01*
X218741225Y-179270114D02*
X218884082Y-179412971D01*
X218884082Y-179412971D02*
X219026939Y-179270114D01*
X219026939Y-179270114D02*
X218884082Y-179127257D01*
X218884082Y-179127257D02*
X218884082Y-179412971D01*
X220169796Y-181984400D02*
X220455510Y-182127257D01*
X220455510Y-182127257D02*
X221026939Y-182127257D01*
X221026939Y-182127257D02*
X221312653Y-181984400D01*
X221312653Y-181984400D02*
X221455510Y-181698685D01*
X221455510Y-181698685D02*
X221455510Y-181555828D01*
X221455510Y-181555828D02*
X221312653Y-181270114D01*
X221312653Y-181270114D02*
X221026939Y-181127257D01*
X221026939Y-181127257D02*
X220598368Y-181127257D01*
X220598368Y-181127257D02*
X220312653Y-180984400D01*
X220312653Y-180984400D02*
X220169796Y-180698685D01*
X220169796Y-180698685D02*
X220169796Y-180555828D01*
X220169796Y-180555828D02*
X220312653Y-180270114D01*
X220312653Y-180270114D02*
X220598368Y-180127257D01*
X220598368Y-180127257D02*
X221026939Y-180127257D01*
X221026939Y-180127257D02*
X221312653Y-180270114D01*
X226455510Y-182127257D02*
X225026938Y-182127257D01*
X225026938Y-182127257D02*
X225026938Y-179127257D01*
X227455509Y-182127257D02*
X227455509Y-180127257D01*
X227455509Y-179127257D02*
X227312652Y-179270114D01*
X227312652Y-179270114D02*
X227455509Y-179412971D01*
X227455509Y-179412971D02*
X227598366Y-179270114D01*
X227598366Y-179270114D02*
X227455509Y-179127257D01*
X227455509Y-179127257D02*
X227455509Y-179412971D01*
X228884080Y-180127257D02*
X228884080Y-182127257D01*
X228884080Y-180412971D02*
X229026937Y-180270114D01*
X229026937Y-180270114D02*
X229312652Y-180127257D01*
X229312652Y-180127257D02*
X229741223Y-180127257D01*
X229741223Y-180127257D02*
X230026937Y-180270114D01*
X230026937Y-180270114D02*
X230169795Y-180555828D01*
X230169795Y-180555828D02*
X230169795Y-182127257D01*
X232884081Y-182127257D02*
X232884081Y-179127257D01*
X232884081Y-181984400D02*
X232598366Y-182127257D01*
X232598366Y-182127257D02*
X232026938Y-182127257D01*
X232026938Y-182127257D02*
X231741223Y-181984400D01*
X231741223Y-181984400D02*
X231598366Y-181841542D01*
X231598366Y-181841542D02*
X231455509Y-181555828D01*
X231455509Y-181555828D02*
X231455509Y-180698685D01*
X231455509Y-180698685D02*
X231598366Y-180412971D01*
X231598366Y-180412971D02*
X231741223Y-180270114D01*
X231741223Y-180270114D02*
X232026938Y-180127257D01*
X232026938Y-180127257D02*
X232598366Y-180127257D01*
X232598366Y-180127257D02*
X232884081Y-180270114D01*
X170022653Y-59977257D02*
X170022653Y-56977257D01*
X171308368Y-59977257D02*
X171308368Y-58405828D01*
X171308368Y-58405828D02*
X171165510Y-58120114D01*
X171165510Y-58120114D02*
X170879796Y-57977257D01*
X170879796Y-57977257D02*
X170451225Y-57977257D01*
X170451225Y-57977257D02*
X170165510Y-58120114D01*
X170165510Y-58120114D02*
X170022653Y-58262971D01*
X172308368Y-57977257D02*
X173451225Y-57977257D01*
X172736939Y-56977257D02*
X172736939Y-59548685D01*
X172736939Y-59548685D02*
X172879796Y-59834400D01*
X172879796Y-59834400D02*
X173165511Y-59977257D01*
X173165511Y-59977257D02*
X173451225Y-59977257D01*
X174022654Y-57977257D02*
X175165511Y-57977257D01*
X174451225Y-56977257D02*
X174451225Y-59548685D01*
X174451225Y-59548685D02*
X174594082Y-59834400D01*
X174594082Y-59834400D02*
X174879797Y-59977257D01*
X174879797Y-59977257D02*
X175165511Y-59977257D01*
X176165511Y-57977257D02*
X176165511Y-60977257D01*
X176165511Y-58120114D02*
X176451226Y-57977257D01*
X176451226Y-57977257D02*
X177022654Y-57977257D01*
X177022654Y-57977257D02*
X177308368Y-58120114D01*
X177308368Y-58120114D02*
X177451226Y-58262971D01*
X177451226Y-58262971D02*
X177594083Y-58548685D01*
X177594083Y-58548685D02*
X177594083Y-59405828D01*
X177594083Y-59405828D02*
X177451226Y-59691542D01*
X177451226Y-59691542D02*
X177308368Y-59834400D01*
X177308368Y-59834400D02*
X177022654Y-59977257D01*
X177022654Y-59977257D02*
X176451226Y-59977257D01*
X176451226Y-59977257D02*
X176165511Y-59834400D01*
X178736940Y-59834400D02*
X179022654Y-59977257D01*
X179022654Y-59977257D02*
X179594083Y-59977257D01*
X179594083Y-59977257D02*
X179879797Y-59834400D01*
X179879797Y-59834400D02*
X180022654Y-59548685D01*
X180022654Y-59548685D02*
X180022654Y-59405828D01*
X180022654Y-59405828D02*
X179879797Y-59120114D01*
X179879797Y-59120114D02*
X179594083Y-58977257D01*
X179594083Y-58977257D02*
X179165512Y-58977257D01*
X179165512Y-58977257D02*
X178879797Y-58834400D01*
X178879797Y-58834400D02*
X178736940Y-58548685D01*
X178736940Y-58548685D02*
X178736940Y-58405828D01*
X178736940Y-58405828D02*
X178879797Y-58120114D01*
X178879797Y-58120114D02*
X179165512Y-57977257D01*
X179165512Y-57977257D02*
X179594083Y-57977257D01*
X179594083Y-57977257D02*
X179879797Y-58120114D01*
X181308368Y-59691542D02*
X181451225Y-59834400D01*
X181451225Y-59834400D02*
X181308368Y-59977257D01*
X181308368Y-59977257D02*
X181165511Y-59834400D01*
X181165511Y-59834400D02*
X181308368Y-59691542D01*
X181308368Y-59691542D02*
X181308368Y-59977257D01*
X181308368Y-58120114D02*
X181451225Y-58262971D01*
X181451225Y-58262971D02*
X181308368Y-58405828D01*
X181308368Y-58405828D02*
X181165511Y-58262971D01*
X181165511Y-58262971D02*
X181308368Y-58120114D01*
X181308368Y-58120114D02*
X181308368Y-58405828D01*
X184879796Y-56834400D02*
X182308368Y-60691542D01*
X188022653Y-56834400D02*
X185451225Y-60691542D01*
X190308368Y-57977257D02*
X190308368Y-60405828D01*
X190308368Y-60405828D02*
X190165510Y-60691542D01*
X190165510Y-60691542D02*
X190022653Y-60834400D01*
X190022653Y-60834400D02*
X189736939Y-60977257D01*
X189736939Y-60977257D02*
X189308368Y-60977257D01*
X189308368Y-60977257D02*
X189022653Y-60834400D01*
X190308368Y-59834400D02*
X190022653Y-59977257D01*
X190022653Y-59977257D02*
X189451225Y-59977257D01*
X189451225Y-59977257D02*
X189165510Y-59834400D01*
X189165510Y-59834400D02*
X189022653Y-59691542D01*
X189022653Y-59691542D02*
X188879796Y-59405828D01*
X188879796Y-59405828D02*
X188879796Y-58548685D01*
X188879796Y-58548685D02*
X189022653Y-58262971D01*
X189022653Y-58262971D02*
X189165510Y-58120114D01*
X189165510Y-58120114D02*
X189451225Y-57977257D01*
X189451225Y-57977257D02*
X190022653Y-57977257D01*
X190022653Y-57977257D02*
X190308368Y-58120114D01*
X191736939Y-59977257D02*
X191736939Y-57977257D01*
X191736939Y-56977257D02*
X191594082Y-57120114D01*
X191594082Y-57120114D02*
X191736939Y-57262971D01*
X191736939Y-57262971D02*
X191879796Y-57120114D01*
X191879796Y-57120114D02*
X191736939Y-56977257D01*
X191736939Y-56977257D02*
X191736939Y-57262971D01*
X192736939Y-57977257D02*
X193879796Y-57977257D01*
X193165510Y-56977257D02*
X193165510Y-59548685D01*
X193165510Y-59548685D02*
X193308367Y-59834400D01*
X193308367Y-59834400D02*
X193594082Y-59977257D01*
X193594082Y-59977257D02*
X193879796Y-59977257D01*
X194879796Y-59977257D02*
X194879796Y-56977257D01*
X196165511Y-59977257D02*
X196165511Y-58405828D01*
X196165511Y-58405828D02*
X196022653Y-58120114D01*
X196022653Y-58120114D02*
X195736939Y-57977257D01*
X195736939Y-57977257D02*
X195308368Y-57977257D01*
X195308368Y-57977257D02*
X195022653Y-58120114D01*
X195022653Y-58120114D02*
X194879796Y-58262971D01*
X198879797Y-57977257D02*
X198879797Y-59977257D01*
X197594082Y-57977257D02*
X197594082Y-59548685D01*
X197594082Y-59548685D02*
X197736939Y-59834400D01*
X197736939Y-59834400D02*
X198022654Y-59977257D01*
X198022654Y-59977257D02*
X198451225Y-59977257D01*
X198451225Y-59977257D02*
X198736939Y-59834400D01*
X198736939Y-59834400D02*
X198879797Y-59691542D01*
X200308368Y-59977257D02*
X200308368Y-56977257D01*
X200308368Y-58120114D02*
X200594083Y-57977257D01*
X200594083Y-57977257D02*
X201165511Y-57977257D01*
X201165511Y-57977257D02*
X201451225Y-58120114D01*
X201451225Y-58120114D02*
X201594083Y-58262971D01*
X201594083Y-58262971D02*
X201736940Y-58548685D01*
X201736940Y-58548685D02*
X201736940Y-59405828D01*
X201736940Y-59405828D02*
X201594083Y-59691542D01*
X201594083Y-59691542D02*
X201451225Y-59834400D01*
X201451225Y-59834400D02*
X201165511Y-59977257D01*
X201165511Y-59977257D02*
X200594083Y-59977257D01*
X200594083Y-59977257D02*
X200308368Y-59834400D01*
X203022654Y-59691542D02*
X203165511Y-59834400D01*
X203165511Y-59834400D02*
X203022654Y-59977257D01*
X203022654Y-59977257D02*
X202879797Y-59834400D01*
X202879797Y-59834400D02*
X203022654Y-59691542D01*
X203022654Y-59691542D02*
X203022654Y-59977257D01*
X205736940Y-59834400D02*
X205451225Y-59977257D01*
X205451225Y-59977257D02*
X204879797Y-59977257D01*
X204879797Y-59977257D02*
X204594082Y-59834400D01*
X204594082Y-59834400D02*
X204451225Y-59691542D01*
X204451225Y-59691542D02*
X204308368Y-59405828D01*
X204308368Y-59405828D02*
X204308368Y-58548685D01*
X204308368Y-58548685D02*
X204451225Y-58262971D01*
X204451225Y-58262971D02*
X204594082Y-58120114D01*
X204594082Y-58120114D02*
X204879797Y-57977257D01*
X204879797Y-57977257D02*
X205451225Y-57977257D01*
X205451225Y-57977257D02*
X205736940Y-58120114D01*
X207451226Y-59977257D02*
X207165511Y-59834400D01*
X207165511Y-59834400D02*
X207022654Y-59691542D01*
X207022654Y-59691542D02*
X206879797Y-59405828D01*
X206879797Y-59405828D02*
X206879797Y-58548685D01*
X206879797Y-58548685D02*
X207022654Y-58262971D01*
X207022654Y-58262971D02*
X207165511Y-58120114D01*
X207165511Y-58120114D02*
X207451226Y-57977257D01*
X207451226Y-57977257D02*
X207879797Y-57977257D01*
X207879797Y-57977257D02*
X208165511Y-58120114D01*
X208165511Y-58120114D02*
X208308369Y-58262971D01*
X208308369Y-58262971D02*
X208451226Y-58548685D01*
X208451226Y-58548685D02*
X208451226Y-59405828D01*
X208451226Y-59405828D02*
X208308369Y-59691542D01*
X208308369Y-59691542D02*
X208165511Y-59834400D01*
X208165511Y-59834400D02*
X207879797Y-59977257D01*
X207879797Y-59977257D02*
X207451226Y-59977257D01*
X209736940Y-59977257D02*
X209736940Y-57977257D01*
X209736940Y-58262971D02*
X209879797Y-58120114D01*
X209879797Y-58120114D02*
X210165512Y-57977257D01*
X210165512Y-57977257D02*
X210594083Y-57977257D01*
X210594083Y-57977257D02*
X210879797Y-58120114D01*
X210879797Y-58120114D02*
X211022655Y-58405828D01*
X211022655Y-58405828D02*
X211022655Y-59977257D01*
X211022655Y-58405828D02*
X211165512Y-58120114D01*
X211165512Y-58120114D02*
X211451226Y-57977257D01*
X211451226Y-57977257D02*
X211879797Y-57977257D01*
X211879797Y-57977257D02*
X212165512Y-58120114D01*
X212165512Y-58120114D02*
X212308369Y-58405828D01*
X212308369Y-58405828D02*
X212308369Y-59977257D01*
X215879797Y-56834400D02*
X213308369Y-60691542D01*
X216879797Y-59977257D02*
X216879797Y-56977257D01*
X216879797Y-56977257D02*
X217879797Y-59120114D01*
X217879797Y-59120114D02*
X218879797Y-56977257D01*
X218879797Y-56977257D02*
X218879797Y-59977257D01*
X221594083Y-59977257D02*
X221594083Y-58405828D01*
X221594083Y-58405828D02*
X221451225Y-58120114D01*
X221451225Y-58120114D02*
X221165511Y-57977257D01*
X221165511Y-57977257D02*
X220594083Y-57977257D01*
X220594083Y-57977257D02*
X220308368Y-58120114D01*
X221594083Y-59834400D02*
X221308368Y-59977257D01*
X221308368Y-59977257D02*
X220594083Y-59977257D01*
X220594083Y-59977257D02*
X220308368Y-59834400D01*
X220308368Y-59834400D02*
X220165511Y-59548685D01*
X220165511Y-59548685D02*
X220165511Y-59262971D01*
X220165511Y-59262971D02*
X220308368Y-58977257D01*
X220308368Y-58977257D02*
X220594083Y-58834400D01*
X220594083Y-58834400D02*
X221308368Y-58834400D01*
X221308368Y-58834400D02*
X221594083Y-58691542D01*
X222594083Y-57977257D02*
X223736940Y-57977257D01*
X223022654Y-56977257D02*
X223022654Y-59548685D01*
X223022654Y-59548685D02*
X223165511Y-59834400D01*
X223165511Y-59834400D02*
X223451226Y-59977257D01*
X223451226Y-59977257D02*
X223736940Y-59977257D01*
X224308369Y-57977257D02*
X225451226Y-57977257D01*
X224736940Y-56977257D02*
X224736940Y-59548685D01*
X224736940Y-59548685D02*
X224879797Y-59834400D01*
X224879797Y-59834400D02*
X225165512Y-59977257D01*
X225165512Y-59977257D02*
X225451226Y-59977257D01*
X226451226Y-59977257D02*
X226451226Y-57977257D01*
X226451226Y-56977257D02*
X226308369Y-57120114D01*
X226308369Y-57120114D02*
X226451226Y-57262971D01*
X226451226Y-57262971D02*
X226594083Y-57120114D01*
X226594083Y-57120114D02*
X226451226Y-56977257D01*
X226451226Y-56977257D02*
X226451226Y-57262971D01*
X227736940Y-59834400D02*
X228022654Y-59977257D01*
X228022654Y-59977257D02*
X228594083Y-59977257D01*
X228594083Y-59977257D02*
X228879797Y-59834400D01*
X228879797Y-59834400D02*
X229022654Y-59548685D01*
X229022654Y-59548685D02*
X229022654Y-59405828D01*
X229022654Y-59405828D02*
X228879797Y-59120114D01*
X228879797Y-59120114D02*
X228594083Y-58977257D01*
X228594083Y-58977257D02*
X228165512Y-58977257D01*
X228165512Y-58977257D02*
X227879797Y-58834400D01*
X227879797Y-58834400D02*
X227736940Y-58548685D01*
X227736940Y-58548685D02*
X227736940Y-58405828D01*
X227736940Y-58405828D02*
X227879797Y-58120114D01*
X227879797Y-58120114D02*
X228165512Y-57977257D01*
X228165512Y-57977257D02*
X228594083Y-57977257D01*
X228594083Y-57977257D02*
X228879797Y-58120114D01*
X231736940Y-59977257D02*
X230308368Y-59977257D01*
X230308368Y-59977257D02*
X230308368Y-56977257D01*
X232736939Y-59977257D02*
X232736939Y-57977257D01*
X232736939Y-56977257D02*
X232594082Y-57120114D01*
X232594082Y-57120114D02*
X232736939Y-57262971D01*
X232736939Y-57262971D02*
X232879796Y-57120114D01*
X232879796Y-57120114D02*
X232736939Y-56977257D01*
X232736939Y-56977257D02*
X232736939Y-57262971D01*
X234165510Y-57977257D02*
X234165510Y-59977257D01*
X234165510Y-58262971D02*
X234308367Y-58120114D01*
X234308367Y-58120114D02*
X234594082Y-57977257D01*
X234594082Y-57977257D02*
X235022653Y-57977257D01*
X235022653Y-57977257D02*
X235308367Y-58120114D01*
X235308367Y-58120114D02*
X235451225Y-58405828D01*
X235451225Y-58405828D02*
X235451225Y-59977257D01*
X238165511Y-59977257D02*
X238165511Y-56977257D01*
X238165511Y-59834400D02*
X237879796Y-59977257D01*
X237879796Y-59977257D02*
X237308368Y-59977257D01*
X237308368Y-59977257D02*
X237022653Y-59834400D01*
X237022653Y-59834400D02*
X236879796Y-59691542D01*
X236879796Y-59691542D02*
X236736939Y-59405828D01*
X236736939Y-59405828D02*
X236736939Y-58548685D01*
X236736939Y-58548685D02*
X236879796Y-58262971D01*
X236879796Y-58262971D02*
X237022653Y-58120114D01*
X237022653Y-58120114D02*
X237308368Y-57977257D01*
X237308368Y-57977257D02*
X237879796Y-57977257D01*
X237879796Y-57977257D02*
X238165511Y-58120114D01*
X241736939Y-56834400D02*
X239165511Y-60691542D01*
X242736939Y-59977257D02*
X242736939Y-56977257D01*
X242736939Y-56977257D02*
X243451225Y-56977257D01*
X243451225Y-56977257D02*
X243879796Y-57120114D01*
X243879796Y-57120114D02*
X244165511Y-57405828D01*
X244165511Y-57405828D02*
X244308368Y-57691542D01*
X244308368Y-57691542D02*
X244451225Y-58262971D01*
X244451225Y-58262971D02*
X244451225Y-58691542D01*
X244451225Y-58691542D02*
X244308368Y-59262971D01*
X244308368Y-59262971D02*
X244165511Y-59548685D01*
X244165511Y-59548685D02*
X243879796Y-59834400D01*
X243879796Y-59834400D02*
X243451225Y-59977257D01*
X243451225Y-59977257D02*
X242736939Y-59977257D01*
X245736939Y-59977257D02*
X245736939Y-56977257D01*
X245736939Y-56977257D02*
X246879796Y-56977257D01*
X246879796Y-56977257D02*
X247165511Y-57120114D01*
X247165511Y-57120114D02*
X247308368Y-57262971D01*
X247308368Y-57262971D02*
X247451225Y-57548685D01*
X247451225Y-57548685D02*
X247451225Y-57977257D01*
X247451225Y-57977257D02*
X247308368Y-58262971D01*
X247308368Y-58262971D02*
X247165511Y-58405828D01*
X247165511Y-58405828D02*
X246879796Y-58548685D01*
X246879796Y-58548685D02*
X245736939Y-58548685D01*
X248594082Y-57262971D02*
X248736939Y-57120114D01*
X248736939Y-57120114D02*
X249022654Y-56977257D01*
X249022654Y-56977257D02*
X249736939Y-56977257D01*
X249736939Y-56977257D02*
X250022654Y-57120114D01*
X250022654Y-57120114D02*
X250165511Y-57262971D01*
X250165511Y-57262971D02*
X250308368Y-57548685D01*
X250308368Y-57548685D02*
X250308368Y-57834400D01*
X250308368Y-57834400D02*
X250165511Y-58262971D01*
X250165511Y-58262971D02*
X248451225Y-59977257D01*
X248451225Y-59977257D02*
X250308368Y-59977257D01*
X251451225Y-57262971D02*
X251594082Y-57120114D01*
X251594082Y-57120114D02*
X251879797Y-56977257D01*
X251879797Y-56977257D02*
X252594082Y-56977257D01*
X252594082Y-56977257D02*
X252879797Y-57120114D01*
X252879797Y-57120114D02*
X253022654Y-57262971D01*
X253022654Y-57262971D02*
X253165511Y-57548685D01*
X253165511Y-57548685D02*
X253165511Y-57834400D01*
X253165511Y-57834400D02*
X253022654Y-58262971D01*
X253022654Y-58262971D02*
X251308368Y-59977257D01*
X251308368Y-59977257D02*
X253165511Y-59977257D01*
X255022654Y-56977257D02*
X255308368Y-56977257D01*
X255308368Y-56977257D02*
X255594082Y-57120114D01*
X255594082Y-57120114D02*
X255736940Y-57262971D01*
X255736940Y-57262971D02*
X255879797Y-57548685D01*
X255879797Y-57548685D02*
X256022654Y-58120114D01*
X256022654Y-58120114D02*
X256022654Y-58834400D01*
X256022654Y-58834400D02*
X255879797Y-59405828D01*
X255879797Y-59405828D02*
X255736940Y-59691542D01*
X255736940Y-59691542D02*
X255594082Y-59834400D01*
X255594082Y-59834400D02*
X255308368Y-59977257D01*
X255308368Y-59977257D02*
X255022654Y-59977257D01*
X255022654Y-59977257D02*
X254736940Y-59834400D01*
X254736940Y-59834400D02*
X254594082Y-59691542D01*
X254594082Y-59691542D02*
X254451225Y-59405828D01*
X254451225Y-59405828D02*
X254308368Y-58834400D01*
X254308368Y-58834400D02*
X254308368Y-58120114D01*
X254308368Y-58120114D02*
X254451225Y-57548685D01*
X254451225Y-57548685D02*
X254594082Y-57262971D01*
X254594082Y-57262971D02*
X254736940Y-57120114D01*
X254736940Y-57120114D02*
X255022654Y-56977257D01*
X257879797Y-56977257D02*
X258165511Y-56977257D01*
X258165511Y-56977257D02*
X258451225Y-57120114D01*
X258451225Y-57120114D02*
X258594083Y-57262971D01*
X258594083Y-57262971D02*
X258736940Y-57548685D01*
X258736940Y-57548685D02*
X258879797Y-58120114D01*
X258879797Y-58120114D02*
X258879797Y-58834400D01*
X258879797Y-58834400D02*
X258736940Y-59405828D01*
X258736940Y-59405828D02*
X258594083Y-59691542D01*
X258594083Y-59691542D02*
X258451225Y-59834400D01*
X258451225Y-59834400D02*
X258165511Y-59977257D01*
X258165511Y-59977257D02*
X257879797Y-59977257D01*
X257879797Y-59977257D02*
X257594083Y-59834400D01*
X257594083Y-59834400D02*
X257451225Y-59691542D01*
X257451225Y-59691542D02*
X257308368Y-59405828D01*
X257308368Y-59405828D02*
X257165511Y-58834400D01*
X257165511Y-58834400D02*
X257165511Y-58120114D01*
X257165511Y-58120114D02*
X257308368Y-57548685D01*
X257308368Y-57548685D02*
X257451225Y-57262971D01*
X257451225Y-57262971D02*
X257594083Y-57120114D01*
X257594083Y-57120114D02*
X257879797Y-56977257D01*
X157372653Y-121397257D02*
X157372653Y-118397257D01*
X157372653Y-118397257D02*
X158086939Y-118397257D01*
X158086939Y-118397257D02*
X158515510Y-118540114D01*
X158515510Y-118540114D02*
X158801225Y-118825828D01*
X158801225Y-118825828D02*
X158944082Y-119111542D01*
X158944082Y-119111542D02*
X159086939Y-119682971D01*
X159086939Y-119682971D02*
X159086939Y-120111542D01*
X159086939Y-120111542D02*
X158944082Y-120682971D01*
X158944082Y-120682971D02*
X158801225Y-120968685D01*
X158801225Y-120968685D02*
X158515510Y-121254400D01*
X158515510Y-121254400D02*
X158086939Y-121397257D01*
X158086939Y-121397257D02*
X157372653Y-121397257D01*
X161658368Y-121397257D02*
X161658368Y-119825828D01*
X161658368Y-119825828D02*
X161515510Y-119540114D01*
X161515510Y-119540114D02*
X161229796Y-119397257D01*
X161229796Y-119397257D02*
X160658368Y-119397257D01*
X160658368Y-119397257D02*
X160372653Y-119540114D01*
X161658368Y-121254400D02*
X161372653Y-121397257D01*
X161372653Y-121397257D02*
X160658368Y-121397257D01*
X160658368Y-121397257D02*
X160372653Y-121254400D01*
X160372653Y-121254400D02*
X160229796Y-120968685D01*
X160229796Y-120968685D02*
X160229796Y-120682971D01*
X160229796Y-120682971D02*
X160372653Y-120397257D01*
X160372653Y-120397257D02*
X160658368Y-120254400D01*
X160658368Y-120254400D02*
X161372653Y-120254400D01*
X161372653Y-120254400D02*
X161658368Y-120111542D01*
X162658368Y-119397257D02*
X163801225Y-119397257D01*
X163086939Y-118397257D02*
X163086939Y-120968685D01*
X163086939Y-120968685D02*
X163229796Y-121254400D01*
X163229796Y-121254400D02*
X163515511Y-121397257D01*
X163515511Y-121397257D02*
X163801225Y-121397257D01*
X166086940Y-121397257D02*
X166086940Y-119825828D01*
X166086940Y-119825828D02*
X165944082Y-119540114D01*
X165944082Y-119540114D02*
X165658368Y-119397257D01*
X165658368Y-119397257D02*
X165086940Y-119397257D01*
X165086940Y-119397257D02*
X164801225Y-119540114D01*
X166086940Y-121254400D02*
X165801225Y-121397257D01*
X165801225Y-121397257D02*
X165086940Y-121397257D01*
X165086940Y-121397257D02*
X164801225Y-121254400D01*
X164801225Y-121254400D02*
X164658368Y-120968685D01*
X164658368Y-120968685D02*
X164658368Y-120682971D01*
X164658368Y-120682971D02*
X164801225Y-120397257D01*
X164801225Y-120397257D02*
X165086940Y-120254400D01*
X165086940Y-120254400D02*
X165801225Y-120254400D01*
X165801225Y-120254400D02*
X166086940Y-120111542D01*
X167515511Y-119397257D02*
X167515511Y-122397257D01*
X167515511Y-119540114D02*
X167801226Y-119397257D01*
X167801226Y-119397257D02*
X168372654Y-119397257D01*
X168372654Y-119397257D02*
X168658368Y-119540114D01*
X168658368Y-119540114D02*
X168801226Y-119682971D01*
X168801226Y-119682971D02*
X168944083Y-119968685D01*
X168944083Y-119968685D02*
X168944083Y-120825828D01*
X168944083Y-120825828D02*
X168801226Y-121111542D01*
X168801226Y-121111542D02*
X168658368Y-121254400D01*
X168658368Y-121254400D02*
X168372654Y-121397257D01*
X168372654Y-121397257D02*
X167801226Y-121397257D01*
X167801226Y-121397257D02*
X167515511Y-121254400D01*
X170658369Y-121397257D02*
X170372654Y-121254400D01*
X170372654Y-121254400D02*
X170229797Y-121111542D01*
X170229797Y-121111542D02*
X170086940Y-120825828D01*
X170086940Y-120825828D02*
X170086940Y-119968685D01*
X170086940Y-119968685D02*
X170229797Y-119682971D01*
X170229797Y-119682971D02*
X170372654Y-119540114D01*
X170372654Y-119540114D02*
X170658369Y-119397257D01*
X170658369Y-119397257D02*
X171086940Y-119397257D01*
X171086940Y-119397257D02*
X171372654Y-119540114D01*
X171372654Y-119540114D02*
X171515512Y-119682971D01*
X171515512Y-119682971D02*
X171658369Y-119968685D01*
X171658369Y-119968685D02*
X171658369Y-120825828D01*
X171658369Y-120825828D02*
X171515512Y-121111542D01*
X171515512Y-121111542D02*
X171372654Y-121254400D01*
X171372654Y-121254400D02*
X171086940Y-121397257D01*
X171086940Y-121397257D02*
X170658369Y-121397257D01*
X172944083Y-121397257D02*
X172944083Y-119397257D01*
X172944083Y-118397257D02*
X172801226Y-118540114D01*
X172801226Y-118540114D02*
X172944083Y-118682971D01*
X172944083Y-118682971D02*
X173086940Y-118540114D01*
X173086940Y-118540114D02*
X172944083Y-118397257D01*
X172944083Y-118397257D02*
X172944083Y-118682971D01*
X174372654Y-119397257D02*
X174372654Y-121397257D01*
X174372654Y-119682971D02*
X174515511Y-119540114D01*
X174515511Y-119540114D02*
X174801226Y-119397257D01*
X174801226Y-119397257D02*
X175229797Y-119397257D01*
X175229797Y-119397257D02*
X175515511Y-119540114D01*
X175515511Y-119540114D02*
X175658369Y-119825828D01*
X175658369Y-119825828D02*
X175658369Y-121397257D01*
X176658369Y-119397257D02*
X177801226Y-119397257D01*
X177086940Y-118397257D02*
X177086940Y-120968685D01*
X177086940Y-120968685D02*
X177229797Y-121254400D01*
X177229797Y-121254400D02*
X177515512Y-121397257D01*
X177515512Y-121397257D02*
X177801226Y-121397257D01*
X180944083Y-118682971D02*
X181086940Y-118540114D01*
X181086940Y-118540114D02*
X181372655Y-118397257D01*
X181372655Y-118397257D02*
X182086940Y-118397257D01*
X182086940Y-118397257D02*
X182372655Y-118540114D01*
X182372655Y-118540114D02*
X182515512Y-118682971D01*
X182515512Y-118682971D02*
X182658369Y-118968685D01*
X182658369Y-118968685D02*
X182658369Y-119254400D01*
X182658369Y-119254400D02*
X182515512Y-119682971D01*
X182515512Y-119682971D02*
X180801226Y-121397257D01*
X180801226Y-121397257D02*
X182658369Y-121397257D01*
X183801226Y-118682971D02*
X183944083Y-118540114D01*
X183944083Y-118540114D02*
X184229798Y-118397257D01*
X184229798Y-118397257D02*
X184944083Y-118397257D01*
X184944083Y-118397257D02*
X185229798Y-118540114D01*
X185229798Y-118540114D02*
X185372655Y-118682971D01*
X185372655Y-118682971D02*
X185515512Y-118968685D01*
X185515512Y-118968685D02*
X185515512Y-119254400D01*
X185515512Y-119254400D02*
X185372655Y-119682971D01*
X185372655Y-119682971D02*
X183658369Y-121397257D01*
X183658369Y-121397257D02*
X185515512Y-121397257D01*
X187372655Y-118397257D02*
X187658369Y-118397257D01*
X187658369Y-118397257D02*
X187944083Y-118540114D01*
X187944083Y-118540114D02*
X188086941Y-118682971D01*
X188086941Y-118682971D02*
X188229798Y-118968685D01*
X188229798Y-118968685D02*
X188372655Y-119540114D01*
X188372655Y-119540114D02*
X188372655Y-120254400D01*
X188372655Y-120254400D02*
X188229798Y-120825828D01*
X188229798Y-120825828D02*
X188086941Y-121111542D01*
X188086941Y-121111542D02*
X187944083Y-121254400D01*
X187944083Y-121254400D02*
X187658369Y-121397257D01*
X187658369Y-121397257D02*
X187372655Y-121397257D01*
X187372655Y-121397257D02*
X187086941Y-121254400D01*
X187086941Y-121254400D02*
X186944083Y-121111542D01*
X186944083Y-121111542D02*
X186801226Y-120825828D01*
X186801226Y-120825828D02*
X186658369Y-120254400D01*
X186658369Y-120254400D02*
X186658369Y-119540114D01*
X186658369Y-119540114D02*
X186801226Y-118968685D01*
X186801226Y-118968685D02*
X186944083Y-118682971D01*
X186944083Y-118682971D02*
X187086941Y-118540114D01*
X187086941Y-118540114D02*
X187372655Y-118397257D01*
X190229798Y-118397257D02*
X190515512Y-118397257D01*
X190515512Y-118397257D02*
X190801226Y-118540114D01*
X190801226Y-118540114D02*
X190944084Y-118682971D01*
X190944084Y-118682971D02*
X191086941Y-118968685D01*
X191086941Y-118968685D02*
X191229798Y-119540114D01*
X191229798Y-119540114D02*
X191229798Y-120254400D01*
X191229798Y-120254400D02*
X191086941Y-120825828D01*
X191086941Y-120825828D02*
X190944084Y-121111542D01*
X190944084Y-121111542D02*
X190801226Y-121254400D01*
X190801226Y-121254400D02*
X190515512Y-121397257D01*
X190515512Y-121397257D02*
X190229798Y-121397257D01*
X190229798Y-121397257D02*
X189944084Y-121254400D01*
X189944084Y-121254400D02*
X189801226Y-121111542D01*
X189801226Y-121111542D02*
X189658369Y-120825828D01*
X189658369Y-120825828D02*
X189515512Y-120254400D01*
X189515512Y-120254400D02*
X189515512Y-119540114D01*
X189515512Y-119540114D02*
X189658369Y-118968685D01*
X189658369Y-118968685D02*
X189801226Y-118682971D01*
X189801226Y-118682971D02*
X189944084Y-118540114D01*
X189944084Y-118540114D02*
X190229798Y-118397257D01*
X196229798Y-118397257D02*
X194801226Y-118397257D01*
X194801226Y-118397257D02*
X194658369Y-119825828D01*
X194658369Y-119825828D02*
X194801226Y-119682971D01*
X194801226Y-119682971D02*
X195086941Y-119540114D01*
X195086941Y-119540114D02*
X195801226Y-119540114D01*
X195801226Y-119540114D02*
X196086941Y-119682971D01*
X196086941Y-119682971D02*
X196229798Y-119825828D01*
X196229798Y-119825828D02*
X196372655Y-120111542D01*
X196372655Y-120111542D02*
X196372655Y-120825828D01*
X196372655Y-120825828D02*
X196229798Y-121111542D01*
X196229798Y-121111542D02*
X196086941Y-121254400D01*
X196086941Y-121254400D02*
X195801226Y-121397257D01*
X195801226Y-121397257D02*
X195086941Y-121397257D01*
X195086941Y-121397257D02*
X194801226Y-121254400D01*
X194801226Y-121254400D02*
X194658369Y-121111542D01*
X198944084Y-118397257D02*
X198372655Y-118397257D01*
X198372655Y-118397257D02*
X198086941Y-118540114D01*
X198086941Y-118540114D02*
X197944084Y-118682971D01*
X197944084Y-118682971D02*
X197658369Y-119111542D01*
X197658369Y-119111542D02*
X197515512Y-119682971D01*
X197515512Y-119682971D02*
X197515512Y-120825828D01*
X197515512Y-120825828D02*
X197658369Y-121111542D01*
X197658369Y-121111542D02*
X197801226Y-121254400D01*
X197801226Y-121254400D02*
X198086941Y-121397257D01*
X198086941Y-121397257D02*
X198658369Y-121397257D01*
X198658369Y-121397257D02*
X198944084Y-121254400D01*
X198944084Y-121254400D02*
X199086941Y-121111542D01*
X199086941Y-121111542D02*
X199229798Y-120825828D01*
X199229798Y-120825828D02*
X199229798Y-120111542D01*
X199229798Y-120111542D02*
X199086941Y-119825828D01*
X199086941Y-119825828D02*
X198944084Y-119682971D01*
X198944084Y-119682971D02*
X198658369Y-119540114D01*
X198658369Y-119540114D02*
X198086941Y-119540114D01*
X198086941Y-119540114D02*
X197801226Y-119682971D01*
X197801226Y-119682971D02*
X197658369Y-119825828D01*
X197658369Y-119825828D02*
X197515512Y-120111542D01*
X202801226Y-119397257D02*
X202801226Y-122397257D01*
X202801226Y-119540114D02*
X203086941Y-119397257D01*
X203086941Y-119397257D02*
X203658369Y-119397257D01*
X203658369Y-119397257D02*
X203944083Y-119540114D01*
X203944083Y-119540114D02*
X204086941Y-119682971D01*
X204086941Y-119682971D02*
X204229798Y-119968685D01*
X204229798Y-119968685D02*
X204229798Y-120825828D01*
X204229798Y-120825828D02*
X204086941Y-121111542D01*
X204086941Y-121111542D02*
X203944083Y-121254400D01*
X203944083Y-121254400D02*
X203658369Y-121397257D01*
X203658369Y-121397257D02*
X203086941Y-121397257D01*
X203086941Y-121397257D02*
X202801226Y-121254400D01*
X205515512Y-121397257D02*
X205515512Y-119397257D01*
X205515512Y-118397257D02*
X205372655Y-118540114D01*
X205372655Y-118540114D02*
X205515512Y-118682971D01*
X205515512Y-118682971D02*
X205658369Y-118540114D01*
X205658369Y-118540114D02*
X205515512Y-118397257D01*
X205515512Y-118397257D02*
X205515512Y-118682971D01*
X206944083Y-119397257D02*
X206944083Y-121397257D01*
X206944083Y-119682971D02*
X207086940Y-119540114D01*
X207086940Y-119540114D02*
X207372655Y-119397257D01*
X207372655Y-119397257D02*
X207801226Y-119397257D01*
X207801226Y-119397257D02*
X208086940Y-119540114D01*
X208086940Y-119540114D02*
X208229798Y-119825828D01*
X208229798Y-119825828D02*
X208229798Y-121397257D01*
X213086940Y-121254400D02*
X212801226Y-121397257D01*
X212801226Y-121397257D02*
X212229798Y-121397257D01*
X212229798Y-121397257D02*
X211944083Y-121254400D01*
X211944083Y-121254400D02*
X211801226Y-120968685D01*
X211801226Y-120968685D02*
X211801226Y-119825828D01*
X211801226Y-119825828D02*
X211944083Y-119540114D01*
X211944083Y-119540114D02*
X212229798Y-119397257D01*
X212229798Y-119397257D02*
X212801226Y-119397257D01*
X212801226Y-119397257D02*
X213086940Y-119540114D01*
X213086940Y-119540114D02*
X213229798Y-119825828D01*
X213229798Y-119825828D02*
X213229798Y-120111542D01*
X213229798Y-120111542D02*
X211801226Y-120397257D01*
X214229798Y-121397257D02*
X215801227Y-119397257D01*
X214229798Y-119397257D02*
X215801227Y-121397257D01*
X216515512Y-119397257D02*
X217658369Y-119397257D01*
X216944083Y-118397257D02*
X216944083Y-120968685D01*
X216944083Y-120968685D02*
X217086940Y-121254400D01*
X217086940Y-121254400D02*
X217372655Y-121397257D01*
X217372655Y-121397257D02*
X217658369Y-121397257D01*
X219801226Y-121254400D02*
X219515512Y-121397257D01*
X219515512Y-121397257D02*
X218944084Y-121397257D01*
X218944084Y-121397257D02*
X218658369Y-121254400D01*
X218658369Y-121254400D02*
X218515512Y-120968685D01*
X218515512Y-120968685D02*
X218515512Y-119825828D01*
X218515512Y-119825828D02*
X218658369Y-119540114D01*
X218658369Y-119540114D02*
X218944084Y-119397257D01*
X218944084Y-119397257D02*
X219515512Y-119397257D01*
X219515512Y-119397257D02*
X219801226Y-119540114D01*
X219801226Y-119540114D02*
X219944084Y-119825828D01*
X219944084Y-119825828D02*
X219944084Y-120111542D01*
X219944084Y-120111542D02*
X218515512Y-120397257D01*
X221229798Y-119397257D02*
X221229798Y-121397257D01*
X221229798Y-119682971D02*
X221372655Y-119540114D01*
X221372655Y-119540114D02*
X221658370Y-119397257D01*
X221658370Y-119397257D02*
X222086941Y-119397257D01*
X222086941Y-119397257D02*
X222372655Y-119540114D01*
X222372655Y-119540114D02*
X222515513Y-119825828D01*
X222515513Y-119825828D02*
X222515513Y-121397257D01*
X225229799Y-121397257D02*
X225229799Y-118397257D01*
X225229799Y-121254400D02*
X224944084Y-121397257D01*
X224944084Y-121397257D02*
X224372656Y-121397257D01*
X224372656Y-121397257D02*
X224086941Y-121254400D01*
X224086941Y-121254400D02*
X223944084Y-121111542D01*
X223944084Y-121111542D02*
X223801227Y-120825828D01*
X223801227Y-120825828D02*
X223801227Y-119968685D01*
X223801227Y-119968685D02*
X223944084Y-119682971D01*
X223944084Y-119682971D02*
X224086941Y-119540114D01*
X224086941Y-119540114D02*
X224372656Y-119397257D01*
X224372656Y-119397257D02*
X224944084Y-119397257D01*
X224944084Y-119397257D02*
X225229799Y-119540114D01*
X227801227Y-121254400D02*
X227515513Y-121397257D01*
X227515513Y-121397257D02*
X226944085Y-121397257D01*
X226944085Y-121397257D02*
X226658370Y-121254400D01*
X226658370Y-121254400D02*
X226515513Y-120968685D01*
X226515513Y-120968685D02*
X226515513Y-119825828D01*
X226515513Y-119825828D02*
X226658370Y-119540114D01*
X226658370Y-119540114D02*
X226944085Y-119397257D01*
X226944085Y-119397257D02*
X227515513Y-119397257D01*
X227515513Y-119397257D02*
X227801227Y-119540114D01*
X227801227Y-119540114D02*
X227944085Y-119825828D01*
X227944085Y-119825828D02*
X227944085Y-120111542D01*
X227944085Y-120111542D02*
X226515513Y-120397257D01*
X229229799Y-121397257D02*
X229229799Y-119397257D01*
X229229799Y-119968685D02*
X229372656Y-119682971D01*
X229372656Y-119682971D02*
X229515514Y-119540114D01*
X229515514Y-119540114D02*
X229801228Y-119397257D01*
X229801228Y-119397257D02*
X230086942Y-119397257D01*
X231086942Y-121397257D02*
X231086942Y-118397257D01*
X231086942Y-119540114D02*
X231372657Y-119397257D01*
X231372657Y-119397257D02*
X231944085Y-119397257D01*
X231944085Y-119397257D02*
X232229799Y-119540114D01*
X232229799Y-119540114D02*
X232372657Y-119682971D01*
X232372657Y-119682971D02*
X232515514Y-119968685D01*
X232515514Y-119968685D02*
X232515514Y-120825828D01*
X232515514Y-120825828D02*
X232372657Y-121111542D01*
X232372657Y-121111542D02*
X232229799Y-121254400D01*
X232229799Y-121254400D02*
X231944085Y-121397257D01*
X231944085Y-121397257D02*
X231372657Y-121397257D01*
X231372657Y-121397257D02*
X231086942Y-121254400D01*
X234229800Y-121397257D02*
X233944085Y-121254400D01*
X233944085Y-121254400D02*
X233801228Y-121111542D01*
X233801228Y-121111542D02*
X233658371Y-120825828D01*
X233658371Y-120825828D02*
X233658371Y-119968685D01*
X233658371Y-119968685D02*
X233801228Y-119682971D01*
X233801228Y-119682971D02*
X233944085Y-119540114D01*
X233944085Y-119540114D02*
X234229800Y-119397257D01*
X234229800Y-119397257D02*
X234658371Y-119397257D01*
X234658371Y-119397257D02*
X234944085Y-119540114D01*
X234944085Y-119540114D02*
X235086943Y-119682971D01*
X235086943Y-119682971D02*
X235229800Y-119968685D01*
X235229800Y-119968685D02*
X235229800Y-120825828D01*
X235229800Y-120825828D02*
X235086943Y-121111542D01*
X235086943Y-121111542D02*
X234944085Y-121254400D01*
X234944085Y-121254400D02*
X234658371Y-121397257D01*
X234658371Y-121397257D02*
X234229800Y-121397257D01*
X237801229Y-121397257D02*
X237801229Y-119825828D01*
X237801229Y-119825828D02*
X237658371Y-119540114D01*
X237658371Y-119540114D02*
X237372657Y-119397257D01*
X237372657Y-119397257D02*
X236801229Y-119397257D01*
X236801229Y-119397257D02*
X236515514Y-119540114D01*
X237801229Y-121254400D02*
X237515514Y-121397257D01*
X237515514Y-121397257D02*
X236801229Y-121397257D01*
X236801229Y-121397257D02*
X236515514Y-121254400D01*
X236515514Y-121254400D02*
X236372657Y-120968685D01*
X236372657Y-120968685D02*
X236372657Y-120682971D01*
X236372657Y-120682971D02*
X236515514Y-120397257D01*
X236515514Y-120397257D02*
X236801229Y-120254400D01*
X236801229Y-120254400D02*
X237515514Y-120254400D01*
X237515514Y-120254400D02*
X237801229Y-120111542D01*
X239229800Y-121397257D02*
X239229800Y-119397257D01*
X239229800Y-119968685D02*
X239372657Y-119682971D01*
X239372657Y-119682971D02*
X239515515Y-119540114D01*
X239515515Y-119540114D02*
X239801229Y-119397257D01*
X239801229Y-119397257D02*
X240086943Y-119397257D01*
X242372658Y-121397257D02*
X242372658Y-118397257D01*
X242372658Y-121254400D02*
X242086943Y-121397257D01*
X242086943Y-121397257D02*
X241515515Y-121397257D01*
X241515515Y-121397257D02*
X241229800Y-121254400D01*
X241229800Y-121254400D02*
X241086943Y-121111542D01*
X241086943Y-121111542D02*
X240944086Y-120825828D01*
X240944086Y-120825828D02*
X240944086Y-119968685D01*
X240944086Y-119968685D02*
X241086943Y-119682971D01*
X241086943Y-119682971D02*
X241229800Y-119540114D01*
X241229800Y-119540114D02*
X241515515Y-119397257D01*
X241515515Y-119397257D02*
X242086943Y-119397257D01*
X242086943Y-119397257D02*
X242372658Y-119540114D01*
X245658372Y-119397257D02*
X246801229Y-119397257D01*
X246086943Y-121397257D02*
X246086943Y-118825828D01*
X246086943Y-118825828D02*
X246229800Y-118540114D01*
X246229800Y-118540114D02*
X246515515Y-118397257D01*
X246515515Y-118397257D02*
X246801229Y-118397257D01*
X248229801Y-121397257D02*
X247944086Y-121254400D01*
X247944086Y-121254400D02*
X247801229Y-121111542D01*
X247801229Y-121111542D02*
X247658372Y-120825828D01*
X247658372Y-120825828D02*
X247658372Y-119968685D01*
X247658372Y-119968685D02*
X247801229Y-119682971D01*
X247801229Y-119682971D02*
X247944086Y-119540114D01*
X247944086Y-119540114D02*
X248229801Y-119397257D01*
X248229801Y-119397257D02*
X248658372Y-119397257D01*
X248658372Y-119397257D02*
X248944086Y-119540114D01*
X248944086Y-119540114D02*
X249086944Y-119682971D01*
X249086944Y-119682971D02*
X249229801Y-119968685D01*
X249229801Y-119968685D02*
X249229801Y-120825828D01*
X249229801Y-120825828D02*
X249086944Y-121111542D01*
X249086944Y-121111542D02*
X248944086Y-121254400D01*
X248944086Y-121254400D02*
X248658372Y-121397257D01*
X248658372Y-121397257D02*
X248229801Y-121397257D01*
X250515515Y-121397257D02*
X250515515Y-119397257D01*
X250515515Y-119968685D02*
X250658372Y-119682971D01*
X250658372Y-119682971D02*
X250801230Y-119540114D01*
X250801230Y-119540114D02*
X251086944Y-119397257D01*
X251086944Y-119397257D02*
X251372658Y-119397257D01*
X254515515Y-121254400D02*
X254801229Y-121397257D01*
X254801229Y-121397257D02*
X255372658Y-121397257D01*
X255372658Y-121397257D02*
X255658372Y-121254400D01*
X255658372Y-121254400D02*
X255801229Y-120968685D01*
X255801229Y-120968685D02*
X255801229Y-120825828D01*
X255801229Y-120825828D02*
X255658372Y-120540114D01*
X255658372Y-120540114D02*
X255372658Y-120397257D01*
X255372658Y-120397257D02*
X254944087Y-120397257D01*
X254944087Y-120397257D02*
X254658372Y-120254400D01*
X254658372Y-120254400D02*
X254515515Y-119968685D01*
X254515515Y-119968685D02*
X254515515Y-119825828D01*
X254515515Y-119825828D02*
X254658372Y-119540114D01*
X254658372Y-119540114D02*
X254944087Y-119397257D01*
X254944087Y-119397257D02*
X255372658Y-119397257D01*
X255372658Y-119397257D02*
X255658372Y-119540114D01*
X257515515Y-121397257D02*
X257229800Y-121254400D01*
X257229800Y-121254400D02*
X257086943Y-120968685D01*
X257086943Y-120968685D02*
X257086943Y-118397257D01*
X259086944Y-121397257D02*
X258801229Y-121254400D01*
X258801229Y-121254400D02*
X258658372Y-121111542D01*
X258658372Y-121111542D02*
X258515515Y-120825828D01*
X258515515Y-120825828D02*
X258515515Y-119968685D01*
X258515515Y-119968685D02*
X258658372Y-119682971D01*
X258658372Y-119682971D02*
X258801229Y-119540114D01*
X258801229Y-119540114D02*
X259086944Y-119397257D01*
X259086944Y-119397257D02*
X259515515Y-119397257D01*
X259515515Y-119397257D02*
X259801229Y-119540114D01*
X259801229Y-119540114D02*
X259944087Y-119682971D01*
X259944087Y-119682971D02*
X260086944Y-119968685D01*
X260086944Y-119968685D02*
X260086944Y-120825828D01*
X260086944Y-120825828D02*
X259944087Y-121111542D01*
X259944087Y-121111542D02*
X259801229Y-121254400D01*
X259801229Y-121254400D02*
X259515515Y-121397257D01*
X259515515Y-121397257D02*
X259086944Y-121397257D01*
X260944087Y-119397257D02*
X262086944Y-119397257D01*
X261372658Y-118397257D02*
X261372658Y-120968685D01*
X261372658Y-120968685D02*
X261515515Y-121254400D01*
X261515515Y-121254400D02*
X261801230Y-121397257D01*
X261801230Y-121397257D02*
X262086944Y-121397257D01*
X262944087Y-121254400D02*
X263229801Y-121397257D01*
X263229801Y-121397257D02*
X263801230Y-121397257D01*
X263801230Y-121397257D02*
X264086944Y-121254400D01*
X264086944Y-121254400D02*
X264229801Y-120968685D01*
X264229801Y-120968685D02*
X264229801Y-120825828D01*
X264229801Y-120825828D02*
X264086944Y-120540114D01*
X264086944Y-120540114D02*
X263801230Y-120397257D01*
X263801230Y-120397257D02*
X263372659Y-120397257D01*
X263372659Y-120397257D02*
X263086944Y-120254400D01*
X263086944Y-120254400D02*
X262944087Y-119968685D01*
X262944087Y-119968685D02*
X262944087Y-119825828D01*
X262944087Y-119825828D02*
X263086944Y-119540114D01*
X263086944Y-119540114D02*
X263372659Y-119397257D01*
X263372659Y-119397257D02*
X263801230Y-119397257D01*
X263801230Y-119397257D02*
X264086944Y-119540114D01*
X267658372Y-120540114D02*
X269086944Y-120540114D01*
X267372658Y-121397257D02*
X268372658Y-118397257D01*
X268372658Y-118397257D02*
X269372658Y-121397257D01*
X270086944Y-118397257D02*
X272086944Y-118397257D01*
X272086944Y-118397257D02*
X270801230Y-121397257D01*
X276801230Y-121397257D02*
X276801230Y-119825828D01*
X276801230Y-119825828D02*
X276658372Y-119540114D01*
X276658372Y-119540114D02*
X276372658Y-119397257D01*
X276372658Y-119397257D02*
X275801230Y-119397257D01*
X275801230Y-119397257D02*
X275515515Y-119540114D01*
X276801230Y-121254400D02*
X276515515Y-121397257D01*
X276515515Y-121397257D02*
X275801230Y-121397257D01*
X275801230Y-121397257D02*
X275515515Y-121254400D01*
X275515515Y-121254400D02*
X275372658Y-120968685D01*
X275372658Y-120968685D02*
X275372658Y-120682971D01*
X275372658Y-120682971D02*
X275515515Y-120397257D01*
X275515515Y-120397257D02*
X275801230Y-120254400D01*
X275801230Y-120254400D02*
X276515515Y-120254400D01*
X276515515Y-120254400D02*
X276801230Y-120111542D01*
X278229801Y-119397257D02*
X278229801Y-121397257D01*
X278229801Y-119682971D02*
X278372658Y-119540114D01*
X278372658Y-119540114D02*
X278658373Y-119397257D01*
X278658373Y-119397257D02*
X279086944Y-119397257D01*
X279086944Y-119397257D02*
X279372658Y-119540114D01*
X279372658Y-119540114D02*
X279515516Y-119825828D01*
X279515516Y-119825828D02*
X279515516Y-121397257D01*
X282229802Y-121397257D02*
X282229802Y-118397257D01*
X282229802Y-121254400D02*
X281944087Y-121397257D01*
X281944087Y-121397257D02*
X281372659Y-121397257D01*
X281372659Y-121397257D02*
X281086944Y-121254400D01*
X281086944Y-121254400D02*
X280944087Y-121111542D01*
X280944087Y-121111542D02*
X280801230Y-120825828D01*
X280801230Y-120825828D02*
X280801230Y-119968685D01*
X280801230Y-119968685D02*
X280944087Y-119682971D01*
X280944087Y-119682971D02*
X281086944Y-119540114D01*
X281086944Y-119540114D02*
X281372659Y-119397257D01*
X281372659Y-119397257D02*
X281944087Y-119397257D01*
X281944087Y-119397257D02*
X282229802Y-119540114D01*
X285801230Y-120540114D02*
X287229802Y-120540114D01*
X285515516Y-121397257D02*
X286515516Y-118397257D01*
X286515516Y-118397257D02*
X287515516Y-121397257D01*
X288944088Y-119682971D02*
X288658373Y-119540114D01*
X288658373Y-119540114D02*
X288515516Y-119397257D01*
X288515516Y-119397257D02*
X288372659Y-119111542D01*
X288372659Y-119111542D02*
X288372659Y-118968685D01*
X288372659Y-118968685D02*
X288515516Y-118682971D01*
X288515516Y-118682971D02*
X288658373Y-118540114D01*
X288658373Y-118540114D02*
X288944088Y-118397257D01*
X288944088Y-118397257D02*
X289515516Y-118397257D01*
X289515516Y-118397257D02*
X289801231Y-118540114D01*
X289801231Y-118540114D02*
X289944088Y-118682971D01*
X289944088Y-118682971D02*
X290086945Y-118968685D01*
X290086945Y-118968685D02*
X290086945Y-119111542D01*
X290086945Y-119111542D02*
X289944088Y-119397257D01*
X289944088Y-119397257D02*
X289801231Y-119540114D01*
X289801231Y-119540114D02*
X289515516Y-119682971D01*
X289515516Y-119682971D02*
X288944088Y-119682971D01*
X288944088Y-119682971D02*
X288658373Y-119825828D01*
X288658373Y-119825828D02*
X288515516Y-119968685D01*
X288515516Y-119968685D02*
X288372659Y-120254400D01*
X288372659Y-120254400D02*
X288372659Y-120825828D01*
X288372659Y-120825828D02*
X288515516Y-121111542D01*
X288515516Y-121111542D02*
X288658373Y-121254400D01*
X288658373Y-121254400D02*
X288944088Y-121397257D01*
X288944088Y-121397257D02*
X289515516Y-121397257D01*
X289515516Y-121397257D02*
X289801231Y-121254400D01*
X289801231Y-121254400D02*
X289944088Y-121111542D01*
X289944088Y-121111542D02*
X290086945Y-120825828D01*
X290086945Y-120825828D02*
X290086945Y-120254400D01*
X290086945Y-120254400D02*
X289944088Y-119968685D01*
X289944088Y-119968685D02*
X289801231Y-119825828D01*
X289801231Y-119825828D02*
X289515516Y-119682971D01*
X190526939Y-47267257D02*
X191098368Y-49267257D01*
X191098368Y-49267257D02*
X191669796Y-47838685D01*
X191669796Y-47838685D02*
X192241225Y-49267257D01*
X192241225Y-49267257D02*
X192812653Y-47267257D01*
X193669796Y-47267257D02*
X194241225Y-49267257D01*
X194241225Y-49267257D02*
X194812653Y-47838685D01*
X194812653Y-47838685D02*
X195384082Y-49267257D01*
X195384082Y-49267257D02*
X195955510Y-47267257D01*
X196812653Y-47267257D02*
X197384082Y-49267257D01*
X197384082Y-49267257D02*
X197955510Y-47838685D01*
X197955510Y-47838685D02*
X198526939Y-49267257D01*
X198526939Y-49267257D02*
X199098367Y-47267257D01*
X200241224Y-48981542D02*
X200384081Y-49124400D01*
X200384081Y-49124400D02*
X200241224Y-49267257D01*
X200241224Y-49267257D02*
X200098367Y-49124400D01*
X200098367Y-49124400D02*
X200241224Y-48981542D01*
X200241224Y-48981542D02*
X200241224Y-49267257D01*
X202955510Y-49267257D02*
X202955510Y-46267257D01*
X202955510Y-49124400D02*
X202669795Y-49267257D01*
X202669795Y-49267257D02*
X202098367Y-49267257D01*
X202098367Y-49267257D02*
X201812652Y-49124400D01*
X201812652Y-49124400D02*
X201669795Y-48981542D01*
X201669795Y-48981542D02*
X201526938Y-48695828D01*
X201526938Y-48695828D02*
X201526938Y-47838685D01*
X201526938Y-47838685D02*
X201669795Y-47552971D01*
X201669795Y-47552971D02*
X201812652Y-47410114D01*
X201812652Y-47410114D02*
X202098367Y-47267257D01*
X202098367Y-47267257D02*
X202669795Y-47267257D01*
X202669795Y-47267257D02*
X202955510Y-47410114D01*
X205669796Y-49267257D02*
X205669796Y-47695828D01*
X205669796Y-47695828D02*
X205526938Y-47410114D01*
X205526938Y-47410114D02*
X205241224Y-47267257D01*
X205241224Y-47267257D02*
X204669796Y-47267257D01*
X204669796Y-47267257D02*
X204384081Y-47410114D01*
X205669796Y-49124400D02*
X205384081Y-49267257D01*
X205384081Y-49267257D02*
X204669796Y-49267257D01*
X204669796Y-49267257D02*
X204384081Y-49124400D01*
X204384081Y-49124400D02*
X204241224Y-48838685D01*
X204241224Y-48838685D02*
X204241224Y-48552971D01*
X204241224Y-48552971D02*
X204384081Y-48267257D01*
X204384081Y-48267257D02*
X204669796Y-48124400D01*
X204669796Y-48124400D02*
X205384081Y-48124400D01*
X205384081Y-48124400D02*
X205669796Y-47981542D01*
X206669796Y-47267257D02*
X207812653Y-47267257D01*
X207098367Y-46267257D02*
X207098367Y-48838685D01*
X207098367Y-48838685D02*
X207241224Y-49124400D01*
X207241224Y-49124400D02*
X207526939Y-49267257D01*
X207526939Y-49267257D02*
X207812653Y-49267257D01*
X209241225Y-49267257D02*
X208955510Y-49124400D01*
X208955510Y-49124400D02*
X208812653Y-48981542D01*
X208812653Y-48981542D02*
X208669796Y-48695828D01*
X208669796Y-48695828D02*
X208669796Y-47838685D01*
X208669796Y-47838685D02*
X208812653Y-47552971D01*
X208812653Y-47552971D02*
X208955510Y-47410114D01*
X208955510Y-47410114D02*
X209241225Y-47267257D01*
X209241225Y-47267257D02*
X209669796Y-47267257D01*
X209669796Y-47267257D02*
X209955510Y-47410114D01*
X209955510Y-47410114D02*
X210098368Y-47552971D01*
X210098368Y-47552971D02*
X210241225Y-47838685D01*
X210241225Y-47838685D02*
X210241225Y-48695828D01*
X210241225Y-48695828D02*
X210098368Y-48981542D01*
X210098368Y-48981542D02*
X209955510Y-49124400D01*
X209955510Y-49124400D02*
X209669796Y-49267257D01*
X209669796Y-49267257D02*
X209241225Y-49267257D01*
X211526939Y-49267257D02*
X211526939Y-47267257D01*
X211526939Y-47838685D02*
X211669796Y-47552971D01*
X211669796Y-47552971D02*
X211812654Y-47410114D01*
X211812654Y-47410114D02*
X212098368Y-47267257D01*
X212098368Y-47267257D02*
X212384082Y-47267257D01*
X213384082Y-49267257D02*
X213384082Y-47267257D01*
X213384082Y-47552971D02*
X213526939Y-47410114D01*
X213526939Y-47410114D02*
X213812654Y-47267257D01*
X213812654Y-47267257D02*
X214241225Y-47267257D01*
X214241225Y-47267257D02*
X214526939Y-47410114D01*
X214526939Y-47410114D02*
X214669797Y-47695828D01*
X214669797Y-47695828D02*
X214669797Y-49267257D01*
X214669797Y-47695828D02*
X214812654Y-47410114D01*
X214812654Y-47410114D02*
X215098368Y-47267257D01*
X215098368Y-47267257D02*
X215526939Y-47267257D01*
X215526939Y-47267257D02*
X215812654Y-47410114D01*
X215812654Y-47410114D02*
X215955511Y-47695828D01*
X215955511Y-47695828D02*
X215955511Y-49267257D01*
X218669797Y-47267257D02*
X218669797Y-49267257D01*
X217384082Y-47267257D02*
X217384082Y-48838685D01*
X217384082Y-48838685D02*
X217526939Y-49124400D01*
X217526939Y-49124400D02*
X217812654Y-49267257D01*
X217812654Y-49267257D02*
X218241225Y-49267257D01*
X218241225Y-49267257D02*
X218526939Y-49124400D01*
X218526939Y-49124400D02*
X218669797Y-48981542D01*
X219955511Y-49124400D02*
X220241225Y-49267257D01*
X220241225Y-49267257D02*
X220812654Y-49267257D01*
X220812654Y-49267257D02*
X221098368Y-49124400D01*
X221098368Y-49124400D02*
X221241225Y-48838685D01*
X221241225Y-48838685D02*
X221241225Y-48695828D01*
X221241225Y-48695828D02*
X221098368Y-48410114D01*
X221098368Y-48410114D02*
X220812654Y-48267257D01*
X220812654Y-48267257D02*
X220384083Y-48267257D01*
X220384083Y-48267257D02*
X220098368Y-48124400D01*
X220098368Y-48124400D02*
X219955511Y-47838685D01*
X219955511Y-47838685D02*
X219955511Y-47695828D01*
X219955511Y-47695828D02*
X220098368Y-47410114D01*
X220098368Y-47410114D02*
X220384083Y-47267257D01*
X220384083Y-47267257D02*
X220812654Y-47267257D01*
X220812654Y-47267257D02*
X221098368Y-47410114D01*
X223669796Y-49124400D02*
X223384082Y-49267257D01*
X223384082Y-49267257D02*
X222812654Y-49267257D01*
X222812654Y-49267257D02*
X222526939Y-49124400D01*
X222526939Y-49124400D02*
X222384082Y-48838685D01*
X222384082Y-48838685D02*
X222384082Y-47695828D01*
X222384082Y-47695828D02*
X222526939Y-47410114D01*
X222526939Y-47410114D02*
X222812654Y-47267257D01*
X222812654Y-47267257D02*
X223384082Y-47267257D01*
X223384082Y-47267257D02*
X223669796Y-47410114D01*
X223669796Y-47410114D02*
X223812654Y-47695828D01*
X223812654Y-47695828D02*
X223812654Y-47981542D01*
X223812654Y-47981542D02*
X222384082Y-48267257D01*
X226384083Y-47267257D02*
X226384083Y-49267257D01*
X225098368Y-47267257D02*
X225098368Y-48838685D01*
X225098368Y-48838685D02*
X225241225Y-49124400D01*
X225241225Y-49124400D02*
X225526940Y-49267257D01*
X225526940Y-49267257D02*
X225955511Y-49267257D01*
X225955511Y-49267257D02*
X226241225Y-49124400D01*
X226241225Y-49124400D02*
X226384083Y-48981542D01*
X227812654Y-49267257D02*
X227812654Y-47267257D01*
X227812654Y-47552971D02*
X227955511Y-47410114D01*
X227955511Y-47410114D02*
X228241226Y-47267257D01*
X228241226Y-47267257D02*
X228669797Y-47267257D01*
X228669797Y-47267257D02*
X228955511Y-47410114D01*
X228955511Y-47410114D02*
X229098369Y-47695828D01*
X229098369Y-47695828D02*
X229098369Y-49267257D01*
X229098369Y-47695828D02*
X229241226Y-47410114D01*
X229241226Y-47410114D02*
X229526940Y-47267257D01*
X229526940Y-47267257D02*
X229955511Y-47267257D01*
X229955511Y-47267257D02*
X230241226Y-47410114D01*
X230241226Y-47410114D02*
X230384083Y-47695828D01*
X230384083Y-47695828D02*
X230384083Y-49267257D01*
X231812654Y-48981542D02*
X231955511Y-49124400D01*
X231955511Y-49124400D02*
X231812654Y-49267257D01*
X231812654Y-49267257D02*
X231669797Y-49124400D01*
X231669797Y-49124400D02*
X231812654Y-48981542D01*
X231812654Y-48981542D02*
X231812654Y-49267257D01*
X233098368Y-49124400D02*
X233384082Y-49267257D01*
X233384082Y-49267257D02*
X233955511Y-49267257D01*
X233955511Y-49267257D02*
X234241225Y-49124400D01*
X234241225Y-49124400D02*
X234384082Y-48838685D01*
X234384082Y-48838685D02*
X234384082Y-48695828D01*
X234384082Y-48695828D02*
X234241225Y-48410114D01*
X234241225Y-48410114D02*
X233955511Y-48267257D01*
X233955511Y-48267257D02*
X233526940Y-48267257D01*
X233526940Y-48267257D02*
X233241225Y-48124400D01*
X233241225Y-48124400D02*
X233098368Y-47838685D01*
X233098368Y-47838685D02*
X233098368Y-47695828D01*
X233098368Y-47695828D02*
X233241225Y-47410114D01*
X233241225Y-47410114D02*
X233526940Y-47267257D01*
X233526940Y-47267257D02*
X233955511Y-47267257D01*
X233955511Y-47267257D02*
X234241225Y-47410114D01*
X236812653Y-49124400D02*
X236526939Y-49267257D01*
X236526939Y-49267257D02*
X235955511Y-49267257D01*
X235955511Y-49267257D02*
X235669796Y-49124400D01*
X235669796Y-49124400D02*
X235526939Y-48838685D01*
X235526939Y-48838685D02*
X235526939Y-47695828D01*
X235526939Y-47695828D02*
X235669796Y-47410114D01*
X235669796Y-47410114D02*
X235955511Y-47267257D01*
X235955511Y-47267257D02*
X236526939Y-47267257D01*
X236526939Y-47267257D02*
X236812653Y-47410114D01*
X236812653Y-47410114D02*
X236955511Y-47695828D01*
X236955511Y-47695828D02*
X236955511Y-47981542D01*
X236955511Y-47981542D02*
X235526939Y-48267257D01*
X216019796Y-186252971D02*
X216162653Y-186110114D01*
X216162653Y-186110114D02*
X216448368Y-185967257D01*
X216448368Y-185967257D02*
X217162653Y-185967257D01*
X217162653Y-185967257D02*
X217448368Y-186110114D01*
X217448368Y-186110114D02*
X217591225Y-186252971D01*
X217591225Y-186252971D02*
X217734082Y-186538685D01*
X217734082Y-186538685D02*
X217734082Y-186824400D01*
X217734082Y-186824400D02*
X217591225Y-187252971D01*
X217591225Y-187252971D02*
X215876939Y-188967257D01*
X215876939Y-188967257D02*
X217734082Y-188967257D01*
X219591225Y-185967257D02*
X219876939Y-185967257D01*
X219876939Y-185967257D02*
X220162653Y-186110114D01*
X220162653Y-186110114D02*
X220305511Y-186252971D01*
X220305511Y-186252971D02*
X220448368Y-186538685D01*
X220448368Y-186538685D02*
X220591225Y-187110114D01*
X220591225Y-187110114D02*
X220591225Y-187824400D01*
X220591225Y-187824400D02*
X220448368Y-188395828D01*
X220448368Y-188395828D02*
X220305511Y-188681542D01*
X220305511Y-188681542D02*
X220162653Y-188824400D01*
X220162653Y-188824400D02*
X219876939Y-188967257D01*
X219876939Y-188967257D02*
X219591225Y-188967257D01*
X219591225Y-188967257D02*
X219305511Y-188824400D01*
X219305511Y-188824400D02*
X219162653Y-188681542D01*
X219162653Y-188681542D02*
X219019796Y-188395828D01*
X219019796Y-188395828D02*
X218876939Y-187824400D01*
X218876939Y-187824400D02*
X218876939Y-187110114D01*
X218876939Y-187110114D02*
X219019796Y-186538685D01*
X219019796Y-186538685D02*
X219162653Y-186252971D01*
X219162653Y-186252971D02*
X219305511Y-186110114D01*
X219305511Y-186110114D02*
X219591225Y-185967257D01*
X221734082Y-186252971D02*
X221876939Y-186110114D01*
X221876939Y-186110114D02*
X222162654Y-185967257D01*
X222162654Y-185967257D02*
X222876939Y-185967257D01*
X222876939Y-185967257D02*
X223162654Y-186110114D01*
X223162654Y-186110114D02*
X223305511Y-186252971D01*
X223305511Y-186252971D02*
X223448368Y-186538685D01*
X223448368Y-186538685D02*
X223448368Y-186824400D01*
X223448368Y-186824400D02*
X223305511Y-187252971D01*
X223305511Y-187252971D02*
X221591225Y-188967257D01*
X221591225Y-188967257D02*
X223448368Y-188967257D01*
X226019797Y-186967257D02*
X226019797Y-188967257D01*
X225305511Y-185824400D02*
X224591225Y-187967257D01*
X224591225Y-187967257D02*
X226448368Y-187967257D01*
D11*
X87841057Y-73951904D02*
X87793438Y-73904285D01*
X87793438Y-73904285D02*
X87745819Y-73809047D01*
X87745819Y-73809047D02*
X87745819Y-73570952D01*
X87745819Y-73570952D02*
X87793438Y-73475714D01*
X87793438Y-73475714D02*
X87841057Y-73428095D01*
X87841057Y-73428095D02*
X87936295Y-73380476D01*
X87936295Y-73380476D02*
X88031533Y-73380476D01*
X88031533Y-73380476D02*
X88174390Y-73428095D01*
X88174390Y-73428095D02*
X88745819Y-73999523D01*
X88745819Y-73999523D02*
X88745819Y-73380476D01*
X87745819Y-72523333D02*
X87745819Y-72713809D01*
X87745819Y-72713809D02*
X87793438Y-72809047D01*
X87793438Y-72809047D02*
X87841057Y-72856666D01*
X87841057Y-72856666D02*
X87983914Y-72951904D01*
X87983914Y-72951904D02*
X88174390Y-72999523D01*
X88174390Y-72999523D02*
X88555342Y-72999523D01*
X88555342Y-72999523D02*
X88650580Y-72951904D01*
X88650580Y-72951904D02*
X88698200Y-72904285D01*
X88698200Y-72904285D02*
X88745819Y-72809047D01*
X88745819Y-72809047D02*
X88745819Y-72618571D01*
X88745819Y-72618571D02*
X88698200Y-72523333D01*
X88698200Y-72523333D02*
X88650580Y-72475714D01*
X88650580Y-72475714D02*
X88555342Y-72428095D01*
X88555342Y-72428095D02*
X88317247Y-72428095D01*
X88317247Y-72428095D02*
X88222009Y-72475714D01*
X88222009Y-72475714D02*
X88174390Y-72523333D01*
X88174390Y-72523333D02*
X88126771Y-72618571D01*
X88126771Y-72618571D02*
X88126771Y-72809047D01*
X88126771Y-72809047D02*
X88174390Y-72904285D01*
X88174390Y-72904285D02*
X88222009Y-72951904D01*
X88222009Y-72951904D02*
X88317247Y-72999523D01*
X87745819Y-155239523D02*
X87745819Y-155429999D01*
X87745819Y-155429999D02*
X87793438Y-155525237D01*
X87793438Y-155525237D02*
X87841057Y-155572856D01*
X87841057Y-155572856D02*
X87983914Y-155668094D01*
X87983914Y-155668094D02*
X88174390Y-155715713D01*
X88174390Y-155715713D02*
X88555342Y-155715713D01*
X88555342Y-155715713D02*
X88650580Y-155668094D01*
X88650580Y-155668094D02*
X88698200Y-155620475D01*
X88698200Y-155620475D02*
X88745819Y-155525237D01*
X88745819Y-155525237D02*
X88745819Y-155334761D01*
X88745819Y-155334761D02*
X88698200Y-155239523D01*
X88698200Y-155239523D02*
X88650580Y-155191904D01*
X88650580Y-155191904D02*
X88555342Y-155144285D01*
X88555342Y-155144285D02*
X88317247Y-155144285D01*
X88317247Y-155144285D02*
X88222009Y-155191904D01*
X88222009Y-155191904D02*
X88174390Y-155239523D01*
X88174390Y-155239523D02*
X88126771Y-155334761D01*
X88126771Y-155334761D02*
X88126771Y-155525237D01*
X88126771Y-155525237D02*
X88174390Y-155620475D01*
X88174390Y-155620475D02*
X88222009Y-155668094D01*
X88222009Y-155668094D02*
X88317247Y-155715713D01*
X94835819Y-131955713D02*
X93835819Y-131955713D01*
X93835819Y-131955713D02*
X94835819Y-131384285D01*
X94835819Y-131384285D02*
X93835819Y-131384285D01*
X94835819Y-151755713D02*
X93835819Y-151755713D01*
X94312009Y-151755713D02*
X94312009Y-151184285D01*
X94835819Y-151184285D02*
X93835819Y-151184285D01*
X93835819Y-113075713D02*
X93835819Y-112504285D01*
X94835819Y-112789999D02*
X93835819Y-112789999D01*
X88745819Y-101100476D02*
X88745819Y-101671904D01*
X88745819Y-101386190D02*
X87745819Y-101386190D01*
X87745819Y-101386190D02*
X87888676Y-101481428D01*
X87888676Y-101481428D02*
X87983914Y-101576666D01*
X87983914Y-101576666D02*
X88031533Y-101671904D01*
X88745819Y-100624285D02*
X88745819Y-100433809D01*
X88745819Y-100433809D02*
X88698200Y-100338571D01*
X88698200Y-100338571D02*
X88650580Y-100290952D01*
X88650580Y-100290952D02*
X88507723Y-100195714D01*
X88507723Y-100195714D02*
X88317247Y-100148095D01*
X88317247Y-100148095D02*
X87936295Y-100148095D01*
X87936295Y-100148095D02*
X87841057Y-100195714D01*
X87841057Y-100195714D02*
X87793438Y-100243333D01*
X87793438Y-100243333D02*
X87745819Y-100338571D01*
X87745819Y-100338571D02*
X87745819Y-100529047D01*
X87745819Y-100529047D02*
X87793438Y-100624285D01*
X87793438Y-100624285D02*
X87841057Y-100671904D01*
X87841057Y-100671904D02*
X87936295Y-100719523D01*
X87936295Y-100719523D02*
X88174390Y-100719523D01*
X88174390Y-100719523D02*
X88269628Y-100671904D01*
X88269628Y-100671904D02*
X88317247Y-100624285D01*
X88317247Y-100624285D02*
X88364866Y-100529047D01*
X88364866Y-100529047D02*
X88364866Y-100338571D01*
X88364866Y-100338571D02*
X88317247Y-100243333D01*
X88317247Y-100243333D02*
X88269628Y-100195714D01*
X88269628Y-100195714D02*
X88174390Y-100148095D01*
X94359628Y-92989999D02*
X94835819Y-92989999D01*
X93835819Y-93323332D02*
X94359628Y-92989999D01*
X94359628Y-92989999D02*
X93835819Y-92656666D01*
X94835819Y-163611904D02*
X93835819Y-163611904D01*
X93835819Y-163611904D02*
X93835819Y-163373809D01*
X93835819Y-163373809D02*
X93883438Y-163230952D01*
X93883438Y-163230952D02*
X93978676Y-163135714D01*
X93978676Y-163135714D02*
X94073914Y-163088095D01*
X94073914Y-163088095D02*
X94264390Y-163040476D01*
X94264390Y-163040476D02*
X94407247Y-163040476D01*
X94407247Y-163040476D02*
X94597723Y-163088095D01*
X94597723Y-163088095D02*
X94692961Y-163135714D01*
X94692961Y-163135714D02*
X94788200Y-163230952D01*
X94788200Y-163230952D02*
X94835819Y-163373809D01*
X94835819Y-163373809D02*
X94835819Y-163611904D01*
X88745819Y-139780476D02*
X88745819Y-140351904D01*
X88745819Y-140066190D02*
X87745819Y-140066190D01*
X87745819Y-140066190D02*
X87888676Y-140161428D01*
X87888676Y-140161428D02*
X87983914Y-140256666D01*
X87983914Y-140256666D02*
X88031533Y-140351904D01*
X87745819Y-139161428D02*
X87745819Y-139066190D01*
X87745819Y-139066190D02*
X87793438Y-138970952D01*
X87793438Y-138970952D02*
X87841057Y-138923333D01*
X87841057Y-138923333D02*
X87936295Y-138875714D01*
X87936295Y-138875714D02*
X88126771Y-138828095D01*
X88126771Y-138828095D02*
X88364866Y-138828095D01*
X88364866Y-138828095D02*
X88555342Y-138875714D01*
X88555342Y-138875714D02*
X88650580Y-138923333D01*
X88650580Y-138923333D02*
X88698200Y-138970952D01*
X88698200Y-138970952D02*
X88745819Y-139066190D01*
X88745819Y-139066190D02*
X88745819Y-139161428D01*
X88745819Y-139161428D02*
X88698200Y-139256666D01*
X88698200Y-139256666D02*
X88650580Y-139304285D01*
X88650580Y-139304285D02*
X88555342Y-139351904D01*
X88555342Y-139351904D02*
X88364866Y-139399523D01*
X88364866Y-139399523D02*
X88126771Y-139399523D01*
X88126771Y-139399523D02*
X87936295Y-139351904D01*
X87936295Y-139351904D02*
X87841057Y-139304285D01*
X87841057Y-139304285D02*
X87793438Y-139256666D01*
X87793438Y-139256666D02*
X87745819Y-139161428D01*
X87841057Y-93751904D02*
X87793438Y-93704285D01*
X87793438Y-93704285D02*
X87745819Y-93609047D01*
X87745819Y-93609047D02*
X87745819Y-93370952D01*
X87745819Y-93370952D02*
X87793438Y-93275714D01*
X87793438Y-93275714D02*
X87841057Y-93228095D01*
X87841057Y-93228095D02*
X87936295Y-93180476D01*
X87936295Y-93180476D02*
X88031533Y-93180476D01*
X88031533Y-93180476D02*
X88174390Y-93228095D01*
X88174390Y-93228095D02*
X88745819Y-93799523D01*
X88745819Y-93799523D02*
X88745819Y-93180476D01*
X88745819Y-92228095D02*
X88745819Y-92799523D01*
X88745819Y-92513809D02*
X87745819Y-92513809D01*
X87745819Y-92513809D02*
X87888676Y-92609047D01*
X87888676Y-92609047D02*
X87983914Y-92704285D01*
X87983914Y-92704285D02*
X88031533Y-92799523D01*
X94835819Y-127971904D02*
X93835819Y-127971904D01*
X93835819Y-127971904D02*
X93835819Y-127590952D01*
X93835819Y-127590952D02*
X93883438Y-127495714D01*
X93883438Y-127495714D02*
X93931057Y-127448095D01*
X93931057Y-127448095D02*
X94026295Y-127400476D01*
X94026295Y-127400476D02*
X94169152Y-127400476D01*
X94169152Y-127400476D02*
X94264390Y-127448095D01*
X94264390Y-127448095D02*
X94312009Y-127495714D01*
X94312009Y-127495714D02*
X94359628Y-127590952D01*
X94359628Y-127590952D02*
X94359628Y-127971904D01*
X94312009Y-65127142D02*
X94312009Y-65460475D01*
X94835819Y-65460475D02*
X93835819Y-65460475D01*
X93835819Y-65460475D02*
X93835819Y-64984285D01*
X93558200Y-65598571D02*
X93558200Y-64941428D01*
X94835819Y-73451904D02*
X93835819Y-73451904D01*
X93835819Y-73451904D02*
X93835819Y-73213809D01*
X93835819Y-73213809D02*
X93883438Y-73070952D01*
X93883438Y-73070952D02*
X93978676Y-72975714D01*
X93978676Y-72975714D02*
X94073914Y-72928095D01*
X94073914Y-72928095D02*
X94264390Y-72880476D01*
X94264390Y-72880476D02*
X94407247Y-72880476D01*
X94407247Y-72880476D02*
X94597723Y-72928095D01*
X94597723Y-72928095D02*
X94692961Y-72975714D01*
X94692961Y-72975714D02*
X94788200Y-73070952D01*
X94788200Y-73070952D02*
X94835819Y-73213809D01*
X94835819Y-73213809D02*
X94835819Y-73451904D01*
X93558200Y-73590000D02*
X93558200Y-72790000D01*
X94312009Y-171198571D02*
X94359628Y-171055714D01*
X94359628Y-171055714D02*
X94407247Y-171008095D01*
X94407247Y-171008095D02*
X94502485Y-170960476D01*
X94502485Y-170960476D02*
X94645342Y-170960476D01*
X94645342Y-170960476D02*
X94740580Y-171008095D01*
X94740580Y-171008095D02*
X94788200Y-171055714D01*
X94788200Y-171055714D02*
X94835819Y-171150952D01*
X94835819Y-171150952D02*
X94835819Y-171531904D01*
X94835819Y-171531904D02*
X93835819Y-171531904D01*
X93835819Y-171531904D02*
X93835819Y-171198571D01*
X93835819Y-171198571D02*
X93883438Y-171103333D01*
X93883438Y-171103333D02*
X93931057Y-171055714D01*
X93931057Y-171055714D02*
X94026295Y-171008095D01*
X94026295Y-171008095D02*
X94121533Y-171008095D01*
X94121533Y-171008095D02*
X94216771Y-171055714D01*
X94216771Y-171055714D02*
X94264390Y-171103333D01*
X94264390Y-171103333D02*
X94312009Y-171198571D01*
X94312009Y-171198571D02*
X94312009Y-171531904D01*
X87841057Y-66031904D02*
X87793438Y-65984285D01*
X87793438Y-65984285D02*
X87745819Y-65889047D01*
X87745819Y-65889047D02*
X87745819Y-65650952D01*
X87745819Y-65650952D02*
X87793438Y-65555714D01*
X87793438Y-65555714D02*
X87841057Y-65508095D01*
X87841057Y-65508095D02*
X87936295Y-65460476D01*
X87936295Y-65460476D02*
X88031533Y-65460476D01*
X88031533Y-65460476D02*
X88174390Y-65508095D01*
X88174390Y-65508095D02*
X88745819Y-66079523D01*
X88745819Y-66079523D02*
X88745819Y-65460476D01*
X88174390Y-64889047D02*
X88126771Y-64984285D01*
X88126771Y-64984285D02*
X88079152Y-65031904D01*
X88079152Y-65031904D02*
X87983914Y-65079523D01*
X87983914Y-65079523D02*
X87936295Y-65079523D01*
X87936295Y-65079523D02*
X87841057Y-65031904D01*
X87841057Y-65031904D02*
X87793438Y-64984285D01*
X87793438Y-64984285D02*
X87745819Y-64889047D01*
X87745819Y-64889047D02*
X87745819Y-64698571D01*
X87745819Y-64698571D02*
X87793438Y-64603333D01*
X87793438Y-64603333D02*
X87841057Y-64555714D01*
X87841057Y-64555714D02*
X87936295Y-64508095D01*
X87936295Y-64508095D02*
X87983914Y-64508095D01*
X87983914Y-64508095D02*
X88079152Y-64555714D01*
X88079152Y-64555714D02*
X88126771Y-64603333D01*
X88126771Y-64603333D02*
X88174390Y-64698571D01*
X88174390Y-64698571D02*
X88174390Y-64889047D01*
X88174390Y-64889047D02*
X88222009Y-64984285D01*
X88222009Y-64984285D02*
X88269628Y-65031904D01*
X88269628Y-65031904D02*
X88364866Y-65079523D01*
X88364866Y-65079523D02*
X88555342Y-65079523D01*
X88555342Y-65079523D02*
X88650580Y-65031904D01*
X88650580Y-65031904D02*
X88698200Y-64984285D01*
X88698200Y-64984285D02*
X88745819Y-64889047D01*
X88745819Y-64889047D02*
X88745819Y-64698571D01*
X88745819Y-64698571D02*
X88698200Y-64603333D01*
X88698200Y-64603333D02*
X88650580Y-64555714D01*
X88650580Y-64555714D02*
X88555342Y-64508095D01*
X88555342Y-64508095D02*
X88364866Y-64508095D01*
X88364866Y-64508095D02*
X88269628Y-64555714D01*
X88269628Y-64555714D02*
X88222009Y-64603333D01*
X88222009Y-64603333D02*
X88174390Y-64698571D01*
X88079152Y-163159523D02*
X88745819Y-163159523D01*
X87698200Y-163397618D02*
X88412485Y-163635713D01*
X88412485Y-163635713D02*
X88412485Y-163016666D01*
X88745819Y-127900476D02*
X88745819Y-128471904D01*
X88745819Y-128186190D02*
X87745819Y-128186190D01*
X87745819Y-128186190D02*
X87888676Y-128281428D01*
X87888676Y-128281428D02*
X87983914Y-128376666D01*
X87983914Y-128376666D02*
X88031533Y-128471904D01*
X87745819Y-127567142D02*
X87745819Y-126948095D01*
X87745819Y-126948095D02*
X88126771Y-127281428D01*
X88126771Y-127281428D02*
X88126771Y-127138571D01*
X88126771Y-127138571D02*
X88174390Y-127043333D01*
X88174390Y-127043333D02*
X88222009Y-126995714D01*
X88222009Y-126995714D02*
X88317247Y-126948095D01*
X88317247Y-126948095D02*
X88555342Y-126948095D01*
X88555342Y-126948095D02*
X88650580Y-126995714D01*
X88650580Y-126995714D02*
X88698200Y-127043333D01*
X88698200Y-127043333D02*
X88745819Y-127138571D01*
X88745819Y-127138571D02*
X88745819Y-127424285D01*
X88745819Y-127424285D02*
X88698200Y-127519523D01*
X88698200Y-127519523D02*
X88650580Y-127567142D01*
X93835819Y-105203332D02*
X94835819Y-104869999D01*
X94835819Y-104869999D02*
X93835819Y-104536666D01*
X87841057Y-97711904D02*
X87793438Y-97664285D01*
X87793438Y-97664285D02*
X87745819Y-97569047D01*
X87745819Y-97569047D02*
X87745819Y-97330952D01*
X87745819Y-97330952D02*
X87793438Y-97235714D01*
X87793438Y-97235714D02*
X87841057Y-97188095D01*
X87841057Y-97188095D02*
X87936295Y-97140476D01*
X87936295Y-97140476D02*
X88031533Y-97140476D01*
X88031533Y-97140476D02*
X88174390Y-97188095D01*
X88174390Y-97188095D02*
X88745819Y-97759523D01*
X88745819Y-97759523D02*
X88745819Y-97140476D01*
X87745819Y-96521428D02*
X87745819Y-96426190D01*
X87745819Y-96426190D02*
X87793438Y-96330952D01*
X87793438Y-96330952D02*
X87841057Y-96283333D01*
X87841057Y-96283333D02*
X87936295Y-96235714D01*
X87936295Y-96235714D02*
X88126771Y-96188095D01*
X88126771Y-96188095D02*
X88364866Y-96188095D01*
X88364866Y-96188095D02*
X88555342Y-96235714D01*
X88555342Y-96235714D02*
X88650580Y-96283333D01*
X88650580Y-96283333D02*
X88698200Y-96330952D01*
X88698200Y-96330952D02*
X88745819Y-96426190D01*
X88745819Y-96426190D02*
X88745819Y-96521428D01*
X88745819Y-96521428D02*
X88698200Y-96616666D01*
X88698200Y-96616666D02*
X88650580Y-96664285D01*
X88650580Y-96664285D02*
X88555342Y-96711904D01*
X88555342Y-96711904D02*
X88364866Y-96759523D01*
X88364866Y-96759523D02*
X88126771Y-96759523D01*
X88126771Y-96759523D02*
X87936295Y-96711904D01*
X87936295Y-96711904D02*
X87841057Y-96664285D01*
X87841057Y-96664285D02*
X87793438Y-96616666D01*
X87793438Y-96616666D02*
X87745819Y-96521428D01*
X94550104Y-175468094D02*
X94550104Y-174991904D01*
X94835819Y-175563332D02*
X93835819Y-175229999D01*
X93835819Y-175229999D02*
X94835819Y-174896666D01*
X88745819Y-105060476D02*
X88745819Y-105631904D01*
X88745819Y-105346190D02*
X87745819Y-105346190D01*
X87745819Y-105346190D02*
X87888676Y-105441428D01*
X87888676Y-105441428D02*
X87983914Y-105536666D01*
X87983914Y-105536666D02*
X88031533Y-105631904D01*
X88174390Y-104489047D02*
X88126771Y-104584285D01*
X88126771Y-104584285D02*
X88079152Y-104631904D01*
X88079152Y-104631904D02*
X87983914Y-104679523D01*
X87983914Y-104679523D02*
X87936295Y-104679523D01*
X87936295Y-104679523D02*
X87841057Y-104631904D01*
X87841057Y-104631904D02*
X87793438Y-104584285D01*
X87793438Y-104584285D02*
X87745819Y-104489047D01*
X87745819Y-104489047D02*
X87745819Y-104298571D01*
X87745819Y-104298571D02*
X87793438Y-104203333D01*
X87793438Y-104203333D02*
X87841057Y-104155714D01*
X87841057Y-104155714D02*
X87936295Y-104108095D01*
X87936295Y-104108095D02*
X87983914Y-104108095D01*
X87983914Y-104108095D02*
X88079152Y-104155714D01*
X88079152Y-104155714D02*
X88126771Y-104203333D01*
X88126771Y-104203333D02*
X88174390Y-104298571D01*
X88174390Y-104298571D02*
X88174390Y-104489047D01*
X88174390Y-104489047D02*
X88222009Y-104584285D01*
X88222009Y-104584285D02*
X88269628Y-104631904D01*
X88269628Y-104631904D02*
X88364866Y-104679523D01*
X88364866Y-104679523D02*
X88555342Y-104679523D01*
X88555342Y-104679523D02*
X88650580Y-104631904D01*
X88650580Y-104631904D02*
X88698200Y-104584285D01*
X88698200Y-104584285D02*
X88745819Y-104489047D01*
X88745819Y-104489047D02*
X88745819Y-104298571D01*
X88745819Y-104298571D02*
X88698200Y-104203333D01*
X88698200Y-104203333D02*
X88650580Y-104155714D01*
X88650580Y-104155714D02*
X88555342Y-104108095D01*
X88555342Y-104108095D02*
X88364866Y-104108095D01*
X88364866Y-104108095D02*
X88269628Y-104155714D01*
X88269628Y-104155714D02*
X88222009Y-104203333D01*
X88222009Y-104203333D02*
X88174390Y-104298571D01*
X94550104Y-85308094D02*
X94550104Y-84831904D01*
X94835819Y-85403332D02*
X93835819Y-85069999D01*
X93835819Y-85069999D02*
X94835819Y-84736666D01*
X93558200Y-85398571D02*
X93558200Y-84741428D01*
X88745819Y-109020476D02*
X88745819Y-109591904D01*
X88745819Y-109306190D02*
X87745819Y-109306190D01*
X87745819Y-109306190D02*
X87888676Y-109401428D01*
X87888676Y-109401428D02*
X87983914Y-109496666D01*
X87983914Y-109496666D02*
X88031533Y-109591904D01*
X87745819Y-108687142D02*
X87745819Y-108020476D01*
X87745819Y-108020476D02*
X88745819Y-108449047D01*
X94835819Y-135963332D02*
X93835819Y-135963332D01*
X93835819Y-135963332D02*
X94550104Y-135629999D01*
X94550104Y-135629999D02*
X93835819Y-135296666D01*
X93835819Y-135296666D02*
X94835819Y-135296666D01*
X87745819Y-151803332D02*
X87745819Y-151136666D01*
X87745819Y-151136666D02*
X88745819Y-151565237D01*
X87745819Y-159151904D02*
X87745819Y-159628094D01*
X87745819Y-159628094D02*
X88222009Y-159675713D01*
X88222009Y-159675713D02*
X88174390Y-159628094D01*
X88174390Y-159628094D02*
X88126771Y-159532856D01*
X88126771Y-159532856D02*
X88126771Y-159294761D01*
X88126771Y-159294761D02*
X88174390Y-159199523D01*
X88174390Y-159199523D02*
X88222009Y-159151904D01*
X88222009Y-159151904D02*
X88317247Y-159104285D01*
X88317247Y-159104285D02*
X88555342Y-159104285D01*
X88555342Y-159104285D02*
X88650580Y-159151904D01*
X88650580Y-159151904D02*
X88698200Y-159199523D01*
X88698200Y-159199523D02*
X88745819Y-159294761D01*
X88745819Y-159294761D02*
X88745819Y-159532856D01*
X88745819Y-159532856D02*
X88698200Y-159628094D01*
X88698200Y-159628094D02*
X88650580Y-159675713D01*
X88745819Y-174944285D02*
X88745819Y-175515713D01*
X88745819Y-175229999D02*
X87745819Y-175229999D01*
X87745819Y-175229999D02*
X87888676Y-175325237D01*
X87888676Y-175325237D02*
X87983914Y-175420475D01*
X87983914Y-175420475D02*
X88031533Y-175515713D01*
X93835819Y-101338570D02*
X94835819Y-101100475D01*
X94835819Y-101100475D02*
X94121533Y-100909999D01*
X94121533Y-100909999D02*
X94835819Y-100719523D01*
X94835819Y-100719523D02*
X93835819Y-100481428D01*
X94835819Y-139280476D02*
X94835819Y-139756666D01*
X94835819Y-139756666D02*
X93835819Y-139756666D01*
X93835819Y-147367142D02*
X94550104Y-147367142D01*
X94550104Y-147367142D02*
X94692961Y-147414761D01*
X94692961Y-147414761D02*
X94788200Y-147509999D01*
X94788200Y-147509999D02*
X94835819Y-147652856D01*
X94835819Y-147652856D02*
X94835819Y-147748094D01*
X94740580Y-167000476D02*
X94788200Y-167048095D01*
X94788200Y-167048095D02*
X94835819Y-167190952D01*
X94835819Y-167190952D02*
X94835819Y-167286190D01*
X94835819Y-167286190D02*
X94788200Y-167429047D01*
X94788200Y-167429047D02*
X94692961Y-167524285D01*
X94692961Y-167524285D02*
X94597723Y-167571904D01*
X94597723Y-167571904D02*
X94407247Y-167619523D01*
X94407247Y-167619523D02*
X94264390Y-167619523D01*
X94264390Y-167619523D02*
X94073914Y-167571904D01*
X94073914Y-167571904D02*
X93978676Y-167524285D01*
X93978676Y-167524285D02*
X93883438Y-167429047D01*
X93883438Y-167429047D02*
X93835819Y-167286190D01*
X93835819Y-167286190D02*
X93835819Y-167190952D01*
X93835819Y-167190952D02*
X93883438Y-167048095D01*
X93883438Y-167048095D02*
X93931057Y-167000476D01*
X94312009Y-81038571D02*
X94359628Y-80895714D01*
X94359628Y-80895714D02*
X94407247Y-80848095D01*
X94407247Y-80848095D02*
X94502485Y-80800476D01*
X94502485Y-80800476D02*
X94645342Y-80800476D01*
X94645342Y-80800476D02*
X94740580Y-80848095D01*
X94740580Y-80848095D02*
X94788200Y-80895714D01*
X94788200Y-80895714D02*
X94835819Y-80990952D01*
X94835819Y-80990952D02*
X94835819Y-81371904D01*
X94835819Y-81371904D02*
X93835819Y-81371904D01*
X93835819Y-81371904D02*
X93835819Y-81038571D01*
X93835819Y-81038571D02*
X93883438Y-80943333D01*
X93883438Y-80943333D02*
X93931057Y-80895714D01*
X93931057Y-80895714D02*
X94026295Y-80848095D01*
X94026295Y-80848095D02*
X94121533Y-80848095D01*
X94121533Y-80848095D02*
X94216771Y-80895714D01*
X94216771Y-80895714D02*
X94264390Y-80943333D01*
X94264390Y-80943333D02*
X94312009Y-81038571D01*
X94312009Y-81038571D02*
X94312009Y-81371904D01*
X93558200Y-81510000D02*
X93558200Y-80710000D01*
X87841057Y-171555713D02*
X87793438Y-171508094D01*
X87793438Y-171508094D02*
X87745819Y-171412856D01*
X87745819Y-171412856D02*
X87745819Y-171174761D01*
X87745819Y-171174761D02*
X87793438Y-171079523D01*
X87793438Y-171079523D02*
X87841057Y-171031904D01*
X87841057Y-171031904D02*
X87936295Y-170984285D01*
X87936295Y-170984285D02*
X88031533Y-170984285D01*
X88031533Y-170984285D02*
X88174390Y-171031904D01*
X88174390Y-171031904D02*
X88745819Y-171603332D01*
X88745819Y-171603332D02*
X88745819Y-170984285D01*
X94740580Y-76840476D02*
X94788200Y-76888095D01*
X94788200Y-76888095D02*
X94835819Y-77030952D01*
X94835819Y-77030952D02*
X94835819Y-77126190D01*
X94835819Y-77126190D02*
X94788200Y-77269047D01*
X94788200Y-77269047D02*
X94692961Y-77364285D01*
X94692961Y-77364285D02*
X94597723Y-77411904D01*
X94597723Y-77411904D02*
X94407247Y-77459523D01*
X94407247Y-77459523D02*
X94264390Y-77459523D01*
X94264390Y-77459523D02*
X94073914Y-77411904D01*
X94073914Y-77411904D02*
X93978676Y-77364285D01*
X93978676Y-77364285D02*
X93883438Y-77269047D01*
X93883438Y-77269047D02*
X93835819Y-77126190D01*
X93835819Y-77126190D02*
X93835819Y-77030952D01*
X93835819Y-77030952D02*
X93883438Y-76888095D01*
X93883438Y-76888095D02*
X93931057Y-76840476D01*
X93558200Y-77550000D02*
X93558200Y-76750000D01*
X88745819Y-116940476D02*
X88745819Y-117511904D01*
X88745819Y-117226190D02*
X87745819Y-117226190D01*
X87745819Y-117226190D02*
X87888676Y-117321428D01*
X87888676Y-117321428D02*
X87983914Y-117416666D01*
X87983914Y-117416666D02*
X88031533Y-117511904D01*
X87745819Y-116035714D02*
X87745819Y-116511904D01*
X87745819Y-116511904D02*
X88222009Y-116559523D01*
X88222009Y-116559523D02*
X88174390Y-116511904D01*
X88174390Y-116511904D02*
X88126771Y-116416666D01*
X88126771Y-116416666D02*
X88126771Y-116178571D01*
X88126771Y-116178571D02*
X88174390Y-116083333D01*
X88174390Y-116083333D02*
X88222009Y-116035714D01*
X88222009Y-116035714D02*
X88317247Y-115988095D01*
X88317247Y-115988095D02*
X88555342Y-115988095D01*
X88555342Y-115988095D02*
X88650580Y-116035714D01*
X88650580Y-116035714D02*
X88698200Y-116083333D01*
X88698200Y-116083333D02*
X88745819Y-116178571D01*
X88745819Y-116178571D02*
X88745819Y-116416666D01*
X88745819Y-116416666D02*
X88698200Y-116511904D01*
X88698200Y-116511904D02*
X88650580Y-116559523D01*
X93835819Y-109115713D02*
X94645342Y-109115713D01*
X94645342Y-109115713D02*
X94740580Y-109068094D01*
X94740580Y-109068094D02*
X94788200Y-109020475D01*
X94788200Y-109020475D02*
X94835819Y-108925237D01*
X94835819Y-108925237D02*
X94835819Y-108734761D01*
X94835819Y-108734761D02*
X94788200Y-108639523D01*
X94788200Y-108639523D02*
X94740580Y-108591904D01*
X94740580Y-108591904D02*
X94645342Y-108544285D01*
X94645342Y-108544285D02*
X93835819Y-108544285D01*
X94835819Y-143811904D02*
X93835819Y-143811904D01*
X94835819Y-143240476D02*
X94264390Y-143669047D01*
X93835819Y-143240476D02*
X94407247Y-143811904D01*
X87841057Y-89791904D02*
X87793438Y-89744285D01*
X87793438Y-89744285D02*
X87745819Y-89649047D01*
X87745819Y-89649047D02*
X87745819Y-89410952D01*
X87745819Y-89410952D02*
X87793438Y-89315714D01*
X87793438Y-89315714D02*
X87841057Y-89268095D01*
X87841057Y-89268095D02*
X87936295Y-89220476D01*
X87936295Y-89220476D02*
X88031533Y-89220476D01*
X88031533Y-89220476D02*
X88174390Y-89268095D01*
X88174390Y-89268095D02*
X88745819Y-89839523D01*
X88745819Y-89839523D02*
X88745819Y-89220476D01*
X87841057Y-88839523D02*
X87793438Y-88791904D01*
X87793438Y-88791904D02*
X87745819Y-88696666D01*
X87745819Y-88696666D02*
X87745819Y-88458571D01*
X87745819Y-88458571D02*
X87793438Y-88363333D01*
X87793438Y-88363333D02*
X87841057Y-88315714D01*
X87841057Y-88315714D02*
X87936295Y-88268095D01*
X87936295Y-88268095D02*
X88031533Y-88268095D01*
X88031533Y-88268095D02*
X88174390Y-88315714D01*
X88174390Y-88315714D02*
X88745819Y-88887142D01*
X88745819Y-88887142D02*
X88745819Y-88268095D01*
X94788200Y-117035713D02*
X94835819Y-116892856D01*
X94835819Y-116892856D02*
X94835819Y-116654761D01*
X94835819Y-116654761D02*
X94788200Y-116559523D01*
X94788200Y-116559523D02*
X94740580Y-116511904D01*
X94740580Y-116511904D02*
X94645342Y-116464285D01*
X94645342Y-116464285D02*
X94550104Y-116464285D01*
X94550104Y-116464285D02*
X94454866Y-116511904D01*
X94454866Y-116511904D02*
X94407247Y-116559523D01*
X94407247Y-116559523D02*
X94359628Y-116654761D01*
X94359628Y-116654761D02*
X94312009Y-116845237D01*
X94312009Y-116845237D02*
X94264390Y-116940475D01*
X94264390Y-116940475D02*
X94216771Y-116988094D01*
X94216771Y-116988094D02*
X94121533Y-117035713D01*
X94121533Y-117035713D02*
X94026295Y-117035713D01*
X94026295Y-117035713D02*
X93931057Y-116988094D01*
X93931057Y-116988094D02*
X93883438Y-116940475D01*
X93883438Y-116940475D02*
X93835819Y-116845237D01*
X93835819Y-116845237D02*
X93835819Y-116607142D01*
X93835819Y-116607142D02*
X93883438Y-116464285D01*
X87841057Y-77911904D02*
X87793438Y-77864285D01*
X87793438Y-77864285D02*
X87745819Y-77769047D01*
X87745819Y-77769047D02*
X87745819Y-77530952D01*
X87745819Y-77530952D02*
X87793438Y-77435714D01*
X87793438Y-77435714D02*
X87841057Y-77388095D01*
X87841057Y-77388095D02*
X87936295Y-77340476D01*
X87936295Y-77340476D02*
X88031533Y-77340476D01*
X88031533Y-77340476D02*
X88174390Y-77388095D01*
X88174390Y-77388095D02*
X88745819Y-77959523D01*
X88745819Y-77959523D02*
X88745819Y-77340476D01*
X87745819Y-76435714D02*
X87745819Y-76911904D01*
X87745819Y-76911904D02*
X88222009Y-76959523D01*
X88222009Y-76959523D02*
X88174390Y-76911904D01*
X88174390Y-76911904D02*
X88126771Y-76816666D01*
X88126771Y-76816666D02*
X88126771Y-76578571D01*
X88126771Y-76578571D02*
X88174390Y-76483333D01*
X88174390Y-76483333D02*
X88222009Y-76435714D01*
X88222009Y-76435714D02*
X88317247Y-76388095D01*
X88317247Y-76388095D02*
X88555342Y-76388095D01*
X88555342Y-76388095D02*
X88650580Y-76435714D01*
X88650580Y-76435714D02*
X88698200Y-76483333D01*
X88698200Y-76483333D02*
X88745819Y-76578571D01*
X88745819Y-76578571D02*
X88745819Y-76816666D01*
X88745819Y-76816666D02*
X88698200Y-76911904D01*
X88698200Y-76911904D02*
X88650580Y-76959523D01*
X88745819Y-112980476D02*
X88745819Y-113551904D01*
X88745819Y-113266190D02*
X87745819Y-113266190D01*
X87745819Y-113266190D02*
X87888676Y-113361428D01*
X87888676Y-113361428D02*
X87983914Y-113456666D01*
X87983914Y-113456666D02*
X88031533Y-113551904D01*
X87745819Y-112123333D02*
X87745819Y-112313809D01*
X87745819Y-112313809D02*
X87793438Y-112409047D01*
X87793438Y-112409047D02*
X87841057Y-112456666D01*
X87841057Y-112456666D02*
X87983914Y-112551904D01*
X87983914Y-112551904D02*
X88174390Y-112599523D01*
X88174390Y-112599523D02*
X88555342Y-112599523D01*
X88555342Y-112599523D02*
X88650580Y-112551904D01*
X88650580Y-112551904D02*
X88698200Y-112504285D01*
X88698200Y-112504285D02*
X88745819Y-112409047D01*
X88745819Y-112409047D02*
X88745819Y-112218571D01*
X88745819Y-112218571D02*
X88698200Y-112123333D01*
X88698200Y-112123333D02*
X88650580Y-112075714D01*
X88650580Y-112075714D02*
X88555342Y-112028095D01*
X88555342Y-112028095D02*
X88317247Y-112028095D01*
X88317247Y-112028095D02*
X88222009Y-112075714D01*
X88222009Y-112075714D02*
X88174390Y-112123333D01*
X88174390Y-112123333D02*
X88126771Y-112218571D01*
X88126771Y-112218571D02*
X88126771Y-112409047D01*
X88126771Y-112409047D02*
X88174390Y-112504285D01*
X88174390Y-112504285D02*
X88222009Y-112551904D01*
X88222009Y-112551904D02*
X88317247Y-112599523D01*
X88174390Y-147605237D02*
X88126771Y-147700475D01*
X88126771Y-147700475D02*
X88079152Y-147748094D01*
X88079152Y-147748094D02*
X87983914Y-147795713D01*
X87983914Y-147795713D02*
X87936295Y-147795713D01*
X87936295Y-147795713D02*
X87841057Y-147748094D01*
X87841057Y-147748094D02*
X87793438Y-147700475D01*
X87793438Y-147700475D02*
X87745819Y-147605237D01*
X87745819Y-147605237D02*
X87745819Y-147414761D01*
X87745819Y-147414761D02*
X87793438Y-147319523D01*
X87793438Y-147319523D02*
X87841057Y-147271904D01*
X87841057Y-147271904D02*
X87936295Y-147224285D01*
X87936295Y-147224285D02*
X87983914Y-147224285D01*
X87983914Y-147224285D02*
X88079152Y-147271904D01*
X88079152Y-147271904D02*
X88126771Y-147319523D01*
X88126771Y-147319523D02*
X88174390Y-147414761D01*
X88174390Y-147414761D02*
X88174390Y-147605237D01*
X88174390Y-147605237D02*
X88222009Y-147700475D01*
X88222009Y-147700475D02*
X88269628Y-147748094D01*
X88269628Y-147748094D02*
X88364866Y-147795713D01*
X88364866Y-147795713D02*
X88555342Y-147795713D01*
X88555342Y-147795713D02*
X88650580Y-147748094D01*
X88650580Y-147748094D02*
X88698200Y-147700475D01*
X88698200Y-147700475D02*
X88745819Y-147605237D01*
X88745819Y-147605237D02*
X88745819Y-147414761D01*
X88745819Y-147414761D02*
X88698200Y-147319523D01*
X88698200Y-147319523D02*
X88650580Y-147271904D01*
X88650580Y-147271904D02*
X88555342Y-147224285D01*
X88555342Y-147224285D02*
X88364866Y-147224285D01*
X88364866Y-147224285D02*
X88269628Y-147271904D01*
X88269628Y-147271904D02*
X88222009Y-147319523D01*
X88222009Y-147319523D02*
X88174390Y-147414761D01*
X88745819Y-135820476D02*
X88745819Y-136391904D01*
X88745819Y-136106190D02*
X87745819Y-136106190D01*
X87745819Y-136106190D02*
X87888676Y-136201428D01*
X87888676Y-136201428D02*
X87983914Y-136296666D01*
X87983914Y-136296666D02*
X88031533Y-136391904D01*
X88745819Y-134868095D02*
X88745819Y-135439523D01*
X88745819Y-135153809D02*
X87745819Y-135153809D01*
X87745819Y-135153809D02*
X87888676Y-135249047D01*
X87888676Y-135249047D02*
X87983914Y-135344285D01*
X87983914Y-135344285D02*
X88031533Y-135439523D01*
X87841057Y-69991904D02*
X87793438Y-69944285D01*
X87793438Y-69944285D02*
X87745819Y-69849047D01*
X87745819Y-69849047D02*
X87745819Y-69610952D01*
X87745819Y-69610952D02*
X87793438Y-69515714D01*
X87793438Y-69515714D02*
X87841057Y-69468095D01*
X87841057Y-69468095D02*
X87936295Y-69420476D01*
X87936295Y-69420476D02*
X88031533Y-69420476D01*
X88031533Y-69420476D02*
X88174390Y-69468095D01*
X88174390Y-69468095D02*
X88745819Y-70039523D01*
X88745819Y-70039523D02*
X88745819Y-69420476D01*
X87745819Y-69087142D02*
X87745819Y-68420476D01*
X87745819Y-68420476D02*
X88745819Y-68849047D01*
X87745819Y-167643332D02*
X87745819Y-167024285D01*
X87745819Y-167024285D02*
X88126771Y-167357618D01*
X88126771Y-167357618D02*
X88126771Y-167214761D01*
X88126771Y-167214761D02*
X88174390Y-167119523D01*
X88174390Y-167119523D02*
X88222009Y-167071904D01*
X88222009Y-167071904D02*
X88317247Y-167024285D01*
X88317247Y-167024285D02*
X88555342Y-167024285D01*
X88555342Y-167024285D02*
X88650580Y-167071904D01*
X88650580Y-167071904D02*
X88698200Y-167119523D01*
X88698200Y-167119523D02*
X88745819Y-167214761D01*
X88745819Y-167214761D02*
X88745819Y-167500475D01*
X88745819Y-167500475D02*
X88698200Y-167595713D01*
X88698200Y-167595713D02*
X88650580Y-167643332D01*
X88745819Y-131860476D02*
X88745819Y-132431904D01*
X88745819Y-132146190D02*
X87745819Y-132146190D01*
X87745819Y-132146190D02*
X87888676Y-132241428D01*
X87888676Y-132241428D02*
X87983914Y-132336666D01*
X87983914Y-132336666D02*
X88031533Y-132431904D01*
X87841057Y-131479523D02*
X87793438Y-131431904D01*
X87793438Y-131431904D02*
X87745819Y-131336666D01*
X87745819Y-131336666D02*
X87745819Y-131098571D01*
X87745819Y-131098571D02*
X87793438Y-131003333D01*
X87793438Y-131003333D02*
X87841057Y-130955714D01*
X87841057Y-130955714D02*
X87936295Y-130908095D01*
X87936295Y-130908095D02*
X88031533Y-130908095D01*
X88031533Y-130908095D02*
X88174390Y-130955714D01*
X88174390Y-130955714D02*
X88745819Y-131527142D01*
X88745819Y-131527142D02*
X88745819Y-130908095D01*
X87841057Y-81871904D02*
X87793438Y-81824285D01*
X87793438Y-81824285D02*
X87745819Y-81729047D01*
X87745819Y-81729047D02*
X87745819Y-81490952D01*
X87745819Y-81490952D02*
X87793438Y-81395714D01*
X87793438Y-81395714D02*
X87841057Y-81348095D01*
X87841057Y-81348095D02*
X87936295Y-81300476D01*
X87936295Y-81300476D02*
X88031533Y-81300476D01*
X88031533Y-81300476D02*
X88174390Y-81348095D01*
X88174390Y-81348095D02*
X88745819Y-81919523D01*
X88745819Y-81919523D02*
X88745819Y-81300476D01*
X88079152Y-80443333D02*
X88745819Y-80443333D01*
X87698200Y-80681428D02*
X88412485Y-80919523D01*
X88412485Y-80919523D02*
X88412485Y-80300476D01*
X87841057Y-85831904D02*
X87793438Y-85784285D01*
X87793438Y-85784285D02*
X87745819Y-85689047D01*
X87745819Y-85689047D02*
X87745819Y-85450952D01*
X87745819Y-85450952D02*
X87793438Y-85355714D01*
X87793438Y-85355714D02*
X87841057Y-85308095D01*
X87841057Y-85308095D02*
X87936295Y-85260476D01*
X87936295Y-85260476D02*
X88031533Y-85260476D01*
X88031533Y-85260476D02*
X88174390Y-85308095D01*
X88174390Y-85308095D02*
X88745819Y-85879523D01*
X88745819Y-85879523D02*
X88745819Y-85260476D01*
X87745819Y-84927142D02*
X87745819Y-84308095D01*
X87745819Y-84308095D02*
X88126771Y-84641428D01*
X88126771Y-84641428D02*
X88126771Y-84498571D01*
X88126771Y-84498571D02*
X88174390Y-84403333D01*
X88174390Y-84403333D02*
X88222009Y-84355714D01*
X88222009Y-84355714D02*
X88317247Y-84308095D01*
X88317247Y-84308095D02*
X88555342Y-84308095D01*
X88555342Y-84308095D02*
X88650580Y-84355714D01*
X88650580Y-84355714D02*
X88698200Y-84403333D01*
X88698200Y-84403333D02*
X88745819Y-84498571D01*
X88745819Y-84498571D02*
X88745819Y-84784285D01*
X88745819Y-84784285D02*
X88698200Y-84879523D01*
X88698200Y-84879523D02*
X88650580Y-84927142D01*
X93835819Y-89363332D02*
X93835819Y-88696666D01*
X93835819Y-88696666D02*
X94835819Y-89363332D01*
X94835819Y-89363332D02*
X94835819Y-88696666D01*
X94835819Y-123440476D02*
X94359628Y-123773809D01*
X94835819Y-124011904D02*
X93835819Y-124011904D01*
X93835819Y-124011904D02*
X93835819Y-123630952D01*
X93835819Y-123630952D02*
X93883438Y-123535714D01*
X93883438Y-123535714D02*
X93931057Y-123488095D01*
X93931057Y-123488095D02*
X94026295Y-123440476D01*
X94026295Y-123440476D02*
X94169152Y-123440476D01*
X94169152Y-123440476D02*
X94264390Y-123488095D01*
X94264390Y-123488095D02*
X94312009Y-123535714D01*
X94312009Y-123535714D02*
X94359628Y-123630952D01*
X94359628Y-123630952D02*
X94359628Y-124011904D01*
X93835819Y-97283332D02*
X94835819Y-96616666D01*
X93835819Y-96616666D02*
X94835819Y-97283332D01*
X94312009Y-69444285D02*
X94312009Y-69110952D01*
X94835819Y-68968095D02*
X94835819Y-69444285D01*
X94835819Y-69444285D02*
X93835819Y-69444285D01*
X93835819Y-69444285D02*
X93835819Y-68968095D01*
X93558200Y-69582381D02*
X93558200Y-68877619D01*
X94312009Y-155287142D02*
X94312009Y-155620475D01*
X94835819Y-155620475D02*
X93835819Y-155620475D01*
X93835819Y-155620475D02*
X93835819Y-155144285D01*
X88745819Y-143740475D02*
X88745819Y-143549999D01*
X88745819Y-143549999D02*
X88698200Y-143454761D01*
X88698200Y-143454761D02*
X88650580Y-143407142D01*
X88650580Y-143407142D02*
X88507723Y-143311904D01*
X88507723Y-143311904D02*
X88317247Y-143264285D01*
X88317247Y-143264285D02*
X87936295Y-143264285D01*
X87936295Y-143264285D02*
X87841057Y-143311904D01*
X87841057Y-143311904D02*
X87793438Y-143359523D01*
X87793438Y-143359523D02*
X87745819Y-143454761D01*
X87745819Y-143454761D02*
X87745819Y-143645237D01*
X87745819Y-143645237D02*
X87793438Y-143740475D01*
X87793438Y-143740475D02*
X87841057Y-143788094D01*
X87841057Y-143788094D02*
X87936295Y-143835713D01*
X87936295Y-143835713D02*
X88174390Y-143835713D01*
X88174390Y-143835713D02*
X88269628Y-143788094D01*
X88269628Y-143788094D02*
X88317247Y-143740475D01*
X88317247Y-143740475D02*
X88364866Y-143645237D01*
X88364866Y-143645237D02*
X88364866Y-143454761D01*
X88364866Y-143454761D02*
X88317247Y-143359523D01*
X88317247Y-143359523D02*
X88269628Y-143311904D01*
X88269628Y-143311904D02*
X88174390Y-143264285D01*
X88745819Y-123940476D02*
X88745819Y-124511904D01*
X88745819Y-124226190D02*
X87745819Y-124226190D01*
X87745819Y-124226190D02*
X87888676Y-124321428D01*
X87888676Y-124321428D02*
X87983914Y-124416666D01*
X87983914Y-124416666D02*
X88031533Y-124511904D01*
X88079152Y-123083333D02*
X88745819Y-123083333D01*
X87698200Y-123321428D02*
X88412485Y-123559523D01*
X88412485Y-123559523D02*
X88412485Y-122940476D01*
X94312009Y-159604285D02*
X94312009Y-159270952D01*
X94835819Y-159128095D02*
X94835819Y-159604285D01*
X94835819Y-159604285D02*
X93835819Y-159604285D01*
X93835819Y-159604285D02*
X93835819Y-159128095D01*
D12*
%TO.C,J54*%
X84631000Y-74520000D02*
X84631000Y-73190000D01*
X85961000Y-74520000D02*
X84631000Y-74520000D01*
X87231000Y-71860000D02*
X87291000Y-71860000D01*
X87231000Y-74520000D02*
X87231000Y-71860000D01*
X87231000Y-74520000D02*
X87291000Y-74520000D01*
X87291000Y-74520000D02*
X87291000Y-71860000D01*
%TO.C,J44*%
X84631000Y-156760000D02*
X84631000Y-155430000D01*
X85961000Y-156760000D02*
X84631000Y-156760000D01*
X87231000Y-154100000D02*
X87291000Y-154100000D01*
X87231000Y-156760000D02*
X87231000Y-154100000D01*
X87231000Y-156760000D02*
X87291000Y-156760000D01*
X87291000Y-156760000D02*
X87291000Y-154100000D01*
%TO.C,J12*%
X90721000Y-133000000D02*
X90721000Y-131670000D01*
X92051000Y-133000000D02*
X90721000Y-133000000D01*
X93321000Y-130340000D02*
X93381000Y-130340000D01*
X93321000Y-133000000D02*
X93321000Y-130340000D01*
X93321000Y-133000000D02*
X93381000Y-133000000D01*
X93381000Y-133000000D02*
X93381000Y-130340000D01*
%TO.C,J7*%
X90721000Y-152800000D02*
X90721000Y-151470000D01*
X92051000Y-152800000D02*
X90721000Y-152800000D01*
X93321000Y-150140000D02*
X93381000Y-150140000D01*
X93321000Y-152800000D02*
X93321000Y-150140000D01*
X93321000Y-152800000D02*
X93381000Y-152800000D01*
X93381000Y-152800000D02*
X93381000Y-150140000D01*
%TO.C,J16*%
X90721000Y-114120000D02*
X90721000Y-112790000D01*
X92051000Y-114120000D02*
X90721000Y-114120000D01*
X93321000Y-111460000D02*
X93381000Y-111460000D01*
X93321000Y-114120000D02*
X93321000Y-111460000D01*
X93321000Y-114120000D02*
X93381000Y-114120000D01*
X93381000Y-114120000D02*
X93381000Y-111460000D01*
%TO.C,J47*%
X84631000Y-102240000D02*
X84631000Y-100910000D01*
X85961000Y-102240000D02*
X84631000Y-102240000D01*
X87231000Y-99580000D02*
X87291000Y-99580000D01*
X87231000Y-102240000D02*
X87231000Y-99580000D01*
X87231000Y-102240000D02*
X87291000Y-102240000D01*
X87291000Y-102240000D02*
X87291000Y-99580000D01*
%TO.C,J21*%
X90721000Y-94320000D02*
X90721000Y-92990000D01*
X92051000Y-94320000D02*
X90721000Y-94320000D01*
X93321000Y-91660000D02*
X93381000Y-91660000D01*
X93321000Y-94320000D02*
X93321000Y-91660000D01*
X93321000Y-94320000D02*
X93381000Y-94320000D01*
X93381000Y-94320000D02*
X93381000Y-91660000D01*
%TO.C,J4*%
X90721000Y-164680000D02*
X90721000Y-163350000D01*
X92051000Y-164680000D02*
X90721000Y-164680000D01*
X93321000Y-162020000D02*
X93381000Y-162020000D01*
X93321000Y-164680000D02*
X93321000Y-162020000D01*
X93321000Y-164680000D02*
X93381000Y-164680000D01*
X93381000Y-164680000D02*
X93381000Y-162020000D01*
%TO.C,J37*%
X84631000Y-140920000D02*
X84631000Y-139590000D01*
X85961000Y-140920000D02*
X84631000Y-140920000D01*
X87231000Y-138260000D02*
X87291000Y-138260000D01*
X87231000Y-140920000D02*
X87231000Y-138260000D01*
X87231000Y-140920000D02*
X87291000Y-140920000D01*
X87291000Y-140920000D02*
X87291000Y-138260000D01*
%TO.C,J49*%
X84631000Y-94320000D02*
X84631000Y-92990000D01*
X85961000Y-94320000D02*
X84631000Y-94320000D01*
X87231000Y-91660000D02*
X87291000Y-91660000D01*
X87231000Y-94320000D02*
X87231000Y-91660000D01*
X87231000Y-94320000D02*
X87291000Y-94320000D01*
X87291000Y-94320000D02*
X87291000Y-91660000D01*
%TO.C,J13*%
X90721000Y-129040000D02*
X90721000Y-127710000D01*
X92051000Y-129040000D02*
X90721000Y-129040000D01*
X93321000Y-126380000D02*
X93381000Y-126380000D01*
X93321000Y-129040000D02*
X93321000Y-126380000D01*
X93321000Y-129040000D02*
X93381000Y-129040000D01*
X93381000Y-129040000D02*
X93381000Y-126380000D01*
%TO.C,J28*%
X90721000Y-66600000D02*
X90721000Y-65270000D01*
X92051000Y-66600000D02*
X90721000Y-66600000D01*
X93321000Y-63940000D02*
X93381000Y-63940000D01*
X93321000Y-66600000D02*
X93321000Y-63940000D01*
X93321000Y-66600000D02*
X93381000Y-66600000D01*
X93381000Y-66600000D02*
X93381000Y-63940000D01*
%TO.C,J26*%
X90721000Y-74520000D02*
X90721000Y-73190000D01*
X92051000Y-74520000D02*
X90721000Y-74520000D01*
X93321000Y-71860000D02*
X93381000Y-71860000D01*
X93321000Y-74520000D02*
X93321000Y-71860000D01*
X93321000Y-74520000D02*
X93381000Y-74520000D01*
X93381000Y-74520000D02*
X93381000Y-71860000D01*
%TO.C,J2*%
X90721000Y-172600000D02*
X90721000Y-171270000D01*
X92051000Y-172600000D02*
X90721000Y-172600000D01*
X93321000Y-169940000D02*
X93381000Y-169940000D01*
X93321000Y-172600000D02*
X93321000Y-169940000D01*
X93321000Y-172600000D02*
X93381000Y-172600000D01*
X93381000Y-172600000D02*
X93381000Y-169940000D01*
%TO.C,J56*%
X84631000Y-66600000D02*
X84631000Y-65270000D01*
X85961000Y-66600000D02*
X84631000Y-66600000D01*
X87231000Y-63940000D02*
X87291000Y-63940000D01*
X87231000Y-66600000D02*
X87231000Y-63940000D01*
X87231000Y-66600000D02*
X87291000Y-66600000D01*
X87291000Y-66600000D02*
X87291000Y-63940000D01*
%TO.C,J32*%
X84631000Y-164680000D02*
X84631000Y-163350000D01*
X85961000Y-164680000D02*
X84631000Y-164680000D01*
X87231000Y-162020000D02*
X87291000Y-162020000D01*
X87231000Y-164680000D02*
X87231000Y-162020000D01*
X87231000Y-164680000D02*
X87291000Y-164680000D01*
X87291000Y-164680000D02*
X87291000Y-162020000D01*
%TO.C,J40*%
X84631000Y-129040000D02*
X84631000Y-127710000D01*
X85961000Y-129040000D02*
X84631000Y-129040000D01*
X87231000Y-126380000D02*
X87291000Y-126380000D01*
X87231000Y-129040000D02*
X87231000Y-126380000D01*
X87231000Y-129040000D02*
X87291000Y-129040000D01*
X87291000Y-129040000D02*
X87291000Y-126380000D01*
%TO.C,J18*%
X90721000Y-106200000D02*
X90721000Y-104870000D01*
X92051000Y-106200000D02*
X90721000Y-106200000D01*
X93321000Y-103540000D02*
X93381000Y-103540000D01*
X93321000Y-106200000D02*
X93321000Y-103540000D01*
X93321000Y-106200000D02*
X93381000Y-106200000D01*
X93381000Y-106200000D02*
X93381000Y-103540000D01*
%TO.C,J48*%
X84631000Y-98280000D02*
X84631000Y-96950000D01*
X85961000Y-98280000D02*
X84631000Y-98280000D01*
X87231000Y-95620000D02*
X87291000Y-95620000D01*
X87231000Y-98280000D02*
X87231000Y-95620000D01*
X87231000Y-98280000D02*
X87291000Y-98280000D01*
X87291000Y-98280000D02*
X87291000Y-95620000D01*
%TO.C,J1*%
X90721000Y-176560000D02*
X90721000Y-175230000D01*
X92051000Y-176560000D02*
X90721000Y-176560000D01*
X93321000Y-173900000D02*
X93381000Y-173900000D01*
X93321000Y-176560000D02*
X93321000Y-173900000D01*
X93321000Y-176560000D02*
X93381000Y-176560000D01*
X93381000Y-176560000D02*
X93381000Y-173900000D01*
%TO.C,J46*%
X84631000Y-106200000D02*
X84631000Y-104870000D01*
X85961000Y-106200000D02*
X84631000Y-106200000D01*
X87231000Y-103540000D02*
X87291000Y-103540000D01*
X87231000Y-106200000D02*
X87231000Y-103540000D01*
X87231000Y-106200000D02*
X87291000Y-106200000D01*
X87291000Y-106200000D02*
X87291000Y-103540000D01*
%TO.C,J23*%
X90721000Y-86400000D02*
X90721000Y-85070000D01*
X92051000Y-86400000D02*
X90721000Y-86400000D01*
X93321000Y-83740000D02*
X93381000Y-83740000D01*
X93321000Y-86400000D02*
X93321000Y-83740000D01*
X93321000Y-86400000D02*
X93381000Y-86400000D01*
X93381000Y-86400000D02*
X93381000Y-83740000D01*
%TO.C,J45*%
X84631000Y-110160000D02*
X84631000Y-108830000D01*
X85961000Y-110160000D02*
X84631000Y-110160000D01*
X87231000Y-107500000D02*
X87291000Y-107500000D01*
X87231000Y-110160000D02*
X87231000Y-107500000D01*
X87231000Y-110160000D02*
X87291000Y-110160000D01*
X87291000Y-110160000D02*
X87291000Y-107500000D01*
%TO.C,J11*%
X90721000Y-136960000D02*
X90721000Y-135630000D01*
X92051000Y-136960000D02*
X90721000Y-136960000D01*
X93321000Y-134300000D02*
X93381000Y-134300000D01*
X93321000Y-136960000D02*
X93321000Y-134300000D01*
X93321000Y-136960000D02*
X93381000Y-136960000D01*
X93381000Y-136960000D02*
X93381000Y-134300000D01*
%TO.C,J34*%
X84631000Y-152800000D02*
X84631000Y-151470000D01*
X85961000Y-152800000D02*
X84631000Y-152800000D01*
X87231000Y-150140000D02*
X87291000Y-150140000D01*
X87231000Y-152800000D02*
X87231000Y-150140000D01*
X87231000Y-152800000D02*
X87291000Y-152800000D01*
X87291000Y-152800000D02*
X87291000Y-150140000D01*
%TO.C,J33*%
X84631000Y-160720000D02*
X84631000Y-159390000D01*
X85961000Y-160720000D02*
X84631000Y-160720000D01*
X87231000Y-158060000D02*
X87291000Y-158060000D01*
X87231000Y-160720000D02*
X87231000Y-158060000D01*
X87231000Y-160720000D02*
X87291000Y-160720000D01*
X87291000Y-160720000D02*
X87291000Y-158060000D01*
%TO.C,J29*%
X84631000Y-176560000D02*
X84631000Y-175230000D01*
X85961000Y-176560000D02*
X84631000Y-176560000D01*
X87231000Y-173900000D02*
X87291000Y-173900000D01*
X87231000Y-176560000D02*
X87231000Y-173900000D01*
X87231000Y-176560000D02*
X87291000Y-176560000D01*
X87291000Y-176560000D02*
X87291000Y-173900000D01*
%TO.C,J19*%
X90721000Y-102240000D02*
X90721000Y-100910000D01*
X92051000Y-102240000D02*
X90721000Y-102240000D01*
X93321000Y-99580000D02*
X93381000Y-99580000D01*
X93321000Y-102240000D02*
X93321000Y-99580000D01*
X93321000Y-102240000D02*
X93381000Y-102240000D01*
X93381000Y-102240000D02*
X93381000Y-99580000D01*
%TO.C,J10*%
X90721000Y-140920000D02*
X90721000Y-139590000D01*
X92051000Y-140920000D02*
X90721000Y-140920000D01*
X93321000Y-138260000D02*
X93381000Y-138260000D01*
X93321000Y-140920000D02*
X93321000Y-138260000D01*
X93321000Y-140920000D02*
X93381000Y-140920000D01*
X93381000Y-140920000D02*
X93381000Y-138260000D01*
%TO.C,J8*%
X90721000Y-148840000D02*
X90721000Y-147510000D01*
X92051000Y-148840000D02*
X90721000Y-148840000D01*
X93321000Y-146180000D02*
X93381000Y-146180000D01*
X93321000Y-148840000D02*
X93321000Y-146180000D01*
X93321000Y-148840000D02*
X93381000Y-148840000D01*
X93381000Y-148840000D02*
X93381000Y-146180000D01*
%TO.C,J3*%
X90721000Y-168640000D02*
X90721000Y-167310000D01*
X92051000Y-168640000D02*
X90721000Y-168640000D01*
X93321000Y-165980000D02*
X93381000Y-165980000D01*
X93321000Y-168640000D02*
X93321000Y-165980000D01*
X93321000Y-168640000D02*
X93381000Y-168640000D01*
X93381000Y-168640000D02*
X93381000Y-165980000D01*
%TO.C,J24*%
X90721000Y-82440000D02*
X90721000Y-81110000D01*
X92051000Y-82440000D02*
X90721000Y-82440000D01*
X93321000Y-79780000D02*
X93381000Y-79780000D01*
X93321000Y-82440000D02*
X93321000Y-79780000D01*
X93321000Y-82440000D02*
X93381000Y-82440000D01*
X93381000Y-82440000D02*
X93381000Y-79780000D01*
%TO.C,J30*%
X84631000Y-172600000D02*
X84631000Y-171270000D01*
X85961000Y-172600000D02*
X84631000Y-172600000D01*
X87231000Y-169940000D02*
X87291000Y-169940000D01*
X87231000Y-172600000D02*
X87231000Y-169940000D01*
X87231000Y-172600000D02*
X87291000Y-172600000D01*
X87291000Y-172600000D02*
X87291000Y-169940000D01*
%TO.C,J25*%
X90721000Y-78480000D02*
X90721000Y-77150000D01*
X92051000Y-78480000D02*
X90721000Y-78480000D01*
X93321000Y-75820000D02*
X93381000Y-75820000D01*
X93321000Y-78480000D02*
X93321000Y-75820000D01*
X93321000Y-78480000D02*
X93381000Y-78480000D01*
X93381000Y-78480000D02*
X93381000Y-75820000D01*
%TO.C,J42*%
X84631000Y-118080000D02*
X84631000Y-116750000D01*
X85961000Y-118080000D02*
X84631000Y-118080000D01*
X87231000Y-115420000D02*
X87291000Y-115420000D01*
X87231000Y-118080000D02*
X87231000Y-115420000D01*
X87231000Y-118080000D02*
X87291000Y-118080000D01*
X87291000Y-118080000D02*
X87291000Y-115420000D01*
%TO.C,J17*%
X90721000Y-110160000D02*
X90721000Y-108830000D01*
X92051000Y-110160000D02*
X90721000Y-110160000D01*
X93321000Y-107500000D02*
X93381000Y-107500000D01*
X93321000Y-110160000D02*
X93321000Y-107500000D01*
X93321000Y-110160000D02*
X93381000Y-110160000D01*
X93381000Y-110160000D02*
X93381000Y-107500000D01*
%TO.C,J9*%
X90721000Y-144880000D02*
X90721000Y-143550000D01*
X92051000Y-144880000D02*
X90721000Y-144880000D01*
X93321000Y-142220000D02*
X93381000Y-142220000D01*
X93321000Y-144880000D02*
X93321000Y-142220000D01*
X93321000Y-144880000D02*
X93381000Y-144880000D01*
X93381000Y-144880000D02*
X93381000Y-142220000D01*
%TO.C,J50*%
X84631000Y-90360000D02*
X84631000Y-89030000D01*
X85961000Y-90360000D02*
X84631000Y-90360000D01*
X87231000Y-87700000D02*
X87291000Y-87700000D01*
X87231000Y-90360000D02*
X87231000Y-87700000D01*
X87231000Y-90360000D02*
X87291000Y-90360000D01*
X87291000Y-90360000D02*
X87291000Y-87700000D01*
%TO.C,J15*%
X90721000Y-118080000D02*
X90721000Y-116750000D01*
X92051000Y-118080000D02*
X90721000Y-118080000D01*
X93321000Y-115420000D02*
X93381000Y-115420000D01*
X93321000Y-118080000D02*
X93321000Y-115420000D01*
X93321000Y-118080000D02*
X93381000Y-118080000D01*
X93381000Y-118080000D02*
X93381000Y-115420000D01*
%TO.C,J53*%
X84631000Y-78480000D02*
X84631000Y-77150000D01*
X85961000Y-78480000D02*
X84631000Y-78480000D01*
X87231000Y-75820000D02*
X87291000Y-75820000D01*
X87231000Y-78480000D02*
X87231000Y-75820000D01*
X87231000Y-78480000D02*
X87291000Y-78480000D01*
X87291000Y-78480000D02*
X87291000Y-75820000D01*
%TO.C,J43*%
X84631000Y-114120000D02*
X84631000Y-112790000D01*
X85961000Y-114120000D02*
X84631000Y-114120000D01*
X87231000Y-111460000D02*
X87291000Y-111460000D01*
X87231000Y-114120000D02*
X87231000Y-111460000D01*
X87231000Y-114120000D02*
X87291000Y-114120000D01*
X87291000Y-114120000D02*
X87291000Y-111460000D01*
%TO.C,J35*%
X84631000Y-148840000D02*
X84631000Y-147510000D01*
X85961000Y-148840000D02*
X84631000Y-148840000D01*
X87231000Y-146180000D02*
X87291000Y-146180000D01*
X87231000Y-148840000D02*
X87231000Y-146180000D01*
X87231000Y-148840000D02*
X87291000Y-148840000D01*
X87291000Y-148840000D02*
X87291000Y-146180000D01*
%TO.C,J38*%
X84631000Y-136960000D02*
X84631000Y-135630000D01*
X85961000Y-136960000D02*
X84631000Y-136960000D01*
X87231000Y-134300000D02*
X87291000Y-134300000D01*
X87231000Y-136960000D02*
X87231000Y-134300000D01*
X87231000Y-136960000D02*
X87291000Y-136960000D01*
X87291000Y-136960000D02*
X87291000Y-134300000D01*
%TO.C,J55*%
X84631000Y-70560000D02*
X84631000Y-69230000D01*
X85961000Y-70560000D02*
X84631000Y-70560000D01*
X87231000Y-67900000D02*
X87291000Y-67900000D01*
X87231000Y-70560000D02*
X87231000Y-67900000D01*
X87231000Y-70560000D02*
X87291000Y-70560000D01*
X87291000Y-70560000D02*
X87291000Y-67900000D01*
%TO.C,J31*%
X84631000Y-168640000D02*
X84631000Y-167310000D01*
X85961000Y-168640000D02*
X84631000Y-168640000D01*
X87231000Y-165980000D02*
X87291000Y-165980000D01*
X87231000Y-168640000D02*
X87231000Y-165980000D01*
X87231000Y-168640000D02*
X87291000Y-168640000D01*
X87291000Y-168640000D02*
X87291000Y-165980000D01*
%TO.C,J39*%
X84631000Y-133000000D02*
X84631000Y-131670000D01*
X85961000Y-133000000D02*
X84631000Y-133000000D01*
X87231000Y-130340000D02*
X87291000Y-130340000D01*
X87231000Y-133000000D02*
X87231000Y-130340000D01*
X87231000Y-133000000D02*
X87291000Y-133000000D01*
X87291000Y-133000000D02*
X87291000Y-130340000D01*
%TO.C,J52*%
X84631000Y-82440000D02*
X84631000Y-81110000D01*
X85961000Y-82440000D02*
X84631000Y-82440000D01*
X87231000Y-79780000D02*
X87291000Y-79780000D01*
X87231000Y-82440000D02*
X87231000Y-79780000D01*
X87231000Y-82440000D02*
X87291000Y-82440000D01*
X87291000Y-82440000D02*
X87291000Y-79780000D01*
%TO.C,J51*%
X84631000Y-86400000D02*
X84631000Y-85070000D01*
X85961000Y-86400000D02*
X84631000Y-86400000D01*
X87231000Y-83740000D02*
X87291000Y-83740000D01*
X87231000Y-86400000D02*
X87231000Y-83740000D01*
X87231000Y-86400000D02*
X87291000Y-86400000D01*
X87291000Y-86400000D02*
X87291000Y-83740000D01*
%TO.C,J22*%
X90721000Y-90360000D02*
X90721000Y-89030000D01*
X92051000Y-90360000D02*
X90721000Y-90360000D01*
X93321000Y-87700000D02*
X93381000Y-87700000D01*
X93321000Y-90360000D02*
X93321000Y-87700000D01*
X93321000Y-90360000D02*
X93381000Y-90360000D01*
X93381000Y-90360000D02*
X93381000Y-87700000D01*
%TO.C,J14*%
X90721000Y-125080000D02*
X90721000Y-123750000D01*
X92051000Y-125080000D02*
X90721000Y-125080000D01*
X93321000Y-122420000D02*
X93381000Y-122420000D01*
X93321000Y-125080000D02*
X93321000Y-122420000D01*
X93321000Y-125080000D02*
X93381000Y-125080000D01*
X93381000Y-125080000D02*
X93381000Y-122420000D01*
%TO.C,J20*%
X90721000Y-98280000D02*
X90721000Y-96950000D01*
X92051000Y-98280000D02*
X90721000Y-98280000D01*
X93321000Y-95620000D02*
X93381000Y-95620000D01*
X93321000Y-98280000D02*
X93321000Y-95620000D01*
X93321000Y-98280000D02*
X93381000Y-98280000D01*
X93381000Y-98280000D02*
X93381000Y-95620000D01*
%TO.C,J27*%
X90721000Y-70560000D02*
X90721000Y-69230000D01*
X92051000Y-70560000D02*
X90721000Y-70560000D01*
X93321000Y-67900000D02*
X93381000Y-67900000D01*
X93321000Y-70560000D02*
X93321000Y-67900000D01*
X93321000Y-70560000D02*
X93381000Y-70560000D01*
X93381000Y-70560000D02*
X93381000Y-67900000D01*
%TO.C,J6*%
X90721000Y-156760000D02*
X90721000Y-155430000D01*
X92051000Y-156760000D02*
X90721000Y-156760000D01*
X93321000Y-154100000D02*
X93381000Y-154100000D01*
X93321000Y-156760000D02*
X93321000Y-154100000D01*
X93321000Y-156760000D02*
X93381000Y-156760000D01*
X93381000Y-156760000D02*
X93381000Y-154100000D01*
%TO.C,J36*%
X84631000Y-144880000D02*
X84631000Y-143550000D01*
X85961000Y-144880000D02*
X84631000Y-144880000D01*
X87231000Y-142220000D02*
X87291000Y-142220000D01*
X87231000Y-144880000D02*
X87231000Y-142220000D01*
X87231000Y-144880000D02*
X87291000Y-144880000D01*
X87291000Y-144880000D02*
X87291000Y-142220000D01*
%TO.C,J41*%
X84631000Y-125080000D02*
X84631000Y-123750000D01*
X85961000Y-125080000D02*
X84631000Y-125080000D01*
X87231000Y-122420000D02*
X87291000Y-122420000D01*
X87231000Y-125080000D02*
X87231000Y-122420000D01*
X87231000Y-125080000D02*
X87291000Y-125080000D01*
X87291000Y-125080000D02*
X87291000Y-122420000D01*
%TO.C,J5*%
X90721000Y-160720000D02*
X90721000Y-159390000D01*
X92051000Y-160720000D02*
X90721000Y-160720000D01*
X93321000Y-158060000D02*
X93381000Y-158060000D01*
X93321000Y-160720000D02*
X93321000Y-158060000D01*
X93321000Y-160720000D02*
X93381000Y-160720000D01*
X93381000Y-160720000D02*
X93381000Y-158060000D01*
%TD*%
M02*
