M48
; DRILL file {KiCad 8.0.2} date 2024-05-21T21:07:36+0200
; FORMAT={-:-/ absolute / inch / decimal}
; #@! TF.CreationDate,2024-05-21T21:07:36+02:00
; #@! TF.GenerationSoftware,Kicad,Pcbnew,8.0.2
; #@! TF.FileFunction,Plated,1,2,PTH
FMAT,2
INCH
; #@! TA.AperFunction,Plated,PTH,ComponentDrill
T1C0.0394
%
G90
G05
T1
X3.3843Y-2.5697
X3.3843Y-2.7256
X3.3843Y-2.8815
X3.3843Y-3.0374
X3.3843Y-3.1933
X3.3843Y-3.3492
X3.3843Y-3.5051
X3.3843Y-3.661
X3.3843Y-3.8169
X3.3843Y-3.9728
X3.3843Y-4.1287
X3.3843Y-4.2846
X3.3843Y-4.4406
X3.3843Y-4.5965
X3.3843Y-4.872
X3.3843Y-5.028
X3.3843Y-5.1839
X3.3843Y-5.3398
X3.3843Y-5.4957
X3.3843Y-5.6516
X3.3843Y-5.8075
X3.3843Y-5.9634
X3.3843Y-6.1193
X3.3843Y-6.2752
X3.3843Y-6.4311
X3.3843Y-6.587
X3.3843Y-6.7429
X3.3843Y-6.8988
X3.6241Y-2.5697
X3.6241Y-2.7256
X3.6241Y-2.8815
X3.6241Y-3.0374
X3.6241Y-3.1933
X3.6241Y-3.3492
X3.6241Y-3.5051
X3.6241Y-3.661
X3.6241Y-3.8169
X3.6241Y-3.9728
X3.6241Y-4.1287
X3.6241Y-4.2846
X3.6241Y-4.4406
X3.6241Y-4.5965
X3.6241Y-4.872
X3.6241Y-5.028
X3.6241Y-5.1839
X3.6241Y-5.3398
X3.6241Y-5.4957
X3.6241Y-5.6516
X3.6241Y-5.8075
X3.6241Y-5.9634
X3.6241Y-6.1193
X3.6241Y-6.2752
X3.6241Y-6.4311
X3.6241Y-6.587
X3.6241Y-6.7429
X3.6241Y-6.8988
M30
