%TF.GenerationSoftware,KiCad,Pcbnew,8.0.2*%
%TF.CreationDate,2024-05-21T21:07:39+02:00*%
%TF.ProjectId,ExtenderWide_56pin,45787465-6e64-4657-9257-6964655f3536,rev?*%
%TF.SameCoordinates,Original*%
%TF.FileFunction,Copper,L1,Top*%
%TF.FilePolarity,Positive*%
%FSLAX46Y46*%
G04 Gerber Fmt 4.6, Leading zero omitted, Abs format (unit mm)*
G04 Created by KiCad (PCBNEW 8.0.2) date 2024-05-21 21:07:39*
%MOMM*%
%LPD*%
G01*
G04 APERTURE LIST*
%TA.AperFunction,ComponentPad*%
%ADD10R,1.700000X1.700000*%
%TD*%
%TA.AperFunction,SMDPad,CuDef*%
%ADD11R,8.800000X2.600000*%
%TD*%
%TA.AperFunction,Conductor*%
%ADD12C,1.500000*%
%TD*%
G04 APERTURE END LIST*
D10*
%TO.P,J54,1,Pin_1*%
%TO.N,N/C*%
X85961000Y-73190000D03*
%TD*%
%TO.P,J44,1,Pin_1*%
%TO.N,N/C*%
X85961000Y-155430000D03*
%TD*%
%TO.P,J12,1,Pin_1*%
%TO.N,N/C*%
X92051000Y-131670000D03*
%TD*%
%TO.P,J7,1,Pin_1*%
%TO.N,N/C*%
X92051000Y-151470000D03*
%TD*%
%TO.P,J16,1,Pin_1*%
%TO.N,N/C*%
X92051000Y-112790000D03*
%TD*%
%TO.P,J47,1,Pin_1*%
%TO.N,N/C*%
X85961000Y-100910000D03*
%TD*%
%TO.P,J21,1,Pin_1*%
%TO.N,N/C*%
X92051000Y-92990000D03*
%TD*%
%TO.P,J4,1,Pin_1*%
%TO.N,N/C*%
X92051000Y-163350000D03*
%TD*%
%TO.P,J37,1,Pin_1*%
%TO.N,N/C*%
X85961000Y-139590000D03*
%TD*%
%TO.P,J49,1,Pin_1*%
%TO.N,N/C*%
X85961000Y-92990000D03*
%TD*%
%TO.P,J13,1,Pin_1*%
%TO.N,N/C*%
X92051000Y-127710000D03*
%TD*%
%TO.P,J28,1,Pin_1*%
%TO.N,N/C*%
X92051000Y-65270000D03*
%TD*%
%TO.P,J26,1,Pin_1*%
%TO.N,N/C*%
X92051000Y-73190000D03*
%TD*%
%TO.P,J2,1,Pin_1*%
%TO.N,N/C*%
X92051000Y-171270000D03*
%TD*%
%TO.P,J56,1,Pin_1*%
%TO.N,N/C*%
X85961000Y-65270000D03*
%TD*%
%TO.P,J32,1,Pin_1*%
%TO.N,N/C*%
X85961000Y-163350000D03*
%TD*%
%TO.P,J40,1,Pin_1*%
%TO.N,N/C*%
X85961000Y-127710000D03*
%TD*%
%TO.P,J18,1,Pin_1*%
%TO.N,N/C*%
X92051000Y-104870000D03*
%TD*%
%TO.P,J48,1,Pin_1*%
%TO.N,N/C*%
X85961000Y-96950000D03*
%TD*%
%TO.P,J1,1,Pin_1*%
%TO.N,N/C*%
X92051000Y-175230000D03*
%TD*%
%TO.P,J46,1,Pin_1*%
%TO.N,N/C*%
X85961000Y-104870000D03*
%TD*%
%TO.P,J23,1,Pin_1*%
%TO.N,N/C*%
X92051000Y-85070000D03*
%TD*%
%TO.P,J45,1,Pin_1*%
%TO.N,N/C*%
X85961000Y-108830000D03*
%TD*%
%TO.P,J11,1,Pin_1*%
%TO.N,N/C*%
X92051000Y-135630000D03*
%TD*%
%TO.P,J34,1,Pin_1*%
%TO.N,N/C*%
X85961000Y-151470000D03*
%TD*%
%TO.P,J33,1,Pin_1*%
%TO.N,N/C*%
X85961000Y-159390000D03*
%TD*%
%TO.P,J29,1,Pin_1*%
%TO.N,N/C*%
X85961000Y-175230000D03*
%TD*%
%TO.P,J19,1,Pin_1*%
%TO.N,N/C*%
X92051000Y-100910000D03*
%TD*%
%TO.P,J10,1,Pin_1*%
%TO.N,N/C*%
X92051000Y-139590000D03*
%TD*%
%TO.P,J8,1,Pin_1*%
%TO.N,N/C*%
X92051000Y-147510000D03*
%TD*%
%TO.P,J3,1,Pin_1*%
%TO.N,N/C*%
X92051000Y-167310000D03*
%TD*%
%TO.P,J24,1,Pin_1*%
%TO.N,N/C*%
X92051000Y-81110000D03*
%TD*%
%TO.P,J30,1,Pin_1*%
%TO.N,N/C*%
X85961000Y-171270000D03*
%TD*%
%TO.P,J25,1,Pin_1*%
%TO.N,N/C*%
X92051000Y-77150000D03*
%TD*%
%TO.P,J42,1,Pin_1*%
%TO.N,N/C*%
X85961000Y-116750000D03*
%TD*%
%TO.P,J17,1,Pin_1*%
%TO.N,N/C*%
X92051000Y-108830000D03*
%TD*%
%TO.P,J9,1,Pin_1*%
%TO.N,N/C*%
X92051000Y-143550000D03*
%TD*%
%TO.P,J50,1,Pin_1*%
%TO.N,N/C*%
X85961000Y-89030000D03*
%TD*%
%TO.P,J15,1,Pin_1*%
%TO.N,N/C*%
X92051000Y-116750000D03*
%TD*%
%TO.P,J53,1,Pin_1*%
%TO.N,N/C*%
X85961000Y-77150000D03*
%TD*%
%TO.P,J43,1,Pin_1*%
%TO.N,N/C*%
X85961000Y-112790000D03*
%TD*%
%TO.P,J35,1,Pin_1*%
%TO.N,N/C*%
X85961000Y-147510000D03*
%TD*%
%TO.P,J38,1,Pin_1*%
%TO.N,N/C*%
X85961000Y-135630000D03*
%TD*%
%TO.P,J55,1,Pin_1*%
%TO.N,N/C*%
X85961000Y-69230000D03*
%TD*%
%TO.P,J31,1,Pin_1*%
%TO.N,N/C*%
X85961000Y-167310000D03*
%TD*%
%TO.P,J39,1,Pin_1*%
%TO.N,N/C*%
X85961000Y-131670000D03*
%TD*%
%TO.P,J52,1,Pin_1*%
%TO.N,N/C*%
X85961000Y-81110000D03*
%TD*%
%TO.P,J51,1,Pin_1*%
%TO.N,N/C*%
X85961000Y-85070000D03*
%TD*%
%TO.P,J22,1,Pin_1*%
%TO.N,N/C*%
X92051000Y-89030000D03*
%TD*%
D11*
%TO.P,J58,1,Pin_1*%
%TO.N,N/C*%
X363521000Y-175230000D03*
%TO.P,J58,2,Pin_2*%
X363521000Y-171270000D03*
%TO.P,J58,3,Pin_3*%
X363521000Y-167310000D03*
%TO.P,J58,4,Pin_4*%
X363521000Y-163350000D03*
%TO.P,J58,5,Pin_5*%
X363521000Y-159390000D03*
%TO.P,J58,6,Pin_6*%
X363521000Y-155430000D03*
%TO.P,J58,7,Pin_7*%
X363521000Y-151470000D03*
%TO.P,J58,8,Pin_8*%
X363521000Y-147510000D03*
%TO.P,J58,9,Pin_9*%
X363521000Y-143550000D03*
%TO.P,J58,10,Pin_10*%
X363521000Y-139590000D03*
%TO.P,J58,11,Pin_11*%
X363521000Y-135630000D03*
%TO.P,J58,12,Pin_12*%
X363521000Y-131670000D03*
%TO.P,J58,13,Pin_13*%
X363521000Y-127710000D03*
%TO.P,J58,14,Pin_14*%
X363521000Y-123750000D03*
%TO.P,J58,15,Pin_15*%
X363521000Y-116750000D03*
%TO.P,J58,16,Pin_16*%
X363521000Y-112790000D03*
%TO.P,J58,17,Pin_17*%
X363521000Y-108830000D03*
%TO.P,J58,18,Pin_18*%
X363521000Y-104870000D03*
%TO.P,J58,19,Pin_19*%
X363521000Y-100910000D03*
%TO.P,J58,20,Pin_20*%
X363521000Y-96950000D03*
%TO.P,J58,21,Pin_21*%
X363521000Y-92990000D03*
%TO.P,J58,22,Pin_22*%
X363521000Y-89030000D03*
%TO.P,J58,23,Pin_23*%
X363521000Y-85070000D03*
%TO.P,J58,24,Pin_24*%
X363521000Y-81110000D03*
%TO.P,J58,25,Pin_25*%
X363521000Y-77150000D03*
%TO.P,J58,26,Pin_26*%
X363521000Y-73190000D03*
%TO.P,J58,27,Pin_27*%
X363521000Y-69230000D03*
%TO.P,J58,28,Pin_28*%
X363521000Y-65270000D03*
%TD*%
D10*
%TO.P,J14,1,Pin_1*%
%TO.N,N/C*%
X92051000Y-123750000D03*
%TD*%
%TO.P,J20,1,Pin_1*%
%TO.N,N/C*%
X92051000Y-96950000D03*
%TD*%
%TO.P,J27,1,Pin_1*%
%TO.N,N/C*%
X92051000Y-69230000D03*
%TD*%
%TO.P,J6,1,Pin_1*%
%TO.N,N/C*%
X92051000Y-155430000D03*
%TD*%
%TO.P,J36,1,Pin_1*%
%TO.N,N/C*%
X85961000Y-143550000D03*
%TD*%
%TO.P,J41,1,Pin_1*%
%TO.N,N/C*%
X85961000Y-123750000D03*
%TD*%
%TO.P,J5,1,Pin_1*%
%TO.N,N/C*%
X92051000Y-159390000D03*
%TD*%
D11*
%TO.P,J57,1,Pin_1*%
%TO.N,N/C*%
X73631000Y-175230000D03*
%TO.P,J57,2,Pin_2*%
X73631000Y-171270000D03*
%TO.P,J57,3,Pin_3*%
X73631000Y-167310000D03*
%TO.P,J57,4,Pin_4*%
X73631000Y-163350000D03*
%TO.P,J57,5,Pin_5*%
X73631000Y-159390000D03*
%TO.P,J57,6,Pin_6*%
X73631000Y-155430000D03*
%TO.P,J57,7,Pin_7*%
X73631000Y-151470000D03*
%TO.P,J57,8,Pin_8*%
X73631000Y-147510000D03*
%TO.P,J57,9,Pin_9*%
X73631000Y-143550000D03*
%TO.P,J57,10,Pin_10*%
X73631000Y-139590000D03*
%TO.P,J57,11,Pin_11*%
X73631000Y-135630000D03*
%TO.P,J57,12,Pin_12*%
X73631000Y-131670000D03*
%TO.P,J57,13,Pin_13*%
X73631000Y-127710000D03*
%TO.P,J57,14,Pin_14*%
X73631000Y-123750000D03*
%TO.P,J57,15,Pin_15*%
X73631000Y-116750000D03*
%TO.P,J57,16,Pin_16*%
X73631000Y-112790000D03*
%TO.P,J57,17,Pin_17*%
X73631000Y-108830000D03*
%TO.P,J57,18,Pin_18*%
X73631000Y-104870000D03*
%TO.P,J57,19,Pin_19*%
X73631000Y-100910000D03*
%TO.P,J57,20,Pin_20*%
X73631000Y-96950000D03*
%TO.P,J57,21,Pin_21*%
X73631000Y-92990000D03*
%TO.P,J57,22,Pin_22*%
X73631000Y-89030000D03*
%TO.P,J57,23,Pin_23*%
X73631000Y-85070000D03*
%TO.P,J57,24,Pin_24*%
X73631000Y-81110000D03*
%TO.P,J57,25,Pin_25*%
X73631000Y-77150000D03*
%TO.P,J57,26,Pin_26*%
X73631000Y-73190000D03*
%TO.P,J57,27,Pin_27*%
X73631000Y-69230000D03*
%TO.P,J57,28,Pin_28*%
X73631000Y-65270000D03*
%TD*%
D12*
%TO.N,*%
X93851000Y-94790000D02*
X87841000Y-94790000D01*
X87841000Y-94790000D02*
X86041000Y-92990000D01*
X87781000Y-98770000D02*
X85961000Y-96950000D01*
X95651000Y-96950000D02*
X93831000Y-98770000D01*
X73631000Y-96950000D02*
X85961000Y-96950000D01*
X93831000Y-98770000D02*
X87781000Y-98770000D01*
X89521000Y-114570000D02*
X87741000Y-114570000D01*
X89541000Y-114590000D02*
X89521000Y-114570000D01*
X95651000Y-116750000D02*
X93831000Y-118570000D01*
X95651000Y-100910000D02*
X93491000Y-103070000D01*
X93491000Y-103070000D02*
X88121000Y-103070000D01*
X363521000Y-96950000D02*
X95651000Y-96950000D01*
X88121000Y-103070000D02*
X85961000Y-100910000D01*
X363521000Y-100910000D02*
X95651000Y-100910000D01*
X73631000Y-100910000D02*
X85961000Y-100910000D01*
X95651000Y-112790000D02*
X93851000Y-114590000D01*
X93831000Y-118570000D02*
X87781000Y-118570000D01*
X363521000Y-112790000D02*
X95651000Y-112790000D01*
X87761000Y-106670000D02*
X85961000Y-104870000D01*
X93851000Y-106670000D02*
X87761000Y-106670000D01*
X93851000Y-129510000D02*
X87761000Y-129510000D01*
X94171000Y-110670000D02*
X87801000Y-110670000D01*
X87761000Y-157230000D02*
X85961000Y-155430000D01*
X93851000Y-157230000D02*
X87761000Y-157230000D01*
X363521000Y-108830000D02*
X96011000Y-108830000D01*
X87741000Y-114570000D02*
X85961000Y-112790000D01*
X363521000Y-123750000D02*
X95651000Y-123750000D01*
X73631000Y-127710000D02*
X85961000Y-127710000D01*
X363521000Y-116750000D02*
X95651000Y-116750000D01*
X73631000Y-116750000D02*
X85961000Y-116750000D01*
X73631000Y-108830000D02*
X85961000Y-108830000D01*
X95651000Y-155430000D02*
X93851000Y-157230000D01*
X95651000Y-123750000D02*
X93851000Y-125550000D01*
X87761000Y-129510000D02*
X85961000Y-127710000D01*
X363521000Y-127710000D02*
X95651000Y-127710000D01*
X95651000Y-127710000D02*
X93851000Y-129510000D01*
X93851000Y-133470000D02*
X87761000Y-133470000D01*
X96011000Y-108830000D02*
X94171000Y-110670000D01*
X363521000Y-155430000D02*
X95651000Y-155430000D01*
X73631000Y-155430000D02*
X85961000Y-155430000D01*
X95651000Y-104870000D02*
X93851000Y-106670000D01*
X73631000Y-123750000D02*
X85961000Y-123750000D01*
X73631000Y-112790000D02*
X85961000Y-112790000D01*
X93851000Y-114590000D02*
X89541000Y-114590000D01*
X87801000Y-110670000D02*
X85961000Y-108830000D01*
X87781000Y-118570000D02*
X85961000Y-116750000D01*
X93851000Y-125550000D02*
X87761000Y-125550000D01*
X95651000Y-131670000D02*
X93851000Y-133470000D01*
X73631000Y-104870000D02*
X85961000Y-104870000D01*
X87761000Y-125550000D02*
X85961000Y-123750000D01*
X363521000Y-104870000D02*
X95651000Y-104870000D01*
X94121000Y-67070000D02*
X95921000Y-65270000D01*
X87761000Y-67070000D02*
X94121000Y-67070000D01*
X85961000Y-65270000D02*
X87761000Y-67070000D01*
X73631000Y-65270000D02*
X85961000Y-65270000D01*
X86041000Y-92990000D02*
X85961000Y-92990000D01*
X73631000Y-92990000D02*
X85961000Y-92990000D01*
X95651000Y-92990000D02*
X93851000Y-94790000D01*
X73631000Y-89030000D02*
X85961000Y-89030000D01*
X363521000Y-89030000D02*
X95651000Y-89030000D01*
X87781000Y-90830000D02*
X85981000Y-89030000D01*
X85981000Y-89030000D02*
X85961000Y-89030000D01*
X93851000Y-90830000D02*
X87781000Y-90830000D01*
X95651000Y-89030000D02*
X93851000Y-90830000D01*
X93921000Y-86870000D02*
X87761000Y-86870000D01*
X363521000Y-85070000D02*
X95721000Y-85070000D01*
X87761000Y-86870000D02*
X85961000Y-85070000D01*
X95721000Y-85070000D02*
X93921000Y-86870000D01*
X73631000Y-85070000D02*
X85961000Y-85070000D01*
X73631000Y-81110000D02*
X85961000Y-81110000D01*
X87761000Y-82910000D02*
X85961000Y-81110000D01*
X93851000Y-82910000D02*
X87761000Y-82910000D01*
X363521000Y-81110000D02*
X95651000Y-81110000D01*
X95651000Y-81110000D02*
X93851000Y-82910000D01*
X95651000Y-77150000D02*
X93851000Y-78950000D01*
X73631000Y-77150000D02*
X85961000Y-77150000D01*
X363521000Y-77150000D02*
X95651000Y-77150000D01*
X93851000Y-78950000D02*
X87761000Y-78950000D01*
X87761000Y-78950000D02*
X85961000Y-77150000D01*
X87761000Y-74990000D02*
X85961000Y-73190000D01*
X95651000Y-73190000D02*
X93851000Y-74990000D01*
X93851000Y-74990000D02*
X87761000Y-74990000D01*
X363521000Y-73190000D02*
X95651000Y-73190000D01*
X73631000Y-73190000D02*
X85961000Y-73190000D01*
X95781000Y-69230000D02*
X363521000Y-69230000D01*
X87761000Y-71030000D02*
X93861000Y-71030000D01*
X93861000Y-71030000D02*
X95721000Y-69170000D01*
X85961000Y-69230000D02*
X87761000Y-71030000D01*
X95721000Y-69170000D02*
X95781000Y-69230000D01*
X73631000Y-69230000D02*
X85961000Y-69230000D01*
X95921000Y-65270000D02*
X363521000Y-65270000D01*
X87761000Y-161190000D02*
X85961000Y-159390000D01*
X93851000Y-161190000D02*
X87761000Y-161190000D01*
X95651000Y-159390000D02*
X93851000Y-161190000D01*
X363521000Y-159390000D02*
X95651000Y-159390000D01*
X95651000Y-151470000D02*
X93851000Y-153270000D01*
X93851000Y-153270000D02*
X87761000Y-153270000D01*
X363521000Y-151470000D02*
X95651000Y-151470000D01*
X87761000Y-153270000D02*
X85961000Y-151470000D01*
X73631000Y-151470000D02*
X85961000Y-151470000D01*
X95651000Y-147510000D02*
X93851000Y-149310000D01*
X87761000Y-149310000D02*
X85961000Y-147510000D01*
X93851000Y-149310000D02*
X87761000Y-149310000D01*
X363521000Y-147510000D02*
X95651000Y-147510000D01*
X73631000Y-147510000D02*
X85961000Y-147510000D01*
X363521000Y-143550000D02*
X95651000Y-143550000D01*
X73631000Y-143550000D02*
X85961000Y-143550000D01*
X95651000Y-143550000D02*
X93851000Y-145350000D01*
X87761000Y-145350000D02*
X85961000Y-143550000D01*
X93851000Y-145350000D02*
X87761000Y-145350000D01*
X93641000Y-141600000D02*
X87971000Y-141600000D01*
X363521000Y-139590000D02*
X95651000Y-139590000D01*
X95651000Y-139590000D02*
X93641000Y-141600000D01*
X73631000Y-139590000D02*
X85961000Y-139590000D01*
X87971000Y-141600000D02*
X85961000Y-139590000D01*
X87761000Y-137430000D02*
X85961000Y-135630000D01*
X95651000Y-135630000D02*
X93851000Y-137430000D01*
X93851000Y-137430000D02*
X87761000Y-137430000D01*
X363521000Y-135630000D02*
X95651000Y-135630000D01*
X73631000Y-135630000D02*
X85961000Y-135630000D01*
X73631000Y-131670000D02*
X85961000Y-131670000D01*
X87761000Y-133470000D02*
X85961000Y-131670000D01*
X363521000Y-131670000D02*
X95651000Y-131670000D01*
X363521000Y-92990000D02*
X95651000Y-92990000D01*
X73631000Y-159390000D02*
X85961000Y-159390000D01*
X87761000Y-165150000D02*
X85961000Y-163350000D01*
X87761000Y-177030000D02*
X85961000Y-175230000D01*
X93631000Y-177030000D02*
X87761000Y-177030000D01*
X73631000Y-175230000D02*
X85961000Y-175230000D01*
X363521000Y-175230000D02*
X95431000Y-175230000D01*
X95431000Y-175230000D02*
X93631000Y-177030000D01*
X363521000Y-171270000D02*
X95651000Y-171270000D01*
X95651000Y-171270000D02*
X93851000Y-173070000D01*
X73631000Y-171270000D02*
X85961000Y-171270000D01*
X93851000Y-173070000D02*
X87761000Y-173070000D01*
X87761000Y-173070000D02*
X85961000Y-171270000D01*
X87761000Y-169110000D02*
X85961000Y-167310000D01*
X363521000Y-167310000D02*
X95651000Y-167310000D01*
X93851000Y-169110000D02*
X87761000Y-169110000D01*
X95651000Y-167310000D02*
X93851000Y-169110000D01*
X73631000Y-167310000D02*
X85961000Y-167310000D01*
X363521000Y-163350000D02*
X95631000Y-163350000D01*
X73631000Y-163350000D02*
X85961000Y-163350000D01*
X95631000Y-163350000D02*
X93831000Y-165150000D01*
X93831000Y-165150000D02*
X87761000Y-165150000D01*
%TD*%
M02*
