M48
; DRILL file {KiCad 8.0.2} date 2024-05-24T22:49:46+0200
; FORMAT={-:-/ absolute / inch / decimal}
; #@! TF.CreationDate,2024-05-24T22:49:46+02:00
; #@! TF.GenerationSoftware,Kicad,Pcbnew,8.0.2
; #@! TF.FileFunction,Plated,1,2,PTH
FMAT,2
INCH
; #@! TA.AperFunction,Plated,PTH,ComponentDrill
T1C0.0394
%
G90
G05
T1
X2.7453Y-1.689
X2.7453Y-1.8449
X2.7453Y-2.0008
X2.7453Y-2.1567
X2.7453Y-2.3126
X2.7453Y-2.4685
X2.7453Y-2.6244
X2.7453Y-2.7803
X2.7453Y-2.9362
X2.7453Y-3.0921
X2.7453Y-3.248
X2.7453Y-3.4039
X2.7453Y-3.5598
X2.7453Y-3.7157
X2.7453Y-3.8717
X2.7453Y-4.0276
X2.7453Y-4.1835
X2.7453Y-4.3394
X2.7453Y-4.4953
X2.7453Y-4.6512
X2.7453Y-4.8071
X2.7453Y-4.963
X2.7453Y-5.1189
X2.7453Y-5.2748
X2.7453Y-5.4307
X2.7453Y-5.5866
X2.7453Y-5.7425
X2.7453Y-5.8984
X2.7453Y-6.0543
X2.7453Y-6.2102
X2.7453Y-6.3661
X2.7453Y-6.522
X2.7453Y-6.678
X2.7453Y-6.8339
X2.7453Y-6.9898
X2.7453Y-7.1457
X2.985Y-1.689
X2.985Y-1.8449
X2.985Y-2.0008
X2.985Y-2.1567
X2.985Y-2.3126
X2.985Y-2.4685
X2.985Y-2.6244
X2.985Y-2.7803
X2.985Y-2.9362
X2.985Y-3.0921
X2.985Y-3.248
X2.985Y-3.4039
X2.985Y-3.5598
X2.985Y-3.7157
X2.985Y-3.8717
X2.985Y-4.0276
X2.985Y-4.1835
X2.985Y-4.3394
X2.985Y-4.4953
X2.985Y-4.6512
X2.985Y-4.8071
X2.985Y-4.963
X2.985Y-5.1189
X2.985Y-5.2748
X2.985Y-5.4307
X2.985Y-5.5866
X2.985Y-5.7425
X2.985Y-5.8984
X2.985Y-6.0543
X2.985Y-6.2102
X2.985Y-6.3661
X2.985Y-6.522
X2.985Y-6.678
X2.985Y-6.8339
X2.985Y-6.9898
X2.985Y-7.1457
M30
