%TF.GenerationSoftware,KiCad,Pcbnew,8.0.2*%
%TF.CreationDate,2024-05-24T22:49:43+02:00*%
%TF.ProjectId,Extender_72pin,45787465-6e64-4657-925f-373270696e2e,rev?*%
%TF.SameCoordinates,Original*%
%TF.FileFunction,Profile,NP*%
%FSLAX46Y46*%
G04 Gerber Fmt 4.6, Leading zero omitted, Abs format (unit mm)*
G04 Created by KiCad (PCBNEW 8.0.2) date 2024-05-24 22:49:43*
%MOMM*%
%LPD*%
G01*
G04 APERTURE LIST*
%TA.AperFunction,Profile*%
%ADD10C,0.050000*%
%TD*%
G04 APERTURE END LIST*
D10*
X207090000Y-277400000D02*
X52500000Y-277400000D01*
X210090000Y-205300000D02*
X210090000Y-274400000D01*
X338390000Y-205300000D02*
X210090000Y-205300000D01*
X338390000Y-185000000D02*
X338390000Y-205300000D01*
X342890000Y-185000000D02*
X338390000Y-185000000D01*
X210090000Y-274400000D02*
X207090000Y-277400000D01*
X322590000Y-26100000D02*
X52500000Y-26100000D01*
X342890000Y-39400000D02*
X325590000Y-39400000D01*
X325590000Y-29100000D02*
X325590000Y-39400000D01*
X325590000Y-29100000D02*
X322590000Y-26100000D01*
X52500000Y-26100000D02*
X52500000Y-277400000D01*
%TO.C,J1*%
X351690000Y-185000000D02*
X342890000Y-185000000D01*
X352190000Y-184500000D02*
X351690000Y-185000000D01*
X352190000Y-182800000D02*
X352190000Y-184500000D01*
X352190000Y-128050000D02*
X352190000Y-182800000D01*
X352190000Y-128030000D02*
X352190000Y-128050000D01*
X352190000Y-128030000D02*
X352190000Y-73280000D01*
X352190000Y-71780000D02*
X352190000Y-73280000D01*
X352190000Y-39900000D02*
X352190000Y-71780000D01*
X351690000Y-39400000D02*
X352190000Y-39900000D01*
X351690000Y-39400000D02*
X342890000Y-39400000D01*
%TD*%
M02*
