%TF.GenerationSoftware,KiCad,Pcbnew,8.0.2*%
%TF.CreationDate,2024-05-24T22:49:43+02:00*%
%TF.ProjectId,Extender_72pin,45787465-6e64-4657-925f-373270696e2e,rev?*%
%TF.SameCoordinates,Original*%
%TF.FileFunction,Legend,Top*%
%TF.FilePolarity,Positive*%
%FSLAX46Y46*%
G04 Gerber Fmt 4.6, Leading zero omitted, Abs format (unit mm)*
G04 Created by KiCad (PCBNEW 8.0.2) date 2024-05-24 22:49:43*
%MOMM*%
%LPD*%
G01*
G04 APERTURE LIST*
%ADD10C,0.300000*%
%ADD11C,0.100000*%
%ADD12C,0.150000*%
%ADD13C,0.120000*%
G04 APERTURE END LIST*
D10*
X210118796Y-195822971D02*
X210261653Y-195680114D01*
X210261653Y-195680114D02*
X210547368Y-195537257D01*
X210547368Y-195537257D02*
X211261653Y-195537257D01*
X211261653Y-195537257D02*
X211547368Y-195680114D01*
X211547368Y-195680114D02*
X211690225Y-195822971D01*
X211690225Y-195822971D02*
X211833082Y-196108685D01*
X211833082Y-196108685D02*
X211833082Y-196394400D01*
X211833082Y-196394400D02*
X211690225Y-196822971D01*
X211690225Y-196822971D02*
X209975939Y-198537257D01*
X209975939Y-198537257D02*
X211833082Y-198537257D01*
X213690225Y-195537257D02*
X213975939Y-195537257D01*
X213975939Y-195537257D02*
X214261653Y-195680114D01*
X214261653Y-195680114D02*
X214404511Y-195822971D01*
X214404511Y-195822971D02*
X214547368Y-196108685D01*
X214547368Y-196108685D02*
X214690225Y-196680114D01*
X214690225Y-196680114D02*
X214690225Y-197394400D01*
X214690225Y-197394400D02*
X214547368Y-197965828D01*
X214547368Y-197965828D02*
X214404511Y-198251542D01*
X214404511Y-198251542D02*
X214261653Y-198394400D01*
X214261653Y-198394400D02*
X213975939Y-198537257D01*
X213975939Y-198537257D02*
X213690225Y-198537257D01*
X213690225Y-198537257D02*
X213404511Y-198394400D01*
X213404511Y-198394400D02*
X213261653Y-198251542D01*
X213261653Y-198251542D02*
X213118796Y-197965828D01*
X213118796Y-197965828D02*
X212975939Y-197394400D01*
X212975939Y-197394400D02*
X212975939Y-196680114D01*
X212975939Y-196680114D02*
X213118796Y-196108685D01*
X213118796Y-196108685D02*
X213261653Y-195822971D01*
X213261653Y-195822971D02*
X213404511Y-195680114D01*
X213404511Y-195680114D02*
X213690225Y-195537257D01*
X215833082Y-195822971D02*
X215975939Y-195680114D01*
X215975939Y-195680114D02*
X216261654Y-195537257D01*
X216261654Y-195537257D02*
X216975939Y-195537257D01*
X216975939Y-195537257D02*
X217261654Y-195680114D01*
X217261654Y-195680114D02*
X217404511Y-195822971D01*
X217404511Y-195822971D02*
X217547368Y-196108685D01*
X217547368Y-196108685D02*
X217547368Y-196394400D01*
X217547368Y-196394400D02*
X217404511Y-196822971D01*
X217404511Y-196822971D02*
X215690225Y-198537257D01*
X215690225Y-198537257D02*
X217547368Y-198537257D01*
X220118797Y-196537257D02*
X220118797Y-198537257D01*
X219404511Y-195394400D02*
X218690225Y-197537257D01*
X218690225Y-197537257D02*
X220547368Y-197537257D01*
X168601653Y-198507257D02*
X168601653Y-195507257D01*
X168601653Y-195507257D02*
X169601653Y-197650114D01*
X169601653Y-197650114D02*
X170601653Y-195507257D01*
X170601653Y-195507257D02*
X170601653Y-198507257D01*
X173315939Y-198507257D02*
X173315939Y-196935828D01*
X173315939Y-196935828D02*
X173173081Y-196650114D01*
X173173081Y-196650114D02*
X172887367Y-196507257D01*
X172887367Y-196507257D02*
X172315939Y-196507257D01*
X172315939Y-196507257D02*
X172030224Y-196650114D01*
X173315939Y-198364400D02*
X173030224Y-198507257D01*
X173030224Y-198507257D02*
X172315939Y-198507257D01*
X172315939Y-198507257D02*
X172030224Y-198364400D01*
X172030224Y-198364400D02*
X171887367Y-198078685D01*
X171887367Y-198078685D02*
X171887367Y-197792971D01*
X171887367Y-197792971D02*
X172030224Y-197507257D01*
X172030224Y-197507257D02*
X172315939Y-197364400D01*
X172315939Y-197364400D02*
X173030224Y-197364400D01*
X173030224Y-197364400D02*
X173315939Y-197221542D01*
X174315939Y-196507257D02*
X175458796Y-196507257D01*
X174744510Y-195507257D02*
X174744510Y-198078685D01*
X174744510Y-198078685D02*
X174887367Y-198364400D01*
X174887367Y-198364400D02*
X175173082Y-198507257D01*
X175173082Y-198507257D02*
X175458796Y-198507257D01*
X176030225Y-196507257D02*
X177173082Y-196507257D01*
X176458796Y-195507257D02*
X176458796Y-198078685D01*
X176458796Y-198078685D02*
X176601653Y-198364400D01*
X176601653Y-198364400D02*
X176887368Y-198507257D01*
X176887368Y-198507257D02*
X177173082Y-198507257D01*
X178173082Y-198507257D02*
X178173082Y-196507257D01*
X178173082Y-195507257D02*
X178030225Y-195650114D01*
X178030225Y-195650114D02*
X178173082Y-195792971D01*
X178173082Y-195792971D02*
X178315939Y-195650114D01*
X178315939Y-195650114D02*
X178173082Y-195507257D01*
X178173082Y-195507257D02*
X178173082Y-195792971D01*
X179458796Y-198364400D02*
X179744510Y-198507257D01*
X179744510Y-198507257D02*
X180315939Y-198507257D01*
X180315939Y-198507257D02*
X180601653Y-198364400D01*
X180601653Y-198364400D02*
X180744510Y-198078685D01*
X180744510Y-198078685D02*
X180744510Y-197935828D01*
X180744510Y-197935828D02*
X180601653Y-197650114D01*
X180601653Y-197650114D02*
X180315939Y-197507257D01*
X180315939Y-197507257D02*
X179887368Y-197507257D01*
X179887368Y-197507257D02*
X179601653Y-197364400D01*
X179601653Y-197364400D02*
X179458796Y-197078685D01*
X179458796Y-197078685D02*
X179458796Y-196935828D01*
X179458796Y-196935828D02*
X179601653Y-196650114D01*
X179601653Y-196650114D02*
X179887368Y-196507257D01*
X179887368Y-196507257D02*
X180315939Y-196507257D01*
X180315939Y-196507257D02*
X180601653Y-196650114D01*
X185744510Y-198507257D02*
X184315938Y-198507257D01*
X184315938Y-198507257D02*
X184315938Y-195507257D01*
X186744509Y-198507257D02*
X186744509Y-196507257D01*
X186744509Y-195507257D02*
X186601652Y-195650114D01*
X186601652Y-195650114D02*
X186744509Y-195792971D01*
X186744509Y-195792971D02*
X186887366Y-195650114D01*
X186887366Y-195650114D02*
X186744509Y-195507257D01*
X186744509Y-195507257D02*
X186744509Y-195792971D01*
X188173080Y-196507257D02*
X188173080Y-198507257D01*
X188173080Y-196792971D02*
X188315937Y-196650114D01*
X188315937Y-196650114D02*
X188601652Y-196507257D01*
X188601652Y-196507257D02*
X189030223Y-196507257D01*
X189030223Y-196507257D02*
X189315937Y-196650114D01*
X189315937Y-196650114D02*
X189458795Y-196935828D01*
X189458795Y-196935828D02*
X189458795Y-198507257D01*
X192173081Y-198507257D02*
X192173081Y-195507257D01*
X192173081Y-198364400D02*
X191887366Y-198507257D01*
X191887366Y-198507257D02*
X191315938Y-198507257D01*
X191315938Y-198507257D02*
X191030223Y-198364400D01*
X191030223Y-198364400D02*
X190887366Y-198221542D01*
X190887366Y-198221542D02*
X190744509Y-197935828D01*
X190744509Y-197935828D02*
X190744509Y-197078685D01*
X190744509Y-197078685D02*
X190887366Y-196792971D01*
X190887366Y-196792971D02*
X191030223Y-196650114D01*
X191030223Y-196650114D02*
X191315938Y-196507257D01*
X191315938Y-196507257D02*
X191887366Y-196507257D01*
X191887366Y-196507257D02*
X192173081Y-196650114D01*
X171225939Y-29697257D02*
X171797368Y-31697257D01*
X171797368Y-31697257D02*
X172368796Y-30268685D01*
X172368796Y-30268685D02*
X172940225Y-31697257D01*
X172940225Y-31697257D02*
X173511653Y-29697257D01*
X174368796Y-29697257D02*
X174940225Y-31697257D01*
X174940225Y-31697257D02*
X175511653Y-30268685D01*
X175511653Y-30268685D02*
X176083082Y-31697257D01*
X176083082Y-31697257D02*
X176654510Y-29697257D01*
X177511653Y-29697257D02*
X178083082Y-31697257D01*
X178083082Y-31697257D02*
X178654510Y-30268685D01*
X178654510Y-30268685D02*
X179225939Y-31697257D01*
X179225939Y-31697257D02*
X179797367Y-29697257D01*
X180940224Y-31411542D02*
X181083081Y-31554400D01*
X181083081Y-31554400D02*
X180940224Y-31697257D01*
X180940224Y-31697257D02*
X180797367Y-31554400D01*
X180797367Y-31554400D02*
X180940224Y-31411542D01*
X180940224Y-31411542D02*
X180940224Y-31697257D01*
X183654510Y-31697257D02*
X183654510Y-28697257D01*
X183654510Y-31554400D02*
X183368795Y-31697257D01*
X183368795Y-31697257D02*
X182797367Y-31697257D01*
X182797367Y-31697257D02*
X182511652Y-31554400D01*
X182511652Y-31554400D02*
X182368795Y-31411542D01*
X182368795Y-31411542D02*
X182225938Y-31125828D01*
X182225938Y-31125828D02*
X182225938Y-30268685D01*
X182225938Y-30268685D02*
X182368795Y-29982971D01*
X182368795Y-29982971D02*
X182511652Y-29840114D01*
X182511652Y-29840114D02*
X182797367Y-29697257D01*
X182797367Y-29697257D02*
X183368795Y-29697257D01*
X183368795Y-29697257D02*
X183654510Y-29840114D01*
X186368796Y-31697257D02*
X186368796Y-30125828D01*
X186368796Y-30125828D02*
X186225938Y-29840114D01*
X186225938Y-29840114D02*
X185940224Y-29697257D01*
X185940224Y-29697257D02*
X185368796Y-29697257D01*
X185368796Y-29697257D02*
X185083081Y-29840114D01*
X186368796Y-31554400D02*
X186083081Y-31697257D01*
X186083081Y-31697257D02*
X185368796Y-31697257D01*
X185368796Y-31697257D02*
X185083081Y-31554400D01*
X185083081Y-31554400D02*
X184940224Y-31268685D01*
X184940224Y-31268685D02*
X184940224Y-30982971D01*
X184940224Y-30982971D02*
X185083081Y-30697257D01*
X185083081Y-30697257D02*
X185368796Y-30554400D01*
X185368796Y-30554400D02*
X186083081Y-30554400D01*
X186083081Y-30554400D02*
X186368796Y-30411542D01*
X187368796Y-29697257D02*
X188511653Y-29697257D01*
X187797367Y-28697257D02*
X187797367Y-31268685D01*
X187797367Y-31268685D02*
X187940224Y-31554400D01*
X187940224Y-31554400D02*
X188225939Y-31697257D01*
X188225939Y-31697257D02*
X188511653Y-31697257D01*
X189940225Y-31697257D02*
X189654510Y-31554400D01*
X189654510Y-31554400D02*
X189511653Y-31411542D01*
X189511653Y-31411542D02*
X189368796Y-31125828D01*
X189368796Y-31125828D02*
X189368796Y-30268685D01*
X189368796Y-30268685D02*
X189511653Y-29982971D01*
X189511653Y-29982971D02*
X189654510Y-29840114D01*
X189654510Y-29840114D02*
X189940225Y-29697257D01*
X189940225Y-29697257D02*
X190368796Y-29697257D01*
X190368796Y-29697257D02*
X190654510Y-29840114D01*
X190654510Y-29840114D02*
X190797368Y-29982971D01*
X190797368Y-29982971D02*
X190940225Y-30268685D01*
X190940225Y-30268685D02*
X190940225Y-31125828D01*
X190940225Y-31125828D02*
X190797368Y-31411542D01*
X190797368Y-31411542D02*
X190654510Y-31554400D01*
X190654510Y-31554400D02*
X190368796Y-31697257D01*
X190368796Y-31697257D02*
X189940225Y-31697257D01*
X192225939Y-31697257D02*
X192225939Y-29697257D01*
X192225939Y-30268685D02*
X192368796Y-29982971D01*
X192368796Y-29982971D02*
X192511654Y-29840114D01*
X192511654Y-29840114D02*
X192797368Y-29697257D01*
X192797368Y-29697257D02*
X193083082Y-29697257D01*
X194083082Y-31697257D02*
X194083082Y-29697257D01*
X194083082Y-29982971D02*
X194225939Y-29840114D01*
X194225939Y-29840114D02*
X194511654Y-29697257D01*
X194511654Y-29697257D02*
X194940225Y-29697257D01*
X194940225Y-29697257D02*
X195225939Y-29840114D01*
X195225939Y-29840114D02*
X195368797Y-30125828D01*
X195368797Y-30125828D02*
X195368797Y-31697257D01*
X195368797Y-30125828D02*
X195511654Y-29840114D01*
X195511654Y-29840114D02*
X195797368Y-29697257D01*
X195797368Y-29697257D02*
X196225939Y-29697257D01*
X196225939Y-29697257D02*
X196511654Y-29840114D01*
X196511654Y-29840114D02*
X196654511Y-30125828D01*
X196654511Y-30125828D02*
X196654511Y-31697257D01*
X199368797Y-29697257D02*
X199368797Y-31697257D01*
X198083082Y-29697257D02*
X198083082Y-31268685D01*
X198083082Y-31268685D02*
X198225939Y-31554400D01*
X198225939Y-31554400D02*
X198511654Y-31697257D01*
X198511654Y-31697257D02*
X198940225Y-31697257D01*
X198940225Y-31697257D02*
X199225939Y-31554400D01*
X199225939Y-31554400D02*
X199368797Y-31411542D01*
X200654511Y-31554400D02*
X200940225Y-31697257D01*
X200940225Y-31697257D02*
X201511654Y-31697257D01*
X201511654Y-31697257D02*
X201797368Y-31554400D01*
X201797368Y-31554400D02*
X201940225Y-31268685D01*
X201940225Y-31268685D02*
X201940225Y-31125828D01*
X201940225Y-31125828D02*
X201797368Y-30840114D01*
X201797368Y-30840114D02*
X201511654Y-30697257D01*
X201511654Y-30697257D02*
X201083083Y-30697257D01*
X201083083Y-30697257D02*
X200797368Y-30554400D01*
X200797368Y-30554400D02*
X200654511Y-30268685D01*
X200654511Y-30268685D02*
X200654511Y-30125828D01*
X200654511Y-30125828D02*
X200797368Y-29840114D01*
X200797368Y-29840114D02*
X201083083Y-29697257D01*
X201083083Y-29697257D02*
X201511654Y-29697257D01*
X201511654Y-29697257D02*
X201797368Y-29840114D01*
X204368796Y-31554400D02*
X204083082Y-31697257D01*
X204083082Y-31697257D02*
X203511654Y-31697257D01*
X203511654Y-31697257D02*
X203225939Y-31554400D01*
X203225939Y-31554400D02*
X203083082Y-31268685D01*
X203083082Y-31268685D02*
X203083082Y-30125828D01*
X203083082Y-30125828D02*
X203225939Y-29840114D01*
X203225939Y-29840114D02*
X203511654Y-29697257D01*
X203511654Y-29697257D02*
X204083082Y-29697257D01*
X204083082Y-29697257D02*
X204368796Y-29840114D01*
X204368796Y-29840114D02*
X204511654Y-30125828D01*
X204511654Y-30125828D02*
X204511654Y-30411542D01*
X204511654Y-30411542D02*
X203083082Y-30697257D01*
X207083083Y-29697257D02*
X207083083Y-31697257D01*
X205797368Y-29697257D02*
X205797368Y-31268685D01*
X205797368Y-31268685D02*
X205940225Y-31554400D01*
X205940225Y-31554400D02*
X206225940Y-31697257D01*
X206225940Y-31697257D02*
X206654511Y-31697257D01*
X206654511Y-31697257D02*
X206940225Y-31554400D01*
X206940225Y-31554400D02*
X207083083Y-31411542D01*
X208511654Y-31697257D02*
X208511654Y-29697257D01*
X208511654Y-29982971D02*
X208654511Y-29840114D01*
X208654511Y-29840114D02*
X208940226Y-29697257D01*
X208940226Y-29697257D02*
X209368797Y-29697257D01*
X209368797Y-29697257D02*
X209654511Y-29840114D01*
X209654511Y-29840114D02*
X209797369Y-30125828D01*
X209797369Y-30125828D02*
X209797369Y-31697257D01*
X209797369Y-30125828D02*
X209940226Y-29840114D01*
X209940226Y-29840114D02*
X210225940Y-29697257D01*
X210225940Y-29697257D02*
X210654511Y-29697257D01*
X210654511Y-29697257D02*
X210940226Y-29840114D01*
X210940226Y-29840114D02*
X211083083Y-30125828D01*
X211083083Y-30125828D02*
X211083083Y-31697257D01*
X212511654Y-31411542D02*
X212654511Y-31554400D01*
X212654511Y-31554400D02*
X212511654Y-31697257D01*
X212511654Y-31697257D02*
X212368797Y-31554400D01*
X212368797Y-31554400D02*
X212511654Y-31411542D01*
X212511654Y-31411542D02*
X212511654Y-31697257D01*
X213797368Y-31554400D02*
X214083082Y-31697257D01*
X214083082Y-31697257D02*
X214654511Y-31697257D01*
X214654511Y-31697257D02*
X214940225Y-31554400D01*
X214940225Y-31554400D02*
X215083082Y-31268685D01*
X215083082Y-31268685D02*
X215083082Y-31125828D01*
X215083082Y-31125828D02*
X214940225Y-30840114D01*
X214940225Y-30840114D02*
X214654511Y-30697257D01*
X214654511Y-30697257D02*
X214225940Y-30697257D01*
X214225940Y-30697257D02*
X213940225Y-30554400D01*
X213940225Y-30554400D02*
X213797368Y-30268685D01*
X213797368Y-30268685D02*
X213797368Y-30125828D01*
X213797368Y-30125828D02*
X213940225Y-29840114D01*
X213940225Y-29840114D02*
X214225940Y-29697257D01*
X214225940Y-29697257D02*
X214654511Y-29697257D01*
X214654511Y-29697257D02*
X214940225Y-29840114D01*
X217511653Y-31554400D02*
X217225939Y-31697257D01*
X217225939Y-31697257D02*
X216654511Y-31697257D01*
X216654511Y-31697257D02*
X216368796Y-31554400D01*
X216368796Y-31554400D02*
X216225939Y-31268685D01*
X216225939Y-31268685D02*
X216225939Y-30125828D01*
X216225939Y-30125828D02*
X216368796Y-29840114D01*
X216368796Y-29840114D02*
X216654511Y-29697257D01*
X216654511Y-29697257D02*
X217225939Y-29697257D01*
X217225939Y-29697257D02*
X217511653Y-29840114D01*
X217511653Y-29840114D02*
X217654511Y-30125828D01*
X217654511Y-30125828D02*
X217654511Y-30411542D01*
X217654511Y-30411542D02*
X216225939Y-30697257D01*
X135161653Y-38287257D02*
X135161653Y-35287257D01*
X135161653Y-35287257D02*
X135875939Y-35287257D01*
X135875939Y-35287257D02*
X136304510Y-35430114D01*
X136304510Y-35430114D02*
X136590225Y-35715828D01*
X136590225Y-35715828D02*
X136733082Y-36001542D01*
X136733082Y-36001542D02*
X136875939Y-36572971D01*
X136875939Y-36572971D02*
X136875939Y-37001542D01*
X136875939Y-37001542D02*
X136733082Y-37572971D01*
X136733082Y-37572971D02*
X136590225Y-37858685D01*
X136590225Y-37858685D02*
X136304510Y-38144400D01*
X136304510Y-38144400D02*
X135875939Y-38287257D01*
X135875939Y-38287257D02*
X135161653Y-38287257D01*
X139447368Y-38287257D02*
X139447368Y-36715828D01*
X139447368Y-36715828D02*
X139304510Y-36430114D01*
X139304510Y-36430114D02*
X139018796Y-36287257D01*
X139018796Y-36287257D02*
X138447368Y-36287257D01*
X138447368Y-36287257D02*
X138161653Y-36430114D01*
X139447368Y-38144400D02*
X139161653Y-38287257D01*
X139161653Y-38287257D02*
X138447368Y-38287257D01*
X138447368Y-38287257D02*
X138161653Y-38144400D01*
X138161653Y-38144400D02*
X138018796Y-37858685D01*
X138018796Y-37858685D02*
X138018796Y-37572971D01*
X138018796Y-37572971D02*
X138161653Y-37287257D01*
X138161653Y-37287257D02*
X138447368Y-37144400D01*
X138447368Y-37144400D02*
X139161653Y-37144400D01*
X139161653Y-37144400D02*
X139447368Y-37001542D01*
X140447368Y-36287257D02*
X141590225Y-36287257D01*
X140875939Y-35287257D02*
X140875939Y-37858685D01*
X140875939Y-37858685D02*
X141018796Y-38144400D01*
X141018796Y-38144400D02*
X141304511Y-38287257D01*
X141304511Y-38287257D02*
X141590225Y-38287257D01*
X143875940Y-38287257D02*
X143875940Y-36715828D01*
X143875940Y-36715828D02*
X143733082Y-36430114D01*
X143733082Y-36430114D02*
X143447368Y-36287257D01*
X143447368Y-36287257D02*
X142875940Y-36287257D01*
X142875940Y-36287257D02*
X142590225Y-36430114D01*
X143875940Y-38144400D02*
X143590225Y-38287257D01*
X143590225Y-38287257D02*
X142875940Y-38287257D01*
X142875940Y-38287257D02*
X142590225Y-38144400D01*
X142590225Y-38144400D02*
X142447368Y-37858685D01*
X142447368Y-37858685D02*
X142447368Y-37572971D01*
X142447368Y-37572971D02*
X142590225Y-37287257D01*
X142590225Y-37287257D02*
X142875940Y-37144400D01*
X142875940Y-37144400D02*
X143590225Y-37144400D01*
X143590225Y-37144400D02*
X143875940Y-37001542D01*
X145304511Y-36287257D02*
X145304511Y-39287257D01*
X145304511Y-36430114D02*
X145590226Y-36287257D01*
X145590226Y-36287257D02*
X146161654Y-36287257D01*
X146161654Y-36287257D02*
X146447368Y-36430114D01*
X146447368Y-36430114D02*
X146590226Y-36572971D01*
X146590226Y-36572971D02*
X146733083Y-36858685D01*
X146733083Y-36858685D02*
X146733083Y-37715828D01*
X146733083Y-37715828D02*
X146590226Y-38001542D01*
X146590226Y-38001542D02*
X146447368Y-38144400D01*
X146447368Y-38144400D02*
X146161654Y-38287257D01*
X146161654Y-38287257D02*
X145590226Y-38287257D01*
X145590226Y-38287257D02*
X145304511Y-38144400D01*
X148447369Y-38287257D02*
X148161654Y-38144400D01*
X148161654Y-38144400D02*
X148018797Y-38001542D01*
X148018797Y-38001542D02*
X147875940Y-37715828D01*
X147875940Y-37715828D02*
X147875940Y-36858685D01*
X147875940Y-36858685D02*
X148018797Y-36572971D01*
X148018797Y-36572971D02*
X148161654Y-36430114D01*
X148161654Y-36430114D02*
X148447369Y-36287257D01*
X148447369Y-36287257D02*
X148875940Y-36287257D01*
X148875940Y-36287257D02*
X149161654Y-36430114D01*
X149161654Y-36430114D02*
X149304512Y-36572971D01*
X149304512Y-36572971D02*
X149447369Y-36858685D01*
X149447369Y-36858685D02*
X149447369Y-37715828D01*
X149447369Y-37715828D02*
X149304512Y-38001542D01*
X149304512Y-38001542D02*
X149161654Y-38144400D01*
X149161654Y-38144400D02*
X148875940Y-38287257D01*
X148875940Y-38287257D02*
X148447369Y-38287257D01*
X150733083Y-38287257D02*
X150733083Y-36287257D01*
X150733083Y-35287257D02*
X150590226Y-35430114D01*
X150590226Y-35430114D02*
X150733083Y-35572971D01*
X150733083Y-35572971D02*
X150875940Y-35430114D01*
X150875940Y-35430114D02*
X150733083Y-35287257D01*
X150733083Y-35287257D02*
X150733083Y-35572971D01*
X152161654Y-36287257D02*
X152161654Y-38287257D01*
X152161654Y-36572971D02*
X152304511Y-36430114D01*
X152304511Y-36430114D02*
X152590226Y-36287257D01*
X152590226Y-36287257D02*
X153018797Y-36287257D01*
X153018797Y-36287257D02*
X153304511Y-36430114D01*
X153304511Y-36430114D02*
X153447369Y-36715828D01*
X153447369Y-36715828D02*
X153447369Y-38287257D01*
X154447369Y-36287257D02*
X155590226Y-36287257D01*
X154875940Y-35287257D02*
X154875940Y-37858685D01*
X154875940Y-37858685D02*
X155018797Y-38144400D01*
X155018797Y-38144400D02*
X155304512Y-38287257D01*
X155304512Y-38287257D02*
X155590226Y-38287257D01*
X158733083Y-35572971D02*
X158875940Y-35430114D01*
X158875940Y-35430114D02*
X159161655Y-35287257D01*
X159161655Y-35287257D02*
X159875940Y-35287257D01*
X159875940Y-35287257D02*
X160161655Y-35430114D01*
X160161655Y-35430114D02*
X160304512Y-35572971D01*
X160304512Y-35572971D02*
X160447369Y-35858685D01*
X160447369Y-35858685D02*
X160447369Y-36144400D01*
X160447369Y-36144400D02*
X160304512Y-36572971D01*
X160304512Y-36572971D02*
X158590226Y-38287257D01*
X158590226Y-38287257D02*
X160447369Y-38287257D01*
X161590226Y-35572971D02*
X161733083Y-35430114D01*
X161733083Y-35430114D02*
X162018798Y-35287257D01*
X162018798Y-35287257D02*
X162733083Y-35287257D01*
X162733083Y-35287257D02*
X163018798Y-35430114D01*
X163018798Y-35430114D02*
X163161655Y-35572971D01*
X163161655Y-35572971D02*
X163304512Y-35858685D01*
X163304512Y-35858685D02*
X163304512Y-36144400D01*
X163304512Y-36144400D02*
X163161655Y-36572971D01*
X163161655Y-36572971D02*
X161447369Y-38287257D01*
X161447369Y-38287257D02*
X163304512Y-38287257D01*
X165161655Y-35287257D02*
X165447369Y-35287257D01*
X165447369Y-35287257D02*
X165733083Y-35430114D01*
X165733083Y-35430114D02*
X165875941Y-35572971D01*
X165875941Y-35572971D02*
X166018798Y-35858685D01*
X166018798Y-35858685D02*
X166161655Y-36430114D01*
X166161655Y-36430114D02*
X166161655Y-37144400D01*
X166161655Y-37144400D02*
X166018798Y-37715828D01*
X166018798Y-37715828D02*
X165875941Y-38001542D01*
X165875941Y-38001542D02*
X165733083Y-38144400D01*
X165733083Y-38144400D02*
X165447369Y-38287257D01*
X165447369Y-38287257D02*
X165161655Y-38287257D01*
X165161655Y-38287257D02*
X164875941Y-38144400D01*
X164875941Y-38144400D02*
X164733083Y-38001542D01*
X164733083Y-38001542D02*
X164590226Y-37715828D01*
X164590226Y-37715828D02*
X164447369Y-37144400D01*
X164447369Y-37144400D02*
X164447369Y-36430114D01*
X164447369Y-36430114D02*
X164590226Y-35858685D01*
X164590226Y-35858685D02*
X164733083Y-35572971D01*
X164733083Y-35572971D02*
X164875941Y-35430114D01*
X164875941Y-35430114D02*
X165161655Y-35287257D01*
X168018798Y-35287257D02*
X168304512Y-35287257D01*
X168304512Y-35287257D02*
X168590226Y-35430114D01*
X168590226Y-35430114D02*
X168733084Y-35572971D01*
X168733084Y-35572971D02*
X168875941Y-35858685D01*
X168875941Y-35858685D02*
X169018798Y-36430114D01*
X169018798Y-36430114D02*
X169018798Y-37144400D01*
X169018798Y-37144400D02*
X168875941Y-37715828D01*
X168875941Y-37715828D02*
X168733084Y-38001542D01*
X168733084Y-38001542D02*
X168590226Y-38144400D01*
X168590226Y-38144400D02*
X168304512Y-38287257D01*
X168304512Y-38287257D02*
X168018798Y-38287257D01*
X168018798Y-38287257D02*
X167733084Y-38144400D01*
X167733084Y-38144400D02*
X167590226Y-38001542D01*
X167590226Y-38001542D02*
X167447369Y-37715828D01*
X167447369Y-37715828D02*
X167304512Y-37144400D01*
X167304512Y-37144400D02*
X167304512Y-36430114D01*
X167304512Y-36430114D02*
X167447369Y-35858685D01*
X167447369Y-35858685D02*
X167590226Y-35572971D01*
X167590226Y-35572971D02*
X167733084Y-35430114D01*
X167733084Y-35430114D02*
X168018798Y-35287257D01*
X172304512Y-35287257D02*
X174304512Y-35287257D01*
X174304512Y-35287257D02*
X173018798Y-38287257D01*
X175304512Y-35572971D02*
X175447369Y-35430114D01*
X175447369Y-35430114D02*
X175733084Y-35287257D01*
X175733084Y-35287257D02*
X176447369Y-35287257D01*
X176447369Y-35287257D02*
X176733084Y-35430114D01*
X176733084Y-35430114D02*
X176875941Y-35572971D01*
X176875941Y-35572971D02*
X177018798Y-35858685D01*
X177018798Y-35858685D02*
X177018798Y-36144400D01*
X177018798Y-36144400D02*
X176875941Y-36572971D01*
X176875941Y-36572971D02*
X175161655Y-38287257D01*
X175161655Y-38287257D02*
X177018798Y-38287257D01*
X180590226Y-36287257D02*
X180590226Y-39287257D01*
X180590226Y-36430114D02*
X180875941Y-36287257D01*
X180875941Y-36287257D02*
X181447369Y-36287257D01*
X181447369Y-36287257D02*
X181733083Y-36430114D01*
X181733083Y-36430114D02*
X181875941Y-36572971D01*
X181875941Y-36572971D02*
X182018798Y-36858685D01*
X182018798Y-36858685D02*
X182018798Y-37715828D01*
X182018798Y-37715828D02*
X181875941Y-38001542D01*
X181875941Y-38001542D02*
X181733083Y-38144400D01*
X181733083Y-38144400D02*
X181447369Y-38287257D01*
X181447369Y-38287257D02*
X180875941Y-38287257D01*
X180875941Y-38287257D02*
X180590226Y-38144400D01*
X183304512Y-38287257D02*
X183304512Y-36287257D01*
X183304512Y-35287257D02*
X183161655Y-35430114D01*
X183161655Y-35430114D02*
X183304512Y-35572971D01*
X183304512Y-35572971D02*
X183447369Y-35430114D01*
X183447369Y-35430114D02*
X183304512Y-35287257D01*
X183304512Y-35287257D02*
X183304512Y-35572971D01*
X184733083Y-36287257D02*
X184733083Y-38287257D01*
X184733083Y-36572971D02*
X184875940Y-36430114D01*
X184875940Y-36430114D02*
X185161655Y-36287257D01*
X185161655Y-36287257D02*
X185590226Y-36287257D01*
X185590226Y-36287257D02*
X185875940Y-36430114D01*
X185875940Y-36430114D02*
X186018798Y-36715828D01*
X186018798Y-36715828D02*
X186018798Y-38287257D01*
X190875940Y-38144400D02*
X190590226Y-38287257D01*
X190590226Y-38287257D02*
X190018798Y-38287257D01*
X190018798Y-38287257D02*
X189733083Y-38144400D01*
X189733083Y-38144400D02*
X189590226Y-37858685D01*
X189590226Y-37858685D02*
X189590226Y-36715828D01*
X189590226Y-36715828D02*
X189733083Y-36430114D01*
X189733083Y-36430114D02*
X190018798Y-36287257D01*
X190018798Y-36287257D02*
X190590226Y-36287257D01*
X190590226Y-36287257D02*
X190875940Y-36430114D01*
X190875940Y-36430114D02*
X191018798Y-36715828D01*
X191018798Y-36715828D02*
X191018798Y-37001542D01*
X191018798Y-37001542D02*
X189590226Y-37287257D01*
X192018798Y-38287257D02*
X193590227Y-36287257D01*
X192018798Y-36287257D02*
X193590227Y-38287257D01*
X194304512Y-36287257D02*
X195447369Y-36287257D01*
X194733083Y-35287257D02*
X194733083Y-37858685D01*
X194733083Y-37858685D02*
X194875940Y-38144400D01*
X194875940Y-38144400D02*
X195161655Y-38287257D01*
X195161655Y-38287257D02*
X195447369Y-38287257D01*
X197590226Y-38144400D02*
X197304512Y-38287257D01*
X197304512Y-38287257D02*
X196733084Y-38287257D01*
X196733084Y-38287257D02*
X196447369Y-38144400D01*
X196447369Y-38144400D02*
X196304512Y-37858685D01*
X196304512Y-37858685D02*
X196304512Y-36715828D01*
X196304512Y-36715828D02*
X196447369Y-36430114D01*
X196447369Y-36430114D02*
X196733084Y-36287257D01*
X196733084Y-36287257D02*
X197304512Y-36287257D01*
X197304512Y-36287257D02*
X197590226Y-36430114D01*
X197590226Y-36430114D02*
X197733084Y-36715828D01*
X197733084Y-36715828D02*
X197733084Y-37001542D01*
X197733084Y-37001542D02*
X196304512Y-37287257D01*
X199018798Y-36287257D02*
X199018798Y-38287257D01*
X199018798Y-36572971D02*
X199161655Y-36430114D01*
X199161655Y-36430114D02*
X199447370Y-36287257D01*
X199447370Y-36287257D02*
X199875941Y-36287257D01*
X199875941Y-36287257D02*
X200161655Y-36430114D01*
X200161655Y-36430114D02*
X200304513Y-36715828D01*
X200304513Y-36715828D02*
X200304513Y-38287257D01*
X203018799Y-38287257D02*
X203018799Y-35287257D01*
X203018799Y-38144400D02*
X202733084Y-38287257D01*
X202733084Y-38287257D02*
X202161656Y-38287257D01*
X202161656Y-38287257D02*
X201875941Y-38144400D01*
X201875941Y-38144400D02*
X201733084Y-38001542D01*
X201733084Y-38001542D02*
X201590227Y-37715828D01*
X201590227Y-37715828D02*
X201590227Y-36858685D01*
X201590227Y-36858685D02*
X201733084Y-36572971D01*
X201733084Y-36572971D02*
X201875941Y-36430114D01*
X201875941Y-36430114D02*
X202161656Y-36287257D01*
X202161656Y-36287257D02*
X202733084Y-36287257D01*
X202733084Y-36287257D02*
X203018799Y-36430114D01*
X205590227Y-38144400D02*
X205304513Y-38287257D01*
X205304513Y-38287257D02*
X204733085Y-38287257D01*
X204733085Y-38287257D02*
X204447370Y-38144400D01*
X204447370Y-38144400D02*
X204304513Y-37858685D01*
X204304513Y-37858685D02*
X204304513Y-36715828D01*
X204304513Y-36715828D02*
X204447370Y-36430114D01*
X204447370Y-36430114D02*
X204733085Y-36287257D01*
X204733085Y-36287257D02*
X205304513Y-36287257D01*
X205304513Y-36287257D02*
X205590227Y-36430114D01*
X205590227Y-36430114D02*
X205733085Y-36715828D01*
X205733085Y-36715828D02*
X205733085Y-37001542D01*
X205733085Y-37001542D02*
X204304513Y-37287257D01*
X207018799Y-38287257D02*
X207018799Y-36287257D01*
X207018799Y-36858685D02*
X207161656Y-36572971D01*
X207161656Y-36572971D02*
X207304514Y-36430114D01*
X207304514Y-36430114D02*
X207590228Y-36287257D01*
X207590228Y-36287257D02*
X207875942Y-36287257D01*
X208875942Y-38287257D02*
X208875942Y-35287257D01*
X208875942Y-36430114D02*
X209161657Y-36287257D01*
X209161657Y-36287257D02*
X209733085Y-36287257D01*
X209733085Y-36287257D02*
X210018799Y-36430114D01*
X210018799Y-36430114D02*
X210161657Y-36572971D01*
X210161657Y-36572971D02*
X210304514Y-36858685D01*
X210304514Y-36858685D02*
X210304514Y-37715828D01*
X210304514Y-37715828D02*
X210161657Y-38001542D01*
X210161657Y-38001542D02*
X210018799Y-38144400D01*
X210018799Y-38144400D02*
X209733085Y-38287257D01*
X209733085Y-38287257D02*
X209161657Y-38287257D01*
X209161657Y-38287257D02*
X208875942Y-38144400D01*
X212018800Y-38287257D02*
X211733085Y-38144400D01*
X211733085Y-38144400D02*
X211590228Y-38001542D01*
X211590228Y-38001542D02*
X211447371Y-37715828D01*
X211447371Y-37715828D02*
X211447371Y-36858685D01*
X211447371Y-36858685D02*
X211590228Y-36572971D01*
X211590228Y-36572971D02*
X211733085Y-36430114D01*
X211733085Y-36430114D02*
X212018800Y-36287257D01*
X212018800Y-36287257D02*
X212447371Y-36287257D01*
X212447371Y-36287257D02*
X212733085Y-36430114D01*
X212733085Y-36430114D02*
X212875943Y-36572971D01*
X212875943Y-36572971D02*
X213018800Y-36858685D01*
X213018800Y-36858685D02*
X213018800Y-37715828D01*
X213018800Y-37715828D02*
X212875943Y-38001542D01*
X212875943Y-38001542D02*
X212733085Y-38144400D01*
X212733085Y-38144400D02*
X212447371Y-38287257D01*
X212447371Y-38287257D02*
X212018800Y-38287257D01*
X215590229Y-38287257D02*
X215590229Y-36715828D01*
X215590229Y-36715828D02*
X215447371Y-36430114D01*
X215447371Y-36430114D02*
X215161657Y-36287257D01*
X215161657Y-36287257D02*
X214590229Y-36287257D01*
X214590229Y-36287257D02*
X214304514Y-36430114D01*
X215590229Y-38144400D02*
X215304514Y-38287257D01*
X215304514Y-38287257D02*
X214590229Y-38287257D01*
X214590229Y-38287257D02*
X214304514Y-38144400D01*
X214304514Y-38144400D02*
X214161657Y-37858685D01*
X214161657Y-37858685D02*
X214161657Y-37572971D01*
X214161657Y-37572971D02*
X214304514Y-37287257D01*
X214304514Y-37287257D02*
X214590229Y-37144400D01*
X214590229Y-37144400D02*
X215304514Y-37144400D01*
X215304514Y-37144400D02*
X215590229Y-37001542D01*
X217018800Y-38287257D02*
X217018800Y-36287257D01*
X217018800Y-36858685D02*
X217161657Y-36572971D01*
X217161657Y-36572971D02*
X217304515Y-36430114D01*
X217304515Y-36430114D02*
X217590229Y-36287257D01*
X217590229Y-36287257D02*
X217875943Y-36287257D01*
X220161658Y-38287257D02*
X220161658Y-35287257D01*
X220161658Y-38144400D02*
X219875943Y-38287257D01*
X219875943Y-38287257D02*
X219304515Y-38287257D01*
X219304515Y-38287257D02*
X219018800Y-38144400D01*
X219018800Y-38144400D02*
X218875943Y-38001542D01*
X218875943Y-38001542D02*
X218733086Y-37715828D01*
X218733086Y-37715828D02*
X218733086Y-36858685D01*
X218733086Y-36858685D02*
X218875943Y-36572971D01*
X218875943Y-36572971D02*
X219018800Y-36430114D01*
X219018800Y-36430114D02*
X219304515Y-36287257D01*
X219304515Y-36287257D02*
X219875943Y-36287257D01*
X219875943Y-36287257D02*
X220161658Y-36430114D01*
X223447372Y-36287257D02*
X224590229Y-36287257D01*
X223875943Y-38287257D02*
X223875943Y-35715828D01*
X223875943Y-35715828D02*
X224018800Y-35430114D01*
X224018800Y-35430114D02*
X224304515Y-35287257D01*
X224304515Y-35287257D02*
X224590229Y-35287257D01*
X226018801Y-38287257D02*
X225733086Y-38144400D01*
X225733086Y-38144400D02*
X225590229Y-38001542D01*
X225590229Y-38001542D02*
X225447372Y-37715828D01*
X225447372Y-37715828D02*
X225447372Y-36858685D01*
X225447372Y-36858685D02*
X225590229Y-36572971D01*
X225590229Y-36572971D02*
X225733086Y-36430114D01*
X225733086Y-36430114D02*
X226018801Y-36287257D01*
X226018801Y-36287257D02*
X226447372Y-36287257D01*
X226447372Y-36287257D02*
X226733086Y-36430114D01*
X226733086Y-36430114D02*
X226875944Y-36572971D01*
X226875944Y-36572971D02*
X227018801Y-36858685D01*
X227018801Y-36858685D02*
X227018801Y-37715828D01*
X227018801Y-37715828D02*
X226875944Y-38001542D01*
X226875944Y-38001542D02*
X226733086Y-38144400D01*
X226733086Y-38144400D02*
X226447372Y-38287257D01*
X226447372Y-38287257D02*
X226018801Y-38287257D01*
X228304515Y-38287257D02*
X228304515Y-36287257D01*
X228304515Y-36858685D02*
X228447372Y-36572971D01*
X228447372Y-36572971D02*
X228590230Y-36430114D01*
X228590230Y-36430114D02*
X228875944Y-36287257D01*
X228875944Y-36287257D02*
X229161658Y-36287257D01*
X232304515Y-38144400D02*
X232590229Y-38287257D01*
X232590229Y-38287257D02*
X233161658Y-38287257D01*
X233161658Y-38287257D02*
X233447372Y-38144400D01*
X233447372Y-38144400D02*
X233590229Y-37858685D01*
X233590229Y-37858685D02*
X233590229Y-37715828D01*
X233590229Y-37715828D02*
X233447372Y-37430114D01*
X233447372Y-37430114D02*
X233161658Y-37287257D01*
X233161658Y-37287257D02*
X232733087Y-37287257D01*
X232733087Y-37287257D02*
X232447372Y-37144400D01*
X232447372Y-37144400D02*
X232304515Y-36858685D01*
X232304515Y-36858685D02*
X232304515Y-36715828D01*
X232304515Y-36715828D02*
X232447372Y-36430114D01*
X232447372Y-36430114D02*
X232733087Y-36287257D01*
X232733087Y-36287257D02*
X233161658Y-36287257D01*
X233161658Y-36287257D02*
X233447372Y-36430114D01*
X235304515Y-38287257D02*
X235018800Y-38144400D01*
X235018800Y-38144400D02*
X234875943Y-37858685D01*
X234875943Y-37858685D02*
X234875943Y-35287257D01*
X236875944Y-38287257D02*
X236590229Y-38144400D01*
X236590229Y-38144400D02*
X236447372Y-38001542D01*
X236447372Y-38001542D02*
X236304515Y-37715828D01*
X236304515Y-37715828D02*
X236304515Y-36858685D01*
X236304515Y-36858685D02*
X236447372Y-36572971D01*
X236447372Y-36572971D02*
X236590229Y-36430114D01*
X236590229Y-36430114D02*
X236875944Y-36287257D01*
X236875944Y-36287257D02*
X237304515Y-36287257D01*
X237304515Y-36287257D02*
X237590229Y-36430114D01*
X237590229Y-36430114D02*
X237733087Y-36572971D01*
X237733087Y-36572971D02*
X237875944Y-36858685D01*
X237875944Y-36858685D02*
X237875944Y-37715828D01*
X237875944Y-37715828D02*
X237733087Y-38001542D01*
X237733087Y-38001542D02*
X237590229Y-38144400D01*
X237590229Y-38144400D02*
X237304515Y-38287257D01*
X237304515Y-38287257D02*
X236875944Y-38287257D01*
X238733087Y-36287257D02*
X239875944Y-36287257D01*
X239161658Y-35287257D02*
X239161658Y-37858685D01*
X239161658Y-37858685D02*
X239304515Y-38144400D01*
X239304515Y-38144400D02*
X239590230Y-38287257D01*
X239590230Y-38287257D02*
X239875944Y-38287257D01*
X243018801Y-37430114D02*
X244447373Y-37430114D01*
X242733087Y-38287257D02*
X243733087Y-35287257D01*
X243733087Y-35287257D02*
X244733087Y-38287257D01*
X245875944Y-38287257D02*
X246447373Y-38287257D01*
X246447373Y-38287257D02*
X246733087Y-38144400D01*
X246733087Y-38144400D02*
X246875944Y-38001542D01*
X246875944Y-38001542D02*
X247161659Y-37572971D01*
X247161659Y-37572971D02*
X247304516Y-37001542D01*
X247304516Y-37001542D02*
X247304516Y-35858685D01*
X247304516Y-35858685D02*
X247161659Y-35572971D01*
X247161659Y-35572971D02*
X247018802Y-35430114D01*
X247018802Y-35430114D02*
X246733087Y-35287257D01*
X246733087Y-35287257D02*
X246161659Y-35287257D01*
X246161659Y-35287257D02*
X245875944Y-35430114D01*
X245875944Y-35430114D02*
X245733087Y-35572971D01*
X245733087Y-35572971D02*
X245590230Y-35858685D01*
X245590230Y-35858685D02*
X245590230Y-36572971D01*
X245590230Y-36572971D02*
X245733087Y-36858685D01*
X245733087Y-36858685D02*
X245875944Y-37001542D01*
X245875944Y-37001542D02*
X246161659Y-37144400D01*
X246161659Y-37144400D02*
X246733087Y-37144400D01*
X246733087Y-37144400D02*
X247018802Y-37001542D01*
X247018802Y-37001542D02*
X247161659Y-36858685D01*
X247161659Y-36858685D02*
X247304516Y-36572971D01*
X153311653Y-190767257D02*
X153311653Y-187767257D01*
X154597368Y-190767257D02*
X154597368Y-189195828D01*
X154597368Y-189195828D02*
X154454510Y-188910114D01*
X154454510Y-188910114D02*
X154168796Y-188767257D01*
X154168796Y-188767257D02*
X153740225Y-188767257D01*
X153740225Y-188767257D02*
X153454510Y-188910114D01*
X153454510Y-188910114D02*
X153311653Y-189052971D01*
X155597368Y-188767257D02*
X156740225Y-188767257D01*
X156025939Y-187767257D02*
X156025939Y-190338685D01*
X156025939Y-190338685D02*
X156168796Y-190624400D01*
X156168796Y-190624400D02*
X156454511Y-190767257D01*
X156454511Y-190767257D02*
X156740225Y-190767257D01*
X157311654Y-188767257D02*
X158454511Y-188767257D01*
X157740225Y-187767257D02*
X157740225Y-190338685D01*
X157740225Y-190338685D02*
X157883082Y-190624400D01*
X157883082Y-190624400D02*
X158168797Y-190767257D01*
X158168797Y-190767257D02*
X158454511Y-190767257D01*
X159454511Y-188767257D02*
X159454511Y-191767257D01*
X159454511Y-188910114D02*
X159740226Y-188767257D01*
X159740226Y-188767257D02*
X160311654Y-188767257D01*
X160311654Y-188767257D02*
X160597368Y-188910114D01*
X160597368Y-188910114D02*
X160740226Y-189052971D01*
X160740226Y-189052971D02*
X160883083Y-189338685D01*
X160883083Y-189338685D02*
X160883083Y-190195828D01*
X160883083Y-190195828D02*
X160740226Y-190481542D01*
X160740226Y-190481542D02*
X160597368Y-190624400D01*
X160597368Y-190624400D02*
X160311654Y-190767257D01*
X160311654Y-190767257D02*
X159740226Y-190767257D01*
X159740226Y-190767257D02*
X159454511Y-190624400D01*
X162025940Y-190624400D02*
X162311654Y-190767257D01*
X162311654Y-190767257D02*
X162883083Y-190767257D01*
X162883083Y-190767257D02*
X163168797Y-190624400D01*
X163168797Y-190624400D02*
X163311654Y-190338685D01*
X163311654Y-190338685D02*
X163311654Y-190195828D01*
X163311654Y-190195828D02*
X163168797Y-189910114D01*
X163168797Y-189910114D02*
X162883083Y-189767257D01*
X162883083Y-189767257D02*
X162454512Y-189767257D01*
X162454512Y-189767257D02*
X162168797Y-189624400D01*
X162168797Y-189624400D02*
X162025940Y-189338685D01*
X162025940Y-189338685D02*
X162025940Y-189195828D01*
X162025940Y-189195828D02*
X162168797Y-188910114D01*
X162168797Y-188910114D02*
X162454512Y-188767257D01*
X162454512Y-188767257D02*
X162883083Y-188767257D01*
X162883083Y-188767257D02*
X163168797Y-188910114D01*
X164597368Y-190481542D02*
X164740225Y-190624400D01*
X164740225Y-190624400D02*
X164597368Y-190767257D01*
X164597368Y-190767257D02*
X164454511Y-190624400D01*
X164454511Y-190624400D02*
X164597368Y-190481542D01*
X164597368Y-190481542D02*
X164597368Y-190767257D01*
X164597368Y-188910114D02*
X164740225Y-189052971D01*
X164740225Y-189052971D02*
X164597368Y-189195828D01*
X164597368Y-189195828D02*
X164454511Y-189052971D01*
X164454511Y-189052971D02*
X164597368Y-188910114D01*
X164597368Y-188910114D02*
X164597368Y-189195828D01*
X168168796Y-187624400D02*
X165597368Y-191481542D01*
X171311653Y-187624400D02*
X168740225Y-191481542D01*
X173597368Y-188767257D02*
X173597368Y-191195828D01*
X173597368Y-191195828D02*
X173454510Y-191481542D01*
X173454510Y-191481542D02*
X173311653Y-191624400D01*
X173311653Y-191624400D02*
X173025939Y-191767257D01*
X173025939Y-191767257D02*
X172597368Y-191767257D01*
X172597368Y-191767257D02*
X172311653Y-191624400D01*
X173597368Y-190624400D02*
X173311653Y-190767257D01*
X173311653Y-190767257D02*
X172740225Y-190767257D01*
X172740225Y-190767257D02*
X172454510Y-190624400D01*
X172454510Y-190624400D02*
X172311653Y-190481542D01*
X172311653Y-190481542D02*
X172168796Y-190195828D01*
X172168796Y-190195828D02*
X172168796Y-189338685D01*
X172168796Y-189338685D02*
X172311653Y-189052971D01*
X172311653Y-189052971D02*
X172454510Y-188910114D01*
X172454510Y-188910114D02*
X172740225Y-188767257D01*
X172740225Y-188767257D02*
X173311653Y-188767257D01*
X173311653Y-188767257D02*
X173597368Y-188910114D01*
X175025939Y-190767257D02*
X175025939Y-188767257D01*
X175025939Y-187767257D02*
X174883082Y-187910114D01*
X174883082Y-187910114D02*
X175025939Y-188052971D01*
X175025939Y-188052971D02*
X175168796Y-187910114D01*
X175168796Y-187910114D02*
X175025939Y-187767257D01*
X175025939Y-187767257D02*
X175025939Y-188052971D01*
X176025939Y-188767257D02*
X177168796Y-188767257D01*
X176454510Y-187767257D02*
X176454510Y-190338685D01*
X176454510Y-190338685D02*
X176597367Y-190624400D01*
X176597367Y-190624400D02*
X176883082Y-190767257D01*
X176883082Y-190767257D02*
X177168796Y-190767257D01*
X178168796Y-190767257D02*
X178168796Y-187767257D01*
X179454511Y-190767257D02*
X179454511Y-189195828D01*
X179454511Y-189195828D02*
X179311653Y-188910114D01*
X179311653Y-188910114D02*
X179025939Y-188767257D01*
X179025939Y-188767257D02*
X178597368Y-188767257D01*
X178597368Y-188767257D02*
X178311653Y-188910114D01*
X178311653Y-188910114D02*
X178168796Y-189052971D01*
X182168797Y-188767257D02*
X182168797Y-190767257D01*
X180883082Y-188767257D02*
X180883082Y-190338685D01*
X180883082Y-190338685D02*
X181025939Y-190624400D01*
X181025939Y-190624400D02*
X181311654Y-190767257D01*
X181311654Y-190767257D02*
X181740225Y-190767257D01*
X181740225Y-190767257D02*
X182025939Y-190624400D01*
X182025939Y-190624400D02*
X182168797Y-190481542D01*
X183597368Y-190767257D02*
X183597368Y-187767257D01*
X183597368Y-188910114D02*
X183883083Y-188767257D01*
X183883083Y-188767257D02*
X184454511Y-188767257D01*
X184454511Y-188767257D02*
X184740225Y-188910114D01*
X184740225Y-188910114D02*
X184883083Y-189052971D01*
X184883083Y-189052971D02*
X185025940Y-189338685D01*
X185025940Y-189338685D02*
X185025940Y-190195828D01*
X185025940Y-190195828D02*
X184883083Y-190481542D01*
X184883083Y-190481542D02*
X184740225Y-190624400D01*
X184740225Y-190624400D02*
X184454511Y-190767257D01*
X184454511Y-190767257D02*
X183883083Y-190767257D01*
X183883083Y-190767257D02*
X183597368Y-190624400D01*
X186311654Y-190481542D02*
X186454511Y-190624400D01*
X186454511Y-190624400D02*
X186311654Y-190767257D01*
X186311654Y-190767257D02*
X186168797Y-190624400D01*
X186168797Y-190624400D02*
X186311654Y-190481542D01*
X186311654Y-190481542D02*
X186311654Y-190767257D01*
X189025940Y-190624400D02*
X188740225Y-190767257D01*
X188740225Y-190767257D02*
X188168797Y-190767257D01*
X188168797Y-190767257D02*
X187883082Y-190624400D01*
X187883082Y-190624400D02*
X187740225Y-190481542D01*
X187740225Y-190481542D02*
X187597368Y-190195828D01*
X187597368Y-190195828D02*
X187597368Y-189338685D01*
X187597368Y-189338685D02*
X187740225Y-189052971D01*
X187740225Y-189052971D02*
X187883082Y-188910114D01*
X187883082Y-188910114D02*
X188168797Y-188767257D01*
X188168797Y-188767257D02*
X188740225Y-188767257D01*
X188740225Y-188767257D02*
X189025940Y-188910114D01*
X190740226Y-190767257D02*
X190454511Y-190624400D01*
X190454511Y-190624400D02*
X190311654Y-190481542D01*
X190311654Y-190481542D02*
X190168797Y-190195828D01*
X190168797Y-190195828D02*
X190168797Y-189338685D01*
X190168797Y-189338685D02*
X190311654Y-189052971D01*
X190311654Y-189052971D02*
X190454511Y-188910114D01*
X190454511Y-188910114D02*
X190740226Y-188767257D01*
X190740226Y-188767257D02*
X191168797Y-188767257D01*
X191168797Y-188767257D02*
X191454511Y-188910114D01*
X191454511Y-188910114D02*
X191597369Y-189052971D01*
X191597369Y-189052971D02*
X191740226Y-189338685D01*
X191740226Y-189338685D02*
X191740226Y-190195828D01*
X191740226Y-190195828D02*
X191597369Y-190481542D01*
X191597369Y-190481542D02*
X191454511Y-190624400D01*
X191454511Y-190624400D02*
X191168797Y-190767257D01*
X191168797Y-190767257D02*
X190740226Y-190767257D01*
X193025940Y-190767257D02*
X193025940Y-188767257D01*
X193025940Y-189052971D02*
X193168797Y-188910114D01*
X193168797Y-188910114D02*
X193454512Y-188767257D01*
X193454512Y-188767257D02*
X193883083Y-188767257D01*
X193883083Y-188767257D02*
X194168797Y-188910114D01*
X194168797Y-188910114D02*
X194311655Y-189195828D01*
X194311655Y-189195828D02*
X194311655Y-190767257D01*
X194311655Y-189195828D02*
X194454512Y-188910114D01*
X194454512Y-188910114D02*
X194740226Y-188767257D01*
X194740226Y-188767257D02*
X195168797Y-188767257D01*
X195168797Y-188767257D02*
X195454512Y-188910114D01*
X195454512Y-188910114D02*
X195597369Y-189195828D01*
X195597369Y-189195828D02*
X195597369Y-190767257D01*
X199168797Y-187624400D02*
X196597369Y-191481542D01*
X200168797Y-190767257D02*
X200168797Y-187767257D01*
X200168797Y-187767257D02*
X201168797Y-189910114D01*
X201168797Y-189910114D02*
X202168797Y-187767257D01*
X202168797Y-187767257D02*
X202168797Y-190767257D01*
X204883083Y-190767257D02*
X204883083Y-189195828D01*
X204883083Y-189195828D02*
X204740225Y-188910114D01*
X204740225Y-188910114D02*
X204454511Y-188767257D01*
X204454511Y-188767257D02*
X203883083Y-188767257D01*
X203883083Y-188767257D02*
X203597368Y-188910114D01*
X204883083Y-190624400D02*
X204597368Y-190767257D01*
X204597368Y-190767257D02*
X203883083Y-190767257D01*
X203883083Y-190767257D02*
X203597368Y-190624400D01*
X203597368Y-190624400D02*
X203454511Y-190338685D01*
X203454511Y-190338685D02*
X203454511Y-190052971D01*
X203454511Y-190052971D02*
X203597368Y-189767257D01*
X203597368Y-189767257D02*
X203883083Y-189624400D01*
X203883083Y-189624400D02*
X204597368Y-189624400D01*
X204597368Y-189624400D02*
X204883083Y-189481542D01*
X205883083Y-188767257D02*
X207025940Y-188767257D01*
X206311654Y-187767257D02*
X206311654Y-190338685D01*
X206311654Y-190338685D02*
X206454511Y-190624400D01*
X206454511Y-190624400D02*
X206740226Y-190767257D01*
X206740226Y-190767257D02*
X207025940Y-190767257D01*
X207597369Y-188767257D02*
X208740226Y-188767257D01*
X208025940Y-187767257D02*
X208025940Y-190338685D01*
X208025940Y-190338685D02*
X208168797Y-190624400D01*
X208168797Y-190624400D02*
X208454512Y-190767257D01*
X208454512Y-190767257D02*
X208740226Y-190767257D01*
X209740226Y-190767257D02*
X209740226Y-188767257D01*
X209740226Y-187767257D02*
X209597369Y-187910114D01*
X209597369Y-187910114D02*
X209740226Y-188052971D01*
X209740226Y-188052971D02*
X209883083Y-187910114D01*
X209883083Y-187910114D02*
X209740226Y-187767257D01*
X209740226Y-187767257D02*
X209740226Y-188052971D01*
X211025940Y-190624400D02*
X211311654Y-190767257D01*
X211311654Y-190767257D02*
X211883083Y-190767257D01*
X211883083Y-190767257D02*
X212168797Y-190624400D01*
X212168797Y-190624400D02*
X212311654Y-190338685D01*
X212311654Y-190338685D02*
X212311654Y-190195828D01*
X212311654Y-190195828D02*
X212168797Y-189910114D01*
X212168797Y-189910114D02*
X211883083Y-189767257D01*
X211883083Y-189767257D02*
X211454512Y-189767257D01*
X211454512Y-189767257D02*
X211168797Y-189624400D01*
X211168797Y-189624400D02*
X211025940Y-189338685D01*
X211025940Y-189338685D02*
X211025940Y-189195828D01*
X211025940Y-189195828D02*
X211168797Y-188910114D01*
X211168797Y-188910114D02*
X211454512Y-188767257D01*
X211454512Y-188767257D02*
X211883083Y-188767257D01*
X211883083Y-188767257D02*
X212168797Y-188910114D01*
X215025940Y-190767257D02*
X213597368Y-190767257D01*
X213597368Y-190767257D02*
X213597368Y-187767257D01*
X216025939Y-190767257D02*
X216025939Y-188767257D01*
X216025939Y-187767257D02*
X215883082Y-187910114D01*
X215883082Y-187910114D02*
X216025939Y-188052971D01*
X216025939Y-188052971D02*
X216168796Y-187910114D01*
X216168796Y-187910114D02*
X216025939Y-187767257D01*
X216025939Y-187767257D02*
X216025939Y-188052971D01*
X217454510Y-188767257D02*
X217454510Y-190767257D01*
X217454510Y-189052971D02*
X217597367Y-188910114D01*
X217597367Y-188910114D02*
X217883082Y-188767257D01*
X217883082Y-188767257D02*
X218311653Y-188767257D01*
X218311653Y-188767257D02*
X218597367Y-188910114D01*
X218597367Y-188910114D02*
X218740225Y-189195828D01*
X218740225Y-189195828D02*
X218740225Y-190767257D01*
X221454511Y-190767257D02*
X221454511Y-187767257D01*
X221454511Y-190624400D02*
X221168796Y-190767257D01*
X221168796Y-190767257D02*
X220597368Y-190767257D01*
X220597368Y-190767257D02*
X220311653Y-190624400D01*
X220311653Y-190624400D02*
X220168796Y-190481542D01*
X220168796Y-190481542D02*
X220025939Y-190195828D01*
X220025939Y-190195828D02*
X220025939Y-189338685D01*
X220025939Y-189338685D02*
X220168796Y-189052971D01*
X220168796Y-189052971D02*
X220311653Y-188910114D01*
X220311653Y-188910114D02*
X220597368Y-188767257D01*
X220597368Y-188767257D02*
X221168796Y-188767257D01*
X221168796Y-188767257D02*
X221454511Y-188910114D01*
X225025939Y-187624400D02*
X222454511Y-191481542D01*
X226025939Y-190767257D02*
X226025939Y-187767257D01*
X226025939Y-187767257D02*
X226740225Y-187767257D01*
X226740225Y-187767257D02*
X227168796Y-187910114D01*
X227168796Y-187910114D02*
X227454511Y-188195828D01*
X227454511Y-188195828D02*
X227597368Y-188481542D01*
X227597368Y-188481542D02*
X227740225Y-189052971D01*
X227740225Y-189052971D02*
X227740225Y-189481542D01*
X227740225Y-189481542D02*
X227597368Y-190052971D01*
X227597368Y-190052971D02*
X227454511Y-190338685D01*
X227454511Y-190338685D02*
X227168796Y-190624400D01*
X227168796Y-190624400D02*
X226740225Y-190767257D01*
X226740225Y-190767257D02*
X226025939Y-190767257D01*
X229025939Y-190767257D02*
X229025939Y-187767257D01*
X229025939Y-187767257D02*
X230168796Y-187767257D01*
X230168796Y-187767257D02*
X230454511Y-187910114D01*
X230454511Y-187910114D02*
X230597368Y-188052971D01*
X230597368Y-188052971D02*
X230740225Y-188338685D01*
X230740225Y-188338685D02*
X230740225Y-188767257D01*
X230740225Y-188767257D02*
X230597368Y-189052971D01*
X230597368Y-189052971D02*
X230454511Y-189195828D01*
X230454511Y-189195828D02*
X230168796Y-189338685D01*
X230168796Y-189338685D02*
X229025939Y-189338685D01*
X231883082Y-188052971D02*
X232025939Y-187910114D01*
X232025939Y-187910114D02*
X232311654Y-187767257D01*
X232311654Y-187767257D02*
X233025939Y-187767257D01*
X233025939Y-187767257D02*
X233311654Y-187910114D01*
X233311654Y-187910114D02*
X233454511Y-188052971D01*
X233454511Y-188052971D02*
X233597368Y-188338685D01*
X233597368Y-188338685D02*
X233597368Y-188624400D01*
X233597368Y-188624400D02*
X233454511Y-189052971D01*
X233454511Y-189052971D02*
X231740225Y-190767257D01*
X231740225Y-190767257D02*
X233597368Y-190767257D01*
X234740225Y-188052971D02*
X234883082Y-187910114D01*
X234883082Y-187910114D02*
X235168797Y-187767257D01*
X235168797Y-187767257D02*
X235883082Y-187767257D01*
X235883082Y-187767257D02*
X236168797Y-187910114D01*
X236168797Y-187910114D02*
X236311654Y-188052971D01*
X236311654Y-188052971D02*
X236454511Y-188338685D01*
X236454511Y-188338685D02*
X236454511Y-188624400D01*
X236454511Y-188624400D02*
X236311654Y-189052971D01*
X236311654Y-189052971D02*
X234597368Y-190767257D01*
X234597368Y-190767257D02*
X236454511Y-190767257D01*
X238311654Y-187767257D02*
X238597368Y-187767257D01*
X238597368Y-187767257D02*
X238883082Y-187910114D01*
X238883082Y-187910114D02*
X239025940Y-188052971D01*
X239025940Y-188052971D02*
X239168797Y-188338685D01*
X239168797Y-188338685D02*
X239311654Y-188910114D01*
X239311654Y-188910114D02*
X239311654Y-189624400D01*
X239311654Y-189624400D02*
X239168797Y-190195828D01*
X239168797Y-190195828D02*
X239025940Y-190481542D01*
X239025940Y-190481542D02*
X238883082Y-190624400D01*
X238883082Y-190624400D02*
X238597368Y-190767257D01*
X238597368Y-190767257D02*
X238311654Y-190767257D01*
X238311654Y-190767257D02*
X238025940Y-190624400D01*
X238025940Y-190624400D02*
X237883082Y-190481542D01*
X237883082Y-190481542D02*
X237740225Y-190195828D01*
X237740225Y-190195828D02*
X237597368Y-189624400D01*
X237597368Y-189624400D02*
X237597368Y-188910114D01*
X237597368Y-188910114D02*
X237740225Y-188338685D01*
X237740225Y-188338685D02*
X237883082Y-188052971D01*
X237883082Y-188052971D02*
X238025940Y-187910114D01*
X238025940Y-187910114D02*
X238311654Y-187767257D01*
X241168797Y-187767257D02*
X241454511Y-187767257D01*
X241454511Y-187767257D02*
X241740225Y-187910114D01*
X241740225Y-187910114D02*
X241883083Y-188052971D01*
X241883083Y-188052971D02*
X242025940Y-188338685D01*
X242025940Y-188338685D02*
X242168797Y-188910114D01*
X242168797Y-188910114D02*
X242168797Y-189624400D01*
X242168797Y-189624400D02*
X242025940Y-190195828D01*
X242025940Y-190195828D02*
X241883083Y-190481542D01*
X241883083Y-190481542D02*
X241740225Y-190624400D01*
X241740225Y-190624400D02*
X241454511Y-190767257D01*
X241454511Y-190767257D02*
X241168797Y-190767257D01*
X241168797Y-190767257D02*
X240883083Y-190624400D01*
X240883083Y-190624400D02*
X240740225Y-190481542D01*
X240740225Y-190481542D02*
X240597368Y-190195828D01*
X240597368Y-190195828D02*
X240454511Y-189624400D01*
X240454511Y-189624400D02*
X240454511Y-188910114D01*
X240454511Y-188910114D02*
X240597368Y-188338685D01*
X240597368Y-188338685D02*
X240740225Y-188052971D01*
X240740225Y-188052971D02*
X240883083Y-187910114D01*
X240883083Y-187910114D02*
X241168797Y-187767257D01*
D11*
X59097419Y-185513333D02*
X59811704Y-185513333D01*
X59811704Y-185513333D02*
X59954561Y-185560952D01*
X59954561Y-185560952D02*
X60049800Y-185656190D01*
X60049800Y-185656190D02*
X60097419Y-185799047D01*
X60097419Y-185799047D02*
X60097419Y-185894285D01*
X59192657Y-185084761D02*
X59145038Y-185037142D01*
X59145038Y-185037142D02*
X59097419Y-184941904D01*
X59097419Y-184941904D02*
X59097419Y-184703809D01*
X59097419Y-184703809D02*
X59145038Y-184608571D01*
X59145038Y-184608571D02*
X59192657Y-184560952D01*
X59192657Y-184560952D02*
X59287895Y-184513333D01*
X59287895Y-184513333D02*
X59383133Y-184513333D01*
X59383133Y-184513333D02*
X59525990Y-184560952D01*
X59525990Y-184560952D02*
X60097419Y-185132380D01*
X60097419Y-185132380D02*
X60097419Y-184513333D01*
D12*
X77604819Y-43709523D02*
X77604819Y-43090476D01*
X77604819Y-43090476D02*
X77985771Y-43423809D01*
X77985771Y-43423809D02*
X77985771Y-43280952D01*
X77985771Y-43280952D02*
X78033390Y-43185714D01*
X78033390Y-43185714D02*
X78081009Y-43138095D01*
X78081009Y-43138095D02*
X78176247Y-43090476D01*
X78176247Y-43090476D02*
X78414342Y-43090476D01*
X78414342Y-43090476D02*
X78509580Y-43138095D01*
X78509580Y-43138095D02*
X78557200Y-43185714D01*
X78557200Y-43185714D02*
X78604819Y-43280952D01*
X78604819Y-43280952D02*
X78604819Y-43566666D01*
X78604819Y-43566666D02*
X78557200Y-43661904D01*
X78557200Y-43661904D02*
X78509580Y-43709523D01*
X77604819Y-42233333D02*
X77604819Y-42423809D01*
X77604819Y-42423809D02*
X77652438Y-42519047D01*
X77652438Y-42519047D02*
X77700057Y-42566666D01*
X77700057Y-42566666D02*
X77842914Y-42661904D01*
X77842914Y-42661904D02*
X78033390Y-42709523D01*
X78033390Y-42709523D02*
X78414342Y-42709523D01*
X78414342Y-42709523D02*
X78509580Y-42661904D01*
X78509580Y-42661904D02*
X78557200Y-42614285D01*
X78557200Y-42614285D02*
X78604819Y-42519047D01*
X78604819Y-42519047D02*
X78604819Y-42328571D01*
X78604819Y-42328571D02*
X78557200Y-42233333D01*
X78557200Y-42233333D02*
X78509580Y-42185714D01*
X78509580Y-42185714D02*
X78414342Y-42138095D01*
X78414342Y-42138095D02*
X78176247Y-42138095D01*
X78176247Y-42138095D02*
X78081009Y-42185714D01*
X78081009Y-42185714D02*
X78033390Y-42233333D01*
X78033390Y-42233333D02*
X77985771Y-42328571D01*
X77985771Y-42328571D02*
X77985771Y-42519047D01*
X77985771Y-42519047D02*
X78033390Y-42614285D01*
X78033390Y-42614285D02*
X78081009Y-42661904D01*
X78081009Y-42661904D02*
X78176247Y-42709523D01*
X77700057Y-91181904D02*
X77652438Y-91134285D01*
X77652438Y-91134285D02*
X77604819Y-91039047D01*
X77604819Y-91039047D02*
X77604819Y-90800952D01*
X77604819Y-90800952D02*
X77652438Y-90705714D01*
X77652438Y-90705714D02*
X77700057Y-90658095D01*
X77700057Y-90658095D02*
X77795295Y-90610476D01*
X77795295Y-90610476D02*
X77890533Y-90610476D01*
X77890533Y-90610476D02*
X78033390Y-90658095D01*
X78033390Y-90658095D02*
X78604819Y-91229523D01*
X78604819Y-91229523D02*
X78604819Y-90610476D01*
X77938152Y-89753333D02*
X78604819Y-89753333D01*
X77557200Y-89991428D02*
X78271485Y-90229523D01*
X78271485Y-90229523D02*
X78271485Y-89610476D01*
X72514819Y-42590476D02*
X72038628Y-42923809D01*
X72514819Y-43161904D02*
X71514819Y-43161904D01*
X71514819Y-43161904D02*
X71514819Y-42780952D01*
X71514819Y-42780952D02*
X71562438Y-42685714D01*
X71562438Y-42685714D02*
X71610057Y-42638095D01*
X71610057Y-42638095D02*
X71705295Y-42590476D01*
X71705295Y-42590476D02*
X71848152Y-42590476D01*
X71848152Y-42590476D02*
X71943390Y-42638095D01*
X71943390Y-42638095D02*
X71991009Y-42685714D01*
X71991009Y-42685714D02*
X72038628Y-42780952D01*
X72038628Y-42780952D02*
X72038628Y-43161904D01*
X71237200Y-43300000D02*
X71237200Y-42500000D01*
X72514819Y-169881904D02*
X71514819Y-169881904D01*
X71514819Y-169881904D02*
X71514819Y-169643809D01*
X71514819Y-169643809D02*
X71562438Y-169500952D01*
X71562438Y-169500952D02*
X71657676Y-169405714D01*
X71657676Y-169405714D02*
X71752914Y-169358095D01*
X71752914Y-169358095D02*
X71943390Y-169310476D01*
X71943390Y-169310476D02*
X72086247Y-169310476D01*
X72086247Y-169310476D02*
X72276723Y-169358095D01*
X72276723Y-169358095D02*
X72371961Y-169405714D01*
X72371961Y-169405714D02*
X72467200Y-169500952D01*
X72467200Y-169500952D02*
X72514819Y-169643809D01*
X72514819Y-169643809D02*
X72514819Y-169881904D01*
X77604819Y-47669523D02*
X77604819Y-47050476D01*
X77604819Y-47050476D02*
X77985771Y-47383809D01*
X77985771Y-47383809D02*
X77985771Y-47240952D01*
X77985771Y-47240952D02*
X78033390Y-47145714D01*
X78033390Y-47145714D02*
X78081009Y-47098095D01*
X78081009Y-47098095D02*
X78176247Y-47050476D01*
X78176247Y-47050476D02*
X78414342Y-47050476D01*
X78414342Y-47050476D02*
X78509580Y-47098095D01*
X78509580Y-47098095D02*
X78557200Y-47145714D01*
X78557200Y-47145714D02*
X78604819Y-47240952D01*
X78604819Y-47240952D02*
X78604819Y-47526666D01*
X78604819Y-47526666D02*
X78557200Y-47621904D01*
X78557200Y-47621904D02*
X78509580Y-47669523D01*
X77604819Y-46145714D02*
X77604819Y-46621904D01*
X77604819Y-46621904D02*
X78081009Y-46669523D01*
X78081009Y-46669523D02*
X78033390Y-46621904D01*
X78033390Y-46621904D02*
X77985771Y-46526666D01*
X77985771Y-46526666D02*
X77985771Y-46288571D01*
X77985771Y-46288571D02*
X78033390Y-46193333D01*
X78033390Y-46193333D02*
X78081009Y-46145714D01*
X78081009Y-46145714D02*
X78176247Y-46098095D01*
X78176247Y-46098095D02*
X78414342Y-46098095D01*
X78414342Y-46098095D02*
X78509580Y-46145714D01*
X78509580Y-46145714D02*
X78557200Y-46193333D01*
X78557200Y-46193333D02*
X78604819Y-46288571D01*
X78604819Y-46288571D02*
X78604819Y-46526666D01*
X78604819Y-46526666D02*
X78557200Y-46621904D01*
X78557200Y-46621904D02*
X78509580Y-46669523D01*
X78604819Y-114370476D02*
X78604819Y-114941904D01*
X78604819Y-114656190D02*
X77604819Y-114656190D01*
X77604819Y-114656190D02*
X77747676Y-114751428D01*
X77747676Y-114751428D02*
X77842914Y-114846666D01*
X77842914Y-114846666D02*
X77890533Y-114941904D01*
X78033390Y-113799047D02*
X77985771Y-113894285D01*
X77985771Y-113894285D02*
X77938152Y-113941904D01*
X77938152Y-113941904D02*
X77842914Y-113989523D01*
X77842914Y-113989523D02*
X77795295Y-113989523D01*
X77795295Y-113989523D02*
X77700057Y-113941904D01*
X77700057Y-113941904D02*
X77652438Y-113894285D01*
X77652438Y-113894285D02*
X77604819Y-113799047D01*
X77604819Y-113799047D02*
X77604819Y-113608571D01*
X77604819Y-113608571D02*
X77652438Y-113513333D01*
X77652438Y-113513333D02*
X77700057Y-113465714D01*
X77700057Y-113465714D02*
X77795295Y-113418095D01*
X77795295Y-113418095D02*
X77842914Y-113418095D01*
X77842914Y-113418095D02*
X77938152Y-113465714D01*
X77938152Y-113465714D02*
X77985771Y-113513333D01*
X77985771Y-113513333D02*
X78033390Y-113608571D01*
X78033390Y-113608571D02*
X78033390Y-113799047D01*
X78033390Y-113799047D02*
X78081009Y-113894285D01*
X78081009Y-113894285D02*
X78128628Y-113941904D01*
X78128628Y-113941904D02*
X78223866Y-113989523D01*
X78223866Y-113989523D02*
X78414342Y-113989523D01*
X78414342Y-113989523D02*
X78509580Y-113941904D01*
X78509580Y-113941904D02*
X78557200Y-113894285D01*
X78557200Y-113894285D02*
X78604819Y-113799047D01*
X78604819Y-113799047D02*
X78604819Y-113608571D01*
X78604819Y-113608571D02*
X78557200Y-113513333D01*
X78557200Y-113513333D02*
X78509580Y-113465714D01*
X78509580Y-113465714D02*
X78414342Y-113418095D01*
X78414342Y-113418095D02*
X78223866Y-113418095D01*
X78223866Y-113418095D02*
X78128628Y-113465714D01*
X78128628Y-113465714D02*
X78081009Y-113513333D01*
X78081009Y-113513333D02*
X78033390Y-113608571D01*
X77604819Y-158073332D02*
X77604819Y-157406666D01*
X77604819Y-157406666D02*
X78604819Y-157835237D01*
D11*
X339387419Y-183523333D02*
X340101704Y-183523333D01*
X340101704Y-183523333D02*
X340244561Y-183570952D01*
X340244561Y-183570952D02*
X340339800Y-183666190D01*
X340339800Y-183666190D02*
X340387419Y-183809047D01*
X340387419Y-183809047D02*
X340387419Y-183904285D01*
X340387419Y-182523333D02*
X340387419Y-183094761D01*
X340387419Y-182809047D02*
X339387419Y-182809047D01*
X339387419Y-182809047D02*
X339530276Y-182904285D01*
X339530276Y-182904285D02*
X339625514Y-182999523D01*
X339625514Y-182999523D02*
X339673133Y-183094761D01*
D12*
X72229104Y-181738094D02*
X72229104Y-181261904D01*
X72514819Y-181833332D02*
X71514819Y-181499999D01*
X71514819Y-181499999D02*
X72514819Y-181166666D01*
X72514819Y-62961904D02*
X71514819Y-62961904D01*
X72514819Y-62390476D02*
X71943390Y-62819047D01*
X71514819Y-62390476D02*
X72086247Y-62961904D01*
X71237200Y-63100000D02*
X71237200Y-62300000D01*
X72514819Y-82761904D02*
X71514819Y-82761904D01*
X71514819Y-82761904D02*
X71514819Y-82523809D01*
X71514819Y-82523809D02*
X71562438Y-82380952D01*
X71562438Y-82380952D02*
X71657676Y-82285714D01*
X71657676Y-82285714D02*
X71752914Y-82238095D01*
X71752914Y-82238095D02*
X71943390Y-82190476D01*
X71943390Y-82190476D02*
X72086247Y-82190476D01*
X72086247Y-82190476D02*
X72276723Y-82238095D01*
X72276723Y-82238095D02*
X72371961Y-82285714D01*
X72371961Y-82285714D02*
X72467200Y-82380952D01*
X72467200Y-82380952D02*
X72514819Y-82523809D01*
X72514819Y-82523809D02*
X72514819Y-82761904D01*
X71237200Y-82900000D02*
X71237200Y-82100000D01*
X72514819Y-58430476D02*
X72514819Y-58906666D01*
X72514819Y-58906666D02*
X71514819Y-58906666D01*
X71237200Y-59044762D02*
X71237200Y-58435238D01*
X77700057Y-103061904D02*
X77652438Y-103014285D01*
X77652438Y-103014285D02*
X77604819Y-102919047D01*
X77604819Y-102919047D02*
X77604819Y-102680952D01*
X77604819Y-102680952D02*
X77652438Y-102585714D01*
X77652438Y-102585714D02*
X77700057Y-102538095D01*
X77700057Y-102538095D02*
X77795295Y-102490476D01*
X77795295Y-102490476D02*
X77890533Y-102490476D01*
X77890533Y-102490476D02*
X78033390Y-102538095D01*
X78033390Y-102538095D02*
X78604819Y-103109523D01*
X78604819Y-103109523D02*
X78604819Y-102490476D01*
X78604819Y-101538095D02*
X78604819Y-102109523D01*
X78604819Y-101823809D02*
X77604819Y-101823809D01*
X77604819Y-101823809D02*
X77747676Y-101919047D01*
X77747676Y-101919047D02*
X77842914Y-102014285D01*
X77842914Y-102014285D02*
X77890533Y-102109523D01*
X72419580Y-86150476D02*
X72467200Y-86198095D01*
X72467200Y-86198095D02*
X72514819Y-86340952D01*
X72514819Y-86340952D02*
X72514819Y-86436190D01*
X72514819Y-86436190D02*
X72467200Y-86579047D01*
X72467200Y-86579047D02*
X72371961Y-86674285D01*
X72371961Y-86674285D02*
X72276723Y-86721904D01*
X72276723Y-86721904D02*
X72086247Y-86769523D01*
X72086247Y-86769523D02*
X71943390Y-86769523D01*
X71943390Y-86769523D02*
X71752914Y-86721904D01*
X71752914Y-86721904D02*
X71657676Y-86674285D01*
X71657676Y-86674285D02*
X71562438Y-86579047D01*
X71562438Y-86579047D02*
X71514819Y-86436190D01*
X71514819Y-86436190D02*
X71514819Y-86340952D01*
X71514819Y-86340952D02*
X71562438Y-86198095D01*
X71562438Y-86198095D02*
X71610057Y-86150476D01*
X71237200Y-86860000D02*
X71237200Y-86060000D01*
X77604819Y-165421904D02*
X77604819Y-165898094D01*
X77604819Y-165898094D02*
X78081009Y-165945713D01*
X78081009Y-165945713D02*
X78033390Y-165898094D01*
X78033390Y-165898094D02*
X77985771Y-165802856D01*
X77985771Y-165802856D02*
X77985771Y-165564761D01*
X77985771Y-165564761D02*
X78033390Y-165469523D01*
X78033390Y-165469523D02*
X78081009Y-165421904D01*
X78081009Y-165421904D02*
X78176247Y-165374285D01*
X78176247Y-165374285D02*
X78414342Y-165374285D01*
X78414342Y-165374285D02*
X78509580Y-165421904D01*
X78509580Y-165421904D02*
X78557200Y-165469523D01*
X78557200Y-165469523D02*
X78604819Y-165564761D01*
X78604819Y-165564761D02*
X78604819Y-165802856D01*
X78604819Y-165802856D02*
X78557200Y-165898094D01*
X78557200Y-165898094D02*
X78509580Y-165945713D01*
X72467200Y-126345713D02*
X72514819Y-126202856D01*
X72514819Y-126202856D02*
X72514819Y-125964761D01*
X72514819Y-125964761D02*
X72467200Y-125869523D01*
X72467200Y-125869523D02*
X72419580Y-125821904D01*
X72419580Y-125821904D02*
X72324342Y-125774285D01*
X72324342Y-125774285D02*
X72229104Y-125774285D01*
X72229104Y-125774285D02*
X72133866Y-125821904D01*
X72133866Y-125821904D02*
X72086247Y-125869523D01*
X72086247Y-125869523D02*
X72038628Y-125964761D01*
X72038628Y-125964761D02*
X71991009Y-126155237D01*
X71991009Y-126155237D02*
X71943390Y-126250475D01*
X71943390Y-126250475D02*
X71895771Y-126298094D01*
X71895771Y-126298094D02*
X71800533Y-126345713D01*
X71800533Y-126345713D02*
X71705295Y-126345713D01*
X71705295Y-126345713D02*
X71610057Y-126298094D01*
X71610057Y-126298094D02*
X71562438Y-126250475D01*
X71562438Y-126250475D02*
X71514819Y-126155237D01*
X71514819Y-126155237D02*
X71514819Y-125917142D01*
X71514819Y-125917142D02*
X71562438Y-125774285D01*
X71514819Y-66517142D02*
X72229104Y-66517142D01*
X72229104Y-66517142D02*
X72371961Y-66564761D01*
X72371961Y-66564761D02*
X72467200Y-66659999D01*
X72467200Y-66659999D02*
X72514819Y-66802856D01*
X72514819Y-66802856D02*
X72514819Y-66898094D01*
X71237200Y-66940952D02*
X71237200Y-66379047D01*
X77700057Y-87221904D02*
X77652438Y-87174285D01*
X77652438Y-87174285D02*
X77604819Y-87079047D01*
X77604819Y-87079047D02*
X77604819Y-86840952D01*
X77604819Y-86840952D02*
X77652438Y-86745714D01*
X77652438Y-86745714D02*
X77700057Y-86698095D01*
X77700057Y-86698095D02*
X77795295Y-86650476D01*
X77795295Y-86650476D02*
X77890533Y-86650476D01*
X77890533Y-86650476D02*
X78033390Y-86698095D01*
X78033390Y-86698095D02*
X78604819Y-87269523D01*
X78604819Y-87269523D02*
X78604819Y-86650476D01*
X77604819Y-85745714D02*
X77604819Y-86221904D01*
X77604819Y-86221904D02*
X78081009Y-86269523D01*
X78081009Y-86269523D02*
X78033390Y-86221904D01*
X78033390Y-86221904D02*
X77985771Y-86126666D01*
X77985771Y-86126666D02*
X77985771Y-85888571D01*
X77985771Y-85888571D02*
X78033390Y-85793333D01*
X78033390Y-85793333D02*
X78081009Y-85745714D01*
X78081009Y-85745714D02*
X78176247Y-85698095D01*
X78176247Y-85698095D02*
X78414342Y-85698095D01*
X78414342Y-85698095D02*
X78509580Y-85745714D01*
X78509580Y-85745714D02*
X78557200Y-85793333D01*
X78557200Y-85793333D02*
X78604819Y-85888571D01*
X78604819Y-85888571D02*
X78604819Y-86126666D01*
X78604819Y-86126666D02*
X78557200Y-86221904D01*
X78557200Y-86221904D02*
X78509580Y-86269523D01*
X72038628Y-102299999D02*
X72514819Y-102299999D01*
X71514819Y-102633332D02*
X72038628Y-102299999D01*
X72038628Y-102299999D02*
X71514819Y-101966666D01*
X71514819Y-106593332D02*
X72514819Y-105926666D01*
X71514819Y-105926666D02*
X72514819Y-106593332D01*
X71991009Y-165874285D02*
X71991009Y-165540952D01*
X72514819Y-165398095D02*
X72514819Y-165874285D01*
X72514819Y-165874285D02*
X71514819Y-165874285D01*
X71514819Y-165874285D02*
X71514819Y-165398095D01*
X77700057Y-71381904D02*
X77652438Y-71334285D01*
X77652438Y-71334285D02*
X77604819Y-71239047D01*
X77604819Y-71239047D02*
X77604819Y-71000952D01*
X77604819Y-71000952D02*
X77652438Y-70905714D01*
X77652438Y-70905714D02*
X77700057Y-70858095D01*
X77700057Y-70858095D02*
X77795295Y-70810476D01*
X77795295Y-70810476D02*
X77890533Y-70810476D01*
X77890533Y-70810476D02*
X78033390Y-70858095D01*
X78033390Y-70858095D02*
X78604819Y-71429523D01*
X78604819Y-71429523D02*
X78604819Y-70810476D01*
X78604819Y-70334285D02*
X78604819Y-70143809D01*
X78604819Y-70143809D02*
X78557200Y-70048571D01*
X78557200Y-70048571D02*
X78509580Y-70000952D01*
X78509580Y-70000952D02*
X78366723Y-69905714D01*
X78366723Y-69905714D02*
X78176247Y-69858095D01*
X78176247Y-69858095D02*
X77795295Y-69858095D01*
X77795295Y-69858095D02*
X77700057Y-69905714D01*
X77700057Y-69905714D02*
X77652438Y-69953333D01*
X77652438Y-69953333D02*
X77604819Y-70048571D01*
X77604819Y-70048571D02*
X77604819Y-70239047D01*
X77604819Y-70239047D02*
X77652438Y-70334285D01*
X77652438Y-70334285D02*
X77700057Y-70381904D01*
X77700057Y-70381904D02*
X77795295Y-70429523D01*
X77795295Y-70429523D02*
X78033390Y-70429523D01*
X78033390Y-70429523D02*
X78128628Y-70381904D01*
X78128628Y-70381904D02*
X78176247Y-70334285D01*
X78176247Y-70334285D02*
X78223866Y-70239047D01*
X78223866Y-70239047D02*
X78223866Y-70048571D01*
X78223866Y-70048571D02*
X78176247Y-69953333D01*
X78176247Y-69953333D02*
X78128628Y-69905714D01*
X78128628Y-69905714D02*
X78033390Y-69858095D01*
X72514819Y-134241904D02*
X71514819Y-134241904D01*
X71514819Y-134241904D02*
X71514819Y-133860952D01*
X71514819Y-133860952D02*
X71562438Y-133765714D01*
X71562438Y-133765714D02*
X71610057Y-133718095D01*
X71610057Y-133718095D02*
X71705295Y-133670476D01*
X71705295Y-133670476D02*
X71848152Y-133670476D01*
X71848152Y-133670476D02*
X71943390Y-133718095D01*
X71943390Y-133718095D02*
X71991009Y-133765714D01*
X71991009Y-133765714D02*
X72038628Y-133860952D01*
X72038628Y-133860952D02*
X72038628Y-134241904D01*
X78604819Y-146050476D02*
X78604819Y-146621904D01*
X78604819Y-146336190D02*
X77604819Y-146336190D01*
X77604819Y-146336190D02*
X77747676Y-146431428D01*
X77747676Y-146431428D02*
X77842914Y-146526666D01*
X77842914Y-146526666D02*
X77890533Y-146621904D01*
X77604819Y-145431428D02*
X77604819Y-145336190D01*
X77604819Y-145336190D02*
X77652438Y-145240952D01*
X77652438Y-145240952D02*
X77700057Y-145193333D01*
X77700057Y-145193333D02*
X77795295Y-145145714D01*
X77795295Y-145145714D02*
X77985771Y-145098095D01*
X77985771Y-145098095D02*
X78223866Y-145098095D01*
X78223866Y-145098095D02*
X78414342Y-145145714D01*
X78414342Y-145145714D02*
X78509580Y-145193333D01*
X78509580Y-145193333D02*
X78557200Y-145240952D01*
X78557200Y-145240952D02*
X78604819Y-145336190D01*
X78604819Y-145336190D02*
X78604819Y-145431428D01*
X78604819Y-145431428D02*
X78557200Y-145526666D01*
X78557200Y-145526666D02*
X78509580Y-145574285D01*
X78509580Y-145574285D02*
X78414342Y-145621904D01*
X78414342Y-145621904D02*
X78223866Y-145669523D01*
X78223866Y-145669523D02*
X77985771Y-145669523D01*
X77985771Y-145669523D02*
X77795295Y-145621904D01*
X77795295Y-145621904D02*
X77700057Y-145574285D01*
X77700057Y-145574285D02*
X77652438Y-145526666D01*
X77652438Y-145526666D02*
X77604819Y-145431428D01*
X71991009Y-74437142D02*
X71991009Y-74770475D01*
X72514819Y-74770475D02*
X71514819Y-74770475D01*
X71514819Y-74770475D02*
X71514819Y-74294285D01*
X71237200Y-74908571D02*
X71237200Y-74251428D01*
X71514819Y-110648570D02*
X72514819Y-110410475D01*
X72514819Y-110410475D02*
X71800533Y-110219999D01*
X71800533Y-110219999D02*
X72514819Y-110029523D01*
X72514819Y-110029523D02*
X71514819Y-109791428D01*
X72514819Y-150081904D02*
X71514819Y-150081904D01*
X72514819Y-149510476D02*
X71943390Y-149939047D01*
X71514819Y-149510476D02*
X72086247Y-150081904D01*
X77604819Y-67469523D02*
X77604819Y-66850476D01*
X77604819Y-66850476D02*
X77985771Y-67183809D01*
X77985771Y-67183809D02*
X77985771Y-67040952D01*
X77985771Y-67040952D02*
X78033390Y-66945714D01*
X78033390Y-66945714D02*
X78081009Y-66898095D01*
X78081009Y-66898095D02*
X78176247Y-66850476D01*
X78176247Y-66850476D02*
X78414342Y-66850476D01*
X78414342Y-66850476D02*
X78509580Y-66898095D01*
X78509580Y-66898095D02*
X78557200Y-66945714D01*
X78557200Y-66945714D02*
X78604819Y-67040952D01*
X78604819Y-67040952D02*
X78604819Y-67326666D01*
X78604819Y-67326666D02*
X78557200Y-67421904D01*
X78557200Y-67421904D02*
X78509580Y-67469523D01*
X77604819Y-66231428D02*
X77604819Y-66136190D01*
X77604819Y-66136190D02*
X77652438Y-66040952D01*
X77652438Y-66040952D02*
X77700057Y-65993333D01*
X77700057Y-65993333D02*
X77795295Y-65945714D01*
X77795295Y-65945714D02*
X77985771Y-65898095D01*
X77985771Y-65898095D02*
X78223866Y-65898095D01*
X78223866Y-65898095D02*
X78414342Y-65945714D01*
X78414342Y-65945714D02*
X78509580Y-65993333D01*
X78509580Y-65993333D02*
X78557200Y-66040952D01*
X78557200Y-66040952D02*
X78604819Y-66136190D01*
X78604819Y-66136190D02*
X78604819Y-66231428D01*
X78604819Y-66231428D02*
X78557200Y-66326666D01*
X78557200Y-66326666D02*
X78509580Y-66374285D01*
X78509580Y-66374285D02*
X78414342Y-66421904D01*
X78414342Y-66421904D02*
X78223866Y-66469523D01*
X78223866Y-66469523D02*
X77985771Y-66469523D01*
X77985771Y-66469523D02*
X77795295Y-66421904D01*
X77795295Y-66421904D02*
X77700057Y-66374285D01*
X77700057Y-66374285D02*
X77652438Y-66326666D01*
X77652438Y-66326666D02*
X77604819Y-66231428D01*
X72514819Y-145550476D02*
X72514819Y-146026666D01*
X72514819Y-146026666D02*
X71514819Y-146026666D01*
X78604819Y-110410476D02*
X78604819Y-110981904D01*
X78604819Y-110696190D02*
X77604819Y-110696190D01*
X77604819Y-110696190D02*
X77747676Y-110791428D01*
X77747676Y-110791428D02*
X77842914Y-110886666D01*
X77842914Y-110886666D02*
X77890533Y-110981904D01*
X78604819Y-109934285D02*
X78604819Y-109743809D01*
X78604819Y-109743809D02*
X78557200Y-109648571D01*
X78557200Y-109648571D02*
X78509580Y-109600952D01*
X78509580Y-109600952D02*
X78366723Y-109505714D01*
X78366723Y-109505714D02*
X78176247Y-109458095D01*
X78176247Y-109458095D02*
X77795295Y-109458095D01*
X77795295Y-109458095D02*
X77700057Y-109505714D01*
X77700057Y-109505714D02*
X77652438Y-109553333D01*
X77652438Y-109553333D02*
X77604819Y-109648571D01*
X77604819Y-109648571D02*
X77604819Y-109839047D01*
X77604819Y-109839047D02*
X77652438Y-109934285D01*
X77652438Y-109934285D02*
X77700057Y-109981904D01*
X77700057Y-109981904D02*
X77795295Y-110029523D01*
X77795295Y-110029523D02*
X78033390Y-110029523D01*
X78033390Y-110029523D02*
X78128628Y-109981904D01*
X78128628Y-109981904D02*
X78176247Y-109934285D01*
X78176247Y-109934285D02*
X78223866Y-109839047D01*
X78223866Y-109839047D02*
X78223866Y-109648571D01*
X78223866Y-109648571D02*
X78176247Y-109553333D01*
X78176247Y-109553333D02*
X78128628Y-109505714D01*
X78128628Y-109505714D02*
X78033390Y-109458095D01*
X77604819Y-51629523D02*
X77604819Y-51010476D01*
X77604819Y-51010476D02*
X77985771Y-51343809D01*
X77985771Y-51343809D02*
X77985771Y-51200952D01*
X77985771Y-51200952D02*
X78033390Y-51105714D01*
X78033390Y-51105714D02*
X78081009Y-51058095D01*
X78081009Y-51058095D02*
X78176247Y-51010476D01*
X78176247Y-51010476D02*
X78414342Y-51010476D01*
X78414342Y-51010476D02*
X78509580Y-51058095D01*
X78509580Y-51058095D02*
X78557200Y-51105714D01*
X78557200Y-51105714D02*
X78604819Y-51200952D01*
X78604819Y-51200952D02*
X78604819Y-51486666D01*
X78604819Y-51486666D02*
X78557200Y-51581904D01*
X78557200Y-51581904D02*
X78509580Y-51629523D01*
X77938152Y-50153333D02*
X78604819Y-50153333D01*
X77557200Y-50391428D02*
X78271485Y-50629523D01*
X78271485Y-50629523D02*
X78271485Y-50010476D01*
X71514819Y-118425713D02*
X72324342Y-118425713D01*
X72324342Y-118425713D02*
X72419580Y-118378094D01*
X72419580Y-118378094D02*
X72467200Y-118330475D01*
X72467200Y-118330475D02*
X72514819Y-118235237D01*
X72514819Y-118235237D02*
X72514819Y-118044761D01*
X72514819Y-118044761D02*
X72467200Y-117949523D01*
X72467200Y-117949523D02*
X72419580Y-117901904D01*
X72419580Y-117901904D02*
X72324342Y-117854285D01*
X72324342Y-117854285D02*
X71514819Y-117854285D01*
X78604819Y-150010475D02*
X78604819Y-149819999D01*
X78604819Y-149819999D02*
X78557200Y-149724761D01*
X78557200Y-149724761D02*
X78509580Y-149677142D01*
X78509580Y-149677142D02*
X78366723Y-149581904D01*
X78366723Y-149581904D02*
X78176247Y-149534285D01*
X78176247Y-149534285D02*
X77795295Y-149534285D01*
X77795295Y-149534285D02*
X77700057Y-149581904D01*
X77700057Y-149581904D02*
X77652438Y-149629523D01*
X77652438Y-149629523D02*
X77604819Y-149724761D01*
X77604819Y-149724761D02*
X77604819Y-149915237D01*
X77604819Y-149915237D02*
X77652438Y-150010475D01*
X77652438Y-150010475D02*
X77700057Y-150058094D01*
X77700057Y-150058094D02*
X77795295Y-150105713D01*
X77795295Y-150105713D02*
X78033390Y-150105713D01*
X78033390Y-150105713D02*
X78128628Y-150058094D01*
X78128628Y-150058094D02*
X78176247Y-150010475D01*
X78176247Y-150010475D02*
X78223866Y-149915237D01*
X78223866Y-149915237D02*
X78223866Y-149724761D01*
X78223866Y-149724761D02*
X78176247Y-149629523D01*
X78176247Y-149629523D02*
X78128628Y-149581904D01*
X78128628Y-149581904D02*
X78033390Y-149534285D01*
X72419580Y-173270476D02*
X72467200Y-173318095D01*
X72467200Y-173318095D02*
X72514819Y-173460952D01*
X72514819Y-173460952D02*
X72514819Y-173556190D01*
X72514819Y-173556190D02*
X72467200Y-173699047D01*
X72467200Y-173699047D02*
X72371961Y-173794285D01*
X72371961Y-173794285D02*
X72276723Y-173841904D01*
X72276723Y-173841904D02*
X72086247Y-173889523D01*
X72086247Y-173889523D02*
X71943390Y-173889523D01*
X71943390Y-173889523D02*
X71752914Y-173841904D01*
X71752914Y-173841904D02*
X71657676Y-173794285D01*
X71657676Y-173794285D02*
X71562438Y-173699047D01*
X71562438Y-173699047D02*
X71514819Y-173556190D01*
X71514819Y-173556190D02*
X71514819Y-173460952D01*
X71514819Y-173460952D02*
X71562438Y-173318095D01*
X71562438Y-173318095D02*
X71610057Y-173270476D01*
X71514819Y-98673332D02*
X71514819Y-98006666D01*
X71514819Y-98006666D02*
X72514819Y-98673332D01*
X72514819Y-98673332D02*
X72514819Y-98006666D01*
X71991009Y-161557142D02*
X71991009Y-161890475D01*
X72514819Y-161890475D02*
X71514819Y-161890475D01*
X71514819Y-161890475D02*
X71514819Y-161414285D01*
X78033390Y-153875237D02*
X77985771Y-153970475D01*
X77985771Y-153970475D02*
X77938152Y-154018094D01*
X77938152Y-154018094D02*
X77842914Y-154065713D01*
X77842914Y-154065713D02*
X77795295Y-154065713D01*
X77795295Y-154065713D02*
X77700057Y-154018094D01*
X77700057Y-154018094D02*
X77652438Y-153970475D01*
X77652438Y-153970475D02*
X77604819Y-153875237D01*
X77604819Y-153875237D02*
X77604819Y-153684761D01*
X77604819Y-153684761D02*
X77652438Y-153589523D01*
X77652438Y-153589523D02*
X77700057Y-153541904D01*
X77700057Y-153541904D02*
X77795295Y-153494285D01*
X77795295Y-153494285D02*
X77842914Y-153494285D01*
X77842914Y-153494285D02*
X77938152Y-153541904D01*
X77938152Y-153541904D02*
X77985771Y-153589523D01*
X77985771Y-153589523D02*
X78033390Y-153684761D01*
X78033390Y-153684761D02*
X78033390Y-153875237D01*
X78033390Y-153875237D02*
X78081009Y-153970475D01*
X78081009Y-153970475D02*
X78128628Y-154018094D01*
X78128628Y-154018094D02*
X78223866Y-154065713D01*
X78223866Y-154065713D02*
X78414342Y-154065713D01*
X78414342Y-154065713D02*
X78509580Y-154018094D01*
X78509580Y-154018094D02*
X78557200Y-153970475D01*
X78557200Y-153970475D02*
X78604819Y-153875237D01*
X78604819Y-153875237D02*
X78604819Y-153684761D01*
X78604819Y-153684761D02*
X78557200Y-153589523D01*
X78557200Y-153589523D02*
X78509580Y-153541904D01*
X78509580Y-153541904D02*
X78414342Y-153494285D01*
X78414342Y-153494285D02*
X78223866Y-153494285D01*
X78223866Y-153494285D02*
X78128628Y-153541904D01*
X78128628Y-153541904D02*
X78081009Y-153589523D01*
X78081009Y-153589523D02*
X78033390Y-153684761D01*
X72514819Y-158025713D02*
X71514819Y-158025713D01*
X71991009Y-158025713D02*
X71991009Y-157454285D01*
X72514819Y-157454285D02*
X71514819Y-157454285D01*
X77604819Y-63509523D02*
X77604819Y-62890476D01*
X77604819Y-62890476D02*
X77985771Y-63223809D01*
X77985771Y-63223809D02*
X77985771Y-63080952D01*
X77985771Y-63080952D02*
X78033390Y-62985714D01*
X78033390Y-62985714D02*
X78081009Y-62938095D01*
X78081009Y-62938095D02*
X78176247Y-62890476D01*
X78176247Y-62890476D02*
X78414342Y-62890476D01*
X78414342Y-62890476D02*
X78509580Y-62938095D01*
X78509580Y-62938095D02*
X78557200Y-62985714D01*
X78557200Y-62985714D02*
X78604819Y-63080952D01*
X78604819Y-63080952D02*
X78604819Y-63366666D01*
X78604819Y-63366666D02*
X78557200Y-63461904D01*
X78557200Y-63461904D02*
X78509580Y-63509523D01*
X78604819Y-61938095D02*
X78604819Y-62509523D01*
X78604819Y-62223809D02*
X77604819Y-62223809D01*
X77604819Y-62223809D02*
X77747676Y-62319047D01*
X77747676Y-62319047D02*
X77842914Y-62414285D01*
X77842914Y-62414285D02*
X77890533Y-62509523D01*
X77604819Y-55589523D02*
X77604819Y-54970476D01*
X77604819Y-54970476D02*
X77985771Y-55303809D01*
X77985771Y-55303809D02*
X77985771Y-55160952D01*
X77985771Y-55160952D02*
X78033390Y-55065714D01*
X78033390Y-55065714D02*
X78081009Y-55018095D01*
X78081009Y-55018095D02*
X78176247Y-54970476D01*
X78176247Y-54970476D02*
X78414342Y-54970476D01*
X78414342Y-54970476D02*
X78509580Y-55018095D01*
X78509580Y-55018095D02*
X78557200Y-55065714D01*
X78557200Y-55065714D02*
X78604819Y-55160952D01*
X78604819Y-55160952D02*
X78604819Y-55446666D01*
X78604819Y-55446666D02*
X78557200Y-55541904D01*
X78557200Y-55541904D02*
X78509580Y-55589523D01*
X77604819Y-54637142D02*
X77604819Y-54018095D01*
X77604819Y-54018095D02*
X77985771Y-54351428D01*
X77985771Y-54351428D02*
X77985771Y-54208571D01*
X77985771Y-54208571D02*
X78033390Y-54113333D01*
X78033390Y-54113333D02*
X78081009Y-54065714D01*
X78081009Y-54065714D02*
X78176247Y-54018095D01*
X78176247Y-54018095D02*
X78414342Y-54018095D01*
X78414342Y-54018095D02*
X78509580Y-54065714D01*
X78509580Y-54065714D02*
X78557200Y-54113333D01*
X78557200Y-54113333D02*
X78604819Y-54208571D01*
X78604819Y-54208571D02*
X78604819Y-54494285D01*
X78604819Y-54494285D02*
X78557200Y-54589523D01*
X78557200Y-54589523D02*
X78509580Y-54637142D01*
X78604819Y-118330476D02*
X78604819Y-118901904D01*
X78604819Y-118616190D02*
X77604819Y-118616190D01*
X77604819Y-118616190D02*
X77747676Y-118711428D01*
X77747676Y-118711428D02*
X77842914Y-118806666D01*
X77842914Y-118806666D02*
X77890533Y-118901904D01*
X77604819Y-117997142D02*
X77604819Y-117330476D01*
X77604819Y-117330476D02*
X78604819Y-117759047D01*
X77604819Y-173913332D02*
X77604819Y-173294285D01*
X77604819Y-173294285D02*
X77985771Y-173627618D01*
X77985771Y-173627618D02*
X77985771Y-173484761D01*
X77985771Y-173484761D02*
X78033390Y-173389523D01*
X78033390Y-173389523D02*
X78081009Y-173341904D01*
X78081009Y-173341904D02*
X78176247Y-173294285D01*
X78176247Y-173294285D02*
X78414342Y-173294285D01*
X78414342Y-173294285D02*
X78509580Y-173341904D01*
X78509580Y-173341904D02*
X78557200Y-173389523D01*
X78557200Y-173389523D02*
X78604819Y-173484761D01*
X78604819Y-173484761D02*
X78604819Y-173770475D01*
X78604819Y-173770475D02*
X78557200Y-173865713D01*
X78557200Y-173865713D02*
X78509580Y-173913332D01*
X72514819Y-142233332D02*
X71514819Y-142233332D01*
X71514819Y-142233332D02*
X72229104Y-141899999D01*
X72229104Y-141899999D02*
X71514819Y-141566666D01*
X71514819Y-141566666D02*
X72514819Y-141566666D01*
X71514819Y-122385713D02*
X71514819Y-121814285D01*
X72514819Y-122099999D02*
X71514819Y-122099999D01*
X72514819Y-129710476D02*
X72038628Y-130043809D01*
X72514819Y-130281904D02*
X71514819Y-130281904D01*
X71514819Y-130281904D02*
X71514819Y-129900952D01*
X71514819Y-129900952D02*
X71562438Y-129805714D01*
X71562438Y-129805714D02*
X71610057Y-129758095D01*
X71610057Y-129758095D02*
X71705295Y-129710476D01*
X71705295Y-129710476D02*
X71848152Y-129710476D01*
X71848152Y-129710476D02*
X71943390Y-129758095D01*
X71943390Y-129758095D02*
X71991009Y-129805714D01*
X71991009Y-129805714D02*
X72038628Y-129900952D01*
X72038628Y-129900952D02*
X72038628Y-130281904D01*
X77604819Y-161509523D02*
X77604819Y-161699999D01*
X77604819Y-161699999D02*
X77652438Y-161795237D01*
X77652438Y-161795237D02*
X77700057Y-161842856D01*
X77700057Y-161842856D02*
X77842914Y-161938094D01*
X77842914Y-161938094D02*
X78033390Y-161985713D01*
X78033390Y-161985713D02*
X78414342Y-161985713D01*
X78414342Y-161985713D02*
X78509580Y-161938094D01*
X78509580Y-161938094D02*
X78557200Y-161890475D01*
X78557200Y-161890475D02*
X78604819Y-161795237D01*
X78604819Y-161795237D02*
X78604819Y-161604761D01*
X78604819Y-161604761D02*
X78557200Y-161509523D01*
X78557200Y-161509523D02*
X78509580Y-161461904D01*
X78509580Y-161461904D02*
X78414342Y-161414285D01*
X78414342Y-161414285D02*
X78176247Y-161414285D01*
X78176247Y-161414285D02*
X78081009Y-161461904D01*
X78081009Y-161461904D02*
X78033390Y-161509523D01*
X78033390Y-161509523D02*
X77985771Y-161604761D01*
X77985771Y-161604761D02*
X77985771Y-161795237D01*
X77985771Y-161795237D02*
X78033390Y-161890475D01*
X78033390Y-161890475D02*
X78081009Y-161938094D01*
X78081009Y-161938094D02*
X78176247Y-161985713D01*
X78604819Y-134170476D02*
X78604819Y-134741904D01*
X78604819Y-134456190D02*
X77604819Y-134456190D01*
X77604819Y-134456190D02*
X77747676Y-134551428D01*
X77747676Y-134551428D02*
X77842914Y-134646666D01*
X77842914Y-134646666D02*
X77890533Y-134741904D01*
X77604819Y-133837142D02*
X77604819Y-133218095D01*
X77604819Y-133218095D02*
X77985771Y-133551428D01*
X77985771Y-133551428D02*
X77985771Y-133408571D01*
X77985771Y-133408571D02*
X78033390Y-133313333D01*
X78033390Y-133313333D02*
X78081009Y-133265714D01*
X78081009Y-133265714D02*
X78176247Y-133218095D01*
X78176247Y-133218095D02*
X78414342Y-133218095D01*
X78414342Y-133218095D02*
X78509580Y-133265714D01*
X78509580Y-133265714D02*
X78557200Y-133313333D01*
X78557200Y-133313333D02*
X78604819Y-133408571D01*
X78604819Y-133408571D02*
X78604819Y-133694285D01*
X78604819Y-133694285D02*
X78557200Y-133789523D01*
X78557200Y-133789523D02*
X78509580Y-133837142D01*
X71514819Y-153637142D02*
X72229104Y-153637142D01*
X72229104Y-153637142D02*
X72371961Y-153684761D01*
X72371961Y-153684761D02*
X72467200Y-153779999D01*
X72467200Y-153779999D02*
X72514819Y-153922856D01*
X72514819Y-153922856D02*
X72514819Y-154018094D01*
X77700057Y-177825713D02*
X77652438Y-177778094D01*
X77652438Y-177778094D02*
X77604819Y-177682856D01*
X77604819Y-177682856D02*
X77604819Y-177444761D01*
X77604819Y-177444761D02*
X77652438Y-177349523D01*
X77652438Y-177349523D02*
X77700057Y-177301904D01*
X77700057Y-177301904D02*
X77795295Y-177254285D01*
X77795295Y-177254285D02*
X77890533Y-177254285D01*
X77890533Y-177254285D02*
X78033390Y-177301904D01*
X78033390Y-177301904D02*
X78604819Y-177873332D01*
X78604819Y-177873332D02*
X78604819Y-177254285D01*
X77700057Y-107021904D02*
X77652438Y-106974285D01*
X77652438Y-106974285D02*
X77604819Y-106879047D01*
X77604819Y-106879047D02*
X77604819Y-106640952D01*
X77604819Y-106640952D02*
X77652438Y-106545714D01*
X77652438Y-106545714D02*
X77700057Y-106498095D01*
X77700057Y-106498095D02*
X77795295Y-106450476D01*
X77795295Y-106450476D02*
X77890533Y-106450476D01*
X77890533Y-106450476D02*
X78033390Y-106498095D01*
X78033390Y-106498095D02*
X78604819Y-107069523D01*
X78604819Y-107069523D02*
X78604819Y-106450476D01*
X77604819Y-105831428D02*
X77604819Y-105736190D01*
X77604819Y-105736190D02*
X77652438Y-105640952D01*
X77652438Y-105640952D02*
X77700057Y-105593333D01*
X77700057Y-105593333D02*
X77795295Y-105545714D01*
X77795295Y-105545714D02*
X77985771Y-105498095D01*
X77985771Y-105498095D02*
X78223866Y-105498095D01*
X78223866Y-105498095D02*
X78414342Y-105545714D01*
X78414342Y-105545714D02*
X78509580Y-105593333D01*
X78509580Y-105593333D02*
X78557200Y-105640952D01*
X78557200Y-105640952D02*
X78604819Y-105736190D01*
X78604819Y-105736190D02*
X78604819Y-105831428D01*
X78604819Y-105831428D02*
X78557200Y-105926666D01*
X78557200Y-105926666D02*
X78509580Y-105974285D01*
X78509580Y-105974285D02*
X78414342Y-106021904D01*
X78414342Y-106021904D02*
X78223866Y-106069523D01*
X78223866Y-106069523D02*
X77985771Y-106069523D01*
X77985771Y-106069523D02*
X77795295Y-106021904D01*
X77795295Y-106021904D02*
X77700057Y-105974285D01*
X77700057Y-105974285D02*
X77652438Y-105926666D01*
X77652438Y-105926666D02*
X77604819Y-105831428D01*
X77700057Y-99101904D02*
X77652438Y-99054285D01*
X77652438Y-99054285D02*
X77604819Y-98959047D01*
X77604819Y-98959047D02*
X77604819Y-98720952D01*
X77604819Y-98720952D02*
X77652438Y-98625714D01*
X77652438Y-98625714D02*
X77700057Y-98578095D01*
X77700057Y-98578095D02*
X77795295Y-98530476D01*
X77795295Y-98530476D02*
X77890533Y-98530476D01*
X77890533Y-98530476D02*
X78033390Y-98578095D01*
X78033390Y-98578095D02*
X78604819Y-99149523D01*
X78604819Y-99149523D02*
X78604819Y-98530476D01*
X77700057Y-98149523D02*
X77652438Y-98101904D01*
X77652438Y-98101904D02*
X77604819Y-98006666D01*
X77604819Y-98006666D02*
X77604819Y-97768571D01*
X77604819Y-97768571D02*
X77652438Y-97673333D01*
X77652438Y-97673333D02*
X77700057Y-97625714D01*
X77700057Y-97625714D02*
X77795295Y-97578095D01*
X77795295Y-97578095D02*
X77890533Y-97578095D01*
X77890533Y-97578095D02*
X78033390Y-97625714D01*
X78033390Y-97625714D02*
X78604819Y-98197142D01*
X78604819Y-98197142D02*
X78604819Y-97578095D01*
X78604819Y-130210476D02*
X78604819Y-130781904D01*
X78604819Y-130496190D02*
X77604819Y-130496190D01*
X77604819Y-130496190D02*
X77747676Y-130591428D01*
X77747676Y-130591428D02*
X77842914Y-130686666D01*
X77842914Y-130686666D02*
X77890533Y-130781904D01*
X77938152Y-129353333D02*
X78604819Y-129353333D01*
X77557200Y-129591428D02*
X78271485Y-129829523D01*
X78271485Y-129829523D02*
X78271485Y-129210476D01*
X71991009Y-177468571D02*
X72038628Y-177325714D01*
X72038628Y-177325714D02*
X72086247Y-177278095D01*
X72086247Y-177278095D02*
X72181485Y-177230476D01*
X72181485Y-177230476D02*
X72324342Y-177230476D01*
X72324342Y-177230476D02*
X72419580Y-177278095D01*
X72419580Y-177278095D02*
X72467200Y-177325714D01*
X72467200Y-177325714D02*
X72514819Y-177420952D01*
X72514819Y-177420952D02*
X72514819Y-177801904D01*
X72514819Y-177801904D02*
X71514819Y-177801904D01*
X71514819Y-177801904D02*
X71514819Y-177468571D01*
X71514819Y-177468571D02*
X71562438Y-177373333D01*
X71562438Y-177373333D02*
X71610057Y-177325714D01*
X71610057Y-177325714D02*
X71705295Y-177278095D01*
X71705295Y-177278095D02*
X71800533Y-177278095D01*
X71800533Y-177278095D02*
X71895771Y-177325714D01*
X71895771Y-177325714D02*
X71943390Y-177373333D01*
X71943390Y-177373333D02*
X71991009Y-177468571D01*
X71991009Y-177468571D02*
X71991009Y-177801904D01*
X77700057Y-83261904D02*
X77652438Y-83214285D01*
X77652438Y-83214285D02*
X77604819Y-83119047D01*
X77604819Y-83119047D02*
X77604819Y-82880952D01*
X77604819Y-82880952D02*
X77652438Y-82785714D01*
X77652438Y-82785714D02*
X77700057Y-82738095D01*
X77700057Y-82738095D02*
X77795295Y-82690476D01*
X77795295Y-82690476D02*
X77890533Y-82690476D01*
X77890533Y-82690476D02*
X78033390Y-82738095D01*
X78033390Y-82738095D02*
X78604819Y-83309523D01*
X78604819Y-83309523D02*
X78604819Y-82690476D01*
X77604819Y-81833333D02*
X77604819Y-82023809D01*
X77604819Y-82023809D02*
X77652438Y-82119047D01*
X77652438Y-82119047D02*
X77700057Y-82166666D01*
X77700057Y-82166666D02*
X77842914Y-82261904D01*
X77842914Y-82261904D02*
X78033390Y-82309523D01*
X78033390Y-82309523D02*
X78414342Y-82309523D01*
X78414342Y-82309523D02*
X78509580Y-82261904D01*
X78509580Y-82261904D02*
X78557200Y-82214285D01*
X78557200Y-82214285D02*
X78604819Y-82119047D01*
X78604819Y-82119047D02*
X78604819Y-81928571D01*
X78604819Y-81928571D02*
X78557200Y-81833333D01*
X78557200Y-81833333D02*
X78509580Y-81785714D01*
X78509580Y-81785714D02*
X78414342Y-81738095D01*
X78414342Y-81738095D02*
X78176247Y-81738095D01*
X78176247Y-81738095D02*
X78081009Y-81785714D01*
X78081009Y-81785714D02*
X78033390Y-81833333D01*
X78033390Y-81833333D02*
X77985771Y-81928571D01*
X77985771Y-81928571D02*
X77985771Y-82119047D01*
X77985771Y-82119047D02*
X78033390Y-82214285D01*
X78033390Y-82214285D02*
X78081009Y-82261904D01*
X78081009Y-82261904D02*
X78176247Y-82309523D01*
X72229104Y-94618094D02*
X72229104Y-94141904D01*
X72514819Y-94713332D02*
X71514819Y-94379999D01*
X71514819Y-94379999D02*
X72514819Y-94046666D01*
X71237200Y-94708571D02*
X71237200Y-94051428D01*
X71991009Y-90348571D02*
X72038628Y-90205714D01*
X72038628Y-90205714D02*
X72086247Y-90158095D01*
X72086247Y-90158095D02*
X72181485Y-90110476D01*
X72181485Y-90110476D02*
X72324342Y-90110476D01*
X72324342Y-90110476D02*
X72419580Y-90158095D01*
X72419580Y-90158095D02*
X72467200Y-90205714D01*
X72467200Y-90205714D02*
X72514819Y-90300952D01*
X72514819Y-90300952D02*
X72514819Y-90681904D01*
X72514819Y-90681904D02*
X71514819Y-90681904D01*
X71514819Y-90681904D02*
X71514819Y-90348571D01*
X71514819Y-90348571D02*
X71562438Y-90253333D01*
X71562438Y-90253333D02*
X71610057Y-90205714D01*
X71610057Y-90205714D02*
X71705295Y-90158095D01*
X71705295Y-90158095D02*
X71800533Y-90158095D01*
X71800533Y-90158095D02*
X71895771Y-90205714D01*
X71895771Y-90205714D02*
X71943390Y-90253333D01*
X71943390Y-90253333D02*
X71991009Y-90348571D01*
X71991009Y-90348571D02*
X71991009Y-90681904D01*
X71237200Y-90820000D02*
X71237200Y-90020000D01*
X77700057Y-95141904D02*
X77652438Y-95094285D01*
X77652438Y-95094285D02*
X77604819Y-94999047D01*
X77604819Y-94999047D02*
X77604819Y-94760952D01*
X77604819Y-94760952D02*
X77652438Y-94665714D01*
X77652438Y-94665714D02*
X77700057Y-94618095D01*
X77700057Y-94618095D02*
X77795295Y-94570476D01*
X77795295Y-94570476D02*
X77890533Y-94570476D01*
X77890533Y-94570476D02*
X78033390Y-94618095D01*
X78033390Y-94618095D02*
X78604819Y-95189523D01*
X78604819Y-95189523D02*
X78604819Y-94570476D01*
X77604819Y-94237142D02*
X77604819Y-93618095D01*
X77604819Y-93618095D02*
X77985771Y-93951428D01*
X77985771Y-93951428D02*
X77985771Y-93808571D01*
X77985771Y-93808571D02*
X78033390Y-93713333D01*
X78033390Y-93713333D02*
X78081009Y-93665714D01*
X78081009Y-93665714D02*
X78176247Y-93618095D01*
X78176247Y-93618095D02*
X78414342Y-93618095D01*
X78414342Y-93618095D02*
X78509580Y-93665714D01*
X78509580Y-93665714D02*
X78557200Y-93713333D01*
X78557200Y-93713333D02*
X78604819Y-93808571D01*
X78604819Y-93808571D02*
X78604819Y-94094285D01*
X78604819Y-94094285D02*
X78557200Y-94189523D01*
X78557200Y-94189523D02*
X78509580Y-94237142D01*
X72514819Y-51105713D02*
X71514819Y-51105713D01*
X71514819Y-51105713D02*
X72514819Y-50534285D01*
X72514819Y-50534285D02*
X71514819Y-50534285D01*
X71237200Y-51243809D02*
X71237200Y-50396190D01*
X78604819Y-138130476D02*
X78604819Y-138701904D01*
X78604819Y-138416190D02*
X77604819Y-138416190D01*
X77604819Y-138416190D02*
X77747676Y-138511428D01*
X77747676Y-138511428D02*
X77842914Y-138606666D01*
X77842914Y-138606666D02*
X77890533Y-138701904D01*
X77700057Y-137749523D02*
X77652438Y-137701904D01*
X77652438Y-137701904D02*
X77604819Y-137606666D01*
X77604819Y-137606666D02*
X77604819Y-137368571D01*
X77604819Y-137368571D02*
X77652438Y-137273333D01*
X77652438Y-137273333D02*
X77700057Y-137225714D01*
X77700057Y-137225714D02*
X77795295Y-137178095D01*
X77795295Y-137178095D02*
X77890533Y-137178095D01*
X77890533Y-137178095D02*
X78033390Y-137225714D01*
X78033390Y-137225714D02*
X78604819Y-137797142D01*
X78604819Y-137797142D02*
X78604819Y-137178095D01*
X77700057Y-75341904D02*
X77652438Y-75294285D01*
X77652438Y-75294285D02*
X77604819Y-75199047D01*
X77604819Y-75199047D02*
X77604819Y-74960952D01*
X77604819Y-74960952D02*
X77652438Y-74865714D01*
X77652438Y-74865714D02*
X77700057Y-74818095D01*
X77700057Y-74818095D02*
X77795295Y-74770476D01*
X77795295Y-74770476D02*
X77890533Y-74770476D01*
X77890533Y-74770476D02*
X78033390Y-74818095D01*
X78033390Y-74818095D02*
X78604819Y-75389523D01*
X78604819Y-75389523D02*
X78604819Y-74770476D01*
X78033390Y-74199047D02*
X77985771Y-74294285D01*
X77985771Y-74294285D02*
X77938152Y-74341904D01*
X77938152Y-74341904D02*
X77842914Y-74389523D01*
X77842914Y-74389523D02*
X77795295Y-74389523D01*
X77795295Y-74389523D02*
X77700057Y-74341904D01*
X77700057Y-74341904D02*
X77652438Y-74294285D01*
X77652438Y-74294285D02*
X77604819Y-74199047D01*
X77604819Y-74199047D02*
X77604819Y-74008571D01*
X77604819Y-74008571D02*
X77652438Y-73913333D01*
X77652438Y-73913333D02*
X77700057Y-73865714D01*
X77700057Y-73865714D02*
X77795295Y-73818095D01*
X77795295Y-73818095D02*
X77842914Y-73818095D01*
X77842914Y-73818095D02*
X77938152Y-73865714D01*
X77938152Y-73865714D02*
X77985771Y-73913333D01*
X77985771Y-73913333D02*
X78033390Y-74008571D01*
X78033390Y-74008571D02*
X78033390Y-74199047D01*
X78033390Y-74199047D02*
X78081009Y-74294285D01*
X78081009Y-74294285D02*
X78128628Y-74341904D01*
X78128628Y-74341904D02*
X78223866Y-74389523D01*
X78223866Y-74389523D02*
X78414342Y-74389523D01*
X78414342Y-74389523D02*
X78509580Y-74341904D01*
X78509580Y-74341904D02*
X78557200Y-74294285D01*
X78557200Y-74294285D02*
X78604819Y-74199047D01*
X78604819Y-74199047D02*
X78604819Y-74008571D01*
X78604819Y-74008571D02*
X78557200Y-73913333D01*
X78557200Y-73913333D02*
X78509580Y-73865714D01*
X78509580Y-73865714D02*
X78414342Y-73818095D01*
X78414342Y-73818095D02*
X78223866Y-73818095D01*
X78223866Y-73818095D02*
X78128628Y-73865714D01*
X78128628Y-73865714D02*
X78081009Y-73913333D01*
X78081009Y-73913333D02*
X78033390Y-74008571D01*
X77700057Y-79301904D02*
X77652438Y-79254285D01*
X77652438Y-79254285D02*
X77604819Y-79159047D01*
X77604819Y-79159047D02*
X77604819Y-78920952D01*
X77604819Y-78920952D02*
X77652438Y-78825714D01*
X77652438Y-78825714D02*
X77700057Y-78778095D01*
X77700057Y-78778095D02*
X77795295Y-78730476D01*
X77795295Y-78730476D02*
X77890533Y-78730476D01*
X77890533Y-78730476D02*
X78033390Y-78778095D01*
X78033390Y-78778095D02*
X78604819Y-79349523D01*
X78604819Y-79349523D02*
X78604819Y-78730476D01*
X77604819Y-78397142D02*
X77604819Y-77730476D01*
X77604819Y-77730476D02*
X78604819Y-78159047D01*
X78604819Y-122290476D02*
X78604819Y-122861904D01*
X78604819Y-122576190D02*
X77604819Y-122576190D01*
X77604819Y-122576190D02*
X77747676Y-122671428D01*
X77747676Y-122671428D02*
X77842914Y-122766666D01*
X77842914Y-122766666D02*
X77890533Y-122861904D01*
X77604819Y-121433333D02*
X77604819Y-121623809D01*
X77604819Y-121623809D02*
X77652438Y-121719047D01*
X77652438Y-121719047D02*
X77700057Y-121766666D01*
X77700057Y-121766666D02*
X77842914Y-121861904D01*
X77842914Y-121861904D02*
X78033390Y-121909523D01*
X78033390Y-121909523D02*
X78414342Y-121909523D01*
X78414342Y-121909523D02*
X78509580Y-121861904D01*
X78509580Y-121861904D02*
X78557200Y-121814285D01*
X78557200Y-121814285D02*
X78604819Y-121719047D01*
X78604819Y-121719047D02*
X78604819Y-121528571D01*
X78604819Y-121528571D02*
X78557200Y-121433333D01*
X78557200Y-121433333D02*
X78509580Y-121385714D01*
X78509580Y-121385714D02*
X78414342Y-121338095D01*
X78414342Y-121338095D02*
X78176247Y-121338095D01*
X78176247Y-121338095D02*
X78081009Y-121385714D01*
X78081009Y-121385714D02*
X78033390Y-121433333D01*
X78033390Y-121433333D02*
X77985771Y-121528571D01*
X77985771Y-121528571D02*
X77985771Y-121719047D01*
X77985771Y-121719047D02*
X78033390Y-121814285D01*
X78033390Y-121814285D02*
X78081009Y-121861904D01*
X78081009Y-121861904D02*
X78176247Y-121909523D01*
X77604819Y-59549523D02*
X77604819Y-58930476D01*
X77604819Y-58930476D02*
X77985771Y-59263809D01*
X77985771Y-59263809D02*
X77985771Y-59120952D01*
X77985771Y-59120952D02*
X78033390Y-59025714D01*
X78033390Y-59025714D02*
X78081009Y-58978095D01*
X78081009Y-58978095D02*
X78176247Y-58930476D01*
X78176247Y-58930476D02*
X78414342Y-58930476D01*
X78414342Y-58930476D02*
X78509580Y-58978095D01*
X78509580Y-58978095D02*
X78557200Y-59025714D01*
X78557200Y-59025714D02*
X78604819Y-59120952D01*
X78604819Y-59120952D02*
X78604819Y-59406666D01*
X78604819Y-59406666D02*
X78557200Y-59501904D01*
X78557200Y-59501904D02*
X78509580Y-59549523D01*
X77700057Y-58549523D02*
X77652438Y-58501904D01*
X77652438Y-58501904D02*
X77604819Y-58406666D01*
X77604819Y-58406666D02*
X77604819Y-58168571D01*
X77604819Y-58168571D02*
X77652438Y-58073333D01*
X77652438Y-58073333D02*
X77700057Y-58025714D01*
X77700057Y-58025714D02*
X77795295Y-57978095D01*
X77795295Y-57978095D02*
X77890533Y-57978095D01*
X77890533Y-57978095D02*
X78033390Y-58025714D01*
X78033390Y-58025714D02*
X78604819Y-58597142D01*
X78604819Y-58597142D02*
X78604819Y-57978095D01*
X78604819Y-142090476D02*
X78604819Y-142661904D01*
X78604819Y-142376190D02*
X77604819Y-142376190D01*
X77604819Y-142376190D02*
X77747676Y-142471428D01*
X77747676Y-142471428D02*
X77842914Y-142566666D01*
X77842914Y-142566666D02*
X77890533Y-142661904D01*
X78604819Y-141138095D02*
X78604819Y-141709523D01*
X78604819Y-141423809D02*
X77604819Y-141423809D01*
X77604819Y-141423809D02*
X77747676Y-141519047D01*
X77747676Y-141519047D02*
X77842914Y-141614285D01*
X77842914Y-141614285D02*
X77890533Y-141709523D01*
X72514819Y-138225713D02*
X71514819Y-138225713D01*
X71514819Y-138225713D02*
X72514819Y-137654285D01*
X72514819Y-137654285D02*
X71514819Y-137654285D01*
X77938152Y-169429523D02*
X78604819Y-169429523D01*
X77557200Y-169667618D02*
X78271485Y-169905713D01*
X78271485Y-169905713D02*
X78271485Y-169286666D01*
X78604819Y-126250476D02*
X78604819Y-126821904D01*
X78604819Y-126536190D02*
X77604819Y-126536190D01*
X77604819Y-126536190D02*
X77747676Y-126631428D01*
X77747676Y-126631428D02*
X77842914Y-126726666D01*
X77842914Y-126726666D02*
X77890533Y-126821904D01*
X77604819Y-125345714D02*
X77604819Y-125821904D01*
X77604819Y-125821904D02*
X78081009Y-125869523D01*
X78081009Y-125869523D02*
X78033390Y-125821904D01*
X78033390Y-125821904D02*
X77985771Y-125726666D01*
X77985771Y-125726666D02*
X77985771Y-125488571D01*
X77985771Y-125488571D02*
X78033390Y-125393333D01*
X78033390Y-125393333D02*
X78081009Y-125345714D01*
X78081009Y-125345714D02*
X78176247Y-125298095D01*
X78176247Y-125298095D02*
X78414342Y-125298095D01*
X78414342Y-125298095D02*
X78509580Y-125345714D01*
X78509580Y-125345714D02*
X78557200Y-125393333D01*
X78557200Y-125393333D02*
X78604819Y-125488571D01*
X78604819Y-125488571D02*
X78604819Y-125726666D01*
X78604819Y-125726666D02*
X78557200Y-125821904D01*
X78557200Y-125821904D02*
X78509580Y-125869523D01*
X71514819Y-114513332D02*
X72514819Y-114179999D01*
X72514819Y-114179999D02*
X71514819Y-113846666D01*
X78604819Y-181214285D02*
X78604819Y-181785713D01*
X78604819Y-181499999D02*
X77604819Y-181499999D01*
X77604819Y-181499999D02*
X77747676Y-181595237D01*
X77747676Y-181595237D02*
X77842914Y-181690475D01*
X77842914Y-181690475D02*
X77890533Y-181785713D01*
X72514819Y-47121904D02*
X71514819Y-47121904D01*
X71514819Y-47121904D02*
X71514819Y-46740952D01*
X71514819Y-46740952D02*
X71562438Y-46645714D01*
X71562438Y-46645714D02*
X71610057Y-46598095D01*
X71610057Y-46598095D02*
X71705295Y-46550476D01*
X71705295Y-46550476D02*
X71848152Y-46550476D01*
X71848152Y-46550476D02*
X71943390Y-46598095D01*
X71943390Y-46598095D02*
X71991009Y-46645714D01*
X71991009Y-46645714D02*
X72038628Y-46740952D01*
X72038628Y-46740952D02*
X72038628Y-47121904D01*
X71237200Y-47260000D02*
X71237200Y-46460000D01*
X72514819Y-70905713D02*
X71514819Y-70905713D01*
X71991009Y-70905713D02*
X71991009Y-70334285D01*
X72514819Y-70334285D02*
X71514819Y-70334285D01*
X71237200Y-71043809D02*
X71237200Y-70196190D01*
X72514819Y-55113332D02*
X71514819Y-55113332D01*
X71514819Y-55113332D02*
X72229104Y-54779999D01*
X72229104Y-54779999D02*
X71514819Y-54446666D01*
X71514819Y-54446666D02*
X72514819Y-54446666D01*
X71237200Y-55251428D02*
X71237200Y-54308571D01*
D13*
%TO.C,J74*%
X74490000Y-44230000D02*
X74490000Y-42900000D01*
X75820000Y-44230000D02*
X74490000Y-44230000D01*
X77090000Y-44230000D02*
X77150000Y-44230000D01*
X77090000Y-44230000D02*
X77090000Y-41570000D01*
X77150000Y-44230000D02*
X77150000Y-41570000D01*
X77090000Y-41570000D02*
X77150000Y-41570000D01*
%TO.C,J54*%
X74490000Y-91750000D02*
X74490000Y-90420000D01*
X75820000Y-91750000D02*
X74490000Y-91750000D01*
X77090000Y-91750000D02*
X77150000Y-91750000D01*
X77090000Y-91750000D02*
X77090000Y-89090000D01*
X77150000Y-91750000D02*
X77150000Y-89090000D01*
X77090000Y-89090000D02*
X77150000Y-89090000D01*
%TO.C,J66*%
X68400000Y-44230000D02*
X68400000Y-42900000D01*
X69730000Y-44230000D02*
X68400000Y-44230000D01*
X71000000Y-44230000D02*
X71060000Y-44230000D01*
X71000000Y-44230000D02*
X71000000Y-41570000D01*
X71060000Y-44230000D02*
X71060000Y-41570000D01*
X71000000Y-41570000D02*
X71060000Y-41570000D01*
%TO.C,J6*%
X68400000Y-170950000D02*
X68400000Y-169620000D01*
X69730000Y-170950000D02*
X68400000Y-170950000D01*
X71000000Y-170950000D02*
X71060000Y-170950000D01*
X71000000Y-170950000D02*
X71000000Y-168290000D01*
X71060000Y-170950000D02*
X71060000Y-168290000D01*
X71000000Y-168290000D02*
X71060000Y-168290000D01*
%TO.C,J73*%
X74490000Y-48190000D02*
X74490000Y-46860000D01*
X75820000Y-48190000D02*
X74490000Y-48190000D01*
X77090000Y-48190000D02*
X77150000Y-48190000D01*
X77090000Y-48190000D02*
X77090000Y-45530000D01*
X77150000Y-48190000D02*
X77150000Y-45530000D01*
X77090000Y-45530000D02*
X77150000Y-45530000D01*
%TO.C,J48*%
X74490000Y-115510000D02*
X74490000Y-114180000D01*
X75820000Y-115510000D02*
X74490000Y-115510000D01*
X77090000Y-115510000D02*
X77150000Y-115510000D01*
X77090000Y-115510000D02*
X77090000Y-112850000D01*
X77150000Y-115510000D02*
X77150000Y-112850000D01*
X77090000Y-112850000D02*
X77150000Y-112850000D01*
%TO.C,J37*%
X74490000Y-159070000D02*
X74490000Y-157740000D01*
X75820000Y-159070000D02*
X74490000Y-159070000D01*
X77090000Y-159070000D02*
X77150000Y-159070000D01*
X77090000Y-159070000D02*
X77090000Y-156410000D01*
X77150000Y-159070000D02*
X77150000Y-156410000D01*
X77090000Y-156410000D02*
X77150000Y-156410000D01*
%TO.C,J3*%
X68400000Y-182830000D02*
X68400000Y-181500000D01*
X69730000Y-182830000D02*
X68400000Y-182830000D01*
X71000000Y-182830000D02*
X71060000Y-182830000D01*
X71000000Y-182830000D02*
X71000000Y-180170000D01*
X71060000Y-182830000D02*
X71060000Y-180170000D01*
X71000000Y-180170000D02*
X71060000Y-180170000D01*
%TO.C,J60*%
X68400000Y-64030000D02*
X68400000Y-62700000D01*
X69730000Y-64030000D02*
X68400000Y-64030000D01*
X71000000Y-64030000D02*
X71060000Y-64030000D01*
X71000000Y-64030000D02*
X71000000Y-61370000D01*
X71060000Y-64030000D02*
X71060000Y-61370000D01*
X71000000Y-61370000D02*
X71060000Y-61370000D01*
%TO.C,J28*%
X68400000Y-83830000D02*
X68400000Y-82500000D01*
X69730000Y-83830000D02*
X68400000Y-83830000D01*
X71000000Y-83830000D02*
X71060000Y-83830000D01*
X71000000Y-83830000D02*
X71000000Y-81170000D01*
X71060000Y-83830000D02*
X71060000Y-81170000D01*
X71000000Y-81170000D02*
X71060000Y-81170000D01*
%TO.C,J61*%
X68400000Y-60070000D02*
X68400000Y-58740000D01*
X69730000Y-60070000D02*
X68400000Y-60070000D01*
X71000000Y-60070000D02*
X71060000Y-60070000D01*
X71000000Y-60070000D02*
X71000000Y-57410000D01*
X71060000Y-60070000D02*
X71060000Y-57410000D01*
X71000000Y-57410000D02*
X71060000Y-57410000D01*
%TO.C,J51*%
X74490000Y-103630000D02*
X74490000Y-102300000D01*
X75820000Y-103630000D02*
X74490000Y-103630000D01*
X77090000Y-103630000D02*
X77150000Y-103630000D01*
X77090000Y-103630000D02*
X77090000Y-100970000D01*
X77150000Y-103630000D02*
X77150000Y-100970000D01*
X77090000Y-100970000D02*
X77150000Y-100970000D01*
%TO.C,J27*%
X68400000Y-87790000D02*
X68400000Y-86460000D01*
X69730000Y-87790000D02*
X68400000Y-87790000D01*
X71000000Y-87790000D02*
X71060000Y-87790000D01*
X71000000Y-87790000D02*
X71000000Y-85130000D01*
X71060000Y-87790000D02*
X71060000Y-85130000D01*
X71000000Y-85130000D02*
X71060000Y-85130000D01*
%TO.C,J35*%
X74490000Y-166990000D02*
X74490000Y-165660000D01*
X75820000Y-166990000D02*
X74490000Y-166990000D01*
X77090000Y-166990000D02*
X77150000Y-166990000D01*
X77090000Y-166990000D02*
X77090000Y-164330000D01*
X77150000Y-166990000D02*
X77150000Y-164330000D01*
X77090000Y-164330000D02*
X77150000Y-164330000D01*
%TO.C,J17*%
X68400000Y-127390000D02*
X68400000Y-126060000D01*
X69730000Y-127390000D02*
X68400000Y-127390000D01*
X71000000Y-127390000D02*
X71060000Y-127390000D01*
X71000000Y-127390000D02*
X71000000Y-124730000D01*
X71060000Y-127390000D02*
X71060000Y-124730000D01*
X71000000Y-124730000D02*
X71060000Y-124730000D01*
%TO.C,J59*%
X68400000Y-67990000D02*
X68400000Y-66660000D01*
X69730000Y-67990000D02*
X68400000Y-67990000D01*
X71000000Y-67990000D02*
X71060000Y-67990000D01*
X71000000Y-67990000D02*
X71000000Y-65330000D01*
X71060000Y-67990000D02*
X71060000Y-65330000D01*
X71000000Y-65330000D02*
X71060000Y-65330000D01*
%TO.C,J55*%
X74490000Y-87790000D02*
X74490000Y-86460000D01*
X75820000Y-87790000D02*
X74490000Y-87790000D01*
X77090000Y-87790000D02*
X77150000Y-87790000D01*
X77090000Y-87790000D02*
X77090000Y-85130000D01*
X77150000Y-87790000D02*
X77150000Y-85130000D01*
X77090000Y-85130000D02*
X77150000Y-85130000D01*
%TO.C,J23*%
X68400000Y-103630000D02*
X68400000Y-102300000D01*
X69730000Y-103630000D02*
X68400000Y-103630000D01*
X71000000Y-103630000D02*
X71060000Y-103630000D01*
X71000000Y-103630000D02*
X71000000Y-100970000D01*
X71060000Y-103630000D02*
X71060000Y-100970000D01*
X71000000Y-100970000D02*
X71060000Y-100970000D01*
%TO.C,J22*%
X68400000Y-107590000D02*
X68400000Y-106260000D01*
X69730000Y-107590000D02*
X68400000Y-107590000D01*
X71000000Y-107590000D02*
X71060000Y-107590000D01*
X71000000Y-107590000D02*
X71000000Y-104930000D01*
X71060000Y-107590000D02*
X71060000Y-104930000D01*
X71000000Y-104930000D02*
X71060000Y-104930000D01*
%TO.C,J7*%
X68400000Y-166990000D02*
X68400000Y-165660000D01*
X69730000Y-166990000D02*
X68400000Y-166990000D01*
X71000000Y-166990000D02*
X71060000Y-166990000D01*
X71000000Y-166990000D02*
X71000000Y-164330000D01*
X71060000Y-166990000D02*
X71060000Y-164330000D01*
X71000000Y-164330000D02*
X71060000Y-164330000D01*
%TO.C,J67*%
X74490000Y-71950000D02*
X74490000Y-70620000D01*
X75820000Y-71950000D02*
X74490000Y-71950000D01*
X77090000Y-71950000D02*
X77150000Y-71950000D01*
X77090000Y-71950000D02*
X77090000Y-69290000D01*
X77150000Y-71950000D02*
X77150000Y-69290000D01*
X77090000Y-69290000D02*
X77150000Y-69290000D01*
%TO.C,J15*%
X68400000Y-135310000D02*
X68400000Y-133980000D01*
X69730000Y-135310000D02*
X68400000Y-135310000D01*
X71000000Y-135310000D02*
X71060000Y-135310000D01*
X71000000Y-135310000D02*
X71000000Y-132650000D01*
X71060000Y-135310000D02*
X71060000Y-132650000D01*
X71000000Y-132650000D02*
X71060000Y-132650000D01*
%TO.C,J40*%
X74490000Y-147190000D02*
X74490000Y-145860000D01*
X75820000Y-147190000D02*
X74490000Y-147190000D01*
X77090000Y-147190000D02*
X77150000Y-147190000D01*
X77090000Y-147190000D02*
X77090000Y-144530000D01*
X77150000Y-147190000D02*
X77150000Y-144530000D01*
X77090000Y-144530000D02*
X77150000Y-144530000D01*
%TO.C,J65*%
X68400000Y-75910000D02*
X68400000Y-74580000D01*
X69730000Y-75910000D02*
X68400000Y-75910000D01*
X71000000Y-75910000D02*
X71060000Y-75910000D01*
X71000000Y-75910000D02*
X71000000Y-73250000D01*
X71060000Y-75910000D02*
X71060000Y-73250000D01*
X71000000Y-73250000D02*
X71060000Y-73250000D01*
%TO.C,J21*%
X68400000Y-111550000D02*
X68400000Y-110220000D01*
X69730000Y-111550000D02*
X68400000Y-111550000D01*
X71000000Y-111550000D02*
X71060000Y-111550000D01*
X71000000Y-111550000D02*
X71000000Y-108890000D01*
X71060000Y-111550000D02*
X71060000Y-108890000D01*
X71000000Y-108890000D02*
X71060000Y-108890000D01*
%TO.C,J11*%
X68400000Y-151150000D02*
X68400000Y-149820000D01*
X69730000Y-151150000D02*
X68400000Y-151150000D01*
X71000000Y-151150000D02*
X71060000Y-151150000D01*
X71000000Y-151150000D02*
X71000000Y-148490000D01*
X71060000Y-151150000D02*
X71060000Y-148490000D01*
X71000000Y-148490000D02*
X71060000Y-148490000D01*
%TO.C,J68*%
X74490000Y-67990000D02*
X74490000Y-66660000D01*
X75820000Y-67990000D02*
X74490000Y-67990000D01*
X77090000Y-67990000D02*
X77150000Y-67990000D01*
X77090000Y-67990000D02*
X77090000Y-65330000D01*
X77150000Y-67990000D02*
X77150000Y-65330000D01*
X77090000Y-65330000D02*
X77150000Y-65330000D01*
%TO.C,J12*%
X68400000Y-147190000D02*
X68400000Y-145860000D01*
X69730000Y-147190000D02*
X68400000Y-147190000D01*
X71000000Y-147190000D02*
X71060000Y-147190000D01*
X71000000Y-147190000D02*
X71000000Y-144530000D01*
X71060000Y-147190000D02*
X71060000Y-144530000D01*
X71000000Y-144530000D02*
X71060000Y-144530000D01*
%TO.C,J29*%
X68400000Y-79870000D02*
X68400000Y-78540000D01*
X69730000Y-79870000D02*
X68400000Y-79870000D01*
X71000000Y-79870000D02*
X71060000Y-79870000D01*
X71000000Y-79870000D02*
X71000000Y-77210000D01*
X71060000Y-79870000D02*
X71060000Y-77210000D01*
X71000000Y-77210000D02*
X71060000Y-77210000D01*
%TO.C,J49*%
X74490000Y-111550000D02*
X74490000Y-110220000D01*
X75820000Y-111550000D02*
X74490000Y-111550000D01*
X77090000Y-111550000D02*
X77150000Y-111550000D01*
X77090000Y-111550000D02*
X77090000Y-108890000D01*
X77150000Y-111550000D02*
X77150000Y-108890000D01*
X77090000Y-108890000D02*
X77150000Y-108890000D01*
%TO.C,J72*%
X74490000Y-52150000D02*
X74490000Y-50820000D01*
X75820000Y-52150000D02*
X74490000Y-52150000D01*
X77090000Y-52150000D02*
X77150000Y-52150000D01*
X77090000Y-52150000D02*
X77090000Y-49490000D01*
X77150000Y-52150000D02*
X77150000Y-49490000D01*
X77090000Y-49490000D02*
X77150000Y-49490000D01*
%TO.C,J19*%
X68400000Y-119470000D02*
X68400000Y-118140000D01*
X69730000Y-119470000D02*
X68400000Y-119470000D01*
X71000000Y-119470000D02*
X71060000Y-119470000D01*
X71000000Y-119470000D02*
X71000000Y-116810000D01*
X71060000Y-119470000D02*
X71060000Y-116810000D01*
X71000000Y-116810000D02*
X71060000Y-116810000D01*
%TO.C,J39*%
X74490000Y-151150000D02*
X74490000Y-149820000D01*
X75820000Y-151150000D02*
X74490000Y-151150000D01*
X77090000Y-151150000D02*
X77150000Y-151150000D01*
X77090000Y-151150000D02*
X77090000Y-148490000D01*
X77150000Y-151150000D02*
X77150000Y-148490000D01*
X77090000Y-148490000D02*
X77150000Y-148490000D01*
%TO.C,J5*%
X68400000Y-174910000D02*
X68400000Y-173580000D01*
X69730000Y-174910000D02*
X68400000Y-174910000D01*
X71000000Y-174910000D02*
X71060000Y-174910000D01*
X71000000Y-174910000D02*
X71000000Y-172250000D01*
X71060000Y-174910000D02*
X71060000Y-172250000D01*
X71000000Y-172250000D02*
X71060000Y-172250000D01*
%TO.C,J24*%
X68400000Y-99670000D02*
X68400000Y-98340000D01*
X69730000Y-99670000D02*
X68400000Y-99670000D01*
X71000000Y-99670000D02*
X71060000Y-99670000D01*
X71000000Y-99670000D02*
X71000000Y-97010000D01*
X71060000Y-99670000D02*
X71060000Y-97010000D01*
X71000000Y-97010000D02*
X71060000Y-97010000D01*
%TO.C,J8*%
X68400000Y-163030000D02*
X68400000Y-161700000D01*
X69730000Y-163030000D02*
X68400000Y-163030000D01*
X71000000Y-163030000D02*
X71060000Y-163030000D01*
X71000000Y-163030000D02*
X71000000Y-160370000D01*
X71060000Y-163030000D02*
X71060000Y-160370000D01*
X71000000Y-160370000D02*
X71060000Y-160370000D01*
%TO.C,J38*%
X74490000Y-155110000D02*
X74490000Y-153780000D01*
X75820000Y-155110000D02*
X74490000Y-155110000D01*
X77090000Y-155110000D02*
X77150000Y-155110000D01*
X77090000Y-155110000D02*
X77090000Y-152450000D01*
X77150000Y-155110000D02*
X77150000Y-152450000D01*
X77090000Y-152450000D02*
X77150000Y-152450000D01*
%TO.C,J9*%
X68400000Y-159070000D02*
X68400000Y-157740000D01*
X69730000Y-159070000D02*
X68400000Y-159070000D01*
X71000000Y-159070000D02*
X71060000Y-159070000D01*
X71000000Y-159070000D02*
X71000000Y-156410000D01*
X71060000Y-159070000D02*
X71060000Y-156410000D01*
X71000000Y-156410000D02*
X71060000Y-156410000D01*
%TO.C,J69*%
X74490000Y-64030000D02*
X74490000Y-62700000D01*
X75820000Y-64030000D02*
X74490000Y-64030000D01*
X77090000Y-64030000D02*
X77150000Y-64030000D01*
X77090000Y-64030000D02*
X77090000Y-61370000D01*
X77150000Y-64030000D02*
X77150000Y-61370000D01*
X77090000Y-61370000D02*
X77150000Y-61370000D01*
%TO.C,J71*%
X74490000Y-56110000D02*
X74490000Y-54780000D01*
X75820000Y-56110000D02*
X74490000Y-56110000D01*
X77090000Y-56110000D02*
X77150000Y-56110000D01*
X77090000Y-56110000D02*
X77090000Y-53450000D01*
X77150000Y-56110000D02*
X77150000Y-53450000D01*
X77090000Y-53450000D02*
X77150000Y-53450000D01*
%TO.C,J47*%
X74490000Y-119470000D02*
X74490000Y-118140000D01*
X75820000Y-119470000D02*
X74490000Y-119470000D01*
X77090000Y-119470000D02*
X77150000Y-119470000D01*
X77090000Y-119470000D02*
X77090000Y-116810000D01*
X77150000Y-119470000D02*
X77150000Y-116810000D01*
X77090000Y-116810000D02*
X77150000Y-116810000D01*
%TO.C,J33*%
X74490000Y-174910000D02*
X74490000Y-173580000D01*
X75820000Y-174910000D02*
X74490000Y-174910000D01*
X77090000Y-174910000D02*
X77150000Y-174910000D01*
X77090000Y-174910000D02*
X77090000Y-172250000D01*
X77150000Y-174910000D02*
X77150000Y-172250000D01*
X77090000Y-172250000D02*
X77150000Y-172250000D01*
%TO.C,J13*%
X68400000Y-143230000D02*
X68400000Y-141900000D01*
X69730000Y-143230000D02*
X68400000Y-143230000D01*
X71000000Y-143230000D02*
X71060000Y-143230000D01*
X71000000Y-143230000D02*
X71000000Y-140570000D01*
X71060000Y-143230000D02*
X71060000Y-140570000D01*
X71000000Y-140570000D02*
X71060000Y-140570000D01*
%TO.C,J18*%
X68400000Y-123430000D02*
X68400000Y-122100000D01*
X69730000Y-123430000D02*
X68400000Y-123430000D01*
X71000000Y-123430000D02*
X71060000Y-123430000D01*
X71000000Y-123430000D02*
X71000000Y-120770000D01*
X71060000Y-123430000D02*
X71060000Y-120770000D01*
X71000000Y-120770000D02*
X71060000Y-120770000D01*
%TO.C,J16*%
X68400000Y-131350000D02*
X68400000Y-130020000D01*
X69730000Y-131350000D02*
X68400000Y-131350000D01*
X71000000Y-131350000D02*
X71060000Y-131350000D01*
X71000000Y-131350000D02*
X71000000Y-128690000D01*
X71060000Y-131350000D02*
X71060000Y-128690000D01*
X71000000Y-128690000D02*
X71060000Y-128690000D01*
%TO.C,J36*%
X74490000Y-163030000D02*
X74490000Y-161700000D01*
X75820000Y-163030000D02*
X74490000Y-163030000D01*
X77090000Y-163030000D02*
X77150000Y-163030000D01*
X77090000Y-163030000D02*
X77090000Y-160370000D01*
X77150000Y-163030000D02*
X77150000Y-160370000D01*
X77090000Y-160370000D02*
X77150000Y-160370000D01*
%TO.C,J43*%
X74490000Y-135310000D02*
X74490000Y-133980000D01*
X75820000Y-135310000D02*
X74490000Y-135310000D01*
X77090000Y-135310000D02*
X77150000Y-135310000D01*
X77090000Y-135310000D02*
X77090000Y-132650000D01*
X77150000Y-135310000D02*
X77150000Y-132650000D01*
X77090000Y-132650000D02*
X77150000Y-132650000D01*
%TO.C,J10*%
X68400000Y-155110000D02*
X68400000Y-153780000D01*
X69730000Y-155110000D02*
X68400000Y-155110000D01*
X71000000Y-155110000D02*
X71060000Y-155110000D01*
X71000000Y-155110000D02*
X71000000Y-152450000D01*
X71060000Y-155110000D02*
X71060000Y-152450000D01*
X71000000Y-152450000D02*
X71060000Y-152450000D01*
%TO.C,J32*%
X74490000Y-178870000D02*
X74490000Y-177540000D01*
X75820000Y-178870000D02*
X74490000Y-178870000D01*
X77090000Y-178870000D02*
X77150000Y-178870000D01*
X77090000Y-178870000D02*
X77090000Y-176210000D01*
X77150000Y-178870000D02*
X77150000Y-176210000D01*
X77090000Y-176210000D02*
X77150000Y-176210000D01*
%TO.C,J50*%
X74490000Y-107590000D02*
X74490000Y-106260000D01*
X75820000Y-107590000D02*
X74490000Y-107590000D01*
X77090000Y-107590000D02*
X77150000Y-107590000D01*
X77090000Y-107590000D02*
X77090000Y-104930000D01*
X77150000Y-107590000D02*
X77150000Y-104930000D01*
X77090000Y-104930000D02*
X77150000Y-104930000D01*
%TO.C,J52*%
X74490000Y-99670000D02*
X74490000Y-98340000D01*
X75820000Y-99670000D02*
X74490000Y-99670000D01*
X77090000Y-99670000D02*
X77150000Y-99670000D01*
X77090000Y-99670000D02*
X77090000Y-97010000D01*
X77150000Y-99670000D02*
X77150000Y-97010000D01*
X77090000Y-97010000D02*
X77150000Y-97010000D01*
%TO.C,J44*%
X74490000Y-131350000D02*
X74490000Y-130020000D01*
X75820000Y-131350000D02*
X74490000Y-131350000D01*
X77090000Y-131350000D02*
X77150000Y-131350000D01*
X77090000Y-131350000D02*
X77090000Y-128690000D01*
X77150000Y-131350000D02*
X77150000Y-128690000D01*
X77090000Y-128690000D02*
X77150000Y-128690000D01*
%TO.C,J4*%
X68400000Y-178870000D02*
X68400000Y-177540000D01*
X69730000Y-178870000D02*
X68400000Y-178870000D01*
X71000000Y-178870000D02*
X71060000Y-178870000D01*
X71000000Y-178870000D02*
X71000000Y-176210000D01*
X71060000Y-178870000D02*
X71060000Y-176210000D01*
X71000000Y-176210000D02*
X71060000Y-176210000D01*
%TO.C,J56*%
X74490000Y-83830000D02*
X74490000Y-82500000D01*
X75820000Y-83830000D02*
X74490000Y-83830000D01*
X77090000Y-83830000D02*
X77150000Y-83830000D01*
X77090000Y-83830000D02*
X77090000Y-81170000D01*
X77150000Y-83830000D02*
X77150000Y-81170000D01*
X77090000Y-81170000D02*
X77150000Y-81170000D01*
%TO.C,J25*%
X68400000Y-95710000D02*
X68400000Y-94380000D01*
X69730000Y-95710000D02*
X68400000Y-95710000D01*
X71000000Y-95710000D02*
X71060000Y-95710000D01*
X71000000Y-95710000D02*
X71000000Y-93050000D01*
X71060000Y-95710000D02*
X71060000Y-93050000D01*
X71000000Y-93050000D02*
X71060000Y-93050000D01*
%TO.C,J26*%
X68400000Y-91750000D02*
X68400000Y-90420000D01*
X69730000Y-91750000D02*
X68400000Y-91750000D01*
X71000000Y-91750000D02*
X71060000Y-91750000D01*
X71000000Y-91750000D02*
X71000000Y-89090000D01*
X71060000Y-91750000D02*
X71060000Y-89090000D01*
X71000000Y-89090000D02*
X71060000Y-89090000D01*
%TO.C,J53*%
X74490000Y-95710000D02*
X74490000Y-94380000D01*
X75820000Y-95710000D02*
X74490000Y-95710000D01*
X77090000Y-95710000D02*
X77150000Y-95710000D01*
X77090000Y-95710000D02*
X77090000Y-93050000D01*
X77150000Y-95710000D02*
X77150000Y-93050000D01*
X77090000Y-93050000D02*
X77150000Y-93050000D01*
%TO.C,J63*%
X68400000Y-52150000D02*
X68400000Y-50820000D01*
X69730000Y-52150000D02*
X68400000Y-52150000D01*
X71000000Y-52150000D02*
X71060000Y-52150000D01*
X71000000Y-52150000D02*
X71000000Y-49490000D01*
X71060000Y-52150000D02*
X71060000Y-49490000D01*
X71000000Y-49490000D02*
X71060000Y-49490000D01*
%TO.C,J42*%
X74490000Y-139270000D02*
X74490000Y-137940000D01*
X75820000Y-139270000D02*
X74490000Y-139270000D01*
X77090000Y-139270000D02*
X77150000Y-139270000D01*
X77090000Y-139270000D02*
X77090000Y-136610000D01*
X77150000Y-139270000D02*
X77150000Y-136610000D01*
X77090000Y-136610000D02*
X77150000Y-136610000D01*
%TO.C,J58*%
X74490000Y-75910000D02*
X74490000Y-74580000D01*
X75820000Y-75910000D02*
X74490000Y-75910000D01*
X77090000Y-75910000D02*
X77150000Y-75910000D01*
X77090000Y-75910000D02*
X77090000Y-73250000D01*
X77150000Y-75910000D02*
X77150000Y-73250000D01*
X77090000Y-73250000D02*
X77150000Y-73250000D01*
%TO.C,J57*%
X74490000Y-79870000D02*
X74490000Y-78540000D01*
X75820000Y-79870000D02*
X74490000Y-79870000D01*
X77090000Y-79870000D02*
X77150000Y-79870000D01*
X77090000Y-79870000D02*
X77090000Y-77210000D01*
X77150000Y-79870000D02*
X77150000Y-77210000D01*
X77090000Y-77210000D02*
X77150000Y-77210000D01*
%TO.C,J46*%
X74490000Y-123430000D02*
X74490000Y-122100000D01*
X75820000Y-123430000D02*
X74490000Y-123430000D01*
X77090000Y-123430000D02*
X77150000Y-123430000D01*
X77090000Y-123430000D02*
X77090000Y-120770000D01*
X77150000Y-123430000D02*
X77150000Y-120770000D01*
X77090000Y-120770000D02*
X77150000Y-120770000D01*
%TO.C,J70*%
X74490000Y-60070000D02*
X74490000Y-58740000D01*
X75820000Y-60070000D02*
X74490000Y-60070000D01*
X77090000Y-60070000D02*
X77150000Y-60070000D01*
X77090000Y-60070000D02*
X77090000Y-57410000D01*
X77150000Y-60070000D02*
X77150000Y-57410000D01*
X77090000Y-57410000D02*
X77150000Y-57410000D01*
%TO.C,J41*%
X74490000Y-143230000D02*
X74490000Y-141900000D01*
X75820000Y-143230000D02*
X74490000Y-143230000D01*
X77090000Y-143230000D02*
X77150000Y-143230000D01*
X77090000Y-143230000D02*
X77090000Y-140570000D01*
X77150000Y-143230000D02*
X77150000Y-140570000D01*
X77090000Y-140570000D02*
X77150000Y-140570000D01*
%TO.C,J14*%
X68400000Y-139270000D02*
X68400000Y-137940000D01*
X69730000Y-139270000D02*
X68400000Y-139270000D01*
X71000000Y-139270000D02*
X71060000Y-139270000D01*
X71000000Y-139270000D02*
X71000000Y-136610000D01*
X71060000Y-139270000D02*
X71060000Y-136610000D01*
X71000000Y-136610000D02*
X71060000Y-136610000D01*
%TO.C,J34*%
X74490000Y-170950000D02*
X74490000Y-169620000D01*
X75820000Y-170950000D02*
X74490000Y-170950000D01*
X77090000Y-170950000D02*
X77150000Y-170950000D01*
X77090000Y-170950000D02*
X77090000Y-168290000D01*
X77150000Y-170950000D02*
X77150000Y-168290000D01*
X77090000Y-168290000D02*
X77150000Y-168290000D01*
%TO.C,J45*%
X74490000Y-127390000D02*
X74490000Y-126060000D01*
X75820000Y-127390000D02*
X74490000Y-127390000D01*
X77090000Y-127390000D02*
X77150000Y-127390000D01*
X77090000Y-127390000D02*
X77090000Y-124730000D01*
X77150000Y-127390000D02*
X77150000Y-124730000D01*
X77090000Y-124730000D02*
X77150000Y-124730000D01*
%TO.C,J20*%
X68400000Y-115510000D02*
X68400000Y-114180000D01*
X69730000Y-115510000D02*
X68400000Y-115510000D01*
X71000000Y-115510000D02*
X71060000Y-115510000D01*
X71000000Y-115510000D02*
X71000000Y-112850000D01*
X71060000Y-115510000D02*
X71060000Y-112850000D01*
X71000000Y-112850000D02*
X71060000Y-112850000D01*
%TO.C,J31*%
X74490000Y-182830000D02*
X74490000Y-181500000D01*
X75820000Y-182830000D02*
X74490000Y-182830000D01*
X77090000Y-182830000D02*
X77150000Y-182830000D01*
X77090000Y-182830000D02*
X77090000Y-180170000D01*
X77150000Y-182830000D02*
X77150000Y-180170000D01*
X77090000Y-180170000D02*
X77150000Y-180170000D01*
%TO.C,J64*%
X68400000Y-48190000D02*
X68400000Y-46860000D01*
X69730000Y-48190000D02*
X68400000Y-48190000D01*
X71000000Y-48190000D02*
X71060000Y-48190000D01*
X71000000Y-48190000D02*
X71000000Y-45530000D01*
X71060000Y-48190000D02*
X71060000Y-45530000D01*
X71000000Y-45530000D02*
X71060000Y-45530000D01*
%TO.C,J30*%
X68400000Y-71950000D02*
X68400000Y-70620000D01*
X69730000Y-71950000D02*
X68400000Y-71950000D01*
X71000000Y-71950000D02*
X71060000Y-71950000D01*
X71000000Y-71950000D02*
X71000000Y-69290000D01*
X71060000Y-71950000D02*
X71060000Y-69290000D01*
X71000000Y-69290000D02*
X71060000Y-69290000D01*
%TO.C,J62*%
X68400000Y-56110000D02*
X68400000Y-54780000D01*
X69730000Y-56110000D02*
X68400000Y-56110000D01*
X71000000Y-56110000D02*
X71060000Y-56110000D01*
X71000000Y-56110000D02*
X71000000Y-53450000D01*
X71060000Y-56110000D02*
X71060000Y-53450000D01*
X71000000Y-53450000D02*
X71060000Y-53450000D01*
%TD*%
M02*
