M48
; DRILL file {KiCad 8.0.2} date 2024-05-25T20:43:38+0200
; FORMAT={-:-/ absolute / inch / decimal}
; #@! TF.CreationDate,2024-05-25T20:43:38+02:00
; #@! TF.GenerationSoftware,Kicad,Pcbnew,8.0.2
; #@! TF.FileFunction,Plated,1,2,PTH
FMAT,2
INCH
; #@! TA.AperFunction,Plated,PTH,ComponentDrill
T1C0.0394
%
G90
G05
T1
X3.0709Y-3.9244
X3.0709Y-4.0803
X3.0709Y-4.2362
X3.0709Y-4.3921
X3.0709Y-4.548
X3.0709Y-4.7039
X3.0709Y-4.8598
X3.0709Y-5.0157
X3.0709Y-5.1717
X3.0709Y-5.3276
X3.0709Y-5.4835
X3.0709Y-5.6394
X3.0709Y-5.7953
X3.0709Y-5.9512
X3.0709Y-6.1071
X3.0709Y-6.263
X3.0709Y-6.4189
X3.0709Y-6.5748
X3.3465Y-3.9244
X3.3465Y-4.0803
X3.3465Y-4.2362
X3.3465Y-4.3921
X3.3465Y-4.548
X3.3465Y-4.7039
X3.3465Y-4.8598
X3.3465Y-5.0157
X3.3465Y-5.1717
X3.3465Y-5.3276
X3.3465Y-5.4835
X3.3465Y-5.6394
X3.3465Y-5.7953
X3.3465Y-5.9512
X3.3465Y-6.1071
X3.3465Y-6.263
X3.3465Y-6.4189
X3.3465Y-6.5748
M30
