%TF.GenerationSoftware,KiCad,Pcbnew,8.0.2*%
%TF.CreationDate,2024-05-25T20:43:41+02:00*%
%TF.ProjectId,Extender_36pin,45787465-6e64-4657-925f-333670696e2e,rev?*%
%TF.SameCoordinates,Original*%
%TF.FileFunction,Copper,L2,Bot*%
%TF.FilePolarity,Positive*%
%FSLAX46Y46*%
G04 Gerber Fmt 4.6, Leading zero omitted, Abs format (unit mm)*
G04 Created by KiCad (PCBNEW 8.0.2) date 2024-05-25 20:43:41*
%MOMM*%
%LPD*%
G01*
G04 APERTURE LIST*
%TA.AperFunction,ComponentPad*%
%ADD10R,1.700000X1.700000*%
%TD*%
%TA.AperFunction,SMDPad,CuDef*%
%ADD11R,8.800000X2.600000*%
%TD*%
%TA.AperFunction,Conductor*%
%ADD12C,1.500000*%
%TD*%
G04 APERTURE END LIST*
D10*
%TO.P,J9,1,Pin_1*%
%TO.N,/H*%
X78000000Y-143240000D03*
%TD*%
%TO.P,J8,1,Pin_1*%
%TO.N,/F*%
X78000000Y-147200000D03*
%TD*%
%TO.P,J23,1,Pin_1*%
%TO.N,/3*%
X85000000Y-159080000D03*
%TD*%
%TO.P,J25,1,Pin_1*%
%TO.N,/5*%
X85000000Y-151160000D03*
%TD*%
%TO.P,J7,1,Pin_1*%
%TO.N,/E*%
X78000000Y-151160000D03*
%TD*%
%TO.P,J30,1,Pin_1*%
%TO.N,/10*%
X85000000Y-131360000D03*
%TD*%
%TO.P,J31,1,Pin_1*%
%TO.N,/11*%
X85000000Y-127400000D03*
%TD*%
%TO.P,J29,1,Pin_1*%
%TO.N,/9*%
X85000000Y-135320000D03*
%TD*%
%TO.P,J26,1,Pin_1*%
%TO.N,/6*%
X85000000Y-147200000D03*
%TD*%
D11*
%TO.P,J1,A,Pin_A*%
%TO.N,/A*%
X65220000Y-167000000D03*
%TO.P,J1,B,Pin_B*%
%TO.N,/B*%
X65220000Y-163040000D03*
%TO.P,J1,C,Pin_C*%
%TO.N,/C*%
X65220000Y-159080000D03*
%TO.P,J1,D,Pin_D*%
%TO.N,/D*%
X65220000Y-155120000D03*
%TO.P,J1,E,Pin_E*%
%TO.N,/E*%
X65220000Y-151160000D03*
%TO.P,J1,F,Pin_F*%
%TO.N,/F*%
X65220000Y-147200000D03*
%TO.P,J1,H,Pin_H*%
%TO.N,/H*%
X65220000Y-143240000D03*
%TO.P,J1,J,Pin_J*%
%TO.N,/J*%
X65220000Y-139280000D03*
%TO.P,J1,K,Pin_K*%
%TO.N,/K*%
X65220000Y-135320000D03*
%TO.P,J1,L,Pin_L*%
%TO.N,/L*%
X65220000Y-131360000D03*
%TO.P,J1,M,Pin_M*%
%TO.N,/M*%
X65220000Y-127400000D03*
%TO.P,J1,N,Pin_N*%
%TO.N,/N*%
X65220000Y-123440000D03*
%TO.P,J1,P,Pin_P*%
%TO.N,/P*%
X65220000Y-119480000D03*
%TO.P,J1,R,Pin_R*%
%TO.N,/R*%
X65220000Y-115520000D03*
%TO.P,J1,S,Pin_S*%
%TO.N,/S*%
X65220000Y-111560000D03*
%TO.P,J1,T,Pin_T*%
%TO.N,/T*%
X65220000Y-107600000D03*
%TO.P,J1,U,Pin_U*%
%TO.N,/U*%
X65220000Y-103640000D03*
%TO.P,J1,V,Pin_V*%
%TO.N,/V*%
X65220000Y-99680000D03*
%TD*%
D10*
%TO.P,J3,1,Pin_1*%
%TO.N,/A*%
X78000000Y-167000000D03*
%TD*%
%TO.P,J35,1,Pin_1*%
%TO.N,/15*%
X85000000Y-111560000D03*
%TD*%
%TO.P,J12,1,Pin_1*%
%TO.N,/L*%
X78000000Y-131360000D03*
%TD*%
%TO.P,J14,1,Pin_1*%
%TO.N,/N*%
X78000000Y-123440000D03*
%TD*%
%TO.P,J27,1,Pin_1*%
%TO.N,/7*%
X85000000Y-143240000D03*
%TD*%
%TO.P,J16,1,Pin_1*%
%TO.N,/R*%
X78000000Y-115520000D03*
%TD*%
D11*
%TO.P,J2,A,Pin_A*%
%TO.N,/A*%
X354720000Y-167000000D03*
%TO.P,J2,B,Pin_B*%
%TO.N,/B*%
X354720000Y-163040000D03*
%TO.P,J2,C,Pin_C*%
%TO.N,/C*%
X354720000Y-159080000D03*
%TO.P,J2,D,Pin_D*%
%TO.N,/D*%
X354720000Y-155120000D03*
%TO.P,J2,E,Pin_E*%
%TO.N,/E*%
X354720000Y-151160000D03*
%TO.P,J2,F,Pin_F*%
%TO.N,/F*%
X354720000Y-147200000D03*
%TO.P,J2,H,Pin_H*%
%TO.N,/H*%
X354720000Y-143240000D03*
%TO.P,J2,J,Pin_J*%
%TO.N,/J*%
X354720000Y-139280000D03*
%TO.P,J2,K,Pin_K*%
%TO.N,/K*%
X354720000Y-135320000D03*
%TO.P,J2,L,Pin_L*%
%TO.N,/L*%
X354720000Y-131360000D03*
%TO.P,J2,M,Pin_M*%
%TO.N,/M*%
X354720000Y-127400000D03*
%TO.P,J2,N,Pin_N*%
%TO.N,/N*%
X354720000Y-123440000D03*
%TO.P,J2,P,Pin_P*%
%TO.N,/P*%
X354720000Y-119480000D03*
%TO.P,J2,R,Pin_R*%
%TO.N,/R*%
X354720000Y-115520000D03*
%TO.P,J2,S,Pin_S*%
%TO.N,/S*%
X354720000Y-111560000D03*
%TO.P,J2,T,Pin_T*%
%TO.N,/T*%
X354720000Y-107600000D03*
%TO.P,J2,U,Pin_U*%
%TO.N,/U*%
X354720000Y-103640000D03*
%TO.P,J2,V,Pin_V*%
%TO.N,/V*%
X354720000Y-99680000D03*
%TD*%
D10*
%TO.P,J38,1,Pin_1*%
%TO.N,/18*%
X85000000Y-99680000D03*
%TD*%
%TO.P,J20,1,Pin_1*%
%TO.N,/V*%
X78000000Y-99680000D03*
%TD*%
%TO.P,J17,1,Pin_1*%
%TO.N,/S*%
X78000000Y-111560000D03*
%TD*%
%TO.P,J28,1,Pin_1*%
%TO.N,/8*%
X85000000Y-139280000D03*
%TD*%
%TO.P,J32,1,Pin_1*%
%TO.N,/12*%
X85000000Y-123440000D03*
%TD*%
%TO.P,J15,1,Pin_1*%
%TO.N,/P*%
X78000000Y-119480000D03*
%TD*%
%TO.P,J37,1,Pin_1*%
%TO.N,/17*%
X85000000Y-103640000D03*
%TD*%
%TO.P,J4,1,Pin_1*%
%TO.N,/B*%
X78000000Y-163040000D03*
%TD*%
%TO.P,J13,1,Pin_1*%
%TO.N,/M*%
X78000000Y-127400000D03*
%TD*%
%TO.P,J10,1,Pin_1*%
%TO.N,/J*%
X78000000Y-139280000D03*
%TD*%
%TO.P,J36,1,Pin_1*%
%TO.N,/16*%
X85000000Y-107600000D03*
%TD*%
%TO.P,J18,1,Pin_1*%
%TO.N,/T*%
X78000000Y-107600000D03*
%TD*%
%TO.P,J5,1,Pin_1*%
%TO.N,/C*%
X78000000Y-159080000D03*
%TD*%
%TO.P,J22,1,Pin_1*%
%TO.N,/2*%
X85000000Y-163040000D03*
%TD*%
%TO.P,J34,1,Pin_1*%
%TO.N,/14*%
X85000000Y-115520000D03*
%TD*%
%TO.P,J21,1,Pin_1*%
%TO.N,/1*%
X85000000Y-167000000D03*
%TD*%
%TO.P,J24,1,Pin_1*%
%TO.N,/4*%
X85000000Y-155120000D03*
%TD*%
%TO.P,J33,1,Pin_1*%
%TO.N,/13*%
X85000000Y-119480000D03*
%TD*%
%TO.P,J19,1,Pin_1*%
%TO.N,/U*%
X78000000Y-103640000D03*
%TD*%
%TO.P,J11,1,Pin_1*%
%TO.N,/K*%
X78000000Y-135320000D03*
%TD*%
%TO.P,J6,1,Pin_1*%
%TO.N,/D*%
X78000000Y-155120000D03*
%TD*%
D12*
%TO.N,/A*%
X86780000Y-168800000D02*
X79800000Y-168800000D01*
X354720000Y-167000000D02*
X88580000Y-167000000D01*
X88580000Y-167000000D02*
X86780000Y-168800000D01*
X78000000Y-167000000D02*
X65220000Y-167000000D01*
X79800000Y-168800000D02*
X78000000Y-167000000D01*
%TO.N,/U*%
X78000000Y-103640000D02*
X65220000Y-103640000D01*
%TO.N,/T*%
X78000000Y-107600000D02*
X65220000Y-107600000D01*
%TO.N,/S*%
X78000000Y-111560000D02*
X65220000Y-111560000D01*
%TO.N,/R*%
X78000000Y-115520000D02*
X65220000Y-115520000D01*
%TO.N,/P*%
X78000000Y-119480000D02*
X65220000Y-119480000D01*
%TO.N,/N*%
X78000000Y-123440000D02*
X65220000Y-123440000D01*
%TO.N,/M*%
X78000000Y-127400000D02*
X65220000Y-127400000D01*
%TO.N,/L*%
X78000000Y-131360000D02*
X65220000Y-131360000D01*
%TO.N,/K*%
X78000000Y-135320000D02*
X65220000Y-135320000D01*
%TO.N,/J*%
X78000000Y-139280000D02*
X65220000Y-139280000D01*
%TO.N,/H*%
X78000000Y-143240000D02*
X65220000Y-143240000D01*
%TO.N,/F*%
X78000000Y-147200000D02*
X65220000Y-147200000D01*
%TO.N,/E*%
X78000000Y-151160000D02*
X65220000Y-151160000D01*
%TO.N,/D*%
X78000000Y-155120000D02*
X65220000Y-155120000D01*
%TO.N,/C*%
X78000000Y-159080000D02*
X65220000Y-159080000D01*
%TO.N,/B*%
X78000000Y-163040000D02*
X65220000Y-163040000D01*
X354720000Y-163040000D02*
X88600000Y-163040000D01*
X79800000Y-164840000D02*
X78000000Y-163040000D01*
X88600000Y-163040000D02*
X86800000Y-164840000D01*
X86800000Y-164840000D02*
X79800000Y-164840000D01*
%TO.N,/C*%
X354720000Y-159080000D02*
X88600000Y-159080000D01*
X86800000Y-160880000D02*
X79800000Y-160880000D01*
X88600000Y-159080000D02*
X86800000Y-160880000D01*
X79800000Y-160880000D02*
X78000000Y-159080000D01*
%TO.N,/D*%
X354720000Y-155120000D02*
X88600000Y-155120000D01*
X88600000Y-155120000D02*
X86800000Y-156920000D01*
X79800000Y-156920000D02*
X78000000Y-155120000D01*
X86800000Y-156920000D02*
X79800000Y-156920000D01*
%TO.N,/E*%
X354720000Y-151160000D02*
X88600000Y-151160000D01*
X86800000Y-152960000D02*
X79800000Y-152960000D01*
X88600000Y-151160000D02*
X86800000Y-152960000D01*
X79800000Y-152960000D02*
X78000000Y-151160000D01*
%TO.N,/F*%
X354720000Y-147200000D02*
X88600000Y-147200000D01*
X88600000Y-147200000D02*
X86800000Y-149000000D01*
X86800000Y-149000000D02*
X79800000Y-149000000D01*
X79800000Y-149000000D02*
X78000000Y-147200000D01*
%TO.N,/H*%
X354720000Y-143240000D02*
X88600000Y-143240000D01*
X88600000Y-143240000D02*
X86800000Y-145040000D01*
X86800000Y-145040000D02*
X79800000Y-145040000D01*
X79800000Y-145040000D02*
X78000000Y-143240000D01*
%TO.N,/J*%
X354720000Y-139280000D02*
X88600000Y-139280000D01*
X88600000Y-139280000D02*
X86800000Y-141080000D01*
X86800000Y-141080000D02*
X79800000Y-141080000D01*
X79800000Y-141080000D02*
X78000000Y-139280000D01*
%TO.N,/K*%
X354720000Y-135320000D02*
X88600000Y-135320000D01*
X86800000Y-137120000D02*
X79800000Y-137120000D01*
X88600000Y-135320000D02*
X86800000Y-137120000D01*
X79800000Y-137120000D02*
X78000000Y-135320000D01*
%TO.N,/L*%
X354720000Y-131360000D02*
X88600000Y-131360000D01*
X88600000Y-131360000D02*
X86800000Y-133160000D01*
X86800000Y-133160000D02*
X79800000Y-133160000D01*
X79800000Y-133160000D02*
X78000000Y-131360000D01*
%TO.N,/M*%
X354720000Y-127400000D02*
X88600000Y-127400000D01*
X88600000Y-127400000D02*
X86800000Y-129200000D01*
X86800000Y-129200000D02*
X79800000Y-129200000D01*
X79800000Y-129200000D02*
X78000000Y-127400000D01*
%TO.N,/N*%
X354720000Y-123440000D02*
X88600000Y-123440000D01*
X88600000Y-123440000D02*
X86800000Y-125240000D01*
X86800000Y-125240000D02*
X79800000Y-125240000D01*
X79800000Y-125240000D02*
X78000000Y-123440000D01*
%TO.N,/P*%
X354720000Y-119480000D02*
X88600000Y-119480000D01*
X88600000Y-119480000D02*
X86800000Y-121280000D01*
X86800000Y-121280000D02*
X79800000Y-121280000D01*
X79800000Y-121280000D02*
X78000000Y-119480000D01*
%TO.N,/R*%
X354720000Y-115520000D02*
X88600000Y-115520000D01*
X88600000Y-115520000D02*
X86800000Y-117320000D01*
X86800000Y-117320000D02*
X79700000Y-117320000D01*
X79700000Y-117320000D02*
X77900000Y-115520000D01*
%TO.N,/S*%
X354720000Y-111560000D02*
X88600000Y-111560000D01*
X88600000Y-111560000D02*
X86800000Y-113360000D01*
X86800000Y-113360000D02*
X79800000Y-113360000D01*
X79800000Y-113360000D02*
X78000000Y-111560000D01*
%TO.N,/T*%
X354720000Y-107600000D02*
X88370000Y-107600000D01*
X88370000Y-107600000D02*
X86570000Y-109400000D01*
X86570000Y-109400000D02*
X79800000Y-109400000D01*
X79800000Y-109400000D02*
X78000000Y-107600000D01*
%TO.N,/U*%
X354720000Y-103640000D02*
X88600000Y-103640000D01*
X88600000Y-103640000D02*
X86800000Y-105440000D01*
X86800000Y-105440000D02*
X79800000Y-105440000D01*
X79800000Y-105440000D02*
X78000000Y-103640000D01*
%TO.N,/V*%
X354720000Y-99680000D02*
X88600000Y-99680000D01*
X88600000Y-99680000D02*
X86800000Y-101480000D01*
X86800000Y-101480000D02*
X79800000Y-101480000D01*
X79800000Y-101480000D02*
X78000000Y-99680000D01*
X65220000Y-99680000D02*
X78000000Y-99680000D01*
%TD*%
M02*
