%TF.GenerationSoftware,KiCad,Pcbnew,8.0.2*%
%TF.CreationDate,2024-05-25T20:43:41+02:00*%
%TF.ProjectId,Extender_36pin,45787465-6e64-4657-925f-333670696e2e,rev?*%
%TF.SameCoordinates,Original*%
%TF.FileFunction,Copper,L1,Top*%
%TF.FilePolarity,Positive*%
%FSLAX46Y46*%
G04 Gerber Fmt 4.6, Leading zero omitted, Abs format (unit mm)*
G04 Created by KiCad (PCBNEW 8.0.2) date 2024-05-25 20:43:41*
%MOMM*%
%LPD*%
G01*
G04 APERTURE LIST*
%TA.AperFunction,ComponentPad*%
%ADD10R,1.700000X1.700000*%
%TD*%
%TA.AperFunction,SMDPad,CuDef*%
%ADD11R,8.800000X2.600000*%
%TD*%
%TA.AperFunction,Conductor*%
%ADD12C,1.500000*%
%TD*%
G04 APERTURE END LIST*
D10*
%TO.P,J9,1,Pin_1*%
%TO.N,/H*%
X78000000Y-143240000D03*
%TD*%
%TO.P,J8,1,Pin_1*%
%TO.N,/F*%
X78000000Y-147200000D03*
%TD*%
%TO.P,J23,1,Pin_1*%
%TO.N,/3*%
X85000000Y-159080000D03*
%TD*%
%TO.P,J25,1,Pin_1*%
%TO.N,/5*%
X85000000Y-151160000D03*
%TD*%
%TO.P,J7,1,Pin_1*%
%TO.N,/E*%
X78000000Y-151160000D03*
%TD*%
%TO.P,J30,1,Pin_1*%
%TO.N,/10*%
X85000000Y-131360000D03*
%TD*%
%TO.P,J31,1,Pin_1*%
%TO.N,/11*%
X85000000Y-127400000D03*
%TD*%
%TO.P,J29,1,Pin_1*%
%TO.N,/9*%
X85000000Y-135320000D03*
%TD*%
%TO.P,J26,1,Pin_1*%
%TO.N,/6*%
X85000000Y-147200000D03*
%TD*%
D11*
%TO.P,J1,1,Pin_1*%
%TO.N,/1*%
X65220000Y-167000000D03*
%TO.P,J1,2,Pin_2*%
%TO.N,/2*%
X65220000Y-163040000D03*
%TO.P,J1,3,Pin_3*%
%TO.N,/3*%
X65220000Y-159080000D03*
%TO.P,J1,4,Pin_4*%
%TO.N,/4*%
X65220000Y-155120000D03*
%TO.P,J1,5,Pin_5*%
%TO.N,/5*%
X65220000Y-151160000D03*
%TO.P,J1,6,Pin_6*%
%TO.N,/6*%
X65220000Y-147200000D03*
%TO.P,J1,7,Pin_7*%
%TO.N,/7*%
X65220000Y-143240000D03*
%TO.P,J1,8,Pin_8*%
%TO.N,/8*%
X65220000Y-139280000D03*
%TO.P,J1,9,Pin_9*%
%TO.N,/9*%
X65220000Y-135320000D03*
%TO.P,J1,10,Pin_10*%
%TO.N,/10*%
X65220000Y-131360000D03*
%TO.P,J1,11,Pin_11*%
%TO.N,/11*%
X65220000Y-127400000D03*
%TO.P,J1,12,Pin_12*%
%TO.N,/12*%
X65220000Y-123440000D03*
%TO.P,J1,13,Pin_13*%
%TO.N,/13*%
X65220000Y-119480000D03*
%TO.P,J1,14,Pin_14*%
%TO.N,/14*%
X65220000Y-115520000D03*
%TO.P,J1,15,Pin_15*%
%TO.N,/15*%
X65220000Y-111560000D03*
%TO.P,J1,16,Pin_16*%
%TO.N,/16*%
X65220000Y-107600000D03*
%TO.P,J1,17,Pin_17*%
%TO.N,/17*%
X65220000Y-103640000D03*
%TO.P,J1,18,Pin_18*%
%TO.N,/18*%
X65220000Y-99680000D03*
%TD*%
D10*
%TO.P,J3,1,Pin_1*%
%TO.N,/A*%
X78000000Y-167000000D03*
%TD*%
%TO.P,J35,1,Pin_1*%
%TO.N,/15*%
X85000000Y-111560000D03*
%TD*%
%TO.P,J12,1,Pin_1*%
%TO.N,/L*%
X78000000Y-131360000D03*
%TD*%
%TO.P,J14,1,Pin_1*%
%TO.N,/N*%
X78000000Y-123440000D03*
%TD*%
%TO.P,J27,1,Pin_1*%
%TO.N,/7*%
X85000000Y-143240000D03*
%TD*%
%TO.P,J16,1,Pin_1*%
%TO.N,/R*%
X78000000Y-115520000D03*
%TD*%
D11*
%TO.P,J2,1,Pin_1*%
%TO.N,/1*%
X354720000Y-167000000D03*
%TO.P,J2,2,Pin_2*%
%TO.N,/2*%
X354720000Y-163040000D03*
%TO.P,J2,3,Pin_3*%
%TO.N,/3*%
X354720000Y-159080000D03*
%TO.P,J2,4,Pin_4*%
%TO.N,/4*%
X354720000Y-155120000D03*
%TO.P,J2,5,Pin_5*%
%TO.N,/5*%
X354720000Y-151160000D03*
%TO.P,J2,6,Pin_6*%
%TO.N,/6*%
X354720000Y-147200000D03*
%TO.P,J2,7,Pin_7*%
%TO.N,/7*%
X354720000Y-143240000D03*
%TO.P,J2,8,Pin_8*%
%TO.N,/8*%
X354720000Y-139280000D03*
%TO.P,J2,9,Pin_9*%
%TO.N,/9*%
X354720000Y-135320000D03*
%TO.P,J2,10,Pin_10*%
%TO.N,/10*%
X354720000Y-131360000D03*
%TO.P,J2,11,Pin_11*%
%TO.N,/11*%
X354720000Y-127400000D03*
%TO.P,J2,12,Pin_12*%
%TO.N,/12*%
X354720000Y-123440000D03*
%TO.P,J2,13,Pin_13*%
%TO.N,/13*%
X354720000Y-119480000D03*
%TO.P,J2,14,Pin_14*%
%TO.N,/14*%
X354720000Y-115520000D03*
%TO.P,J2,15,Pin_15*%
%TO.N,/15*%
X354720000Y-111560000D03*
%TO.P,J2,16,Pin_16*%
%TO.N,/16*%
X354720000Y-107600000D03*
%TO.P,J2,17,Pin_17*%
%TO.N,/17*%
X354720000Y-103640000D03*
%TO.P,J2,18,Pin_18*%
%TO.N,/18*%
X354720000Y-99680000D03*
%TD*%
D10*
%TO.P,J38,1,Pin_1*%
%TO.N,/18*%
X85000000Y-99680000D03*
%TD*%
%TO.P,J20,1,Pin_1*%
%TO.N,/V*%
X78000000Y-99680000D03*
%TD*%
%TO.P,J17,1,Pin_1*%
%TO.N,/S*%
X78000000Y-111560000D03*
%TD*%
%TO.P,J28,1,Pin_1*%
%TO.N,/8*%
X85000000Y-139280000D03*
%TD*%
%TO.P,J32,1,Pin_1*%
%TO.N,/12*%
X85000000Y-123440000D03*
%TD*%
%TO.P,J15,1,Pin_1*%
%TO.N,/P*%
X78000000Y-119480000D03*
%TD*%
%TO.P,J37,1,Pin_1*%
%TO.N,/17*%
X85000000Y-103640000D03*
%TD*%
%TO.P,J4,1,Pin_1*%
%TO.N,/B*%
X78000000Y-163040000D03*
%TD*%
%TO.P,J13,1,Pin_1*%
%TO.N,/M*%
X78000000Y-127400000D03*
%TD*%
%TO.P,J10,1,Pin_1*%
%TO.N,/J*%
X78000000Y-139280000D03*
%TD*%
%TO.P,J36,1,Pin_1*%
%TO.N,/16*%
X85000000Y-107600000D03*
%TD*%
%TO.P,J18,1,Pin_1*%
%TO.N,/T*%
X78000000Y-107600000D03*
%TD*%
%TO.P,J5,1,Pin_1*%
%TO.N,/C*%
X78000000Y-159080000D03*
%TD*%
%TO.P,J22,1,Pin_1*%
%TO.N,/2*%
X85000000Y-163040000D03*
%TD*%
%TO.P,J34,1,Pin_1*%
%TO.N,/14*%
X85000000Y-115520000D03*
%TD*%
%TO.P,J21,1,Pin_1*%
%TO.N,/1*%
X85000000Y-167000000D03*
%TD*%
%TO.P,J24,1,Pin_1*%
%TO.N,/4*%
X85000000Y-155120000D03*
%TD*%
%TO.P,J33,1,Pin_1*%
%TO.N,/13*%
X85000000Y-119480000D03*
%TD*%
%TO.P,J19,1,Pin_1*%
%TO.N,/U*%
X78000000Y-103640000D03*
%TD*%
%TO.P,J11,1,Pin_1*%
%TO.N,/K*%
X78000000Y-135320000D03*
%TD*%
%TO.P,J6,1,Pin_1*%
%TO.N,/D*%
X78000000Y-155120000D03*
%TD*%
D12*
%TO.N,/1*%
X65220000Y-167000000D02*
X74550000Y-167000000D01*
X74550000Y-167000000D02*
X76350000Y-168800000D01*
X76350000Y-168800000D02*
X83200000Y-168800000D01*
X83200000Y-168800000D02*
X85000000Y-167000000D01*
X354720000Y-167000000D02*
X85000000Y-167000000D01*
%TO.N,/17*%
X85000000Y-103640000D02*
X354720000Y-103640000D01*
%TO.N,/16*%
X354720000Y-107600000D02*
X85000000Y-107600000D01*
%TO.N,/15*%
X85000000Y-111560000D02*
X354720000Y-111560000D01*
%TO.N,/14*%
X354720000Y-115520000D02*
X85000000Y-115520000D01*
%TO.N,/13*%
X85000000Y-119480000D02*
X354720000Y-119480000D01*
%TO.N,/12*%
X354720000Y-123440000D02*
X85000000Y-123440000D01*
%TO.N,/11*%
X85000000Y-127400000D02*
X354720000Y-127400000D01*
%TO.N,/10*%
X354720000Y-131360000D02*
X85000000Y-131360000D01*
X85000000Y-131360000D02*
X83200000Y-133160000D01*
X83200000Y-133160000D02*
X76200000Y-133160000D01*
X74400000Y-131360000D02*
X65220000Y-131360000D01*
X76200000Y-133160000D02*
X74400000Y-131360000D01*
%TO.N,/9*%
X85000000Y-135320000D02*
X354720000Y-135320000D01*
%TO.N,/8*%
X354720000Y-139280000D02*
X85000000Y-139280000D01*
%TO.N,/7*%
X85000000Y-143240000D02*
X354720000Y-143240000D01*
%TO.N,/6*%
X354720000Y-147200000D02*
X85000000Y-147200000D01*
%TO.N,/5*%
X85000000Y-151160000D02*
X354720000Y-151160000D01*
%TO.N,/4*%
X354720000Y-155120000D02*
X85000000Y-155120000D01*
%TO.N,/3*%
X85000000Y-159080000D02*
X354720000Y-159080000D01*
%TO.N,/2*%
X354720000Y-163040000D02*
X85000000Y-163040000D01*
X65220000Y-163040000D02*
X74400000Y-163040000D01*
X74400000Y-163040000D02*
X76200000Y-164840000D01*
X76200000Y-164840000D02*
X83200000Y-164840000D01*
X83200000Y-164840000D02*
X85000000Y-163040000D01*
%TO.N,/3*%
X65220000Y-159080000D02*
X74400000Y-159080000D01*
X74400000Y-159080000D02*
X76200000Y-160880000D01*
X76200000Y-160880000D02*
X83200000Y-160880000D01*
X83200000Y-160880000D02*
X85000000Y-159080000D01*
%TO.N,/4*%
X65220000Y-155120000D02*
X74400000Y-155120000D01*
X74400000Y-155120000D02*
X76200000Y-156920000D01*
X76200000Y-156920000D02*
X83200000Y-156920000D01*
X83200000Y-156920000D02*
X85000000Y-155120000D01*
%TO.N,/5*%
X65220000Y-151160000D02*
X74400000Y-151160000D01*
X74400000Y-151160000D02*
X76200000Y-152960000D01*
X76200000Y-152960000D02*
X83200000Y-152960000D01*
X83200000Y-152960000D02*
X85000000Y-151160000D01*
%TO.N,/6*%
X65220000Y-147200000D02*
X74400000Y-147200000D01*
X83200000Y-149000000D02*
X85000000Y-147200000D01*
X74400000Y-147200000D02*
X76200000Y-149000000D01*
X76200000Y-149000000D02*
X83200000Y-149000000D01*
%TO.N,/7*%
X65220000Y-143240000D02*
X74400000Y-143240000D01*
X76200000Y-145040000D02*
X83200000Y-145040000D01*
X83200000Y-145040000D02*
X85000000Y-143240000D01*
X74400000Y-143240000D02*
X76200000Y-145040000D01*
%TO.N,/8*%
X65220000Y-139280000D02*
X74400000Y-139280000D01*
X76200000Y-141080000D02*
X83200000Y-141080000D01*
X74400000Y-139280000D02*
X76200000Y-141080000D01*
X83200000Y-141080000D02*
X85000000Y-139280000D01*
%TO.N,/9*%
X65220000Y-135320000D02*
X74400000Y-135320000D01*
X74400000Y-135320000D02*
X76200000Y-137120000D01*
X76200000Y-137120000D02*
X83200000Y-137120000D01*
X83200000Y-137120000D02*
X85000000Y-135320000D01*
%TO.N,/11*%
X65220000Y-127400000D02*
X74400000Y-127400000D01*
X74400000Y-127400000D02*
X76200000Y-129200000D01*
X76200000Y-129200000D02*
X83200000Y-129200000D01*
X83200000Y-129200000D02*
X85000000Y-127400000D01*
%TO.N,/12*%
X65220000Y-123440000D02*
X74400000Y-123440000D01*
X83200000Y-125240000D02*
X85000000Y-123440000D01*
X74400000Y-123440000D02*
X76200000Y-125240000D01*
X76200000Y-125240000D02*
X83200000Y-125240000D01*
%TO.N,/13*%
X65220000Y-119480000D02*
X74400000Y-119480000D01*
X76200000Y-121280000D02*
X83200000Y-121280000D01*
X74400000Y-119480000D02*
X76200000Y-121280000D01*
X83200000Y-121280000D02*
X85000000Y-119480000D01*
%TO.N,/14*%
X65220000Y-115520000D02*
X74400000Y-115520000D01*
X74400000Y-115520000D02*
X76200000Y-117320000D01*
X76200000Y-117320000D02*
X83200000Y-117320000D01*
X83200000Y-117320000D02*
X85000000Y-115520000D01*
%TO.N,/15*%
X65220000Y-111560000D02*
X74400000Y-111560000D01*
X74400000Y-111560000D02*
X76200000Y-113360000D01*
X76200000Y-113360000D02*
X83200000Y-113360000D01*
X83200000Y-113360000D02*
X85000000Y-111560000D01*
%TO.N,/16*%
X65220000Y-107600000D02*
X74400000Y-107600000D01*
X74400000Y-107600000D02*
X76200000Y-109400000D01*
X76200000Y-109400000D02*
X83200000Y-109400000D01*
X83200000Y-109400000D02*
X85000000Y-107600000D01*
%TO.N,/18*%
X85000000Y-99680000D02*
X83200000Y-101480000D01*
X83200000Y-101480000D02*
X76310000Y-101480000D01*
X76310000Y-101480000D02*
X74510000Y-99680000D01*
X74510000Y-99680000D02*
X65220000Y-99680000D01*
%TO.N,/17*%
X65220000Y-103640000D02*
X74400000Y-103640000D01*
X74400000Y-103640000D02*
X76200000Y-105440000D01*
X76200000Y-105440000D02*
X83730000Y-105440000D01*
X83730000Y-105440000D02*
X85530000Y-103640000D01*
%TO.N,/18*%
X354720000Y-99680000D02*
X85000000Y-99680000D01*
%TD*%
M02*
