M48
; DRILL file {KiCad 8.0.2} date 2024-05-20T20:21:14+0200
; FORMAT={-:-/ absolute / inch / decimal}
; #@! TF.CreationDate,2024-05-20T20:21:14+02:00
; #@! TF.GenerationSoftware,Kicad,Pcbnew,8.0.2
; #@! TF.FileFunction,Plated,1,2,PTH
FMAT,2
INCH
; #@! TA.AperFunction,Plated,PTH,ComponentDrill
T1C0.0394
%
G90
G05
T1
X2.2614Y-2.6654
X2.2614Y-2.8213
X2.2614Y-2.9772
X2.2614Y-3.1331
X2.2614Y-3.289
X2.2614Y-3.4449
X2.2614Y-3.6008
X2.2614Y-3.7567
X2.2614Y-3.9126
X2.2614Y-4.0685
X2.2614Y-4.2244
X2.2614Y-4.3803
X2.2614Y-4.5362
X2.2614Y-4.6921
X2.2614Y-4.9677
X2.2614Y-5.1236
X2.2614Y-5.2795
X2.2614Y-5.4354
X2.2614Y-5.5913
X2.2614Y-5.7472
X2.2614Y-5.9031
X2.2614Y-6.0591
X2.2614Y-6.215
X2.2614Y-6.3709
X2.2614Y-6.5268
X2.2614Y-6.6827
X2.2614Y-6.8386
X2.2614Y-6.9945
X2.5012Y-2.6654
X2.5012Y-2.8213
X2.5012Y-2.9772
X2.5012Y-3.1331
X2.5012Y-3.289
X2.5012Y-3.4449
X2.5012Y-3.6008
X2.5012Y-3.7567
X2.5012Y-3.9126
X2.5012Y-4.0685
X2.5012Y-4.2244
X2.5012Y-4.3803
X2.5012Y-4.5362
X2.5012Y-4.6921
X2.5012Y-4.9677
X2.5012Y-5.1236
X2.5012Y-5.2795
X2.5012Y-5.4354
X2.5012Y-5.5913
X2.5012Y-5.7472
X2.5012Y-5.9031
X2.5012Y-6.0591
X2.5012Y-6.215
X2.5012Y-6.3709
X2.5012Y-6.5268
X2.5012Y-6.6827
X2.5012Y-6.8386
X2.5012Y-6.9945
M30
