%TF.GenerationSoftware,KiCad,Pcbnew,8.0.2*%
%TF.CreationDate,2024-05-20T20:21:16+02:00*%
%TF.ProjectId,ExtenderNarrow_56pin,45787465-6e64-4657-924e-6172726f775f,rev?*%
%TF.SameCoordinates,Original*%
%TF.FileFunction,Soldermask,Bot*%
%TF.FilePolarity,Negative*%
%FSLAX46Y46*%
G04 Gerber Fmt 4.6, Leading zero omitted, Abs format (unit mm)*
G04 Created by KiCad (PCBNEW 8.0.2) date 2024-05-20 20:21:16*
%MOMM*%
%LPD*%
G01*
G04 APERTURE LIST*
%ADD10C,3.000000*%
%ADD11R,8.800000X2.600000*%
%ADD12R,1.700000X1.700000*%
G04 APERTURE END LIST*
D10*
%TO.C,J57*%
X63810000Y-58280000D03*
X54810000Y-58280000D03*
X63810000Y-187080000D03*
X54810000Y-187080000D03*
D11*
X45110000Y-177660000D03*
X45110000Y-173700000D03*
X45110000Y-169740000D03*
X45110000Y-165780000D03*
X45110000Y-161820000D03*
X45110000Y-157860000D03*
X45110000Y-153900000D03*
X45110000Y-149940000D03*
X45110000Y-145980000D03*
X45110000Y-142020000D03*
X45110000Y-138060000D03*
X45110000Y-134100000D03*
X45110000Y-130140000D03*
X45110000Y-126180000D03*
X45110000Y-119180000D03*
X45110000Y-115220000D03*
X45110000Y-111260000D03*
X45110000Y-107300000D03*
X45110000Y-103340000D03*
X45110000Y-99380000D03*
X45110000Y-95420000D03*
X45110000Y-91460000D03*
X45110000Y-87500000D03*
X45110000Y-83540000D03*
X45110000Y-79580000D03*
X45110000Y-75620000D03*
X45110000Y-71660000D03*
X45110000Y-67700000D03*
%TD*%
%TO.C,J58*%
X335000000Y-177660000D03*
X335000000Y-173700000D03*
X335000000Y-169740000D03*
X335000000Y-165780000D03*
X335000000Y-161820000D03*
X335000000Y-157860000D03*
X335000000Y-153900000D03*
X335000000Y-149940000D03*
X335000000Y-145980000D03*
X335000000Y-142020000D03*
X335000000Y-138060000D03*
X335000000Y-134100000D03*
X335000000Y-130140000D03*
X335000000Y-126180000D03*
X335000000Y-119180000D03*
X335000000Y-115220000D03*
X335000000Y-111260000D03*
X335000000Y-107300000D03*
X335000000Y-103340000D03*
X335000000Y-99380000D03*
X335000000Y-95420000D03*
X335000000Y-91460000D03*
X335000000Y-87500000D03*
X335000000Y-83540000D03*
X335000000Y-79580000D03*
X335000000Y-75620000D03*
X335000000Y-71660000D03*
X335000000Y-67700000D03*
%TD*%
D12*
%TO.C,J12*%
X63530000Y-134100000D03*
%TD*%
%TO.C,J55*%
X57440000Y-71660000D03*
%TD*%
%TO.C,J31*%
X57440000Y-169740000D03*
%TD*%
%TO.C,J41*%
X57440000Y-126180000D03*
%TD*%
%TO.C,J6*%
X63530000Y-157860000D03*
%TD*%
%TO.C,J29*%
X57440000Y-177660000D03*
%TD*%
%TO.C,J5*%
X63530000Y-161820000D03*
%TD*%
%TO.C,J45*%
X57440000Y-111260000D03*
%TD*%
%TO.C,J46*%
X57440000Y-107300000D03*
%TD*%
%TO.C,J1*%
X63530000Y-177660000D03*
%TD*%
%TO.C,J23*%
X63530000Y-87500000D03*
%TD*%
%TO.C,J43*%
X57440000Y-115220000D03*
%TD*%
%TO.C,J20*%
X63530000Y-99380000D03*
%TD*%
%TO.C,J27*%
X63530000Y-71660000D03*
%TD*%
%TO.C,J16*%
X63530000Y-115220000D03*
%TD*%
%TO.C,J36*%
X57440000Y-145980000D03*
%TD*%
%TO.C,J17*%
X63530000Y-111260000D03*
%TD*%
%TO.C,J3*%
X63530000Y-169740000D03*
%TD*%
%TO.C,J24*%
X63530000Y-83540000D03*
%TD*%
%TO.C,J26*%
X63530000Y-75620000D03*
%TD*%
%TO.C,J2*%
X63530000Y-173700000D03*
%TD*%
%TO.C,J15*%
X63530000Y-119180000D03*
%TD*%
%TO.C,J50*%
X57440000Y-91460000D03*
%TD*%
%TO.C,J9*%
X63530000Y-145980000D03*
%TD*%
%TO.C,J42*%
X57440000Y-119180000D03*
%TD*%
%TO.C,J25*%
X63530000Y-79580000D03*
%TD*%
%TO.C,J30*%
X57440000Y-173700000D03*
%TD*%
%TO.C,J8*%
X63530000Y-149940000D03*
%TD*%
%TO.C,J10*%
X63530000Y-142020000D03*
%TD*%
%TO.C,J19*%
X63530000Y-103340000D03*
%TD*%
%TO.C,J4*%
X63530000Y-165780000D03*
%TD*%
%TO.C,J35*%
X57440000Y-149940000D03*
%TD*%
%TO.C,J21*%
X63530000Y-95420000D03*
%TD*%
%TO.C,J48*%
X57440000Y-99380000D03*
%TD*%
%TO.C,J18*%
X63530000Y-107300000D03*
%TD*%
%TO.C,J40*%
X57440000Y-130140000D03*
%TD*%
%TO.C,J32*%
X57440000Y-165780000D03*
%TD*%
%TO.C,J11*%
X63530000Y-138060000D03*
%TD*%
%TO.C,J53*%
X57440000Y-79580000D03*
%TD*%
%TO.C,J14*%
X63530000Y-126180000D03*
%TD*%
%TO.C,J54*%
X57440000Y-75620000D03*
%TD*%
%TO.C,J44*%
X57440000Y-157860000D03*
%TD*%
%TO.C,J39*%
X57440000Y-134100000D03*
%TD*%
%TO.C,J38*%
X57440000Y-138060000D03*
%TD*%
%TO.C,J47*%
X57440000Y-103340000D03*
%TD*%
%TO.C,J22*%
X63530000Y-91460000D03*
%TD*%
%TO.C,J13*%
X63530000Y-130140000D03*
%TD*%
%TO.C,J49*%
X57440000Y-95420000D03*
%TD*%
%TO.C,J34*%
X57440000Y-153900000D03*
%TD*%
%TO.C,J51*%
X57440000Y-87500000D03*
%TD*%
%TO.C,J52*%
X57440000Y-83540000D03*
%TD*%
%TO.C,J7*%
X63530000Y-153900000D03*
%TD*%
%TO.C,J28*%
X63530000Y-67700000D03*
%TD*%
%TO.C,J56*%
X57440000Y-67700000D03*
%TD*%
%TO.C,J37*%
X57440000Y-142020000D03*
%TD*%
%TO.C,J33*%
X57440000Y-161820000D03*
%TD*%
M02*
