%TF.GenerationSoftware,KiCad,Pcbnew,8.0.2*%
%TF.CreationDate,2024-05-20T20:21:16+02:00*%
%TF.ProjectId,ExtenderNarrow_56pin,45787465-6e64-4657-924e-6172726f775f,rev?*%
%TF.SameCoordinates,Original*%
%TF.FileFunction,Copper,L1,Top*%
%TF.FilePolarity,Positive*%
%FSLAX46Y46*%
G04 Gerber Fmt 4.6, Leading zero omitted, Abs format (unit mm)*
G04 Created by KiCad (PCBNEW 8.0.2) date 2024-05-20 20:21:16*
%MOMM*%
%LPD*%
G01*
G04 APERTURE LIST*
%TA.AperFunction,SMDPad,CuDef*%
%ADD10R,8.800000X2.600000*%
%TD*%
%TA.AperFunction,ComponentPad*%
%ADD11R,1.700000X1.700000*%
%TD*%
%TA.AperFunction,Conductor*%
%ADD12C,1.500000*%
%TD*%
G04 APERTURE END LIST*
D10*
%TO.P,J57,1,Pin_1*%
%TO.N,/1*%
X45110000Y-177660000D03*
%TO.P,J57,2,Pin_2*%
%TO.N,/2*%
X45110000Y-173700000D03*
%TO.P,J57,3,Pin_3*%
%TO.N,/3*%
X45110000Y-169740000D03*
%TO.P,J57,4,Pin_4*%
%TO.N,/4*%
X45110000Y-165780000D03*
%TO.P,J57,5,Pin_5*%
%TO.N,/5*%
X45110000Y-161820000D03*
%TO.P,J57,6,Pin_6*%
%TO.N,/6*%
X45110000Y-157860000D03*
%TO.P,J57,7,Pin_7*%
%TO.N,/7*%
X45110000Y-153900000D03*
%TO.P,J57,8,Pin_8*%
%TO.N,/8*%
X45110000Y-149940000D03*
%TO.P,J57,9,Pin_9*%
%TO.N,/9*%
X45110000Y-145980000D03*
%TO.P,J57,10,Pin_10*%
%TO.N,/10*%
X45110000Y-142020000D03*
%TO.P,J57,11,Pin_11*%
%TO.N,/11*%
X45110000Y-138060000D03*
%TO.P,J57,12,Pin_12*%
%TO.N,/12*%
X45110000Y-134100000D03*
%TO.P,J57,13,Pin_13*%
%TO.N,/13*%
X45110000Y-130140000D03*
%TO.P,J57,14,Pin_14*%
%TO.N,/14*%
X45110000Y-126180000D03*
%TO.P,J57,15,Pin_15*%
%TO.N,/15*%
X45110000Y-119180000D03*
%TO.P,J57,16,Pin_16*%
%TO.N,/16*%
X45110000Y-115220000D03*
%TO.P,J57,17,Pin_17*%
%TO.N,/17*%
X45110000Y-111260000D03*
%TO.P,J57,18,Pin_18*%
%TO.N,/18*%
X45110000Y-107300000D03*
%TO.P,J57,19,Pin_19*%
%TO.N,/19*%
X45110000Y-103340000D03*
%TO.P,J57,20,Pin_20*%
%TO.N,/20*%
X45110000Y-99380000D03*
%TO.P,J57,21,Pin_21*%
%TO.N,/21*%
X45110000Y-95420000D03*
%TO.P,J57,22,Pin_22*%
%TO.N,/22*%
X45110000Y-91460000D03*
%TO.P,J57,23,Pin_23*%
%TO.N,/23*%
X45110000Y-87500000D03*
%TO.P,J57,24,Pin_24*%
%TO.N,/24*%
X45110000Y-83540000D03*
%TO.P,J57,25,Pin_25*%
%TO.N,/25*%
X45110000Y-79580000D03*
%TO.P,J57,26,Pin_26*%
%TO.N,/26*%
X45110000Y-75620000D03*
%TO.P,J57,27,Pin_27*%
%TO.N,/27*%
X45110000Y-71660000D03*
%TO.P,J57,28,Pin_28*%
%TO.N,/28*%
X45110000Y-67700000D03*
%TD*%
%TO.P,J58,1,Pin_1*%
%TO.N,/1*%
X335000000Y-177660000D03*
%TO.P,J58,2,Pin_2*%
%TO.N,/2*%
X335000000Y-173700000D03*
%TO.P,J58,3,Pin_3*%
%TO.N,/3*%
X335000000Y-169740000D03*
%TO.P,J58,4,Pin_4*%
%TO.N,/4*%
X335000000Y-165780000D03*
%TO.P,J58,5,Pin_5*%
%TO.N,/5*%
X335000000Y-161820000D03*
%TO.P,J58,6,Pin_6*%
%TO.N,/6*%
X335000000Y-157860000D03*
%TO.P,J58,7,Pin_7*%
%TO.N,/7*%
X335000000Y-153900000D03*
%TO.P,J58,8,Pin_8*%
%TO.N,/8*%
X335000000Y-149940000D03*
%TO.P,J58,9,Pin_9*%
%TO.N,/9*%
X335000000Y-145980000D03*
%TO.P,J58,10,Pin_10*%
%TO.N,/10*%
X335000000Y-142020000D03*
%TO.P,J58,11,Pin_11*%
%TO.N,/11*%
X335000000Y-138060000D03*
%TO.P,J58,12,Pin_12*%
%TO.N,/12*%
X335000000Y-134100000D03*
%TO.P,J58,13,Pin_13*%
%TO.N,/13*%
X335000000Y-130140000D03*
%TO.P,J58,14,Pin_14*%
%TO.N,/14*%
X335000000Y-126180000D03*
%TO.P,J58,15,Pin_15*%
%TO.N,/15*%
X335000000Y-119180000D03*
%TO.P,J58,16,Pin_16*%
%TO.N,/16*%
X335000000Y-115220000D03*
%TO.P,J58,17,Pin_17*%
%TO.N,/17*%
X335000000Y-111260000D03*
%TO.P,J58,18,Pin_18*%
%TO.N,/18*%
X335000000Y-107300000D03*
%TO.P,J58,19,Pin_19*%
%TO.N,/19*%
X335000000Y-103340000D03*
%TO.P,J58,20,Pin_20*%
%TO.N,/20*%
X335000000Y-99380000D03*
%TO.P,J58,21,Pin_21*%
%TO.N,/21*%
X335000000Y-95420000D03*
%TO.P,J58,22,Pin_22*%
%TO.N,/22*%
X335000000Y-91460000D03*
%TO.P,J58,23,Pin_23*%
%TO.N,/23*%
X335000000Y-87500000D03*
%TO.P,J58,24,Pin_24*%
%TO.N,/24*%
X335000000Y-83540000D03*
%TO.P,J58,25,Pin_25*%
%TO.N,/25*%
X335000000Y-79580000D03*
%TO.P,J58,26,Pin_26*%
%TO.N,/26*%
X335000000Y-75620000D03*
%TO.P,J58,27,Pin_27*%
%TO.N,/27*%
X335000000Y-71660000D03*
%TO.P,J58,28,Pin_28*%
%TO.N,/28*%
X335000000Y-67700000D03*
%TD*%
D11*
%TO.P,J12,1,Pin_1*%
%TO.N,/N*%
X63530000Y-134100000D03*
%TD*%
%TO.P,J55,1,Pin_1*%
%TO.N,/27*%
X57440000Y-71660000D03*
%TD*%
%TO.P,J31,1,Pin_1*%
%TO.N,/3*%
X57440000Y-169740000D03*
%TD*%
%TO.P,J41,1,Pin_1*%
%TO.N,/14*%
X57440000Y-126180000D03*
%TD*%
%TO.P,J6,1,Pin_1*%
%TO.N,/F*%
X63530000Y-157860000D03*
%TD*%
%TO.P,J29,1,Pin_1*%
%TO.N,/1*%
X57440000Y-177660000D03*
%TD*%
%TO.P,J5,1,Pin_1*%
%TO.N,/E*%
X63530000Y-161820000D03*
%TD*%
%TO.P,J45,1,Pin_1*%
%TO.N,/17*%
X57440000Y-111260000D03*
%TD*%
%TO.P,J46,1,Pin_1*%
%TO.N,/18*%
X57440000Y-107300000D03*
%TD*%
%TO.P,J1,1,Pin_1*%
%TO.N,/A*%
X63530000Y-177660000D03*
%TD*%
%TO.P,J23,1,Pin_1*%
%TO.N,/~{A}*%
X63530000Y-87500000D03*
%TD*%
%TO.P,J43,1,Pin_1*%
%TO.N,/16*%
X57440000Y-115220000D03*
%TD*%
%TO.P,J20,1,Pin_1*%
%TO.N,/X*%
X63530000Y-99380000D03*
%TD*%
%TO.P,J27,1,Pin_1*%
%TO.N,/~{E}*%
X63530000Y-71660000D03*
%TD*%
%TO.P,J16,1,Pin_1*%
%TO.N,/T*%
X63530000Y-115220000D03*
%TD*%
%TO.P,J36,1,Pin_1*%
%TO.N,/9*%
X57440000Y-145980000D03*
%TD*%
%TO.P,J17,1,Pin_1*%
%TO.N,/U*%
X63530000Y-111260000D03*
%TD*%
%TO.P,J3,1,Pin_1*%
%TO.N,/C*%
X63530000Y-169740000D03*
%TD*%
%TO.P,J24,1,Pin_1*%
%TO.N,/~{B}*%
X63530000Y-83540000D03*
%TD*%
%TO.P,J26,1,Pin_1*%
%TO.N,/~{D}*%
X63530000Y-75620000D03*
%TD*%
%TO.P,J2,1,Pin_1*%
%TO.N,/B*%
X63530000Y-173700000D03*
%TD*%
%TO.P,J15,1,Pin_1*%
%TO.N,/S*%
X63530000Y-119180000D03*
%TD*%
%TO.P,J50,1,Pin_1*%
%TO.N,/22*%
X57440000Y-91460000D03*
%TD*%
%TO.P,J9,1,Pin_1*%
%TO.N,/K*%
X63530000Y-145980000D03*
%TD*%
%TO.P,J42,1,Pin_1*%
%TO.N,/15*%
X57440000Y-119180000D03*
%TD*%
%TO.P,J25,1,Pin_1*%
%TO.N,/~{C}*%
X63530000Y-79580000D03*
%TD*%
%TO.P,J30,1,Pin_1*%
%TO.N,/2*%
X57440000Y-173700000D03*
%TD*%
%TO.P,J8,1,Pin_1*%
%TO.N,/J*%
X63530000Y-149940000D03*
%TD*%
%TO.P,J10,1,Pin_1*%
%TO.N,/L*%
X63530000Y-142020000D03*
%TD*%
%TO.P,J19,1,Pin_1*%
%TO.N,/W*%
X63530000Y-103340000D03*
%TD*%
%TO.P,J4,1,Pin_1*%
%TO.N,/D*%
X63530000Y-165780000D03*
%TD*%
%TO.P,J35,1,Pin_1*%
%TO.N,/8*%
X57440000Y-149940000D03*
%TD*%
%TO.P,J21,1,Pin_1*%
%TO.N,/Y*%
X63530000Y-95420000D03*
%TD*%
%TO.P,J48,1,Pin_1*%
%TO.N,/20*%
X57440000Y-99380000D03*
%TD*%
%TO.P,J18,1,Pin_1*%
%TO.N,/V*%
X63530000Y-107300000D03*
%TD*%
%TO.P,J40,1,Pin_1*%
%TO.N,/13*%
X57440000Y-130140000D03*
%TD*%
%TO.P,J32,1,Pin_1*%
%TO.N,/4*%
X57440000Y-165780000D03*
%TD*%
%TO.P,J11,1,Pin_1*%
%TO.N,/M*%
X63530000Y-138060000D03*
%TD*%
%TO.P,J53,1,Pin_1*%
%TO.N,/25*%
X57440000Y-79580000D03*
%TD*%
%TO.P,J14,1,Pin_1*%
%TO.N,/R*%
X63530000Y-126180000D03*
%TD*%
%TO.P,J54,1,Pin_1*%
%TO.N,/26*%
X57440000Y-75620000D03*
%TD*%
%TO.P,J44,1,Pin_1*%
%TO.N,/6*%
X57440000Y-157860000D03*
%TD*%
%TO.P,J39,1,Pin_1*%
%TO.N,/12*%
X57440000Y-134100000D03*
%TD*%
%TO.P,J38,1,Pin_1*%
%TO.N,/11*%
X57440000Y-138060000D03*
%TD*%
%TO.P,J47,1,Pin_1*%
%TO.N,/19*%
X57440000Y-103340000D03*
%TD*%
%TO.P,J22,1,Pin_1*%
%TO.N,/Z*%
X63530000Y-91460000D03*
%TD*%
%TO.P,J13,1,Pin_1*%
%TO.N,/P*%
X63530000Y-130140000D03*
%TD*%
%TO.P,J49,1,Pin_1*%
%TO.N,/21*%
X57440000Y-95420000D03*
%TD*%
%TO.P,J34,1,Pin_1*%
%TO.N,/7*%
X57440000Y-153900000D03*
%TD*%
%TO.P,J51,1,Pin_1*%
%TO.N,/23*%
X57440000Y-87500000D03*
%TD*%
%TO.P,J52,1,Pin_1*%
%TO.N,/24*%
X57440000Y-83540000D03*
%TD*%
%TO.P,J7,1,Pin_1*%
%TO.N,/H*%
X63530000Y-153900000D03*
%TD*%
%TO.P,J28,1,Pin_1*%
%TO.N,/~{F}*%
X63530000Y-67700000D03*
%TD*%
%TO.P,J56,1,Pin_1*%
%TO.N,/28*%
X57440000Y-67700000D03*
%TD*%
%TO.P,J37,1,Pin_1*%
%TO.N,/10*%
X57440000Y-142020000D03*
%TD*%
%TO.P,J33,1,Pin_1*%
%TO.N,/5*%
X57440000Y-161820000D03*
%TD*%
D12*
%TO.N,/1*%
X59240000Y-179460000D02*
X57440000Y-177660000D01*
X65110000Y-179460000D02*
X59240000Y-179460000D01*
X45110000Y-177660000D02*
X57440000Y-177660000D01*
X335000000Y-177660000D02*
X66910000Y-177660000D01*
X66910000Y-177660000D02*
X65110000Y-179460000D01*
%TO.N,/2*%
X335000000Y-173700000D02*
X67130000Y-173700000D01*
X67130000Y-173700000D02*
X65330000Y-175500000D01*
X45110000Y-173700000D02*
X57440000Y-173700000D01*
X65330000Y-175500000D02*
X59240000Y-175500000D01*
X59240000Y-175500000D02*
X57440000Y-173700000D01*
%TO.N,/3*%
X59240000Y-171540000D02*
X57440000Y-169740000D01*
X335000000Y-169740000D02*
X67130000Y-169740000D01*
X65330000Y-171540000D02*
X59240000Y-171540000D01*
X67130000Y-169740000D02*
X65330000Y-171540000D01*
X45110000Y-169740000D02*
X57440000Y-169740000D01*
%TO.N,/4*%
X335000000Y-165780000D02*
X67110000Y-165780000D01*
X45110000Y-165780000D02*
X57440000Y-165780000D01*
X67110000Y-165780000D02*
X65310000Y-167580000D01*
X65310000Y-167580000D02*
X59240000Y-167580000D01*
X59240000Y-167580000D02*
X57440000Y-165780000D01*
%TO.N,/5*%
X45110000Y-161820000D02*
X57440000Y-161820000D01*
X59240000Y-163620000D02*
X57440000Y-161820000D01*
X65330000Y-163620000D02*
X59240000Y-163620000D01*
X67130000Y-161820000D02*
X65330000Y-163620000D01*
X335000000Y-161820000D02*
X67130000Y-161820000D01*
%TO.N,/7*%
X67130000Y-153900000D02*
X65330000Y-155700000D01*
X65330000Y-155700000D02*
X59240000Y-155700000D01*
X335000000Y-153900000D02*
X67130000Y-153900000D01*
X59240000Y-155700000D02*
X57440000Y-153900000D01*
X45110000Y-153900000D02*
X57440000Y-153900000D01*
%TO.N,/8*%
X67130000Y-149940000D02*
X65330000Y-151740000D01*
X59240000Y-151740000D02*
X57440000Y-149940000D01*
X65330000Y-151740000D02*
X59240000Y-151740000D01*
X335000000Y-149940000D02*
X67130000Y-149940000D01*
X45110000Y-149940000D02*
X57440000Y-149940000D01*
%TO.N,/9*%
X335000000Y-145980000D02*
X67130000Y-145980000D01*
X45110000Y-145980000D02*
X57440000Y-145980000D01*
X67130000Y-145980000D02*
X65330000Y-147780000D01*
X59240000Y-147780000D02*
X57440000Y-145980000D01*
X65330000Y-147780000D02*
X59240000Y-147780000D01*
%TO.N,/10*%
X65120000Y-144030000D02*
X59450000Y-144030000D01*
X335000000Y-142020000D02*
X67130000Y-142020000D01*
X67130000Y-142020000D02*
X65120000Y-144030000D01*
X45110000Y-142020000D02*
X57440000Y-142020000D01*
X59450000Y-144030000D02*
X57440000Y-142020000D01*
%TO.N,/11*%
X59240000Y-139860000D02*
X57440000Y-138060000D01*
X67130000Y-138060000D02*
X65330000Y-139860000D01*
X65330000Y-139860000D02*
X59240000Y-139860000D01*
X335000000Y-138060000D02*
X67130000Y-138060000D01*
X45110000Y-138060000D02*
X57440000Y-138060000D01*
%TO.N,/12*%
X45110000Y-134100000D02*
X57440000Y-134100000D01*
X59240000Y-135900000D02*
X57440000Y-134100000D01*
X335000000Y-134100000D02*
X67130000Y-134100000D01*
X65330000Y-135900000D02*
X59240000Y-135900000D01*
X67130000Y-134100000D02*
X65330000Y-135900000D01*
%TO.N,/13*%
X335000000Y-130140000D02*
X67130000Y-130140000D01*
X67130000Y-130140000D02*
X65330000Y-131940000D01*
X59240000Y-131940000D02*
X57440000Y-130140000D01*
X65330000Y-131940000D02*
X59240000Y-131940000D01*
X45110000Y-130140000D02*
X57440000Y-130140000D01*
%TO.N,/14*%
X67130000Y-126180000D02*
X65330000Y-127980000D01*
X59240000Y-127980000D02*
X57440000Y-126180000D01*
X45110000Y-126180000D02*
X57440000Y-126180000D01*
X65330000Y-127980000D02*
X59240000Y-127980000D01*
X335000000Y-126180000D02*
X67130000Y-126180000D01*
%TO.N,/15*%
X335000000Y-119180000D02*
X67130000Y-119180000D01*
X59260000Y-121000000D02*
X57440000Y-119180000D01*
X45110000Y-119180000D02*
X57440000Y-119180000D01*
X65310000Y-121000000D02*
X59260000Y-121000000D01*
X67130000Y-119180000D02*
X65310000Y-121000000D01*
%TO.N,/16*%
X45110000Y-115220000D02*
X57440000Y-115220000D01*
X65330000Y-117020000D02*
X61020000Y-117020000D01*
X59220000Y-117000000D02*
X57440000Y-115220000D01*
X61020000Y-117020000D02*
X61000000Y-117000000D01*
X67130000Y-115220000D02*
X65330000Y-117020000D01*
X61000000Y-117000000D02*
X59220000Y-117000000D01*
X335000000Y-115220000D02*
X67130000Y-115220000D01*
%TO.N,/6*%
X67130000Y-157860000D02*
X65330000Y-159660000D01*
X335000000Y-157860000D02*
X67130000Y-157860000D01*
X59240000Y-159660000D02*
X57440000Y-157860000D01*
X45110000Y-157860000D02*
X57440000Y-157860000D01*
X65330000Y-159660000D02*
X59240000Y-159660000D01*
%TO.N,/17*%
X45110000Y-111260000D02*
X57440000Y-111260000D01*
X335000000Y-111260000D02*
X67490000Y-111260000D01*
X65650000Y-113100000D02*
X59280000Y-113100000D01*
X59280000Y-113100000D02*
X57440000Y-111260000D01*
X67490000Y-111260000D02*
X65650000Y-113100000D01*
%TO.N,/18*%
X67130000Y-107300000D02*
X65330000Y-109100000D01*
X45110000Y-107300000D02*
X57440000Y-107300000D01*
X65330000Y-109100000D02*
X59240000Y-109100000D01*
X59240000Y-109100000D02*
X57440000Y-107300000D01*
X335000000Y-107300000D02*
X67130000Y-107300000D01*
%TO.N,/19*%
X335000000Y-103340000D02*
X67130000Y-103340000D01*
X59600000Y-105500000D02*
X57440000Y-103340000D01*
X45110000Y-103340000D02*
X57440000Y-103340000D01*
X64970000Y-105500000D02*
X59600000Y-105500000D01*
X67130000Y-103340000D02*
X64970000Y-105500000D01*
%TO.N,/20*%
X335000000Y-99380000D02*
X67130000Y-99380000D01*
X65310000Y-101200000D02*
X59260000Y-101200000D01*
X45110000Y-99380000D02*
X57440000Y-99380000D01*
X67130000Y-99380000D02*
X65310000Y-101200000D01*
X59260000Y-101200000D02*
X57440000Y-99380000D01*
%TO.N,/21*%
X59320000Y-97220000D02*
X57520000Y-95420000D01*
X65330000Y-97220000D02*
X59320000Y-97220000D01*
X335000000Y-95420000D02*
X67130000Y-95420000D01*
X57520000Y-95420000D02*
X57440000Y-95420000D01*
X45110000Y-95420000D02*
X57440000Y-95420000D01*
X67130000Y-95420000D02*
X65330000Y-97220000D01*
%TO.N,/22*%
X45110000Y-91460000D02*
X57440000Y-91460000D01*
X335000000Y-91460000D02*
X67130000Y-91460000D01*
X59260000Y-93260000D02*
X57460000Y-91460000D01*
X57460000Y-91460000D02*
X57440000Y-91460000D01*
X65330000Y-93260000D02*
X59260000Y-93260000D01*
X67130000Y-91460000D02*
X65330000Y-93260000D01*
%TO.N,/23*%
X65400000Y-89300000D02*
X59240000Y-89300000D01*
X335000000Y-87500000D02*
X67200000Y-87500000D01*
X59240000Y-89300000D02*
X57440000Y-87500000D01*
X67200000Y-87500000D02*
X65400000Y-89300000D01*
X45110000Y-87500000D02*
X57440000Y-87500000D01*
%TO.N,/24*%
X45110000Y-83540000D02*
X57440000Y-83540000D01*
X59240000Y-85340000D02*
X57440000Y-83540000D01*
X65330000Y-85340000D02*
X59240000Y-85340000D01*
X335000000Y-83540000D02*
X67130000Y-83540000D01*
X67130000Y-83540000D02*
X65330000Y-85340000D01*
%TO.N,/25*%
X67130000Y-79580000D02*
X65330000Y-81380000D01*
X45110000Y-79580000D02*
X57440000Y-79580000D01*
X335000000Y-79580000D02*
X67130000Y-79580000D01*
X65330000Y-81380000D02*
X59240000Y-81380000D01*
X59240000Y-81380000D02*
X57440000Y-79580000D01*
%TO.N,/26*%
X59240000Y-77420000D02*
X57440000Y-75620000D01*
X67130000Y-75620000D02*
X65330000Y-77420000D01*
X65330000Y-77420000D02*
X59240000Y-77420000D01*
X335000000Y-75620000D02*
X67130000Y-75620000D01*
X45110000Y-75620000D02*
X57440000Y-75620000D01*
%TO.N,/27*%
X67260000Y-71660000D02*
X335000000Y-71660000D01*
X59240000Y-73460000D02*
X65340000Y-73460000D01*
X65340000Y-73460000D02*
X67200000Y-71600000D01*
X57440000Y-71660000D02*
X59240000Y-73460000D01*
X67200000Y-71600000D02*
X67260000Y-71660000D01*
X45110000Y-71660000D02*
X57440000Y-71660000D01*
%TO.N,/28*%
X67400000Y-67700000D02*
X335000000Y-67700000D01*
X65600000Y-69500000D02*
X67400000Y-67700000D01*
X57440000Y-67700000D02*
X59240000Y-69500000D01*
X59240000Y-69500000D02*
X65600000Y-69500000D01*
X45110000Y-67700000D02*
X57440000Y-67700000D01*
%TD*%
M02*
